<svg xmlns="http://www.w3.org/2000/svg" viewBox="0 0 461.78 1157.46"><defs><style>.cls-1{fill:none;stroke:#000;stroke-linecap:round;stroke-linejoin:round;stroke-width:3px;}</style></defs><title>Asset 2alK</title><g id="Layer_2" data-name="Layer 2"><g id="Make2D::Visible::Curves"><line class="cls-1" x1="258.69" y1="1155.96" x2="258.69" y2="1029.6"/><line class="cls-1" x1="328.75" y1="1155.96" x2="328.75" y2="989.47"/><line class="cls-1" x1="161.38" y1="957.36" x2="161.38" y2="1155.96"/><line class="cls-1" x1="425.53" y1="867.54" x2="425.53" y2="1155.96"/><line class="cls-1" x1="64.06" y1="1155.96" x2="64.06" y2="1076.24"/><line class="cls-1" x1="328.2" y1="214.21" x2="300.4" y2="230.26"/><line class="cls-1" x1="286.5" y1="222.23" x2="286.5" y2="238.29"/><line class="cls-1" x1="300.4" y1="230.26" x2="300.4" y2="246.31"/><line class="cls-1" x1="286.5" y1="238.29" x2="300.4" y2="246.31"/><line class="cls-1" x1="300.4" y1="246.31" x2="328.2" y2="230.26"/><line class="cls-1" x1="429.16" y1="672.31" x2="422.62" y2="676.09"/><polyline class="cls-1" points="429.16 688.37 444.21 678.74 440.28 678.74 440.28 678.74"/><polyline class="cls-1" points="443.69 757.03 428.34 765.89 429.16 752.58 444.21 742.95"/><line class="cls-1" x1="429.16" y1="752.58" x2="425.53" y2="754.56"/><polyline class="cls-1" points="428.34 765.89 442.25 773.92 457.39 765.18"/><line class="cls-1" x1="425.53" y1="767.52" x2="428.34" y2="765.89"/><line class="cls-1" x1="425.53" y1="783.57" x2="442.25" y2="773.92"/><polyline class="cls-1" points="425.53 834.66 444.32 824.75 442.25 773.92"/><polyline class="cls-1" points="429.16 685.15 429.16 672.32 426.38 670.71 419.84 674.48"/><polyline class="cls-1" points="429.69 849.09 429.59 865.2 425.53 867.55"/><polyline class="cls-1" points="429.69 849.09 443.49 841.12 444.32 824.75 457.39 817.04 457.39 765.18 443.69 757.03 444.21 742.95 444.21 694.79 444.21 678.74 440.28 676.22"/><line class="cls-1" x1="425.53" y1="851.49" x2="429.69" y2="849.09"/><line class="cls-1" x1="425.53" y1="804.85" x2="425.53" y2="867.54"/><line class="cls-1" x1="425.53" y1="804.85" x2="161.38" y2="957.36"/><line class="cls-1" x1="161.38" y1="957.36" x2="94.95" y2="919.01"/><line class="cls-1" x1="328.75" y1="727.68" x2="314.85" y2="735.71"/><line class="cls-1" x1="328.75" y1="679.52" x2="328.75" y2="727.68"/><line class="cls-1" x1="314.85" y1="687.54" x2="328.75" y2="679.52"/><line class="cls-1" x1="314.85" y1="735.71" x2="314.85" y2="687.54"/><line class="cls-1" x1="312.06" y1="685.94" x2="325.97" y2="677.91"/><line class="cls-1" x1="312.06" y1="734.1" x2="312.06" y2="685.94"/><line class="cls-1" x1="300.95" y1="851.35" x2="298.16" y2="849.74"/><line class="cls-1" x1="314.85" y1="859.37" x2="300.95" y2="867.4"/><line class="cls-1" x1="314.85" y1="843.32" x2="314.85" y2="859.37"/><line class="cls-1" x1="300.95" y1="851.35" x2="314.85" y2="843.32"/><line class="cls-1" x1="300.95" y1="867.4" x2="300.95" y2="851.35"/><line class="cls-1" x1="298.16" y1="849.74" x2="312.06" y2="841.72"/><line class="cls-1" x1="298.16" y1="865.8" x2="298.16" y2="849.74"/><line class="cls-1" x1="328.75" y1="923.2" x2="325.97" y2="921.6"/><line class="cls-1" x1="328.75" y1="939.25" x2="314.85" y2="947.28"/><line class="cls-1" x1="314.85" y1="931.23" x2="328.75" y2="923.2"/><line class="cls-1" x1="314.85" y1="947.28" x2="314.85" y2="931.23"/><line class="cls-1" x1="328.75" y1="399.13" x2="314.85" y2="407.16"/><line class="cls-1" x1="328.75" y1="383.08" x2="328.75" y2="399.13"/><line class="cls-1" x1="314.85" y1="391.11" x2="328.75" y2="383.08"/><line class="cls-1" x1="314.85" y1="407.16" x2="314.85" y2="391.11"/><line class="cls-1" x1="287.04" y1="423.21" x2="273.14" y2="431.24"/><line class="cls-1" x1="287.04" y1="407.16" x2="287.04" y2="423.21"/><line class="cls-1" x1="273.14" y1="415.18" x2="287.04" y2="407.16"/><line class="cls-1" x1="273.14" y1="431.24" x2="273.14" y2="415.18"/><line class="cls-1" x1="270.36" y1="429.63" x2="270.36" y2="413.58"/><line class="cls-1" x1="269.32" y1="526.71" x2="269.32" y2="542.76"/><line class="cls-1" x1="255.42" y1="534.74" x2="269.32" y2="526.71"/><line class="cls-1" x1="255.42" y1="550.79" x2="255.42" y2="534.74"/><line class="cls-1" x1="252.64" y1="533.13" x2="266.54" y2="525.1"/><line class="cls-1" x1="287.04" y1="754.45" x2="287.04" y2="770.5"/><line class="cls-1" x1="259.24" y1="770.5" x2="287.04" y2="754.45"/><line class="cls-1" x1="259.24" y1="786.56" x2="259.24" y2="770.5"/><line class="cls-1" x1="256.46" y1="784.95" x2="256.46" y2="768.9"/><line class="cls-1" x1="237.84" y1="186.11" x2="154.44" y2="137.96"/><line class="cls-1" x1="223.94" y1="194.14" x2="140.52" y2="145.98"/><line class="cls-1" x1="223.94" y1="210.19" x2="140.52" y2="162.03"/><line class="cls-1" x1="335.16" y1="178.09" x2="335.16" y2="145.98"/><line class="cls-1" x1="335.16" y1="145.98" x2="362.96" y2="129.93"/><line class="cls-1" x1="265.65" y1="218.22" x2="265.65" y2="186.11"/><line class="cls-1" x1="265.65" y1="186.11" x2="293.45" y2="170.06"/><line class="cls-1" x1="293.45" y1="137.96" x2="307.36" y2="145.98"/><line class="cls-1" x1="307.36" y1="145.98" x2="251.74" y2="178.09"/><line class="cls-1" x1="376.87" y1="105.85" x2="321.25" y2="137.96"/><line class="cls-1" x1="321.25" y1="202.17" x2="349.06" y2="186.11"/><line class="cls-1" x1="321.25" y1="170.06" x2="321.25" y2="202.17"/><line class="cls-1" x1="307.36" y1="210.19" x2="307.36" y2="178.09"/><line class="cls-1" x1="251.74" y1="242.3" x2="307.36" y2="210.19"/><line class="cls-1" x1="251.74" y1="210.19" x2="251.74" y2="242.3"/><line class="cls-1" x1="293.45" y1="137.96" x2="237.84" y2="170.06"/><line class="cls-1" x1="349.06" y1="105.85" x2="307.36" y2="129.93"/><line class="cls-1" x1="342.65" y1="439.26" x2="328.75" y2="447.29"/><line class="cls-1" x1="342.65" y1="423.21" x2="342.65" y2="439.26"/><line class="cls-1" x1="328.75" y1="431.24" x2="342.65" y2="423.21"/><line class="cls-1" x1="328.75" y1="447.29" x2="328.75" y2="431.24"/><line class="cls-1" x1="325.97" y1="429.63" x2="339.87" y2="421.61"/><line class="cls-1" x1="325.97" y1="445.69" x2="325.97" y2="429.63"/><line class="cls-1" x1="342.65" y1="471.37" x2="328.75" y2="479.39"/><line class="cls-1" x1="342.65" y1="439.26" x2="342.65" y2="471.37"/><line class="cls-1" x1="328.75" y1="479.39" x2="328.75" y2="447.29"/><line class="cls-1" x1="325.97" y1="445.69" x2="328.76" y2="444.07"/><line class="cls-1" x1="300.95" y1="543.61" x2="298.16" y2="542.01"/><line class="cls-1" x1="300.95" y1="559.66" x2="287.04" y2="567.69"/><line class="cls-1" x1="300.95" y1="543.61" x2="300.95" y2="559.66"/><line class="cls-1" x1="287.04" y1="551.63" x2="300.95" y2="543.61"/><line class="cls-1" x1="287.04" y1="567.69" x2="287.04" y2="551.63"/><line class="cls-1" x1="284.26" y1="550.03" x2="298.16" y2="542.01"/><line class="cls-1" x1="342.65" y1="567.69" x2="342.65" y2="583.74"/><line class="cls-1" x1="328.75" y1="575.71" x2="342.65" y2="567.69"/><line class="cls-1" x1="328.75" y1="591.77" x2="328.75" y2="575.71"/><line class="cls-1" x1="325.97" y1="574.11" x2="339.87" y2="566.09"/><line class="cls-1" x1="300.95" y1="463.34" x2="287.04" y2="471.37"/><line class="cls-1" x1="300.95" y1="415.18" x2="300.95" y2="463.34"/><line class="cls-1" x1="287.04" y1="471.37" x2="287.04" y2="423.21"/><line class="cls-1" x1="140.52" y1="210.19" x2="168.33" y2="226.24"/><line class="cls-1" x1="168.33" y1="178.09" x2="168.33" y2="226.24"/><line class="cls-1" x1="223.94" y1="338.62" x2="223.94" y2="322.57"/><line class="cls-1" x1="210.03" y1="314.54" x2="210.03" y2="346.64"/><line class="cls-1" x1="182.23" y1="298.49" x2="182.23" y2="330.59"/><line class="cls-1" x1="182.23" y1="330.59" x2="210.03" y2="346.64"/><line class="cls-1" x1="265.64" y1="330.59" x2="251.74" y2="338.62"/><line class="cls-1" x1="251.74" y1="338.62" x2="237.84" y2="330.59"/><line class="cls-1" x1="251.74" y1="338.62" x2="251.74" y2="322.56"/><line class="cls-1" x1="237.84" y1="105.85" x2="168.33" y2="65.72"/><line class="cls-1" x1="251.74" y1="81.77" x2="182.23" y2="41.64"/><line class="cls-1" x1="251.74" y1="81.77" x2="321.25" y2="41.64"/><line class="cls-1" x1="321.25" y1="41.64" x2="251.74" y2="1.5"/><line class="cls-1" x1="237.84" y1="346.64" x2="237.84" y2="330.59"/><line class="cls-1" x1="182.23" y1="41.64" x2="251.74" y2="1.5"/><line class="cls-1" x1="223.94" y1="129.93" x2="154.43" y2="89.8"/><line class="cls-1" x1="171.61" y1="292.35" x2="154.43" y2="282.43"/><line class="cls-1" x1="223.94" y1="322.56" x2="171.61" y2="292.35"/><polyline class="cls-1" points="154.43 282.43 154.43 266.38 154.43 234.27"/><polyline class="cls-1" points="223.94 322.56 223.94 306.51 223.94 210.2"/><line class="cls-1" x1="222.04" y1="461.63" x2="260.06" y2="439.68"/><line class="cls-1" x1="260.06" y1="439.68" x2="260.06" y2="455.74"/><line class="cls-1" x1="425.53" y1="677.77" x2="425.53" y2="792.12"/><line class="cls-1" x1="425.53" y1="677.77" x2="411.62" y2="669.75"/><line class="cls-1" x1="371.66" y1="692.82" x2="425.53" y2="661.72"/><line class="cls-1" x1="371.66" y1="708.87" x2="425.53" y2="677.77"/><line class="cls-1" x1="371.66" y1="503.65" x2="425.53" y2="472.56"/><line class="cls-1" x1="371.66" y1="519.7" x2="425.53" y2="488.61"/><line class="cls-1" x1="425.53" y1="488.61" x2="411.63" y2="480.59"/><line class="cls-1" x1="112.72" y1="587.65" x2="112.72" y2="643.63"/><line class="cls-1" x1="161.38" y1="599.68" x2="161.38" y2="770.84"/><line class="cls-1" x1="112.72" y1="555.54" x2="161.38" y2="583.63"/><line class="cls-1" x1="112.72" y1="571.59" x2="161.38" y2="599.68"/><line class="cls-1" x1="161.38" y1="583.63" x2="197.75" y2="562.63"/><line class="cls-1" x1="112.72" y1="587.65" x2="98.81" y2="579.62"/><line class="cls-1" x1="81.83" y1="589.42" x2="112.72" y2="571.59"/><line class="cls-1" x1="81.83" y1="605.47" x2="112.72" y2="587.65"/><line class="cls-1" x1="287.04" y1="619.57" x2="367.68" y2="573.01"/><line class="cls-1" x1="223.14" y1="656.46" x2="270.36" y2="629.19"/><line class="cls-1" x1="287.05" y1="635.62" x2="367.68" y2="589.06"/><line class="cls-1" x1="223.14" y1="672.51" x2="270.36" y2="645.25"/><line class="cls-1" x1="161.38" y1="786.89" x2="161.38" y2="880.41"/><line class="cls-1" x1="161.38" y1="770.84" x2="198.94" y2="749.16"/><line class="cls-1" x1="106.91" y1="739.4" x2="161.38" y2="770.84"/><line class="cls-1" x1="161.38" y1="896.46" x2="161.38" y2="944.62"/><line class="cls-1" x1="106.91" y1="848.97" x2="161.38" y2="880.41"/><line class="cls-1" x1="106.91" y1="865.02" x2="106.91" y2="848.97"/><line class="cls-1" x1="161.38" y1="880.41" x2="230.89" y2="840.28"/><line class="cls-1" x1="323.55" y1="321.24" x2="383.82" y2="286.45"/><line class="cls-1" x1="411.62" y1="302.5" x2="425.53" y2="310.53"/><line class="cls-1" x1="390.77" y1="242.3" x2="446.38" y2="274.4"/><line class="cls-1" x1="418.57" y1="290.46" x2="446.38" y2="274.4"/><line class="cls-1" x1="362.96" y1="258.35" x2="425.53" y2="294.47"/><line class="cls-1" x1="425.53" y1="294.47" x2="411.62" y2="302.5"/><line class="cls-1" x1="112.72" y1="515.21" x2="112.72" y2="571.59"/><line class="cls-1" x1="112.72" y1="467.05" x2="112.72" y2="515.21"/><line class="cls-1" x1="57.11" y1="434.94" x2="112.72" y2="467.05"/><line class="cls-1" x1="57.11" y1="675.73" x2="112.72" y2="643.63"/><line class="cls-1" x1="21.5" y1="655.18" x2="57.11" y2="675.73"/><line class="cls-1" x1="1.5" y1="643.63" x2="21.5" y2="655.18"/><line class="cls-1" x1="36.26" y1="446.97" x2="57.11" y2="434.94"/><line class="cls-1" x1="57.11" y1="515.21" x2="57.11" y2="675.73"/><line class="cls-1" x1="15.4" y1="459.02" x2="71.01" y2="491.13"/><line class="cls-1" x1="71.01" y1="507.18" x2="57.11" y2="515.21"/><line class="cls-1" x1="71.01" y1="491.13" x2="71.01" y2="507.18"/><line class="cls-1" x1="57.11" y1="515.21" x2="1.5" y2="483.1"/><line class="cls-1" x1="15.4" y1="475.07" x2="71.01" y2="507.18"/><line class="cls-1" x1="112.72" y1="467.05" x2="71.01" y2="491.13"/><line class="cls-1" x1="147.47" y1="519.21" x2="133.57" y2="527.24"/><line class="cls-1" x1="133.57" y1="463.03" x2="133.57" y2="527.24"/><line class="cls-1" x1="133.57" y1="463.03" x2="36.25" y2="406.84"/><line class="cls-1" x1="322.33" y1="338" x2="383.82" y2="302.5"/><line class="cls-1" x1="147.47" y1="438.95" x2="240.14" y2="385.45"/><line class="cls-1" x1="77.96" y1="398.82" x2="77.96" y2="382.77"/><line class="cls-1" x1="147.47" y1="438.95" x2="147.47" y2="422.9"/><line class="cls-1" x1="383.82" y1="302.5" x2="383.82" y2="286.45"/><line class="cls-1" x1="77.96" y1="382.77" x2="147.47" y2="422.9"/><line class="cls-1" x1="147.47" y1="422.9" x2="210.39" y2="386.57"/><line class="cls-1" x1="314.85" y1="856.02" x2="425.53" y2="792.12"/><line class="cls-1" x1="94.95" y1="906.27" x2="161.38" y2="944.62"/><line class="cls-1" x1="425.53" y1="310.53" x2="161.38" y2="463.03"/><line class="cls-1" x1="425.53" y1="310.53" x2="425.53" y2="472.56"/><line class="cls-1" x1="161.38" y1="463.03" x2="161.38" y2="583.63"/><line class="cls-1" x1="210.03" y1="346.64" x2="230.89" y2="358.69"/><line class="cls-1" x1="161.38" y1="318.56" x2="182.22" y2="330.59"/><line class="cls-1" x1="182.24" y1="306.51" x2="161.38" y2="318.56"/><line class="cls-1" x1="161.38" y1="322.07" x2="161.38" y2="318.56"/><line class="cls-1" x1="230.89" y1="358.69" x2="300.4" y2="318.56"/><line class="cls-1" x1="328.75" y1="399.13" x2="342.65" y2="391.11"/><line class="cls-1" x1="328.75" y1="415.18" x2="328.75" y2="399.13"/><line class="cls-1" x1="276.02" y1="333.39" x2="260.18" y2="342.53"/><line class="cls-1" x1="274.81" y1="350.98" x2="290.65" y2="341.83"/><line class="cls-1" x1="290.65" y1="359.74" x2="290.65" y2="341.83"/><line class="cls-1" x1="291.87" y1="324.24" x2="276.02" y2="333.39"/><line class="cls-1" x1="306.49" y1="332.69" x2="291.87" y2="324.24"/><line class="cls-1" x1="290.65" y1="341.83" x2="306.49" y2="332.69"/><line class="cls-1" x1="306.49" y1="350.6" x2="306.49" y2="332.69"/><line class="cls-1" x1="290.65" y1="359.74" x2="306.49" y2="350.6"/><line class="cls-1" x1="198.03" y1="361.53" x2="212.66" y2="369.97"/><line class="cls-1" x1="213.88" y1="352.38" x2="198.03" y2="361.53"/><line class="cls-1" x1="198.03" y1="379.44" x2="198.03" y2="361.53"/><line class="cls-1" x1="228.5" y1="360.82" x2="213.88" y2="352.38"/><line class="cls-1" x1="212.66" y1="387.89" x2="212.66" y2="369.97"/><line class="cls-1" x1="212.66" y1="369.97" x2="228.5" y2="360.82"/><line class="cls-1" x1="183.41" y1="353.09" x2="198.03" y2="361.53"/><line class="cls-1" x1="199.25" y1="343.94" x2="183.41" y2="353.09"/><line class="cls-1" x1="183.41" y1="371" x2="183.41" y2="353.09"/><line class="cls-1" x1="213.88" y1="352.38" x2="199.25" y2="343.94"/><line class="cls-1" x1="260.18" y1="342.53" x2="244.34" y2="351.68"/><line class="cls-1" x1="274.81" y1="350.98" x2="260.18" y2="342.53"/><line class="cls-1" x1="258.97" y1="360.13" x2="274.81" y2="350.98"/><line class="cls-1" x1="274.81" y1="368.89" x2="274.81" y2="350.98"/><line class="cls-1" x1="228.5" y1="360.82" x2="243.13" y2="369.27"/><line class="cls-1" x1="228.5" y1="378.74" x2="243.13" y2="387.18"/><line class="cls-1" x1="244.34" y1="351.68" x2="228.5" y2="360.82"/><line class="cls-1" x1="228.5" y1="378.74" x2="228.5" y2="360.82"/><line class="cls-1" x1="243.13" y1="387.18" x2="243.13" y2="369.27"/><line class="cls-1" x1="243.13" y1="369.27" x2="258.97" y2="360.13"/><line class="cls-1" x1="258.97" y1="378.04" x2="258.97" y2="360.13"/><line class="cls-1" x1="300.95" y1="495.45" x2="298.16" y2="493.85"/><line class="cls-1" x1="300.95" y1="479.39" x2="298.16" y2="477.79"/><line class="cls-1" x1="314.85" y1="471.37" x2="314.85" y2="487.42"/><line class="cls-1" x1="300.95" y1="479.39" x2="314.85" y2="471.37"/><line class="cls-1" x1="300.95" y1="495.45" x2="300.95" y2="479.39"/><line class="cls-1" x1="298.16" y1="477.79" x2="312.06" y2="469.77"/><line class="cls-1" x1="314.85" y1="795.16" x2="328.75" y2="787.13"/><line class="cls-1" x1="314.85" y1="811.21" x2="314.85" y2="795.16"/><line class="cls-1" x1="287.04" y1="607.28" x2="287.04" y2="703.6"/><line class="cls-1" x1="273.14" y1="615.3" x2="287.04" y2="607.28"/><line class="cls-1" x1="273.14" y1="711.62" x2="273.14" y2="615.3"/><line class="cls-1" x1="270.36" y1="710.02" x2="270.36" y2="613.7"/><line class="cls-1" x1="384.36" y1="591.77" x2="370.46" y2="599.79"/><line class="cls-1" x1="370.46" y1="567.69" x2="384.36" y2="559.66"/><line class="cls-1" x1="370.46" y1="599.79" x2="370.46" y2="567.69"/><line class="cls-1" x1="367.68" y1="566.09" x2="381.58" y2="558.06"/><line class="cls-1" x1="367.68" y1="598.19" x2="367.68" y2="566.09"/><line class="cls-1" x1="342.65" y1="551.63" x2="328.75" y2="559.66"/><line class="cls-1" x1="328.75" y1="527.55" x2="342.65" y2="519.53"/><line class="cls-1" x1="328.75" y1="559.66" x2="328.75" y2="527.55"/><line class="cls-1" x1="325.97" y1="558.06" x2="325.97" y2="525.95"/><line class="cls-1" x1="370.46" y1="687.54" x2="356.55" y2="695.57"/><line class="cls-1" x1="370.46" y1="655.44" x2="370.46" y2="687.54"/><line class="cls-1" x1="356.55" y1="663.46" x2="370.46" y2="655.44"/><line class="cls-1" x1="356.55" y1="695.57" x2="356.55" y2="663.46"/><line class="cls-1" x1="353.77" y1="693.96" x2="353.77" y2="661.86"/><line class="cls-1" x1="300.95" y1="399.13" x2="298.16" y2="397.53"/><line class="cls-1" x1="300.95" y1="415.18" x2="287.04" y2="423.21"/><line class="cls-1" x1="300.95" y1="399.13" x2="300.95" y2="415.18"/><line class="cls-1" x1="287.04" y1="407.16" x2="300.95" y2="399.13"/><line class="cls-1" x1="139.53" y1="327.75" x2="154.16" y2="336.2"/><line class="cls-1" x1="170" y1="327.05" x2="155.38" y2="318.6"/><line class="cls-1" x1="154.16" y1="336.2" x2="168.78" y2="344.64"/><line class="cls-1" x1="170" y1="327.05" x2="154.16" y2="336.2"/><line class="cls-1" x1="154.16" y1="354.11" x2="154.16" y2="336.2"/><line class="cls-1" x1="184.63" y1="335.49" x2="170" y2="327.05"/><line class="cls-1" x1="168.78" y1="344.64" x2="183.41" y2="353.09"/><line class="cls-1" x1="184.63" y1="335.49" x2="168.78" y2="344.64"/><line class="cls-1" x1="199.25" y1="343.94" x2="184.63" y2="335.49"/><line class="cls-1" x1="300.1" y1="310.7" x2="307.36" y2="314.89"/><line class="cls-1" x1="323.55" y1="323.86" x2="323.55" y2="305.95"/><line class="cls-1" x1="279.55" y1="210.19" x2="279.55" y2="178.09"/><line class="cls-1" x1="349.06" y1="170.06" x2="349.06" y2="137.96"/><line class="cls-1" x1="251.74" y1="322.56" x2="265.65" y2="330.59"/><line class="cls-1" x1="335.16" y1="290.46" x2="335.16" y2="274.4"/><line class="cls-1" x1="323.34" y1="297.28" x2="335.16" y2="290.46"/><line class="cls-1" x1="295.54" y1="313.34" x2="307.36" y2="306.51"/><line class="cls-1" x1="265.65" y1="330.59" x2="279.55" y2="322.56"/><line class="cls-1" x1="265.65" y1="314.54" x2="265.65" y2="330.59"/><line class="cls-1" x1="251.74" y1="322.56" x2="265.65" y2="314.54"/><line class="cls-1" x1="251.74" y1="242.3" x2="251.74" y2="290.46"/><line class="cls-1" x1="335.16" y1="65.72" x2="265.65" y2="105.85"/><line class="cls-1" x1="237.84" y1="234.27" x2="237.84" y2="314.54"/><line class="cls-1" x1="321.25" y1="57.69" x2="251.74" y2="97.82"/><line class="cls-1" x1="171.22" y1="309.46" x2="182.23" y2="303.1"/><line class="cls-1" x1="155.38" y1="318.6" x2="171.22" y2="309.46"/><line class="cls-1" x1="171.22" y1="312.87" x2="171.22" y2="309.46"/><line class="cls-1" x1="314.31" y1="262.37" x2="314.31" y2="256.75"/><line class="cls-1" x1="281.64" y1="281.22" x2="314.31" y2="262.37"/><line class="cls-1" x1="314.85" y1="503.47" x2="328.75" y2="495.45"/><line class="cls-1" x1="314.85" y1="519.53" x2="314.85" y2="503.47"/><line class="cls-1" x1="49.31" y1="904.47" x2="49.31" y2="671.23"/><line class="cls-1" x1="91.01" y1="896.44" x2="91.01" y2="656.16"/><line class="cls-1" x1="440.28" y1="676.22" x2="440.28" y2="454.51"/><line class="cls-1" x1="307.36" y1="315.3" x2="291.87" y2="324.24"/><line class="cls-1" x1="322.33" y1="323.54" x2="316.08" y2="319.93"/><line class="cls-1" x1="306.49" y1="332.69" x2="322.33" y2="323.54"/><line class="cls-1" x1="322.33" y1="341.45" x2="322.33" y2="323.54"/><line class="cls-1" x1="321.25" y1="266.38" x2="281.64" y2="289.26"/><line class="cls-1" x1="323.34" y1="251.53" x2="323.34" y2="267.59"/><line class="cls-1" x1="281.64" y1="275.61" x2="323.34" y2="251.53"/><line class="cls-1" x1="281.64" y1="291.67" x2="281.64" y2="275.61"/><line class="cls-1" x1="323.34" y1="267.59" x2="281.64" y2="291.67"/><line class="cls-1" x1="253.83" y1="307.72" x2="251.74" y2="306.51"/><line class="cls-1" x1="309.44" y1="323.77" x2="307.36" y2="322.56"/><line class="cls-1" x1="265.65" y1="266.38" x2="300.4" y2="246.31"/><line class="cls-1" x1="265.65" y1="282.43" x2="265.65" y2="266.38"/><line class="cls-1" x1="251.74" y1="290.46" x2="265.65" y2="282.43"/><line class="cls-1" x1="251.74" y1="306.51" x2="251.74" y2="290.46"/><line class="cls-1" x1="265.65" y1="314.54" x2="265.65" y2="300.89"/><line class="cls-1" x1="279.55" y1="322.56" x2="279.55" y2="308.92"/><line class="cls-1" x1="307.36" y1="322.56" x2="307.36" y2="292.87"/><line class="cls-1" x1="323.34" y1="249.12" x2="335.16" y2="242.3"/><line class="cls-1" x1="323.34" y1="235.48" x2="323.34" y2="251.53"/><line class="cls-1" x1="267.73" y1="267.59" x2="323.34" y2="235.48"/><line class="cls-1" x1="267.73" y1="283.64" x2="267.73" y2="267.59"/><line class="cls-1" x1="253.83" y1="291.67" x2="267.73" y2="283.64"/><line class="cls-1" x1="253.83" y1="307.72" x2="253.83" y2="291.67"/><line class="cls-1" x1="267.73" y1="299.69" x2="253.83" y2="307.72"/><line class="cls-1" x1="267.73" y1="315.75" x2="267.73" y2="299.69"/><line class="cls-1" x1="281.64" y1="307.72" x2="267.73" y2="315.75"/><line class="cls-1" x1="281.64" y1="323.77" x2="281.64" y2="307.72"/><line class="cls-1" x1="295.53" y1="315.75" x2="281.64" y2="323.77"/><line class="cls-1" x1="295.53" y1="299.69" x2="295.53" y2="315.75"/><line class="cls-1" x1="307.35" y1="292.87" x2="295.53" y2="299.69"/><line class="cls-1" x1="309.44" y1="323.77" x2="309.44" y2="291.67"/><line class="cls-1" x1="323.34" y1="315.75" x2="309.44" y2="323.77"/><line class="cls-1" x1="323.34" y1="267.59" x2="323.34" y2="315.75"/><line class="cls-1" x1="337.24" y1="259.56" x2="323.34" y2="267.59"/><line class="cls-1" x1="337.24" y1="243.51" x2="337.24" y2="259.56"/><line class="cls-1" x1="323.34" y1="251.53" x2="337.24" y2="243.51"/><polyline class="cls-1" points="32.63 914.1 17.57 904.47 21.5 904.47"/><polyline class="cls-1" points="79.89 873.96 65.99 881.99 63.21 880.39"/><polyline class="cls-1" points="32.63 898.04 49.31 906.74 49.31 904.47"/><polyline class="cls-1" points="65.99 881.99 65.99 898.04 63.21 896.44"/><line class="cls-1" x1="65.99" y1="898.04" x2="49.31" y2="906.74"/><polyline class="cls-1" points="79.89 906.07 94.95 896.44 91.02 896.44"/><polyline class="cls-1" points="49.31 970.95 49.31 922.79 49.31 906.74"/><polyline class="cls-1" points="4.39 958.8 18.1 968.02 48.17 985.38 49.31 970.95"/><polyline class="cls-1" points="63.21 1044.62 63.21 992.76 48.17 985.38"/><polyline class="cls-1" points="48.17 985.38 65.18 975.57 65.99 962.26 49.32 970.94"/><line class="cls-1" x1="65.99" y1="962.26" x2="94.95" y2="944.6"/><line class="cls-1" x1="17.57" y1="952.62" x2="49.31" y2="970.95"/><polyline class="cls-1" points="65.18 975.57 79.08 983.6 63.21 992.76"/><line class="cls-1" x1="65.18" y1="975.57" x2="94.42" y2="958.69"/><line class="cls-1" x1="108.12" y1="966.83" x2="79.08" y2="983.6"/><polyline class="cls-1" points="62.05 1043.96 62.07 1044.19 63.21 1076.73"/><polyline class="cls-1" points="108.84 1016.84 78.1 1036.19 79.08 983.6"/><line class="cls-1" x1="78.1" y1="1036.19" x2="77.11" y2="1052.65"/><line class="cls-1" x1="91.01" y1="896.44" x2="79.89" y2="902.86"/><polyline class="cls-1" points="79.89 906.07 79.89 890.02 79.89 873.96 77.11 872.36 63.21 880.39 63.21 896.44 49.31 904.47 35.4 896.44 32.63 898.04 32.63 914.1"/><polyline class="cls-1" points="64.06 1076.24 63.21 1076.73 46.09 1066.85 45.9 1034.86 33.44 1028.27 18.29 1018.69"/><polyline class="cls-1" points="94.32 1042.72 94.23 1058.83 64.06 1076.24"/><polyline class="cls-1" points="17.57 950.47 17.57 952.62 18.1 968.02"/><polyline class="cls-1" points="17.58 904.47 17.57 904.47 17.57 950.47"/><polyline class="cls-1" points="62.07 1044.19 77.11 1052.65 108.12 1034.75 108.84 1016.84 108.12 966.83 94.42 958.69 94.95 944.6 94.95 896.44"/><polyline class="cls-1" points="18.29 1018.7 4.39 1010.67 4.39 958.8 17.58 950.46"/><polyline class="cls-1" points="78.1 1036.19 63.21 1044.62 18.29 1018.7"/><line class="cls-1" x1="21.5" y1="904.47" x2="32.63" y2="910.89"/><line class="cls-1" x1="45.91" y1="1034.64" x2="45.9" y2="1034.86"/><line class="cls-1" x1="33.41" y1="1027.42" x2="33.44" y2="1028.27"/><line class="cls-1" x1="309.44" y1="291.67" x2="307.36" y2="292.86"/><line class="cls-1" x1="337.24" y1="243.51" x2="335.16" y2="242.3"/><line class="cls-1" x1="323.34" y1="267.59" x2="321.25" y2="266.38"/><line class="cls-1" x1="281.64" y1="323.77" x2="279.55" y2="322.56"/><line class="cls-1" x1="267.73" y1="315.75" x2="265.65" y2="314.54"/><line class="cls-1" x1="253.83" y1="291.67" x2="251.74" y2="290.46"/><line class="cls-1" x1="267.73" y1="283.64" x2="265.65" y2="282.43"/><line class="cls-1" x1="267.73" y1="267.59" x2="265.65" y2="266.38"/><line class="cls-1" x1="323.34" y1="235.48" x2="321.25" y2="234.27"/><line class="cls-1" x1="321.25" y1="252.73" x2="321.25" y2="266.38"/><line class="cls-1" x1="306.49" y1="350.6" x2="322.33" y2="341.45"/><line class="cls-1" x1="312.06" y1="517.93" x2="312.06" y2="501.87"/><line class="cls-1" x1="312.06" y1="501.87" x2="325.97" y2="493.85"/><line class="cls-1" x1="328.75" y1="495.45" x2="328.75" y2="511.5"/><line class="cls-1" x1="328.75" y1="511.5" x2="314.85" y2="519.53"/><line class="cls-1" x1="314.85" y1="503.47" x2="312.06" y2="501.87"/><line class="cls-1" x1="314.85" y1="519.53" x2="312.06" y2="517.93"/><line class="cls-1" x1="328.75" y1="495.45" x2="325.97" y2="493.85"/><line class="cls-1" x1="21.5" y1="904.47" x2="21.5" y2="901.95"/><line class="cls-1" x1="21.5" y1="901.95" x2="21.5" y2="655.18"/><line class="cls-1" x1="279.55" y1="210.19" x2="293.45" y2="202.17"/><line class="cls-1" x1="293.45" y1="202.17" x2="293.45" y2="170.06"/><line class="cls-1" x1="307.36" y1="315.3" x2="307.36" y2="315.3"/><line class="cls-1" x1="171.22" y1="309.46" x2="156.59" y2="301.02"/><line class="cls-1" x1="156.59" y1="301.02" x2="140.75" y2="310.16"/><line class="cls-1" x1="140.75" y1="310.16" x2="155.38" y2="318.6"/><line class="cls-1" x1="251.74" y1="97.82" x2="251.74" y2="113.88"/><line class="cls-1" x1="251.74" y1="113.88" x2="237.84" y2="121.9"/><line class="cls-1" x1="237.84" y1="121.9" x2="237.84" y2="170.06"/><line class="cls-1" x1="349.06" y1="266.38" x2="349.06" y2="250.32"/><line class="cls-1" x1="349.06" y1="73.74" x2="335.16" y2="81.77"/><line class="cls-1" x1="335.16" y1="81.77" x2="335.16" y2="65.72"/><line class="cls-1" x1="265.65" y1="105.85" x2="265.65" y2="121.9"/><line class="cls-1" x1="265.65" y1="121.9" x2="251.74" y2="129.93"/><line class="cls-1" x1="335.16" y1="274.4" x2="349.06" y2="266.38"/><line class="cls-1" x1="335.16" y1="65.72" x2="349.06" y2="73.74"/><line class="cls-1" x1="321.25" y1="57.69" x2="335.16" y2="65.72"/><line class="cls-1" x1="251.74" y1="97.82" x2="265.65" y2="105.85"/><line class="cls-1" x1="251.74" y1="113.88" x2="265.65" y2="121.9"/><line class="cls-1" x1="237.84" y1="121.9" x2="251.74" y2="129.93"/><line class="cls-1" x1="237.84" y1="314.54" x2="251.74" y2="322.56"/><line class="cls-1" x1="349.06" y1="170.06" x2="362.96" y2="162.03"/><line class="cls-1" x1="362.96" y1="162.03" x2="362.96" y2="129.93"/><line class="cls-1" x1="140.52" y1="210.19" x2="140.52" y2="226.24"/><line class="cls-1" x1="154.43" y1="234.27" x2="140.52" y2="226.24"/><line class="cls-1" x1="154.43" y1="218.22" x2="154.43" y2="234.27"/><line class="cls-1" x1="168.33" y1="226.24" x2="154.43" y2="234.27"/><line class="cls-1" x1="314.31" y1="262.37" x2="321.25" y2="266.38"/><line class="cls-1" x1="251.74" y1="129.93" x2="251.74" y2="162.03"/><line class="cls-1" x1="335.16" y1="178.09" x2="349.05" y2="170.06"/><line class="cls-1" x1="265.65" y1="218.22" x2="279.55" y2="210.19"/><line class="cls-1" x1="323.55" y1="305.95" x2="323.34" y2="305.83"/><line class="cls-1" x1="139.53" y1="345.67" x2="139.53" y2="331.17"/><line class="cls-1" x1="155.38" y1="318.6" x2="140.75" y2="327.05"/><line class="cls-1" x1="139.53" y1="345.67" x2="140.88" y2="346.44"/><line class="cls-1" x1="284.26" y1="405.55" x2="298.16" y2="397.53"/><line class="cls-1" x1="353.77" y1="661.86" x2="367.68" y2="653.83"/><line class="cls-1" x1="356.55" y1="663.46" x2="353.77" y2="661.86"/><line class="cls-1" x1="356.55" y1="695.57" x2="353.77" y2="693.96"/><line class="cls-1" x1="370.46" y1="655.44" x2="367.68" y2="653.83"/><line class="cls-1" x1="325.97" y1="525.95" x2="339.87" y2="517.93"/><line class="cls-1" x1="342.65" y1="519.53" x2="342.65" y2="551.63"/><line class="cls-1" x1="328.75" y1="527.55" x2="325.97" y2="525.95"/><line class="cls-1" x1="342.65" y1="519.53" x2="339.87" y2="517.93"/><line class="cls-1" x1="384.36" y1="559.66" x2="384.36" y2="591.77"/><line class="cls-1" x1="370.46" y1="567.69" x2="367.68" y2="566.09"/><line class="cls-1" x1="384.36" y1="559.66" x2="381.58" y2="558.06"/><line class="cls-1" x1="328.75" y1="556.45" x2="325.97" y2="558.06"/><line class="cls-1" x1="270.36" y1="613.7" x2="284.26" y2="605.68"/><line class="cls-1" x1="287.04" y1="703.6" x2="273.14" y2="711.62"/><line class="cls-1" x1="273.14" y1="615.3" x2="270.36" y2="613.7"/><line class="cls-1" x1="273.14" y1="711.62" x2="270.36" y2="710.02"/><line class="cls-1" x1="287.04" y1="607.28" x2="284.26" y2="605.68"/><line class="cls-1" x1="312.06" y1="809.61" x2="312.06" y2="793.56"/><line class="cls-1" x1="312.06" y1="793.56" x2="325.97" y2="785.53"/><line class="cls-1" x1="328.75" y1="787.13" x2="328.75" y2="803.19"/><line class="cls-1" x1="328.75" y1="803.19" x2="314.85" y2="811.21"/><line class="cls-1" x1="314.85" y1="795.16" x2="312.06" y2="793.56"/><line class="cls-1" x1="314.85" y1="811.21" x2="312.06" y2="809.61"/><line class="cls-1" x1="328.75" y1="787.13" x2="325.97" y2="785.53"/><line class="cls-1" x1="298.16" y1="493.85" x2="298.16" y2="477.79"/><line class="cls-1" x1="314.85" y1="487.42" x2="300.95" y2="495.45"/><line class="cls-1" x1="314.85" y1="471.37" x2="312.06" y2="469.77"/><line class="cls-1" x1="140.75" y1="327.05" x2="140.75" y2="310.16"/><line class="cls-1" x1="349.05" y1="170.06" x2="349.06" y2="170.06"/><line class="cls-1" x1="140.75" y1="327.05" x2="139.53" y2="327.75"/><line class="cls-1" x1="370.46" y1="596.58" x2="367.68" y2="598.19"/><line class="cls-1" x1="322.33" y1="324.56" x2="323.55" y2="323.86"/><line class="cls-1" x1="323.34" y1="306.07" x2="323.55" y2="305.95"/><line class="cls-1" x1="168.78" y1="362.55" x2="168.78" y2="346.38"/><line class="cls-1" x1="243.13" y1="387.18" x2="258.97" y2="378.04"/><line class="cls-1" x1="258.97" y1="360.13" x2="244.34" y2="351.68"/><line class="cls-1" x1="258.97" y1="378.04" x2="274.81" y2="368.89"/><line class="cls-1" x1="212.66" y1="387.89" x2="228.5" y2="378.74"/><line class="cls-1" x1="274.81" y1="368.89" x2="290.65" y2="359.74"/><line class="cls-1" x1="290.65" y1="341.83" x2="276.02" y2="333.39"/><line class="cls-1" x1="325.97" y1="413.58" x2="325.97" y2="400.73"/><line class="cls-1" x1="342.65" y1="391.11" x2="342.65" y2="407.16"/><line class="cls-1" x1="342.65" y1="407.16" x2="328.75" y2="415.18"/><line class="cls-1" x1="342.65" y1="391.11" x2="339.87" y2="389.5"/><line class="cls-1" x1="161.38" y1="463.03" x2="147.47" y2="455"/><line class="cls-1" x1="36.25" y1="390.79" x2="36.25" y2="406.84"/><line class="cls-1" x1="36.25" y1="390.79" x2="139.54" y2="331.16"/><line class="cls-1" x1="161.38" y1="944.62" x2="298.17" y2="865.65"/><line class="cls-1" x1="77.96" y1="398.82" x2="147.47" y2="438.95"/><line class="cls-1" x1="36.25" y1="406.84" x2="36.25" y2="446.97"/><line class="cls-1" x1="133.57" y1="527.24" x2="112.72" y2="515.21"/><line class="cls-1" x1="36.25" y1="406.84" x2="50.16" y2="398.82"/><line class="cls-1" x1="147.47" y1="455" x2="133.57" y2="463.03"/><line class="cls-1" x1="15.4" y1="459.02" x2="15.4" y2="475.07"/><line class="cls-1" x1="1.5" y1="483.1" x2="15.4" y2="475.07"/><line class="cls-1" x1="1.5" y1="483.1" x2="1.5" y2="643.63"/><line class="cls-1" x1="147.47" y1="455" x2="147.47" y2="519.21"/><line class="cls-1" x1="50.16" y1="398.82" x2="36.25" y2="390.79"/><line class="cls-1" x1="425.53" y1="294.47" x2="425.53" y2="310.53"/><line class="cls-1" x1="460.28" y1="282.43" x2="446.38" y2="274.4"/><line class="cls-1" x1="446.38" y1="274.4" x2="446.38" y2="290.46"/><line class="cls-1" x1="446.38" y1="290.46" x2="460.28" y2="282.43"/><line class="cls-1" x1="460.28" y1="282.43" x2="460.28" y2="442.97"/><line class="cls-1" x1="390.77" y1="242.3" x2="362.97" y2="258.35"/><line class="cls-1" x1="460.28" y1="442.97" x2="440.28" y2="454.51"/><line class="cls-1" x1="230.89" y1="840.28" x2="230.89" y2="856.33"/><line class="cls-1" x1="161.38" y1="896.46" x2="230.89" y2="856.33"/><line class="cls-1" x1="106.91" y1="865.02" x2="161.38" y2="896.46"/><line class="cls-1" x1="230.89" y1="856.33" x2="216.99" y2="848.31"/><line class="cls-1" x1="106.91" y1="755.45" x2="106.91" y2="739.4"/><line class="cls-1" x1="106.91" y1="755.45" x2="161.38" y2="786.89"/><line class="cls-1" x1="198.94" y1="749.16" x2="198.94" y2="765.21"/><line class="cls-1" x1="161.38" y1="786.89" x2="198.94" y2="765.21"/><line class="cls-1" x1="198.94" y1="765.21" x2="185.04" y2="757.18"/><line class="cls-1" x1="223.14" y1="672.51" x2="223.14" y2="656.46"/><line class="cls-1" x1="81.83" y1="605.47" x2="81.83" y2="589.42"/><line class="cls-1" x1="197.75" y1="562.63" x2="197.75" y2="578.68"/><line class="cls-1" x1="161.38" y1="599.68" x2="197.75" y2="578.68"/><line class="cls-1" x1="197.75" y1="578.68" x2="183.84" y2="570.66"/><line class="cls-1" x1="371.66" y1="519.7" x2="371.66" y2="503.65"/><line class="cls-1" x1="425.53" y1="488.61" x2="425.53" y2="661.72"/><line class="cls-1" x1="371.66" y1="708.87" x2="371.66" y2="692.82"/><line class="cls-1" x1="222.04" y1="477.69" x2="222.04" y2="461.63"/><line class="cls-1" x1="222.04" y1="477.69" x2="260.06" y2="455.74"/><line class="cls-1" x1="260.06" y1="455.74" x2="246.15" y2="447.71"/><line class="cls-1" x1="120.82" y1="857" x2="106.91" y2="865.02"/><line class="cls-1" x1="328.75" y1="411.97" x2="325.97" y2="413.58"/><line class="cls-1" x1="120.82" y1="747.43" x2="106.91" y2="755.45"/><line class="cls-1" x1="230.89" y1="359.45" x2="230.89" y2="358.69"/><line class="cls-1" x1="300.4" y1="318.56" x2="295.53" y2="315.75"/><line class="cls-1" x1="383.82" y1="286.45" x2="349.06" y2="266.38"/><line class="cls-1" x1="139.53" y1="331.17" x2="139.53" y2="327.75"/><line class="cls-1" x1="168.78" y1="345.67" x2="168.78" y2="344.64"/><line class="cls-1" x1="168.78" y1="346.38" x2="168.78" y2="345.67"/><line class="cls-1" x1="440.28" y1="454.51" x2="425.53" y2="463.03"/><line class="cls-1" x1="140.88" y1="346.44" x2="77.96" y2="382.77"/><line class="cls-1" x1="367.68" y1="585.64" x2="356.74" y2="579.33"/><line class="cls-1" x1="300.4" y1="319.32" x2="300.4" y2="318.56"/><line class="cls-1" x1="307.36" y1="292.86" x2="307.35" y2="292.87"/><line class="cls-1" x1="15.4" y1="459.02" x2="36.26" y2="446.97"/><line class="cls-1" x1="246.54" y1="447.47" x2="246.56" y2="447.48"/><line class="cls-1" x1="182.23" y1="218.22" x2="182.23" y2="186.11"/><line class="cls-1" x1="182.23" y1="57.69" x2="182.23" y2="41.64"/><line class="cls-1" x1="154.43" y1="89.8" x2="168.33" y2="81.77"/><line class="cls-1" x1="237.84" y1="346.64" x2="251.74" y2="338.62"/><line class="cls-1" x1="349.06" y1="57.69" x2="349.06" y2="73.74"/><line class="cls-1" x1="349.06" y1="57.69" x2="335.16" y2="49.66"/><line class="cls-1" x1="335.16" y1="65.72" x2="349.06" y2="57.69"/><line class="cls-1" x1="335.16" y1="49.66" x2="335.16" y2="65.72"/><line class="cls-1" x1="335.16" y1="49.66" x2="321.25" y2="41.64"/><line class="cls-1" x1="321.25" y1="57.69" x2="335.16" y2="49.66"/><line class="cls-1" x1="321.25" y1="41.64" x2="321.25" y2="57.69"/><line class="cls-1" x1="251.74" y1="97.82" x2="251.74" y2="81.77"/><line class="cls-1" x1="251.74" y1="97.82" x2="182.23" y2="57.69"/><line class="cls-1" x1="237.84" y1="105.85" x2="251.74" y2="97.82"/><line class="cls-1" x1="168.33" y1="65.72" x2="182.23" y2="57.69"/><line class="cls-1" x1="237.84" y1="121.9" x2="237.84" y2="105.85"/><line class="cls-1" x1="168.33" y1="81.77" x2="168.33" y2="65.72"/><line class="cls-1" x1="237.84" y1="121.9" x2="168.33" y2="81.77"/><line class="cls-1" x1="223.94" y1="129.93" x2="237.84" y2="121.9"/><line class="cls-1" x1="237.84" y1="314.54" x2="223.94" y2="322.56"/><line class="cls-1" x1="251.74" y1="322.56" x2="237.84" y2="330.59"/><line class="cls-1" x1="223.94" y1="338.62" x2="237.84" y2="346.64"/><line class="cls-1" x1="210.03" y1="346.64" x2="223.94" y2="338.62"/><line class="cls-1" x1="154.43" y1="73.74" x2="154.43" y2="89.8"/><line class="cls-1" x1="154.43" y1="73.74" x2="168.33" y2="81.77"/><line class="cls-1" x1="168.33" y1="65.72" x2="154.43" y2="73.74"/><line class="cls-1" x1="168.33" y1="49.66" x2="168.33" y2="65.72"/><line class="cls-1" x1="168.33" y1="49.66" x2="182.23" y2="57.69"/><line class="cls-1" x1="168.33" y1="226.24" x2="182.23" y2="218.22"/><line class="cls-1" x1="140.52" y1="162.03" x2="140.52" y2="178.09"/><line class="cls-1" x1="182.23" y1="41.64" x2="168.33" y2="49.66"/><line class="cls-1" x1="237.84" y1="330.59" x2="223.94" y2="322.56"/><line class="cls-1" x1="237.84" y1="330.59" x2="237.84" y2="314.54"/><line class="cls-1" x1="325.97" y1="590.16" x2="325.97" y2="574.11"/><line class="cls-1" x1="342.65" y1="583.74" x2="328.75" y2="591.77"/><line class="cls-1" x1="328.75" y1="575.71" x2="325.97" y2="574.11"/><line class="cls-1" x1="342.65" y1="567.69" x2="339.87" y2="566.09"/><line class="cls-1" x1="284.26" y1="566.09" x2="284.26" y2="550.03"/><line class="cls-1" x1="287.04" y1="551.63" x2="284.26" y2="550.03"/><line class="cls-1" x1="328.75" y1="588.56" x2="325.97" y2="590.16"/><line class="cls-1" x1="287.04" y1="564.48" x2="284.26" y2="566.09"/><line class="cls-1" x1="328.75" y1="431.24" x2="325.97" y2="429.63"/><line class="cls-1" x1="342.65" y1="423.21" x2="339.87" y2="421.61"/><line class="cls-1" x1="307.36" y1="129.93" x2="307.36" y2="145.98"/><line class="cls-1" x1="237.84" y1="170.06" x2="237.84" y2="186.11"/><line class="cls-1" x1="251.74" y1="194.14" x2="237.84" y2="202.17"/><line class="cls-1" x1="307.36" y1="178.09" x2="321.25" y2="170.06"/><line class="cls-1" x1="376.87" y1="170.06" x2="376.87" y2="137.96"/><line class="cls-1" x1="376.87" y1="137.96" x2="390.77" y2="129.93"/><line class="cls-1" x1="390.77" y1="129.93" x2="390.77" y2="113.88"/><line class="cls-1" x1="390.77" y1="113.88" x2="376.87" y2="121.9"/><line class="cls-1" x1="376.87" y1="121.9" x2="376.87" y2="105.85"/><line class="cls-1" x1="321.25" y1="137.96" x2="321.25" y2="154.01"/><line class="cls-1" x1="321.25" y1="154.01" x2="307.36" y2="162.03"/><line class="cls-1" x1="307.36" y1="162.03" x2="307.36" y2="145.98"/><line class="cls-1" x1="251.74" y1="178.09" x2="251.74" y2="194.14"/><line class="cls-1" x1="223.94" y1="194.14" x2="237.84" y2="202.17"/><line class="cls-1" x1="237.84" y1="186.11" x2="251.74" y2="194.14"/><line class="cls-1" x1="237.84" y1="234.27" x2="251.74" y2="242.3"/><line class="cls-1" x1="307.36" y1="194.14" x2="321.25" y2="202.17"/><line class="cls-1" x1="376.87" y1="105.85" x2="390.77" y2="113.88"/><line class="cls-1" x1="362.96" y1="97.82" x2="376.87" y2="105.85"/><line class="cls-1" x1="307.36" y1="129.93" x2="321.25" y2="137.96"/><line class="cls-1" x1="307.36" y1="145.98" x2="321.25" y2="154.01"/><line class="cls-1" x1="237.84" y1="170.06" x2="251.74" y2="178.09"/><line class="cls-1" x1="140.52" y1="178.09" x2="126.62" y2="170.06"/><line class="cls-1" x1="140.52" y1="145.98" x2="126.62" y2="137.96"/><line class="cls-1" x1="126.62" y1="170.06" x2="126.62" y2="137.96"/><line class="cls-1" x1="126.62" y1="137.96" x2="140.52" y2="129.93"/><line class="cls-1" x1="237.84" y1="218.23" x2="237.84" y2="234.27"/><line class="cls-1" x1="362.96" y1="97.82" x2="349.06" y2="89.8"/><polyline class="cls-1" points="140.52 178.09 140.52 178.09 140.52 210.19"/><line class="cls-1" x1="223.94" y1="178.09" x2="223.94" y2="129.93"/><line class="cls-1" x1="349.06" y1="186.11" x2="376.87" y2="170.06"/><line class="cls-1" x1="223.94" y1="210.19" x2="237.84" y2="218.22"/><line class="cls-1" x1="414.5" y1="798.48" x2="425.53" y2="804.85"/><line class="cls-1" x1="256.46" y1="768.9" x2="284.26" y2="752.85"/><line class="cls-1" x1="287.04" y1="770.5" x2="259.24" y2="786.56"/><line class="cls-1" x1="259.24" y1="770.5" x2="256.46" y2="768.9"/><line class="cls-1" x1="259.24" y1="786.56" x2="256.46" y2="784.95"/><line class="cls-1" x1="287.04" y1="754.45" x2="284.26" y2="752.85"/><line class="cls-1" x1="252.64" y1="549.18" x2="252.64" y2="533.13"/><line class="cls-1" x1="269.32" y1="542.76" x2="255.42" y2="550.79"/><line class="cls-1" x1="255.42" y1="534.74" x2="252.64" y2="533.13"/><line class="cls-1" x1="255.42" y1="550.79" x2="252.64" y2="549.18"/><line class="cls-1" x1="269.32" y1="526.71" x2="266.54" y2="525.1"/><line class="cls-1" x1="349.06" y1="105.85" x2="349.06" y2="105.83"/><line class="cls-1" x1="349.06" y1="105.83" x2="349.06" y2="89.8"/><line class="cls-1" x1="349.06" y1="89.8" x2="349.06" y2="73.74"/><line class="cls-1" x1="349.06" y1="250.32" x2="362.96" y2="258.35"/><line class="cls-1" x1="139.53" y1="345.67" x2="212.66" y2="387.89"/><line class="cls-1" x1="328.75" y1="395.92" x2="339.87" y2="389.5"/><line class="cls-1" x1="270.36" y1="413.58" x2="284.26" y2="405.55"/><line class="cls-1" x1="251.74" y1="306.53" x2="251.74" y2="322.56"/><line class="cls-1" x1="273.14" y1="415.18" x2="270.36" y2="413.58"/><line class="cls-1" x1="287.04" y1="407.16" x2="284.26" y2="405.55"/><line class="cls-1" x1="312.06" y1="405.55" x2="312.06" y2="389.5"/><line class="cls-1" x1="312.06" y1="389.5" x2="325.97" y2="381.47"/><line class="cls-1" x1="314.85" y1="391.11" x2="312.06" y2="389.5"/><line class="cls-1" x1="314.85" y1="407.16" x2="312.06" y2="405.55"/><line class="cls-1" x1="328.75" y1="383.08" x2="325.97" y2="381.47"/><line class="cls-1" x1="273.14" y1="428.02" x2="270.36" y2="429.63"/><line class="cls-1" x1="349.06" y1="250.32" x2="349.06" y2="186.11"/><line class="cls-1" x1="171.61" y1="292.35" x2="156.59" y2="301.02"/><line class="cls-1" x1="440.28" y1="678.74" x2="440.28" y2="676.22"/><line class="cls-1" x1="362.96" y1="97.82" x2="349.07" y2="105.84"/><line class="cls-1" x1="312.06" y1="945.68" x2="312.06" y2="929.62"/><line class="cls-1" x1="312.06" y1="929.62" x2="325.97" y2="921.6"/><line class="cls-1" x1="328.75" y1="923.2" x2="328.75" y2="939.25"/><line class="cls-1" x1="314.85" y1="931.23" x2="312.06" y2="929.62"/><line class="cls-1" x1="314.85" y1="947.28" x2="312.06" y2="945.68"/><line class="cls-1" x1="300.95" y1="867.4" x2="298.16" y2="865.8"/><line class="cls-1" x1="314.85" y1="843.32" x2="312.06" y2="841.72"/><line class="cls-1" x1="314.85" y1="687.54" x2="312.06" y2="685.94"/><line class="cls-1" x1="314.85" y1="735.71" x2="312.06" y2="734.1"/><line class="cls-1" x1="328.75" y1="679.52" x2="325.97" y2="677.91"/><polyline class="cls-1" points="154.43 137.96 154.43 137.96 154.43 89.8"/><line class="cls-1" x1="237.84" y1="202.17" x2="237.84" y2="218.22"/><line class="cls-1" x1="237.84" y1="218.22" x2="251.74" y2="210.19"/><line class="cls-1" x1="154.43" y1="137.96" x2="140.52" y2="129.93"/><line class="cls-1" x1="328.2" y1="230.26" x2="328.2" y2="214.21"/><line class="cls-1" x1="314.31" y1="206.18" x2="328.2" y2="214.21"/><line class="cls-1" x1="314.31" y1="206.18" x2="307.36" y2="210.19"/><line class="cls-1" x1="286.5" y1="222.23" x2="300.4" y2="230.26"/><line class="cls-1" x1="429.16" y1="688.37" x2="429.16" y2="685.16"/><line class="cls-1" x1="258.69" y1="1029.6" x2="328.2" y2="989.47"/><line class="cls-1" x1="429.16" y1="685.15" x2="440.28" y2="678.74"/></g></g></svg>