<svg xmlns="http://www.w3.org/2000/svg" viewBox="0 0 459.4 1181.72"><defs><style>.cls-1{fill:none;stroke:#000;stroke-linecap:round;stroke-linejoin:round;stroke-width:3px;}</style></defs><title>Asset 1dan</title><g id="Layer_2" data-name="Layer 2"><g id="Make2D::Visible::Curves"><line class="cls-1" x1="258.73" y1="1180.22" x2="258.73" y2="1069.9"/><line class="cls-1" x1="328.25" y1="1180.22" x2="328.25" y2="1029.76"/><line class="cls-1" x1="425.59" y1="888.05" x2="425.59" y2="1180.22"/><line class="cls-1" x1="161.4" y1="997.65" x2="161.4" y2="1180.22"/><line class="cls-1" x1="64.07" y1="1180.22" x2="64.07" y2="1112.84"/><line class="cls-1" x1="237.87" y1="226.28" x2="154.45" y2="178.11"/><line class="cls-1" x1="223.97" y1="234.31" x2="140.54" y2="186.14"/><line class="cls-1" x1="223.97" y1="250.36" x2="140.54" y2="202.2"/><line class="cls-1" x1="126.64" y1="178.11" x2="140.54" y2="170.09"/><line class="cls-1" x1="154.45" y1="178.11" x2="140.54" y2="170.09"/><line class="cls-1" x1="126.64" y1="210.23" x2="126.64" y2="178.11"/><line class="cls-1" x1="140.54" y1="186.14" x2="126.64" y2="178.11"/><line class="cls-1" x1="140.54" y1="218.26" x2="126.64" y2="210.23"/><line class="cls-1" x1="335.21" y1="218.24" x2="335.21" y2="202.2"/><line class="cls-1" x1="265.69" y1="258.39" x2="265.69" y2="226.28"/><line class="cls-1" x1="265.69" y1="226.28" x2="293.5" y2="210.23"/><line class="cls-1" x1="307.4" y1="234.31" x2="321.3" y2="242.34"/><line class="cls-1" x1="279.58" y1="202.2" x2="251.78" y2="218.26"/><line class="cls-1" x1="349.12" y1="226.28" x2="376.93" y2="210.23"/><line class="cls-1" x1="321.3" y1="242.34" x2="349.12" y2="226.28"/><line class="cls-1" x1="321.3" y1="210.23" x2="321.3" y2="242.34"/><line class="cls-1" x1="307.4" y1="218.26" x2="321.3" y2="210.23"/><line class="cls-1" x1="307.4" y1="250.36" x2="307.4" y2="218.26"/><line class="cls-1" x1="251.78" y1="282.48" x2="307.4" y2="250.36"/><line class="cls-1" x1="251.78" y1="250.36" x2="251.78" y2="282.48"/><line class="cls-1" x1="265.69" y1="194.17" x2="237.87" y2="210.23"/><line class="cls-1" x1="63.21" y1="1081.22" x2="63.21" y2="1113.33"/><line class="cls-1" x1="77.12" y1="1073.19" x2="63.21" y2="1081.22"/><line class="cls-1" x1="77.12" y1="1025.02" x2="63.21" y2="1033.05"/><line class="cls-1" x1="63.21" y1="1033.05" x2="63.21" y2="1081.22"/><line class="cls-1" x1="49.31" y1="1073.19" x2="7.6" y2="1049.1"/><line class="cls-1" x1="104.93" y1="1008.97" x2="104.93" y2="1057.13"/><line class="cls-1" x1="104.93" y1="1073.19" x2="77.12" y2="1089.25"/><line class="cls-1" x1="77.12" y1="1089.25" x2="63.21" y2="1081.22"/><line class="cls-1" x1="425.59" y1="888.06" x2="440.34" y2="879.54"/><line class="cls-1" x1="425.59" y1="845.12" x2="425.59" y2="888.05"/><line class="cls-1" x1="425.59" y1="845.12" x2="161.4" y2="997.65"/><line class="cls-1" x1="161.4" y1="997.65" x2="112.4" y2="969.36"/><line class="cls-1" x1="251.78" y1="380.41" x2="250.39" y2="379.61"/><line class="cls-1" x1="253.17" y1="379.61" x2="253.17" y2="366.77"/><line class="cls-1" x1="308.79" y1="349.1" x2="253.17" y2="381.22"/><line class="cls-1" x1="322.7" y1="341.08" x2="308.79" y2="349.1"/><line class="cls-1" x1="159.46" y1="359.86" x2="159.46" y2="325.51"/><line class="cls-1" x1="225.37" y1="299.33" x2="237.88" y2="292.1"/><line class="cls-1" x1="225.37" y1="363.56" x2="225.37" y2="299.33"/><line class="cls-1" x1="237.88" y1="356.33" x2="225.37" y2="363.56"/><polyline class="cls-1" points="223.97 362.76 223.97 346.7 223.97 322.62"/><line class="cls-1" x1="280.99" y1="321.81" x2="314.35" y2="302.54"/><line class="cls-1" x1="237.87" y1="113.89" x2="168.35" y2="73.75"/><line class="cls-1" x1="335.21" y1="73.75" x2="265.69" y2="113.89"/><line class="cls-1" x1="265.69" y1="113.89" x2="251.78" y2="105.86"/><line class="cls-1" x1="237.87" y1="81.78" x2="196.16" y2="57.7"/><line class="cls-1" x1="307.4" y1="57.7" x2="265.69" y2="81.78"/><line class="cls-1" x1="265.69" y1="65.73" x2="307.4" y2="41.64"/><line class="cls-1" x1="196.16" y1="41.64" x2="237.87" y2="65.73"/><line class="cls-1" x1="265.69" y1="97.84" x2="335.21" y2="57.7"/><line class="cls-1" x1="168.35" y1="57.7" x2="237.87" y2="97.84"/><line class="cls-1" x1="376.93" y1="97.84" x2="251.78" y2="170.09"/><line class="cls-1" x1="390.83" y1="121.92" x2="404.73" y2="113.89"/><line class="cls-1" x1="321.3" y1="178.11" x2="335.21" y2="186.14"/><line class="cls-1" x1="321.32" y1="194.18" x2="335.21" y2="202.2"/><line class="cls-1" x1="335.21" y1="186.14" x2="404.73" y2="146.01"/><line class="cls-1" x1="376.93" y1="178.11" x2="404.73" y2="162.06"/><line class="cls-1" x1="335.21" y1="202.2" x2="376.93" y2="178.11"/><line class="cls-1" x1="307.4" y1="186.14" x2="321.3" y2="178.11"/><line class="cls-1" x1="307.4" y1="202.2" x2="321.3" y2="194.17"/><line class="cls-1" x1="251.78" y1="170.09" x2="279.59" y2="186.14"/><line class="cls-1" x1="251.78" y1="186.14" x2="279.59" y2="202.2"/><line class="cls-1" x1="265.69" y1="129.95" x2="363.02" y2="73.75"/><line class="cls-1" x1="140.54" y1="73.75" x2="237.87" y2="129.95"/><line class="cls-1" x1="223.97" y1="170.09" x2="251.78" y2="186.14"/><line class="cls-1" x1="154.44" y1="129.95" x2="223.97" y2="170.09"/><line class="cls-1" x1="160.38" y1="375.38" x2="77.47" y2="423.26"/><line class="cls-1" x1="299.01" y1="375.62" x2="381.93" y2="327.76"/><line class="cls-1" x1="409.66" y1="343.86" x2="423.48" y2="351.84"/><line class="cls-1" x1="77.47" y1="439.31" x2="146.99" y2="479.45"/><line class="cls-1" x1="146.99" y1="479.45" x2="381.93" y2="343.81"/><line class="cls-1" x1="77.47" y1="439.31" x2="77.47" y2="423.26"/><line class="cls-1" x1="381.93" y1="343.81" x2="381.93" y2="327.94"/><line class="cls-1" x1="77.47" y1="423.26" x2="146.99" y2="463.39"/><line class="cls-1" x1="381.93" y1="327.76" x2="348.56" y2="308.48"/><line class="cls-1" x1="160.98" y1="985.15" x2="423.56" y2="833.55"/><line class="cls-1" x1="112.4" y1="957.1" x2="160.98" y2="985.15"/><line class="cls-1" x1="423.56" y1="351.89" x2="160.98" y2="503.49"/><line class="cls-1" x1="423.56" y1="351.89" x2="423.56" y2="833.55"/><line class="cls-1" x1="35.84" y1="431.23" x2="160.38" y2="359.33"/><line class="cls-1" x1="160.98" y1="503.49" x2="160.98" y2="985.15"/><line class="cls-1" x1="35.84" y1="431.23" x2="35.84" y2="481.16"/><line class="cls-1" x1="360.91" y1="299.75" x2="423.47" y2="335.88"/><line class="cls-1" x1="423.47" y1="335.88" x2="409.66" y2="343.86"/><line class="cls-1" x1="416.52" y1="331.86" x2="444.08" y2="315.95"/><line class="cls-1" x1="112.4" y1="555.62" x2="112.4" y2="989.12"/><line class="cls-1" x1="112.4" y1="507.45" x2="112.4" y2="555.62"/><line class="cls-1" x1="56.78" y1="475.34" x2="112.4" y2="507.45"/><line class="cls-1" x1="35.93" y1="487.38" x2="56.78" y2="475.34"/><line class="cls-1" x1="57.12" y1="555.42" x2="57.12" y2="1021.04"/><line class="cls-1" x1="15.32" y1="499.27" x2="70.94" y2="531.39"/><line class="cls-1" x1="70.94" y1="547.45" x2="57.12" y2="555.42"/><line class="cls-1" x1="70.94" y1="531.39" x2="70.94" y2="547.45"/><line class="cls-1" x1="57.12" y1="555.42" x2="1.5" y2="523.31"/><line class="cls-1" x1="15.32" y1="515.33" x2="70.94" y2="547.45"/><line class="cls-1" x1="112.4" y1="989.12" x2="57.12" y2="1021.04"/><line class="cls-1" x1="112.4" y1="507.45" x2="70.94" y2="531.39"/><line class="cls-1" x1="57.12" y1="1021.04" x2="14.95" y2="996.69"/><line class="cls-1" x1="35.92" y1="447.24" x2="49.74" y2="439.26"/><line class="cls-1" x1="133.26" y1="503.43" x2="133.26" y2="567.66"/><line class="cls-1" x1="35.92" y1="447.24" x2="35.92" y2="487.38"/><line class="cls-1" x1="133.26" y1="503.43" x2="35.92" y2="447.24"/><line class="cls-1" x1="160.38" y1="359.33" x2="229.91" y2="399.47"/><line class="cls-1" x1="160.38" y1="375.38" x2="229.91" y2="415.52"/><line class="cls-1" x1="182.26" y1="346.7" x2="160.38" y2="359.33"/><line class="cls-1" x1="160.38" y1="375.38" x2="160.38" y2="359.33"/><line class="cls-1" x1="299.01" y1="359.57" x2="294.85" y2="357.16"/><line class="cls-1" x1="229.91" y1="399.47" x2="299.01" y2="359.57"/><line class="cls-1" x1="335.21" y1="218.26" x2="363.02" y2="202.2"/><line class="cls-1" x1="321.3" y1="292.11" x2="321.3" y2="306.56"/><line class="cls-1" x1="321.3" y1="306.56" x2="280.99" y2="329.84"/><line class="cls-1" x1="322.7" y1="291.31" x2="322.7" y2="307.36"/><line class="cls-1" x1="280.98" y1="315.39" x2="322.7" y2="291.31"/><line class="cls-1" x1="280.98" y1="331.45" x2="280.98" y2="315.39"/><line class="cls-1" x1="322.7" y1="307.36" x2="280.98" y2="331.45"/><line class="cls-1" x1="251.78" y1="349.91" x2="251.78" y2="314.59"/><line class="cls-1" x1="328.25" y1="270.44" x2="349.11" y2="258.39"/><line class="cls-1" x1="251.78" y1="314.59" x2="300.44" y2="286.5"/><line class="cls-1" x1="253.17" y1="363.56" x2="253.17" y2="315.39"/><line class="cls-1" x1="267.07" y1="355.53" x2="253.17" y2="363.56"/><line class="cls-1" x1="267.07" y1="371.59" x2="267.07" y2="355.53"/><line class="cls-1" x1="336.6" y1="331.45" x2="267.07" y2="371.59"/><line class="cls-1" x1="336.6" y1="315.39" x2="336.6" y2="331.45"/><line class="cls-1" x1="350.5" y1="307.36" x2="336.6" y2="315.39"/><line class="cls-1" x1="350.5" y1="293.74" x2="350.5" y2="307.36"/><line class="cls-1" x1="350.5" y1="259.2" x2="350.5" y2="293.74"/><line class="cls-1" x1="253.17" y1="315.39" x2="350.5" y2="259.2"/><line class="cls-1" x1="349.11" y1="242.33" x2="349.11" y2="227.89"/><line class="cls-1" x1="154.45" y1="178.13" x2="154.45" y2="164.3"/><line class="cls-1" x1="180.87" y1="337.87" x2="154.45" y2="322.62"/><polyline class="cls-1" points="154.45 322.62 154.45 306.56 154.45 258.39"/><line class="cls-1" x1="223.97" y1="298.53" x2="223.97" y2="250.36"/><line class="cls-1" x1="182.26" y1="370.79" x2="210.07" y2="386.84"/><line class="cls-1" x1="182.26" y1="341.88" x2="182.26" y2="370.79"/><line class="cls-1" x1="210.07" y1="357.94" x2="210.07" y2="386.84"/><line class="cls-1" x1="210.07" y1="386.84" x2="223.97" y2="378.81"/><line class="cls-1" x1="223.97" y1="378.81" x2="237.87" y2="386.84"/><line class="cls-1" x1="168.35" y1="218.26" x2="168.35" y2="266.42"/><line class="cls-1" x1="140.54" y1="202.2" x2="140.54" y2="250.36"/><line class="cls-1" x1="140.54" y1="250.36" x2="168.35" y2="266.42"/><line class="cls-1" x1="168.35" y1="266.42" x2="180.87" y2="259.19"/><line class="cls-1" x1="286.54" y1="278.46" x2="300.45" y2="286.49"/><line class="cls-1" x1="286.54" y1="262.41" x2="286.54" y2="278.46"/><line class="cls-1" x1="314.35" y1="246.35" x2="307.4" y2="250.36"/><line class="cls-1" x1="300.45" y1="286.49" x2="328.25" y2="270.44"/><line class="cls-1" x1="300.45" y1="270.44" x2="300.45" y2="286.49"/><line class="cls-1" x1="328.25" y1="254.38" x2="300.45" y2="270.44"/><line class="cls-1" x1="250.39" y1="379.61" x2="250.39" y2="365.16"/><line class="cls-1" x1="180.87" y1="339.48" x2="180.87" y2="341.08"/><polyline class="cls-1" points="180.87 225.48 180.87 323.42 180.87 339.48"/><line class="cls-1" x1="194.78" y1="283.28" x2="194.78" y2="233.51"/><line class="cls-1" x1="222.58" y1="299.33" x2="194.78" y2="283.28"/><polyline class="cls-1" points="222.58 363.56 222.58 347.5 222.58 299.33"/><line class="cls-1" x1="225.37" y1="363.56" x2="223.97" y2="364.36"/><line class="cls-1" x1="222.58" y1="365.16" x2="182.26" y2="341.88"/><line class="cls-1" x1="236.48" y1="371.59" x2="236.48" y2="357.13"/><line class="cls-1" x1="236.48" y1="373.19" x2="222.58" y2="365.16"/><line class="cls-1" x1="196.16" y1="282.48" x2="196.16" y2="218.26"/><line class="cls-1" x1="223.97" y1="298.53" x2="196.16" y2="282.48"/><line class="cls-1" x1="223.97" y1="306.56" x2="223.97" y2="298.53"/><line class="cls-1" x1="265.69" y1="258.39" x2="293.5" y2="242.34"/><line class="cls-1" x1="250.39" y1="363.56" x2="250.39" y2="299.33"/><line class="cls-1" x1="250.39" y1="299.33" x2="236.48" y2="291.31"/><line class="cls-1" x1="250.39" y1="365.16" x2="236.48" y2="357.13"/><line class="cls-1" x1="264.3" y1="371.59" x2="264.3" y2="357.13"/><line class="cls-1" x1="264.3" y1="373.19" x2="250.39" y2="365.16"/><line class="cls-1" x1="251.78" y1="298.53" x2="251.78" y2="314.59"/><line class="cls-1" x1="251.78" y1="298.53" x2="237.87" y2="290.51"/><line class="cls-1" x1="239.27" y1="371.59" x2="239.27" y2="358.74"/><line class="cls-1" x1="237.87" y1="370.79" x2="239.27" y2="371.59"/><line class="cls-1" x1="350.5" y1="241.54" x2="350.5" y2="259.2"/><line class="cls-1" x1="265.69" y1="372.39" x2="264.3" y2="373.19"/><line class="cls-1" x1="264.3" y1="373.19" x2="264.3" y2="371.59"/><line class="cls-1" x1="251.78" y1="364.36" x2="250.39" y2="365.16"/><line class="cls-1" x1="250.39" y1="365.16" x2="250.39" y2="363.56"/><line class="cls-1" x1="250.39" y1="299.33" x2="251.78" y2="298.53"/><line class="cls-1" x1="293.5" y1="242.34" x2="293.5" y2="226.28"/><line class="cls-1" x1="279.59" y1="234.31" x2="279.59" y2="218.26"/><line class="cls-1" x1="237.87" y1="372.39" x2="236.48" y2="373.19"/><line class="cls-1" x1="236.48" y1="373.19" x2="236.48" y2="371.59"/><line class="cls-1" x1="223.97" y1="364.36" x2="222.58" y2="365.16"/><line class="cls-1" x1="222.58" y1="365.16" x2="222.58" y2="363.56"/><line class="cls-1" x1="250.39" y1="379.61" x2="250.4" y2="379.6"/><line class="cls-1" x1="223.97" y1="298.53" x2="222.58" y2="299.33"/><line class="cls-1" x1="237.88" y1="372.39" x2="250.39" y2="379.61"/><line class="cls-1" x1="328.25" y1="270.44" x2="328.25" y2="254.38"/><line class="cls-1" x1="314.35" y1="246.35" x2="328.25" y2="254.38"/><line class="cls-1" x1="286.54" y1="262.41" x2="300.45" y2="270.44"/><line class="cls-1" x1="223.97" y1="378.81" x2="223.97" y2="365.97"/><line class="cls-1" x1="237.87" y1="386.84" x2="237.87" y2="372.39"/><line class="cls-1" x1="237.87" y1="386.84" x2="250.38" y2="379.62"/><line class="cls-1" x1="349.11" y1="240.73" x2="350.5" y2="241.54"/><line class="cls-1" x1="182.26" y1="341.88" x2="180.87" y2="341.08"/><line class="cls-1" x1="250.39" y1="361.95" x2="251.78" y2="362.76"/><line class="cls-1" x1="265.69" y1="370.79" x2="267.08" y2="369.98"/><line class="cls-1" x1="350.5" y1="259.2" x2="349.11" y2="258.39"/><line class="cls-1" x1="253.17" y1="315.39" x2="251.78" y2="314.59"/><line class="cls-1" x1="363.02" y1="202.2" x2="363.02" y2="186.14"/><line class="cls-1" x1="279.59" y1="234.31" x2="293.5" y2="226.28"/><line class="cls-1" x1="293.5" y1="226.28" x2="293.5" y2="210.23"/><line class="cls-1" x1="223.97" y1="322.62" x2="223.97" y2="306.56"/><line class="cls-1" x1="251.78" y1="154.03" x2="265.69" y2="146.01"/><line class="cls-1" x1="267.07" y1="371.58" x2="265.69" y2="372.39"/><line class="cls-1" x1="253.17" y1="363.56" x2="251.78" y2="364.36"/><line class="cls-1" x1="250.39" y1="365.16" x2="239.27" y2="371.59"/><line class="cls-1" x1="239.27" y1="371.59" x2="237.87" y2="372.39"/><line class="cls-1" x1="349.11" y1="258.39" x2="349.11" y2="242.33"/><line class="cls-1" x1="251.78" y1="362.76" x2="253.17" y2="361.95"/><line class="cls-1" x1="299.01" y1="375.62" x2="299.01" y2="359.57"/><line class="cls-1" x1="229.91" y1="415.52" x2="229.91" y2="399.47"/><line class="cls-1" x1="133.26" y1="567.66" x2="112.4" y2="555.62"/><line class="cls-1" x1="147.07" y1="495.46" x2="147.07" y2="559.68"/><line class="cls-1" x1="147.07" y1="495.46" x2="133.26" y2="503.43"/><line class="cls-1" x1="147.07" y1="559.68" x2="133.26" y2="567.66"/><line class="cls-1" x1="15.32" y1="499.27" x2="15.32" y2="515.33"/><line class="cls-1" x1="1.5" y1="523.31" x2="15.32" y2="515.33"/><line class="cls-1" x1="1.5" y1="523.31" x2="1.5" y2="988.93"/><line class="cls-1" x1="457.9" y1="324.03" x2="444.08" y2="316.05"/><line class="cls-1" x1="444.08" y1="315.95" x2="444.08" y2="316.05"/><line class="cls-1" x1="444.08" y1="332.01" x2="457.9" y2="324.03"/><line class="cls-1" x1="388.46" y1="283.85" x2="444.08" y2="315.95"/><line class="cls-1" x1="457.9" y1="324.03" x2="457.9" y2="789.64"/><line class="cls-1" x1="388.46" y1="283.85" x2="360.91" y2="299.75"/><line class="cls-1" x1="423.47" y1="335.88" x2="423.47" y2="351.83"/><line class="cls-1" x1="160.98" y1="503.49" x2="147.07" y2="495.46"/><line class="cls-1" x1="146.99" y1="463.39" x2="229.91" y2="415.52"/><line class="cls-1" x1="146.99" y1="479.45" x2="146.99" y2="463.39"/><line class="cls-1" x1="49.74" y1="439.26" x2="35.84" y2="431.23"/><line class="cls-1" x1="423.57" y1="809.47" x2="440.8" y2="799.52"/><line class="cls-1" x1="444.08" y1="316.05" x2="444.08" y2="332.01"/><line class="cls-1" x1="381.93" y1="327.94" x2="381.93" y2="327.76"/><line class="cls-1" x1="423.48" y1="351.84" x2="423.56" y2="351.89"/><line class="cls-1" x1="15.32" y1="499.27" x2="35.84" y2="487.43"/><line class="cls-1" x1="126.64" y1="113.89" x2="126.64" y2="81.78"/><line class="cls-1" x1="126.64" y1="113.89" x2="154.44" y2="129.95"/><line class="cls-1" x1="126.64" y1="81.78" x2="140.54" y2="89.81"/><line class="cls-1" x1="140.54" y1="89.81" x2="140.54" y2="73.75"/><line class="cls-1" x1="140.54" y1="73.75" x2="140.54" y2="57.7"/><line class="cls-1" x1="140.54" y1="73.75" x2="126.64" y2="81.78"/><line class="cls-1" x1="154.45" y1="65.73" x2="140.54" y2="57.7"/><line class="cls-1" x1="140.54" y1="73.75" x2="154.45" y2="65.73"/><line class="cls-1" x1="363.02" y1="89.81" x2="363.02" y2="73.75"/><line class="cls-1" x1="363.02" y1="89.81" x2="376.93" y2="81.78"/><line class="cls-1" x1="376.93" y1="81.78" x2="363.02" y2="73.75"/><line class="cls-1" x1="363.02" y1="73.75" x2="363.02" y2="57.7"/><line class="cls-1" x1="349.11" y1="65.73" x2="363.02" y2="73.75"/><line class="cls-1" x1="363.02" y1="57.7" x2="349.11" y2="65.73"/><line class="cls-1" x1="363.02" y1="57.7" x2="335.21" y2="41.64"/><line class="cls-1" x1="251.78" y1="137.98" x2="237.87" y2="146.01"/><line class="cls-1" x1="251.78" y1="137.98" x2="251.78" y2="121.92"/><line class="cls-1" x1="265.69" y1="146.01" x2="251.78" y2="137.98"/><line class="cls-1" x1="265.69" y1="146.01" x2="265.69" y2="129.95"/><line class="cls-1" x1="237.87" y1="146.01" x2="237.87" y2="129.95"/><line class="cls-1" x1="237.87" y1="146.01" x2="251.78" y2="154.03"/><line class="cls-1" x1="251.78" y1="121.92" x2="237.87" y2="129.95"/><line class="cls-1" x1="265.69" y1="129.95" x2="251.78" y2="121.92"/><line class="cls-1" x1="279.59" y1="202.2" x2="293.5" y2="194.17"/><line class="cls-1" x1="404.73" y1="129.95" x2="404.73" y2="113.89"/><line class="cls-1" x1="279.59" y1="186.14" x2="293.5" y2="178.11"/><line class="cls-1" x1="279.59" y1="202.2" x2="279.59" y2="186.14"/><line class="cls-1" x1="404.73" y1="113.89" x2="376.93" y2="97.84"/><line class="cls-1" x1="404.73" y1="146.01" x2="404.73" y2="129.95"/><line class="cls-1" x1="307.4" y1="202.2" x2="307.4" y2="186.14"/><line class="cls-1" x1="404.73" y1="129.95" x2="390.84" y2="121.92"/><line class="cls-1" x1="293.5" y1="194.17" x2="307.4" y2="202.2"/><line class="cls-1" x1="293.5" y1="178.11" x2="307.4" y2="186.14"/><line class="cls-1" x1="404.73" y1="162.06" x2="404.73" y2="146.01"/><line class="cls-1" x1="335.21" y1="202.2" x2="335.21" y2="186.14"/><line class="cls-1" x1="404.73" y1="146.01" x2="390.83" y2="137.98"/><line class="cls-1" x1="321.3" y1="194.17" x2="321.32" y2="194.18"/><line class="cls-1" x1="321.3" y1="194.17" x2="321.3" y2="178.11"/><line class="cls-1" x1="390.83" y1="137.98" x2="404.73" y2="129.95"/><line class="cls-1" x1="293.5" y1="194.17" x2="293.5" y2="178.11"/><line class="cls-1" x1="376.93" y1="97.84" x2="376.93" y2="81.78"/><line class="cls-1" x1="251.78" y1="170.09" x2="251.78" y2="154.03"/><line class="cls-1" x1="168.35" y1="73.75" x2="168.35" y2="57.7"/><line class="cls-1" x1="168.35" y1="57.7" x2="168.35" y2="41.64"/><line class="cls-1" x1="168.35" y1="57.7" x2="182.26" y2="49.67"/><line class="cls-1" x1="335.21" y1="73.75" x2="335.21" y2="57.7"/><line class="cls-1" x1="335.21" y1="57.7" x2="335.21" y2="41.64"/><line class="cls-1" x1="335.21" y1="41.64" x2="321.3" y2="49.67"/><line class="cls-1" x1="335.21" y1="41.64" x2="307.4" y2="25.58"/><line class="cls-1" x1="251.78" y1="105.86" x2="251.78" y2="89.81"/><line class="cls-1" x1="237.87" y1="113.89" x2="237.87" y2="97.84"/><line class="cls-1" x1="251.78" y1="89.81" x2="237.87" y2="97.84"/><line class="cls-1" x1="265.69" y1="97.84" x2="251.78" y2="89.81"/><line class="cls-1" x1="251.78" y1="9.53" x2="265.69" y2="1.5"/><line class="cls-1" x1="237.87" y1="1.5" x2="251.78" y2="9.53"/><line class="cls-1" x1="196.16" y1="57.7" x2="196.16" y2="41.64"/><line class="cls-1" x1="196.16" y1="41.64" x2="196.16" y2="25.58"/><line class="cls-1" x1="210.07" y1="33.61" x2="196.16" y2="25.58"/><line class="cls-1" x1="196.16" y1="41.64" x2="210.07" y2="33.61"/><line class="cls-1" x1="307.4" y1="57.7" x2="307.4" y2="41.64"/><line class="cls-1" x1="307.4" y1="41.64" x2="307.4" y2="25.58"/><line class="cls-1" x1="307.4" y1="25.58" x2="293.5" y2="33.61"/><line class="cls-1" x1="307.4" y1="25.58" x2="265.69" y2="1.5"/><line class="cls-1" x1="251.78" y1="73.75" x2="251.78" y2="57.7"/><line class="cls-1" x1="265.69" y1="81.78" x2="265.69" y2="65.73"/><line class="cls-1" x1="237.87" y1="81.78" x2="237.87" y2="65.73"/><line class="cls-1" x1="251.78" y1="57.7" x2="237.87" y2="65.73"/><line class="cls-1" x1="265.69" y1="65.73" x2="251.78" y2="57.7"/><line class="cls-1" x1="251.78" y1="73.75" x2="237.87" y2="81.78"/><line class="cls-1" x1="265.69" y1="81.78" x2="251.78" y2="73.75"/><line class="cls-1" x1="251.78" y1="105.86" x2="237.87" y2="113.89"/><line class="cls-1" x1="321.32" y1="49.67" x2="335.21" y2="57.7"/><line class="cls-1" x1="35.84" y1="487.43" x2="35.93" y2="487.38"/><line class="cls-1" x1="293.51" y1="33.62" x2="307.4" y2="41.64"/><line class="cls-1" x1="237.87" y1="1.5" x2="196.16" y2="25.58"/><line class="cls-1" x1="349.12" y1="227.89" x2="350.5" y2="227.08"/><line class="cls-1" x1="305.38" y1="283.65" x2="305.38" y2="283.65"/><line class="cls-1" x1="350.5" y1="293.75" x2="360.91" y2="299.75"/><line class="cls-1" x1="250.4" y1="331.5" x2="250.34" y2="331.47"/><line class="cls-1" x1="223.97" y1="362.76" x2="223.97" y2="362.76"/><line class="cls-1" x1="236.48" y1="291.31" x2="237.87" y2="290.51"/><line class="cls-1" x1="265.69" y1="113.88" x2="265.69" y2="97.84"/><line class="cls-1" x1="237.87" y1="178.11" x2="237.87" y2="210.23"/><line class="cls-1" x1="237.87" y1="274.45" x2="237.87" y2="290.51"/><line class="cls-1" x1="251.78" y1="282.49" x2="251.78" y2="298.53"/><line class="cls-1" x1="223.97" y1="218.26" x2="223.97" y2="170.09"/><line class="cls-1" x1="314.35" y1="302.54" x2="321.3" y2="306.56"/><line class="cls-1" x1="349.11" y1="227.89" x2="349.11" y2="226.28"/><line class="cls-1" x1="251.78" y1="186.16" x2="251.78" y2="202.2"/><line class="cls-1" x1="154.45" y1="164.3" x2="154.45" y2="129.95"/><line class="cls-1" x1="314.35" y1="302.54" x2="314.35" y2="296.11"/><line class="cls-1" x1="350.5" y1="227.08" x2="350.5" y2="241.54"/><line class="cls-1" x1="349.11" y1="226.28" x2="350.5" y2="227.08"/><line class="cls-1" x1="223.97" y1="298.53" x2="236.48" y2="291.31"/><line class="cls-1" x1="223.97" y1="362.76" x2="225.37" y2="363.56"/><line class="cls-1" x1="223.97" y1="298.53" x2="225.37" y2="299.33"/><line class="cls-1" x1="322.7" y1="339.48" x2="322.7" y2="341.08"/><line class="cls-1" x1="253.17" y1="381.22" x2="253.17" y2="379.61"/><line class="cls-1" x1="414.56" y1="838.75" x2="425.59" y2="845.12"/><line class="cls-1" x1="91.48" y1="1001.2" x2="104.93" y2="1008.97"/><line class="cls-1" x1="56.67" y1="1020.78" x2="49.31" y2="1025.02"/><line class="cls-1" x1="49.31" y1="1016.53" x2="49.31" y2="1025.02"/><line class="cls-1" x1="21.51" y1="1000.47" x2="21.51" y2="1008.97"/><line class="cls-1" x1="423.56" y1="825" x2="440.34" y2="815.32"/><line class="cls-1" x1="440.8" y1="799.52" x2="457.9" y2="789.64"/><line class="cls-1" x1="14.95" y1="996.69" x2="1.5" y2="988.93"/><line class="cls-1" x1="35.84" y1="481.16" x2="35.84" y2="487.43"/><line class="cls-1" x1="223.97" y1="250.36" x2="237.87" y2="258.39"/><line class="cls-1" x1="168.35" y1="41.64" x2="140.54" y2="57.7"/><line class="cls-1" x1="196.17" y1="25.58" x2="168.35" y2="41.64"/><line class="cls-1" x1="182.26" y1="49.67" x2="168.35" y2="41.64"/><line class="cls-1" x1="237.87" y1="258.4" x2="237.87" y2="274.45"/><line class="cls-1" x1="237.87" y1="210.23" x2="251.78" y2="218.26"/><line class="cls-1" x1="237.87" y1="274.45" x2="251.78" y2="282.48"/><line class="cls-1" x1="237.87" y1="226.28" x2="251.78" y2="234.31"/><line class="cls-1" x1="223.97" y1="234.31" x2="237.87" y2="242.34"/><line class="cls-1" x1="251.78" y1="218.26" x2="251.78" y2="234.31"/><line class="cls-1" x1="376.93" y1="210.23" x2="376.93" y2="178.11"/><line class="cls-1" x1="237.87" y1="258.39" x2="251.78" y2="250.36"/><line class="cls-1" x1="237.87" y1="242.34" x2="237.87" y2="258.39"/><line class="cls-1" x1="251.78" y1="234.31" x2="237.87" y2="242.34"/><line class="cls-1" x1="237.87" y1="210.23" x2="237.87" y2="226.28"/><line class="cls-1" x1="64.07" y1="1112.83" x2="63.21" y2="1113.33"/><line class="cls-1" x1="425.6" y1="904.11" x2="426.44" y2="903.62"/><line class="cls-1" x1="426.44" y1="887.57" x2="426.44" y2="903.62"/><line class="cls-1" x1="91.03" y1="1081.22" x2="91.03" y2="1097.28"/><line class="cls-1" x1="49.31" y1="1073.19" x2="49.31" y2="1105.3"/><line class="cls-1" x1="21.51" y1="1008.97" x2="7.6" y2="1000.94"/><line class="cls-1" x1="7.6" y1="1000.94" x2="14.96" y2="996.69"/><line class="cls-1" x1="63.21" y1="1081.22" x2="49.31" y2="1073.19"/><line class="cls-1" x1="7.6" y1="1000.94" x2="7.6" y2="1049.1"/><line class="cls-1" x1="63.21" y1="1033.05" x2="49.31" y2="1025.02"/><line class="cls-1" x1="104.93" y1="1008.97" x2="77.12" y2="1025.02"/><line class="cls-1" x1="91.03" y1="1097.28" x2="64.07" y2="1112.83"/><line class="cls-1" x1="63.21" y1="1113.33" x2="49.31" y2="1105.3"/><line class="cls-1" x1="104.93" y1="1057.13" x2="104.93" y2="1073.19"/><line class="cls-1" x1="77.12" y1="1073.19" x2="77.12" y2="1089.25"/><line class="cls-1" x1="440.34" y1="863.48" x2="454.25" y2="855.45"/><line class="cls-1" x1="440.34" y1="815.32" x2="454.25" y2="807.29"/><line class="cls-1" x1="454.25" y1="807.29" x2="454.25" y2="855.45"/><line class="cls-1" x1="454.25" y1="807.29" x2="440.79" y2="799.52"/><line class="cls-1" x1="440.34" y1="863.48" x2="440.34" y2="879.54"/><line class="cls-1" x1="258.73" y1="1069.9" x2="328.25" y2="1029.76"/></g></g></svg>