<svg xmlns="http://www.w3.org/2000/svg" viewBox="0 0 461.86 1171.49"><defs><style>.cls-1{fill:none;stroke:#000;stroke-linecap:round;stroke-linejoin:round;stroke-width:3px;}</style></defs><title>Asset 4ALI</title><g id="Layer_2" data-name="Layer 2"><g id="Make2D::Visible::Curves"><line class="cls-1" x1="328.26" y1="1169.99" x2="328.26" y2="1019.52"/><line class="cls-1" x1="425.59" y1="1040.65" x2="425.59" y2="1169.99"/><line class="cls-1" x1="161.41" y1="987.41" x2="161.41" y2="1169.99"/><line class="cls-1" x1="64.07" y1="1169.99" x2="64.07" y2="1102.6"/><line class="cls-1" x1="258.74" y1="1169.99" x2="258.74" y2="1059.66"/><line class="cls-1" x1="434.31" y1="1093.84" x2="434.31" y2="1169.99"/><line class="cls-1" x1="175.31" y1="388.65" x2="175.31" y2="372.59"/><line class="cls-1" x1="189.22" y1="364.56" x2="175.31" y2="372.59"/><line class="cls-1" x1="175.31" y1="388.65" x2="189.22" y2="396.68"/><line class="cls-1" x1="175.31" y1="372.59" x2="189.22" y2="380.62"/><line class="cls-1" x1="217.02" y1="412.73" x2="230.93" y2="404.7"/><line class="cls-1" x1="230.93" y1="404.7" x2="230.93" y2="388.65"/><line class="cls-1" x1="217.02" y1="396.68" x2="230.93" y2="388.65"/><line class="cls-1" x1="342.17" y1="452.87" x2="356.07" y2="444.84"/><line class="cls-1" x1="342.17" y1="436.81" x2="356.07" y2="428.78"/><line class="cls-1" x1="250.56" y1="252.04" x2="250.56" y2="266.31"/><polyline class="cls-1" points="250.56 266.31 262.92 259.17 262.93 259.17"/><line class="cls-1" x1="284.46" y1="209.2" x2="267.51" y2="199.42"/><line class="cls-1" x1="386.15" y1="150.49" x2="284.46" y2="209.2"/><polyline class="cls-1" points="148.86 148.88 139.87 143.69 96.98 118.93"/><line class="cls-1" x1="96.98" y1="118.93" x2="96.98" y2="216.79"/><line class="cls-1" x1="182.76" y1="168.45" x2="165.81" y2="158.67"/><line class="cls-1" x1="284.46" y1="168.45" x2="267.51" y2="158.67"/><line class="cls-1" x1="301.41" y1="158.67" x2="284.46" y2="168.45"/><line class="cls-1" x1="284.46" y1="168.45" x2="284.46" y2="209.2"/><line class="cls-1" x1="386.15" y1="130.92" x2="386.15" y2="150.49"/><line class="cls-1" x1="301.41" y1="139.1" x2="318.35" y2="129.31"/><line class="cls-1" x1="284.46" y1="129.31" x2="301.41" y2="139.1"/><line class="cls-1" x1="301.41" y1="158.67" x2="301.41" y2="139.1"/><line class="cls-1" x1="284.46" y1="148.88" x2="301.41" y2="158.67"/><line class="cls-1" x1="250.56" y1="148.88" x2="267.51" y2="139.1"/><line class="cls-1" x1="233.61" y1="139.1" x2="250.56" y2="148.88"/><line class="cls-1" x1="250.56" y1="168.45" x2="250.56" y2="148.88"/><line class="cls-1" x1="165.81" y1="119.52" x2="148.86" y2="129.31"/><line class="cls-1" x1="165.81" y1="139.1" x2="182.76" y2="129.31"/><line class="cls-1" x1="165.81" y1="158.67" x2="182.76" y2="148.88"/><line class="cls-1" x1="148.87" y1="129.32" x2="165.81" y2="139.1"/><line class="cls-1" x1="182.76" y1="148.88" x2="182.76" y2="129.31"/><line class="cls-1" x1="216.66" y1="148.88" x2="233.61" y2="139.1"/><line class="cls-1" x1="233.61" y1="158.67" x2="233.61" y2="139.1"/><line class="cls-1" x1="216.66" y1="168.45" x2="216.66" y2="148.88"/><line class="cls-1" x1="130.88" y1="99.36" x2="165.81" y2="119.52"/><line class="cls-1" x1="130.88" y1="118.93" x2="148.86" y2="129.31"/><line class="cls-1" x1="216.66" y1="51.02" x2="199.71" y2="60.81"/><line class="cls-1" x1="199.71" y1="80.38" x2="199.71" y2="60.81"/><line class="cls-1" x1="199.71" y1="60.81" x2="216.66" y2="70.59"/><line class="cls-1" x1="216.66" y1="70.59" x2="199.71" y2="80.38"/><line class="cls-1" x1="216.66" y1="90.17" x2="233.61" y2="80.38"/><line class="cls-1" x1="199.71" y1="99.95" x2="199.71" y2="80.38"/><line class="cls-1" x1="199.71" y1="80.38" x2="216.66" y2="90.17"/><line class="cls-1" x1="216.66" y1="109.74" x2="216.66" y2="90.17"/><line class="cls-1" x1="301.41" y1="2.1" x2="284.46" y2="11.88"/><line class="cls-1" x1="318.35" y1="70.59" x2="335.3" y2="60.81"/><line class="cls-1" x1="335.3" y1="80.38" x2="335.3" y2="60.81"/><line class="cls-1" x1="301.41" y1="80.38" x2="318.35" y2="70.59"/><line class="cls-1" x1="284.46" y1="70.59" x2="301.41" y2="80.38"/><line class="cls-1" x1="301.41" y1="99.95" x2="301.41" y2="80.38"/><line class="cls-1" x1="267.51" y1="80.38" x2="284.46" y2="70.59"/><line class="cls-1" x1="250.56" y1="90.17" x2="267.51" y2="80.38"/><line class="cls-1" x1="233.61" y1="80.38" x2="250.56" y2="90.17"/><line class="cls-1" x1="250.56" y1="109.74" x2="250.56" y2="90.17"/><line class="cls-1" x1="198.68" y1="60.22" x2="199.7" y2="60.8"/><line class="cls-1" x1="198.68" y1="40.64" x2="216.66" y2="51.02"/><line class="cls-1" x1="199.71" y1="99.95" x2="216.66" y2="109.74"/><line class="cls-1" x1="199.71" y1="99.95" x2="182.76" y2="109.74"/><line class="cls-1" x1="199.71" y1="119.52" x2="216.66" y2="109.74"/><line class="cls-1" x1="199.71" y1="139.1" x2="216.66" y2="129.31"/><line class="cls-1" x1="182.76" y1="129.31" x2="182.76" y2="109.74"/><line class="cls-1" x1="199.71" y1="139.1" x2="199.71" y2="119.52"/><line class="cls-1" x1="318.35" y1="90.17" x2="335.3" y2="80.38"/><line class="cls-1" x1="352.25" y1="90.17" x2="335.3" y2="80.38"/><line class="cls-1" x1="335.3" y1="99.95" x2="352.25" y2="90.17"/><line class="cls-1" x1="318.35" y1="109.74" x2="335.3" y2="99.95"/><line class="cls-1" x1="301.41" y1="99.95" x2="318.35" y2="109.74"/><line class="cls-1" x1="318.35" y1="129.31" x2="318.35" y2="109.74"/><line class="cls-1" x1="301.41" y1="119.52" x2="318.35" y2="129.31"/><line class="cls-1" x1="335.3" y1="80.38" x2="352.25" y2="70.59"/><line class="cls-1" x1="284.46" y1="90.17" x2="301.41" y2="99.95"/><line class="cls-1" x1="267.51" y1="99.95" x2="284.46" y2="90.17"/><line class="cls-1" x1="284.46" y1="109.74" x2="301.41" y2="99.95"/><line class="cls-1" x1="301.41" y1="119.52" x2="301.41" y2="99.95"/><line class="cls-1" x1="301.41" y1="119.52" x2="284.46" y2="129.31"/><line class="cls-1" x1="250.56" y1="109.74" x2="267.51" y2="99.95"/><line class="cls-1" x1="267.51" y1="119.52" x2="284.46" y2="109.74"/><line class="cls-1" x1="250.56" y1="109.74" x2="267.51" y2="119.52"/><line class="cls-1" x1="267.51" y1="139.1" x2="267.51" y2="119.52"/><line class="cls-1" x1="250.56" y1="129.31" x2="267.51" y2="139.1"/><line class="cls-1" x1="216.66" y1="109.74" x2="233.61" y2="99.95"/><line class="cls-1" x1="233.61" y1="99.95" x2="250.56" y2="109.74"/><line class="cls-1" x1="233.61" y1="119.52" x2="250.56" y2="109.74"/><line class="cls-1" x1="250.56" y1="129.31" x2="233.61" y2="139.1"/><line class="cls-1" x1="250.56" y1="129.31" x2="250.56" y2="109.74"/><line class="cls-1" x1="233.61" y1="139.1" x2="233.61" y2="119.52"/><line class="cls-1" x1="216.66" y1="129.31" x2="216.66" y2="109.74"/><line class="cls-1" x1="182.76" y1="90.17" x2="199.71" y2="99.95"/><line class="cls-1" x1="164.78" y1="79.79" x2="182.76" y2="90.17"/><line class="cls-1" x1="164.78" y1="99.36" x2="182.76" y2="109.74"/><line class="cls-1" x1="164.78" y1="99.36" x2="164.78" y2="79.79"/><line class="cls-1" x1="182.76" y1="266.31" x2="154.45" y2="249.97"/><line class="cls-1" x1="233.61" y1="256.52" x2="216.66" y2="266.31"/><line class="cls-1" x1="250.56" y1="266.31" x2="233.61" y2="256.52"/><polyline class="cls-1" points="300.45 364.55 300.45 348.51 300.45 340.47"/><line class="cls-1" x1="314.35" y1="356.53" x2="383.88" y2="316.4"/><line class="cls-1" x1="411.69" y1="332.45" x2="425.59" y2="340.48"/><line class="cls-1" x1="328.26" y1="364.56" x2="383.88" y2="332.45"/><line class="cls-1" x1="77.98" y1="428.78" x2="77.98" y2="412.73"/><line class="cls-1" x1="383.88" y1="332.45" x2="383.88" y2="316.4"/><line class="cls-1" x1="77.98" y1="412.73" x2="147.5" y2="452.87"/><line class="cls-1" x1="383.88" y1="316.4" x2="349.12" y2="296.33"/><line class="cls-1" x1="161.41" y1="974.67" x2="425.59" y2="822.15"/><line class="cls-1" x1="112.75" y1="946.58" x2="161.41" y2="974.67"/><line class="cls-1" x1="328.26" y1="396.67" x2="258.74" y2="436.81"/><line class="cls-1" x1="425.59" y1="340.48" x2="342.17" y2="388.65"/><line class="cls-1" x1="425.59" y1="340.48" x2="425.59" y2="822.15"/><line class="cls-1" x1="161.41" y1="493.01" x2="161.41" y2="974.67"/><line class="cls-1" x1="363.03" y1="288.3" x2="425.59" y2="324.42"/><line class="cls-1" x1="425.59" y1="324.42" x2="411.69" y2="332.45"/><line class="cls-1" x1="390.83" y1="272.24" x2="446.45" y2="304.35"/><line class="cls-1" x1="418.64" y1="320.41" x2="446.45" y2="304.35"/><line class="cls-1" x1="112.74" y1="545.19" x2="112.74" y2="978.69"/><line class="cls-1" x1="112.74" y1="497.02" x2="112.74" y2="545.19"/><line class="cls-1" x1="57.12" y1="464.91" x2="112.74" y2="497.02"/><line class="cls-1" x1="36.26" y1="476.95" x2="57.12" y2="464.91"/><line class="cls-1" x1="15.41" y1="488.99" x2="36.26" y2="476.95"/><line class="cls-1" x1="57.12" y1="545.19" x2="57.12" y2="1010.8"/><line class="cls-1" x1="15.41" y1="488.99" x2="71.03" y2="521.11"/><line class="cls-1" x1="71.03" y1="537.16" x2="57.12" y2="545.19"/><line class="cls-1" x1="71.03" y1="521.11" x2="71.03" y2="537.16"/><line class="cls-1" x1="57.12" y1="545.19" x2="1.5" y2="513.08"/><line class="cls-1" x1="15.41" y1="505.05" x2="71.03" y2="537.16"/><line class="cls-1" x1="112.74" y1="978.69" x2="57.12" y2="1010.8"/><line class="cls-1" x1="112.74" y1="497.02" x2="71.03" y2="521.11"/><line class="cls-1" x1="57.12" y1="1010.8" x2="14.96" y2="986.46"/><line class="cls-1" x1="133.59" y1="493.01" x2="133.59" y2="557.23"/><line class="cls-1" x1="133.59" y1="493.01" x2="36.26" y2="436.81"/><line class="cls-1" x1="161.41" y1="332.45" x2="230.93" y2="372.59"/><line class="cls-1" x1="230.93" y1="372.59" x2="244.84" y2="364.56"/><line class="cls-1" x1="237.88" y1="258.99" x2="237.88" y2="344.49"/><line class="cls-1" x1="279.6" y1="320.41" x2="321.31" y2="296.33"/><line class="cls-1" x1="279.6" y1="304.35" x2="279.6" y2="320.41"/><line class="cls-1" x1="321.31" y1="280.27" x2="279.6" y2="304.35"/><line class="cls-1" x1="251.79" y1="352.52" x2="265.69" y2="360.55"/><line class="cls-1" x1="335.21" y1="320.41" x2="335.21" y2="304.35"/><line class="cls-1" x1="265.69" y1="360.55" x2="335.21" y2="320.41"/><line class="cls-1" x1="265.69" y1="344.49" x2="265.69" y2="360.55"/><line class="cls-1" x1="251.79" y1="265.6" x2="251.79" y2="352.52"/><line class="cls-1" x1="175.31" y1="324.42" x2="154.45" y2="312.38"/><line class="cls-1" x1="223.97" y1="352.52" x2="182.27" y2="328.43"/><line class="cls-1" x1="251.79" y1="368.58" x2="237.88" y2="360.55"/><polyline class="cls-1" points="154.45 312.38 154.45 296.33 154.45 249.97"/><polyline class="cls-1" points="223.97 352.52 223.97 336.46 223.97 262.08"/><line class="cls-1" x1="251.79" y1="368.58" x2="251.79" y2="352.52"/><line class="cls-1" x1="182.27" y1="360.55" x2="210.07" y2="376.6"/><line class="cls-1" x1="182.27" y1="328.44" x2="182.27" y2="360.55"/><line class="cls-1" x1="210.07" y1="344.49" x2="210.07" y2="376.6"/><line class="cls-1" x1="279.6" y1="312.37" x2="314.35" y2="292.31"/><line class="cls-1" x1="425.59" y1="892.9" x2="425.59" y2="1040.65"/><line class="cls-1" x1="425.59" y1="834.88" x2="425.59" y2="892.9"/><line class="cls-1" x1="425.59" y1="834.88" x2="161.41" y2="987.41"/><line class="cls-1" x1="161.41" y1="987.41" x2="112.74" y2="959.31"/><line class="cls-1" x1="258.74" y1="1059.66" x2="328.26" y2="1019.52"/><line class="cls-1" x1="147.5" y1="372.59" x2="161.41" y2="380.62"/><line class="cls-1" x1="161.41" y1="364.56" x2="175.31" y2="372.59"/><line class="cls-1" x1="161.41" y1="380.62" x2="161.41" y2="364.56"/><line class="cls-1" x1="182.27" y1="360.55" x2="175.31" y2="356.53"/><line class="cls-1" x1="342.17" y1="468.93" x2="356.07" y2="460.9"/><line class="cls-1" x1="230.93" y1="436.81" x2="244.83" y2="444.84"/><line class="cls-1" x1="244.83" y1="444.84" x2="244.83" y2="428.78"/><line class="cls-1" x1="258.74" y1="436.81" x2="258.74" y2="420.76"/><line class="cls-1" x1="63.22" y1="1070.99" x2="63.22" y2="1103.09"/><line class="cls-1" x1="56.67" y1="1010.54" x2="49.32" y2="1014.79"/><line class="cls-1" x1="77.13" y1="1062.96" x2="63.22" y2="1070.99"/><line class="cls-1" x1="77.13" y1="1014.79" x2="63.22" y2="1022.82"/><line class="cls-1" x1="63.22" y1="1022.82" x2="63.22" y2="1070.99"/><line class="cls-1" x1="49.32" y1="1062.96" x2="7.61" y2="1038.87"/><line class="cls-1" x1="63.22" y1="1022.82" x2="49.32" y2="1014.79"/><line class="cls-1" x1="104.94" y1="998.74" x2="104.94" y2="1046.9"/><line class="cls-1" x1="91.03" y1="1087.04" x2="64.07" y2="1102.6"/><line class="cls-1" x1="104.94" y1="1062.96" x2="77.13" y2="1079.01"/><line class="cls-1" x1="77.13" y1="1079.01" x2="63.22" y2="1070.99"/><line class="cls-1" x1="426.45" y1="877.33" x2="440.35" y2="869.31"/><line class="cls-1" x1="262.92" y1="202.06" x2="250.56" y2="209.2"/><line class="cls-1" x1="267.51" y1="218.99" x2="262.92" y2="216.34"/><line class="cls-1" x1="411.29" y1="194.93" x2="300.01" y2="259.17"/><line class="cls-1" x1="411.29" y1="180.65" x2="300.01" y2="244.89"/><line class="cls-1" x1="411.29" y1="180.65" x2="411.29" y2="194.93"/><line class="cls-1" x1="300.01" y1="259.17" x2="300.01" y2="244.89"/><line class="cls-1" x1="411.29" y1="159.24" x2="300.01" y2="223.48"/><line class="cls-1" x1="349.13" y1="252.23" x2="300.01" y2="280.59"/><line class="cls-1" x1="287.65" y1="273.45" x2="300.01" y2="280.59"/><line class="cls-1" x1="275.28" y1="280.59" x2="287.65" y2="273.45"/><line class="cls-1" x1="275.28" y1="266.31" x2="275.28" y2="280.59"/><line class="cls-1" x1="300.01" y1="266.31" x2="287.65" y2="273.45"/><line class="cls-1" x1="300.01" y1="266.31" x2="300.01" y2="280.59"/><line class="cls-1" x1="262.92" y1="259.17" x2="262.92" y2="273.45"/><line class="cls-1" x1="262.92" y1="259.17" x2="250.56" y2="252.03"/><line class="cls-1" x1="250.56" y1="223.48" x2="250.56" y2="252.03"/><line class="cls-1" x1="287.65" y1="244.89" x2="287.65" y2="273.45"/><line class="cls-1" x1="275.28" y1="223.48" x2="267.51" y2="218.99"/><line class="cls-1" x1="287.65" y1="216.34" x2="300.01" y2="223.48"/><line class="cls-1" x1="275.28" y1="223.48" x2="287.65" y2="216.34"/><line class="cls-1" x1="300.01" y1="237.76" x2="287.65" y2="244.89"/><line class="cls-1" x1="300.01" y1="223.48" x2="300.01" y2="237.76"/><line class="cls-1" x1="287.65" y1="244.89" x2="275.28" y2="237.76"/><line class="cls-1" x1="275.28" y1="223.48" x2="275.28" y2="237.76"/><line class="cls-1" x1="287.65" y1="230.62" x2="300.01" y2="237.76"/><line class="cls-1" x1="275.28" y1="237.76" x2="287.65" y2="230.62"/><line class="cls-1" x1="287.65" y1="216.34" x2="287.65" y2="230.62"/><line class="cls-1" x1="262.92" y1="202.06" x2="267.51" y2="199.42"/><line class="cls-1" x1="250.56" y1="209.2" x2="262.92" y2="216.34"/><line class="cls-1" x1="406.96" y1="192.43" x2="406.96" y2="183.15"/><line class="cls-1" x1="300.02" y1="254.17" x2="406.96" y2="192.43"/><line class="cls-1" x1="342.17" y1="404.7" x2="356.07" y2="396.68"/><line class="cls-1" x1="342.17" y1="420.76" x2="356.07" y2="412.73"/><line class="cls-1" x1="356.07" y1="396.68" x2="342.17" y2="388.65"/><line class="cls-1" x1="328.26" y1="396.68" x2="328.26" y2="380.62"/><line class="cls-1" x1="314.35" y1="388.65" x2="328.26" y2="396.68"/><line class="cls-1" x1="342.17" y1="388.65" x2="342.17" y2="372.59"/><line class="cls-1" x1="217.02" y1="412.73" x2="217.02" y2="396.68"/><line class="cls-1" x1="230.93" y1="388.65" x2="217.02" y2="380.62"/><line class="cls-1" x1="203.12" y1="404.7" x2="203.12" y2="388.65"/><line class="cls-1" x1="217.02" y1="380.62" x2="203.12" y2="388.65"/><line class="cls-1" x1="203.12" y1="404.7" x2="217.02" y2="412.73"/><line class="cls-1" x1="203.12" y1="388.65" x2="217.02" y2="396.68"/><line class="cls-1" x1="258.74" y1="501.03" x2="272.65" y2="493.01"/><line class="cls-1" x1="272.65" y1="493.01" x2="272.65" y2="476.95"/><line class="cls-1" x1="258.74" y1="501.03" x2="258.74" y2="484.98"/><line class="cls-1" x1="244.83" y1="493.01" x2="244.83" y2="476.95"/><line class="cls-1" x1="244.83" y1="493.01" x2="258.74" y2="501.03"/><line class="cls-1" x1="342.17" y1="372.59" x2="328.26" y2="364.56"/><line class="cls-1" x1="314.35" y1="388.65" x2="314.35" y2="372.59"/><line class="cls-1" x1="328.26" y1="364.56" x2="314.35" y2="372.59"/><line class="cls-1" x1="314.35" y1="372.59" x2="328.26" y2="380.62"/><line class="cls-1" x1="328.26" y1="380.62" x2="342.17" y2="372.59"/><line class="cls-1" x1="356.07" y1="412.73" x2="356.07" y2="396.68"/><line class="cls-1" x1="328.26" y1="412.73" x2="328.26" y2="396.68"/><line class="cls-1" x1="342.17" y1="388.65" x2="328.26" y2="396.68"/><line class="cls-1" x1="328.26" y1="412.73" x2="342.17" y2="420.76"/><line class="cls-1" x1="342.17" y1="420.76" x2="342.17" y2="404.7"/><line class="cls-1" x1="328.26" y1="396.68" x2="342.17" y2="404.7"/><line class="cls-1" x1="286.55" y1="533.15" x2="300.45" y2="525.11"/><line class="cls-1" x1="300.45" y1="525.11" x2="300.45" y2="509.06"/><line class="cls-1" x1="286.55" y1="517.09" x2="300.45" y2="509.06"/><line class="cls-1" x1="286.55" y1="533.15" x2="286.55" y2="517.09"/><line class="cls-1" x1="300.45" y1="509.06" x2="286.55" y2="501.03"/><line class="cls-1" x1="272.65" y1="525.11" x2="286.55" y2="533.15"/><line class="cls-1" x1="258.74" y1="517.09" x2="272.65" y2="509.06"/><line class="cls-1" x1="272.65" y1="509.06" x2="272.65" y2="493.01"/><line class="cls-1" x1="258.74" y1="517.09" x2="258.74" y2="501.03"/><line class="cls-1" x1="244.83" y1="509.06" x2="244.83" y2="493.01"/><line class="cls-1" x1="244.83" y1="509.06" x2="258.74" y2="517.09"/><line class="cls-1" x1="314.35" y1="340.48" x2="307.4" y2="336.46"/><line class="cls-1" x1="314.35" y1="356.53" x2="314.35" y2="340.48"/><line class="cls-1" x1="300.45" y1="348.51" x2="314.35" y2="340.48"/><line class="cls-1" x1="328.26" y1="364.56" x2="314.35" y2="356.53"/><line class="cls-1" x1="300.45" y1="380.62" x2="300.45" y2="364.56"/><line class="cls-1" x1="300.45" y1="380.62" x2="314.35" y2="388.65"/><line class="cls-1" x1="328.26" y1="493.01" x2="314.35" y2="484.98"/><line class="cls-1" x1="328.26" y1="509.06" x2="328.26" y2="493.01"/><line class="cls-1" x1="314.35" y1="484.98" x2="300.45" y2="493.01"/><line class="cls-1" x1="314.35" y1="517.09" x2="328.26" y2="509.06"/><line class="cls-1" x1="314.35" y1="501.03" x2="328.26" y2="493.01"/><line class="cls-1" x1="300.45" y1="525.11" x2="314.35" y2="517.09"/><line class="cls-1" x1="314.35" y1="517.09" x2="314.35" y2="501.03"/><line class="cls-1" x1="300.45" y1="509.06" x2="314.35" y2="501.03"/><line class="cls-1" x1="314.35" y1="501.03" x2="300.45" y2="493.01"/><line class="cls-1" x1="300.45" y1="493.01" x2="286.55" y2="501.03"/><line class="cls-1" x1="250.56" y1="223.48" x2="250.56" y2="209.2"/><line class="cls-1" x1="287.65" y1="273.45" x2="275.28" y2="266.31"/><line class="cls-1" x1="275.28" y1="280.59" x2="262.92" y2="273.45"/><line class="cls-1" x1="423.65" y1="194.93" x2="411.29" y2="202.06"/><line class="cls-1" x1="411.29" y1="202.06" x2="411.29" y2="216.34"/><line class="cls-1" x1="411.29" y1="144.96" x2="411.29" y2="159.24"/><line class="cls-1" x1="411.29" y1="159.24" x2="423.65" y2="166.37"/><line class="cls-1" x1="411.29" y1="159.24" x2="398.93" y2="152.1"/><line class="cls-1" x1="398.93" y1="152.1" x2="411.29" y2="144.96"/><line class="cls-1" x1="411.29" y1="159.24" x2="411.29" y2="173.51"/><line class="cls-1" x1="423.65" y1="166.37" x2="411.29" y2="173.51"/><line class="cls-1" x1="423.65" y1="166.37" x2="423.65" y2="194.93"/><line class="cls-1" x1="398.93" y1="137.82" x2="398.52" y2="138.06"/><line class="cls-1" x1="398.93" y1="137.82" x2="411.29" y2="144.96"/><line class="cls-1" x1="398.52" y1="138.06" x2="386.15" y2="130.92"/><line class="cls-1" x1="440.35" y1="853.25" x2="440.35" y2="869.31"/><line class="cls-1" x1="454.26" y1="797.05" x2="440.8" y2="789.28"/><line class="cls-1" x1="454.26" y1="797.05" x2="454.26" y2="845.22"/><line class="cls-1" x1="440.35" y1="805.08" x2="454.26" y2="797.05"/><line class="cls-1" x1="440.35" y1="853.25" x2="454.26" y2="845.22"/><line class="cls-1" x1="406.96" y1="192.43" x2="411.29" y2="194.93"/><line class="cls-1" x1="77.13" y1="1062.96" x2="77.13" y2="1079.01"/><line class="cls-1" x1="104.94" y1="1046.9" x2="104.94" y2="1062.96"/><line class="cls-1" x1="63.22" y1="1103.09" x2="49.32" y2="1095.07"/><line class="cls-1" x1="104.94" y1="998.74" x2="77.13" y2="1014.79"/><line class="cls-1" x1="7.61" y1="990.71" x2="7.61" y2="1038.87"/><line class="cls-1" x1="63.22" y1="1070.99" x2="49.32" y2="1062.96"/><line class="cls-1" x1="7.61" y1="990.71" x2="14.96" y2="986.46"/><line class="cls-1" x1="21.51" y1="998.74" x2="7.61" y2="990.71"/><line class="cls-1" x1="49.32" y1="1062.96" x2="49.32" y2="1095.07"/><line class="cls-1" x1="91.03" y1="1070.99" x2="91.03" y2="1087.04"/><line class="cls-1" x1="244.83" y1="428.78" x2="258.74" y2="420.76"/><line class="cls-1" x1="258.74" y1="420.76" x2="244.83" y2="412.73"/><line class="cls-1" x1="230.93" y1="436.81" x2="230.93" y2="420.76"/><line class="cls-1" x1="244.83" y1="412.73" x2="230.93" y2="420.76"/><line class="cls-1" x1="230.93" y1="420.76" x2="244.83" y2="428.78"/><line class="cls-1" x1="356.07" y1="460.9" x2="356.07" y2="444.84"/><line class="cls-1" x1="328.26" y1="460.9" x2="328.26" y2="444.84"/><line class="cls-1" x1="328.26" y1="460.9" x2="342.17" y2="468.93"/><line class="cls-1" x1="342.17" y1="468.93" x2="342.17" y2="452.87"/><line class="cls-1" x1="175.31" y1="356.53" x2="161.41" y2="364.56"/><line class="cls-1" x1="161.41" y1="380.62" x2="175.31" y2="388.65"/><line class="cls-1" x1="175.31" y1="356.53" x2="161.41" y2="348.51"/><line class="cls-1" x1="147.5" y1="372.59" x2="147.5" y2="356.53"/><line class="cls-1" x1="161.41" y1="348.51" x2="147.5" y2="356.53"/><line class="cls-1" x1="147.5" y1="356.53" x2="161.41" y2="364.56"/><line class="cls-1" x1="258.74" y1="468.93" x2="272.65" y2="460.9"/><line class="cls-1" x1="272.65" y1="460.9" x2="272.65" y2="444.84"/><line class="cls-1" x1="258.74" y1="452.87" x2="272.65" y2="444.84"/><line class="cls-1" x1="258.74" y1="468.93" x2="258.74" y2="452.87"/><line class="cls-1" x1="272.65" y1="444.84" x2="258.74" y2="436.81"/><line class="cls-1" x1="244.83" y1="460.9" x2="244.83" y2="444.84"/><line class="cls-1" x1="258.74" y1="436.81" x2="244.83" y2="444.84"/><line class="cls-1" x1="244.83" y1="460.9" x2="258.74" y2="468.93"/><line class="cls-1" x1="244.83" y1="444.84" x2="258.74" y2="452.87"/><line class="cls-1" x1="258.74" y1="484.98" x2="272.65" y2="476.95"/><line class="cls-1" x1="272.65" y1="476.95" x2="272.65" y2="460.9"/><line class="cls-1" x1="258.74" y1="484.98" x2="258.74" y2="468.93"/><line class="cls-1" x1="244.83" y1="476.95" x2="244.83" y2="460.9"/><line class="cls-1" x1="244.83" y1="476.95" x2="258.74" y2="484.98"/><line class="cls-1" x1="314.35" y1="356.53" x2="300.45" y2="364.56"/><line class="cls-1" x1="448.21" y1="1053.71" x2="448.21" y2="1085.81"/><line class="cls-1" x1="448.21" y1="1053.71" x2="425.6" y2="1066.76"/><line class="cls-1" x1="448.21" y1="1085.81" x2="434.31" y2="1093.84"/><line class="cls-1" x1="425.6" y1="1040.65" x2="448.21" y2="1053.71"/><line class="cls-1" x1="342.17" y1="484.98" x2="342.17" y2="468.93"/><line class="cls-1" x1="314.35" y1="484.98" x2="314.35" y2="468.93"/><line class="cls-1" x1="328.26" y1="460.9" x2="314.35" y2="468.93"/><line class="cls-1" x1="328.26" y1="493.01" x2="328.26" y2="476.95"/><line class="cls-1" x1="314.35" y1="468.93" x2="328.26" y2="476.95"/><line class="cls-1" x1="328.26" y1="493.01" x2="342.17" y2="484.98"/><line class="cls-1" x1="328.26" y1="476.95" x2="342.17" y2="468.93"/><line class="cls-1" x1="217.02" y1="380.62" x2="210.07" y2="376.6"/><line class="cls-1" x1="189.22" y1="396.68" x2="189.22" y2="380.62"/><line class="cls-1" x1="203.12" y1="372.59" x2="189.22" y2="380.62"/><line class="cls-1" x1="189.22" y1="396.68" x2="203.12" y2="404.7"/><line class="cls-1" x1="189.22" y1="380.62" x2="203.12" y2="388.65"/><line class="cls-1" x1="314.35" y1="292.31" x2="314.35" y2="284.28"/><line class="cls-1" x1="64.07" y1="1102.6" x2="63.22" y2="1103.09"/><line class="cls-1" x1="434.31" y1="1093.84" x2="425.6" y2="1098.87"/><line class="cls-1" x1="425.6" y1="877.82" x2="426.45" y2="877.33"/><line class="cls-1" x1="411.29" y1="216.34" x2="349.13" y2="252.23"/><line class="cls-1" x1="251.79" y1="352.52" x2="237.88" y2="360.55"/><line class="cls-1" x1="237.88" y1="344.49" x2="223.97" y2="352.52"/><line class="cls-1" x1="251.79" y1="352.52" x2="265.69" y2="344.49"/><line class="cls-1" x1="335.21" y1="304.35" x2="349.12" y2="296.33"/><line class="cls-1" x1="237.88" y1="344.49" x2="251.79" y2="352.52"/><line class="cls-1" x1="321.31" y1="296.33" x2="321.31" y2="280.27"/><line class="cls-1" x1="237.88" y1="360.53" x2="237.88" y2="344.49"/><line class="cls-1" x1="265.69" y1="360.55" x2="251.79" y2="368.58"/><line class="cls-1" x1="147.49" y1="372.59" x2="77.98" y2="412.73"/><line class="cls-1" x1="244.84" y1="444.84" x2="161.41" y2="493.01"/><line class="cls-1" x1="272.65" y1="525.11" x2="286.55" y2="517.09"/><line class="cls-1" x1="286.55" y1="517.09" x2="286.55" y2="501.03"/><line class="cls-1" x1="272.65" y1="509.06" x2="286.55" y2="501.03"/><line class="cls-1" x1="272.65" y1="525.11" x2="272.65" y2="509.06"/><line class="cls-1" x1="286.55" y1="501.03" x2="272.65" y2="493.01"/><line class="cls-1" x1="258.74" y1="517.09" x2="272.65" y2="525.11"/><line class="cls-1" x1="314.35" y1="292.31" x2="321.31" y2="296.33"/><line class="cls-1" x1="440.81" y1="789.28" x2="460.36" y2="777.99"/><line class="cls-1" x1="230.93" y1="388.65" x2="230.93" y2="372.59"/><line class="cls-1" x1="14.96" y1="986.46" x2="1.5" y2="978.69"/><line class="cls-1" x1="414.56" y1="828.51" x2="425.59" y2="834.88"/><line class="cls-1" x1="91.48" y1="990.96" x2="104.94" y2="998.74"/><line class="cls-1" x1="49.32" y1="1006.3" x2="49.32" y2="1014.79"/><line class="cls-1" x1="21.51" y1="990.24" x2="21.51" y2="998.74"/><line class="cls-1" x1="425.6" y1="813.6" x2="440.35" y2="805.08"/><line class="cls-1" x1="300.46" y1="364.56" x2="314.35" y2="372.59"/><line class="cls-1" x1="300.45" y1="364.56" x2="300.45" y2="364.56"/><line class="cls-1" x1="250.56" y1="168.45" x2="250.56" y2="209.2"/><line class="cls-1" x1="386.15" y1="109.74" x2="386.15" y2="130.92"/><line class="cls-1" x1="244.83" y1="412.73" x2="300.45" y2="380.62"/><line class="cls-1" x1="244.83" y1="412.73" x2="230.93" y2="404.7"/><line class="cls-1" x1="217.02" y1="428.78" x2="217.02" y2="412.73"/><line class="cls-1" x1="217.02" y1="428.78" x2="230.93" y2="436.81"/><line class="cls-1" x1="217.02" y1="412.73" x2="230.93" y2="420.76"/><polyline class="cls-1" points="154.45 249.97 139.87 241.55 96.98 216.79"/><line class="cls-1" x1="349.12" y1="280.27" x2="363.03" y2="288.3"/><line class="cls-1" x1="175.32" y1="324.42" x2="161.41" y2="332.45"/><line class="cls-1" x1="349.12" y1="280.28" x2="349.12" y2="252.23"/><line class="cls-1" x1="182.25" y1="328.43" x2="175.31" y2="324.42"/><line class="cls-1" x1="148.86" y1="148.88" x2="148.86" y2="129.31"/><line class="cls-1" x1="147.5" y1="468.93" x2="217.02" y2="428.79"/><line class="cls-1" x1="318.35" y1="11.88" x2="301.41" y2="2.1"/><line class="cls-1" x1="133.59" y1="348.51" x2="147.5" y2="356.53"/><line class="cls-1" x1="133.59" y1="364.56" x2="147.5" y2="372.59"/><line class="cls-1" x1="147.5" y1="340.48" x2="133.59" y2="348.51"/><line class="cls-1" x1="133.59" y1="364.56" x2="133.59" y2="348.51"/><line class="cls-1" x1="161.41" y1="348.51" x2="147.5" y2="340.48"/><line class="cls-1" x1="161.41" y1="332.45" x2="147.5" y2="340.48"/><line class="cls-1" x1="342.17" y1="452.87" x2="342.17" y2="436.81"/><line class="cls-1" x1="328.26" y1="444.84" x2="342.17" y2="452.87"/><line class="cls-1" x1="328.26" y1="444.84" x2="328.26" y2="428.78"/><line class="cls-1" x1="356.07" y1="444.84" x2="356.07" y2="428.78"/><line class="cls-1" x1="342.17" y1="436.81" x2="342.17" y2="420.76"/><line class="cls-1" x1="328.26" y1="428.78" x2="342.17" y2="436.81"/><line class="cls-1" x1="328.26" y1="428.78" x2="328.26" y2="412.73"/><line class="cls-1" x1="356.07" y1="428.78" x2="356.07" y2="412.73"/><line class="cls-1" x1="237.88" y1="360.55" x2="223.97" y2="352.52"/><line class="cls-1" x1="182.27" y1="328.43" x2="182.25" y2="328.43"/><line class="cls-1" x1="349.12" y1="296.33" x2="349.12" y2="280.28"/><line class="cls-1" x1="215.63" y1="11.28" x2="198.68" y2="21.07"/><line class="cls-1" x1="164.78" y1="21.07" x2="181.73" y2="30.86"/><line class="cls-1" x1="198.68" y1="1.5" x2="164.78" y2="21.07"/><line class="cls-1" x1="301.39" y1="2.09" x2="300.38" y2="1.5"/><line class="cls-1" x1="164.77" y1="21.08" x2="130.88" y2="40.64"/><line class="cls-1" x1="233.61" y1="99.95" x2="233.61" y2="80.38"/><line class="cls-1" x1="198.68" y1="60.22" x2="198.68" y2="40.64"/><line class="cls-1" x1="283.42" y1="11.29" x2="266.48" y2="1.5"/><line class="cls-1" x1="386.15" y1="90.17" x2="386.15" y2="109.74"/><line class="cls-1" x1="369.2" y1="99.95" x2="386.15" y2="109.74"/><line class="cls-1" x1="96.98" y1="60.22" x2="130.88" y2="40.64"/><line class="cls-1" x1="96.98" y1="60.22" x2="96.98" y2="79.79"/><line class="cls-1" x1="113.93" y1="70" x2="96.98" y2="60.22"/><line class="cls-1" x1="96.98" y1="79.79" x2="113.93" y2="70"/><line class="cls-1" x1="96.98" y1="79.79" x2="96.98" y2="99.36"/><line class="cls-1" x1="113.93" y1="89.57" x2="96.98" y2="79.79"/><line class="cls-1" x1="96.98" y1="99.36" x2="113.93" y2="89.57"/><line class="cls-1" x1="96.98" y1="99.36" x2="96.98" y2="118.93"/><line class="cls-1" x1="113.93" y1="109.14" x2="96.98" y2="99.36"/><line class="cls-1" x1="96.98" y1="118.93" x2="113.93" y2="109.14"/><line class="cls-1" x1="182.76" y1="168.45" x2="182.76" y2="266.31"/><line class="cls-1" x1="199.71" y1="158.67" x2="182.76" y2="168.45"/><line class="cls-1" x1="199.71" y1="158.67" x2="199.71" y2="256.52"/><line class="cls-1" x1="216.66" y1="168.45" x2="216.66" y2="266.31"/><line class="cls-1" x1="233.61" y1="158.67" x2="233.61" y2="256.52"/><line class="cls-1" x1="267.51" y1="158.67" x2="267.51" y2="199.42"/><line class="cls-1" x1="386.15" y1="109.74" x2="369.2" y2="119.52"/><line class="cls-1" x1="369.2" y1="99.95" x2="352.25" y2="90.17"/><line class="cls-1" x1="352.25" y1="109.74" x2="369.2" y2="99.95"/><line class="cls-1" x1="369.2" y1="119.52" x2="369.2" y2="99.95"/><line class="cls-1" x1="386.15" y1="70.59" x2="369.2" y2="60.81"/><line class="cls-1" x1="369.2" y1="80.38" x2="386.15" y2="70.59"/><line class="cls-1" x1="386.15" y1="90.17" x2="386.15" y2="70.59"/><line class="cls-1" x1="386.15" y1="51.02" x2="369.2" y2="41.23"/><line class="cls-1" x1="369.2" y1="60.81" x2="386.15" y2="51.02"/><line class="cls-1" x1="386.15" y1="70.59" x2="386.15" y2="51.02"/><line class="cls-1" x1="267.51" y1="158.67" x2="284.46" y2="148.88"/><line class="cls-1" x1="284.46" y1="148.88" x2="284.46" y2="129.31"/><line class="cls-1" x1="165.81" y1="158.67" x2="165.81" y2="139.1"/><line class="cls-1" x1="182.76" y1="148.88" x2="199.71" y2="158.67"/><line class="cls-1" x1="199.71" y1="139.1" x2="216.66" y2="148.88"/><line class="cls-1" x1="130.88" y1="118.93" x2="130.88" y2="99.36"/><line class="cls-1" x1="147.83" y1="89.57" x2="130.88" y2="99.36"/><line class="cls-1" x1="130.88" y1="79.79" x2="147.83" y2="89.57"/><line class="cls-1" x1="130.88" y1="99.36" x2="130.88" y2="79.79"/><line class="cls-1" x1="147.83" y1="70" x2="130.88" y2="79.79"/><line class="cls-1" x1="130.88" y1="60.22" x2="147.83" y2="70"/><line class="cls-1" x1="130.88" y1="79.79" x2="130.88" y2="60.22"/><line class="cls-1" x1="147.83" y1="50.43" x2="130.88" y2="60.22"/><line class="cls-1" x1="130.88" y1="40.64" x2="147.83" y2="50.43"/><line class="cls-1" x1="130.88" y1="60.22" x2="130.88" y2="40.64"/><line class="cls-1" x1="352.25" y1="11.88" x2="335.3" y2="2.1"/><line class="cls-1" x1="335.3" y1="21.67" x2="352.25" y2="11.88"/><line class="cls-1" x1="352.25" y1="31.45" x2="352.25" y2="11.88"/><line class="cls-1" x1="335.3" y1="2.1" x2="318.35" y2="11.88"/><line class="cls-1" x1="335.3" y1="60.81" x2="318.35" y2="51.02"/><line class="cls-1" x1="318.35" y1="51.02" x2="335.3" y2="41.23"/><line class="cls-1" x1="284.46" y1="90.17" x2="284.46" y2="70.59"/><line class="cls-1" x1="352.25" y1="31.45" x2="335.3" y2="21.67"/><line class="cls-1" x1="335.3" y1="41.23" x2="352.25" y2="31.45"/><line class="cls-1" x1="352.25" y1="51.02" x2="352.25" y2="31.45"/><line class="cls-1" x1="198.68" y1="40.64" x2="198.68" y2="21.07"/><line class="cls-1" x1="215.63" y1="30.86" x2="198.68" y2="40.64"/><line class="cls-1" x1="198.68" y1="21.07" x2="215.63" y2="30.86"/><line class="cls-1" x1="232.58" y1="1.5" x2="215.63" y2="11.28"/><line class="cls-1" x1="249.52" y1="11.29" x2="232.58" y2="1.5"/><line class="cls-1" x1="266.48" y1="1.5" x2="249.52" y2="11.29"/><line class="cls-1" x1="284.46" y1="11.88" x2="283.42" y2="11.29"/><line class="cls-1" x1="182.76" y1="109.74" x2="199.71" y2="119.52"/><line class="cls-1" x1="369.2" y1="21.67" x2="352.25" y2="11.88"/><line class="cls-1" x1="352.25" y1="31.45" x2="369.2" y2="21.67"/><line class="cls-1" x1="369.2" y1="41.23" x2="369.2" y2="21.67"/><line class="cls-1" x1="352.25" y1="109.74" x2="352.25" y2="90.17"/><line class="cls-1" x1="301.41" y1="99.95" x2="318.35" y2="90.17"/><line class="cls-1" x1="335.3" y1="60.81" x2="352.25" y2="51.02"/><line class="cls-1" x1="369.2" y1="60.81" x2="352.25" y2="51.02"/><line class="cls-1" x1="352.25" y1="70.59" x2="369.2" y2="60.81"/><line class="cls-1" x1="369.2" y1="80.38" x2="369.2" y2="60.81"/><line class="cls-1" x1="369.2" y1="41.23" x2="352.25" y2="31.45"/><line class="cls-1" x1="352.25" y1="51.02" x2="369.2" y2="41.23"/><line class="cls-1" x1="369.2" y1="60.81" x2="369.2" y2="41.23"/><line class="cls-1" x1="216.66" y1="109.74" x2="233.61" y2="119.52"/><line class="cls-1" x1="216.66" y1="129.31" x2="233.61" y2="139.1"/><line class="cls-1" x1="181.73" y1="70" x2="164.78" y2="79.79"/><line class="cls-1" x1="164.78" y1="60.22" x2="181.73" y2="70"/><line class="cls-1" x1="164.78" y1="79.79" x2="164.78" y2="60.22"/><line class="cls-1" x1="181.73" y1="50.43" x2="164.78" y2="60.22"/><line class="cls-1" x1="164.78" y1="40.64" x2="181.73" y2="50.43"/><line class="cls-1" x1="164.78" y1="60.22" x2="164.78" y2="40.64"/><line class="cls-1" x1="181.73" y1="30.86" x2="164.78" y2="40.64"/><line class="cls-1" x1="164.78" y1="40.64" x2="164.78" y2="21.07"/><line class="cls-1" x1="215.63" y1="11.29" x2="198.68" y2="1.5"/><line class="cls-1" x1="300.38" y1="1.5" x2="283.42" y2="11.29"/><line class="cls-1" x1="199.71" y1="256.52" x2="182.76" y2="266.31"/><line class="cls-1" x1="216.66" y1="266.31" x2="199.71" y2="256.52"/><line class="cls-1" x1="36.26" y1="436.81" x2="36.26" y2="476.94"/><line class="cls-1" x1="133.59" y1="557.23" x2="112.74" y2="545.19"/><line class="cls-1" x1="36.26" y1="436.81" x2="50.17" y2="428.78"/><line class="cls-1" x1="147.5" y1="484.98" x2="147.5" y2="549.2"/><line class="cls-1" x1="147.5" y1="484.98" x2="133.59" y2="493.01"/><line class="cls-1" x1="147.5" y1="549.2" x2="133.59" y2="557.23"/><line class="cls-1" x1="15.41" y1="488.99" x2="15.41" y2="505.05"/><line class="cls-1" x1="1.5" y1="513.08" x2="15.41" y2="505.05"/><line class="cls-1" x1="1.5" y1="513.08" x2="1.5" y2="978.69"/><line class="cls-1" x1="460.36" y1="312.38" x2="446.45" y2="304.35"/><line class="cls-1" x1="446.45" y1="304.35" x2="446.45" y2="320.41"/><line class="cls-1" x1="446.45" y1="320.41" x2="460.36" y2="312.38"/><line class="cls-1" x1="460.36" y1="312.38" x2="460.36" y2="777.99"/><line class="cls-1" x1="390.83" y1="272.24" x2="363.03" y2="288.29"/><line class="cls-1" x1="425.59" y1="324.42" x2="425.59" y2="340.48"/><line class="cls-1" x1="161.41" y1="493.01" x2="147.5" y2="484.98"/><line class="cls-1" x1="36.26" y1="420.76" x2="36.26" y2="436.81"/><line class="cls-1" x1="36.26" y1="420.76" x2="133.59" y2="364.56"/><line class="cls-1" x1="147.5" y1="452.87" x2="217.02" y2="412.73"/><line class="cls-1" x1="147.5" y1="468.93" x2="147.5" y2="452.87"/><line class="cls-1" x1="77.98" y1="428.78" x2="147.5" y2="468.93"/><line class="cls-1" x1="50.17" y1="428.78" x2="36.26" y2="420.76"/><line class="cls-1" x1="425.6" y1="798.06" x2="440.81" y2="789.28"/><line class="cls-1" x1="161.41" y1="348.51" x2="161.41" y2="332.45"/><line class="cls-1" x1="64.1" y1="1169.99" x2="434.31" y2="1169.99"/></g></g></svg>