<svg xmlns="http://www.w3.org/2000/svg" viewBox="0 0 459.19 1205.66"><defs><style>.cls-1{fill:none;stroke:#000;stroke-linecap:round;stroke-linejoin:round;stroke-width:3px;}</style></defs><title>Asset 1creep</title><g id="Layer_2" data-name="Layer 2"><g id="Make2D::Visible::Curves"><line class="cls-1" x1="326.29" y1="1030.02" x2="326.29" y2="1204.16"/><line class="cls-1" x1="159.5" y1="1204.16" x2="159.5" y2="1015.55"/><line class="cls-1" x1="240.11" y1="1204.16" x2="240.11" y2="1079.77"/><line class="cls-1" x1="245.68" y1="1204.16" x2="245.68" y2="1076.56"/><line class="cls-1" x1="78.89" y1="1122.69" x2="78.89" y2="1204.16"/><line class="cls-1" x1="406.9" y1="933.32" x2="406.9" y2="1204.16"/><line class="cls-1" x1="411.12" y1="871.91" x2="411.12" y2="898.78"/><line class="cls-1" x1="406.9" y1="901.22" x2="406.9" y2="933.32"/><line class="cls-1" x1="406.9" y1="874.35" x2="406.9" y2="901.22"/><line class="cls-1" x1="245.68" y1="1076.55" x2="326.29" y2="1030.02"/><line class="cls-1" x1="240.11" y1="1079.77" x2="245.68" y2="1076.55"/><line class="cls-1" x1="292.14" y1="269.89" x2="271.29" y2="281.93"/><line class="cls-1" x1="292.14" y1="221.75" x2="292.14" y2="269.89"/><line class="cls-1" x1="271.29" y1="281.93" x2="250.44" y2="293.97"/><line class="cls-1" x1="271.29" y1="233.78" x2="271.29" y2="281.93"/><line class="cls-1" x1="326.17" y1="378.63" x2="381.76" y2="346.54"/><line class="cls-1" x1="298.88" y1="394.38" x2="312.27" y2="386.66"/><line class="cls-1" x1="409.47" y1="362.63" x2="423.29" y2="370.61"/><line class="cls-1" x1="146.92" y1="498.17" x2="381.76" y2="362.58"/><line class="cls-1" x1="77.43" y1="458.04" x2="77.43" y2="442"/><line class="cls-1" x1="381.76" y1="362.58" x2="381.76" y2="346.73"/><line class="cls-1" x1="77.43" y1="442" x2="146.92" y2="482.11"/><line class="cls-1" x1="381.76" y1="346.54" x2="347.02" y2="326.48"/><line class="cls-1" x1="423.37" y1="370.66" x2="160.91" y2="522.19"/><line class="cls-1" x1="423.37" y1="370.66" x2="423.37" y2="852.11"/><line class="cls-1" x1="160.91" y1="522.19" x2="160.91" y2="1003.64"/><line class="cls-1" x1="160.91" y1="522.19" x2="147.01" y2="514.16"/><line class="cls-1" x1="360.74" y1="318.55" x2="423.29" y2="354.65"/><line class="cls-1" x1="423.29" y1="354.65" x2="409.47" y2="362.63"/><line class="cls-1" x1="416.34" y1="350.65" x2="443.88" y2="334.74"/><line class="cls-1" x1="112.35" y1="574.3" x2="112.35" y2="1007.6"/><line class="cls-1" x1="112.35" y1="526.16" x2="112.35" y2="574.3"/><line class="cls-1" x1="56.76" y1="494.06" x2="112.35" y2="526.16"/><line class="cls-1" x1="35.91" y1="506.09" x2="56.76" y2="494.06"/><line class="cls-1" x1="57.1" y1="574.1" x2="57.1" y2="1039.51"/><line class="cls-1" x1="15.31" y1="517.98" x2="70.91" y2="550.08"/><line class="cls-1" x1="70.91" y1="566.13" x2="57.1" y2="574.1"/><line class="cls-1" x1="70.91" y1="550.08" x2="70.91" y2="566.13"/><line class="cls-1" x1="57.1" y1="574.1" x2="1.5" y2="542.01"/><line class="cls-1" x1="15.31" y1="534.03" x2="70.91" y2="566.13"/><line class="cls-1" x1="112.35" y1="1007.6" x2="57.1" y2="1039.51"/><line class="cls-1" x1="112.35" y1="526.16" x2="70.91" y2="550.08"/><line class="cls-1" x1="57.1" y1="1039.51" x2="14.95" y2="1015.17"/><line class="cls-1" x1="133.2" y1="522.14" x2="133.2" y2="586.33"/><line class="cls-1" x1="133.2" y1="522.14" x2="35.91" y2="465.97"/><line class="cls-1" x1="298.88" y1="378.34" x2="291.92" y2="374.33"/><line class="cls-1" x1="229.81" y1="418.22" x2="298.88" y2="378.34"/><line class="cls-1" x1="298.88" y1="394.38" x2="298.88" y2="378.34"/><line class="cls-1" x1="173.29" y1="242.22" x2="187.19" y2="250.25"/><line class="cls-1" x1="173.29" y1="226.18" x2="187.19" y2="234.2"/><line class="cls-1" x1="242.78" y1="137.91" x2="256.68" y2="145.93"/><line class="cls-1" x1="242.78" y1="121.86" x2="256.68" y2="129.88"/><line class="cls-1" x1="187.19" y1="250.25" x2="409.56" y2="121.86"/><line class="cls-1" x1="187.19" y1="234.2" x2="187.19" y2="250.25"/><line class="cls-1" x1="201.08" y1="226.18" x2="187.19" y2="234.2"/><line class="cls-1" x1="201.08" y1="210.12" x2="201.08" y2="226.18"/><line class="cls-1" x1="214.98" y1="202.1" x2="228.88" y2="210.12"/><line class="cls-1" x1="214.98" y1="186.05" x2="228.88" y2="194.08"/><line class="cls-1" x1="228.88" y1="178.03" x2="242.78" y2="186.05"/><line class="cls-1" x1="228.88" y1="161.98" x2="242.78" y2="170.01"/><line class="cls-1" x1="256.68" y1="145.93" x2="270.57" y2="153.95"/><line class="cls-1" x1="256.68" y1="129.88" x2="270.57" y2="137.91"/><line class="cls-1" x1="228.88" y1="210.12" x2="395.66" y2="113.83"/><line class="cls-1" x1="242.78" y1="186.05" x2="228.88" y2="194.08"/><line class="cls-1" x1="242.78" y1="170.01" x2="242.78" y2="186.05"/><line class="cls-1" x1="270.57" y1="153.95" x2="242.78" y2="170.01"/><line class="cls-1" x1="270.57" y1="153.95" x2="284.47" y2="161.98"/><line class="cls-1" x1="270.57" y1="137.91" x2="284.47" y2="145.93"/><line class="cls-1" x1="284.47" y1="161.98" x2="381.76" y2="105.81"/><line class="cls-1" x1="284.47" y1="145.93" x2="284.47" y2="161.98"/><line class="cls-1" x1="381.76" y1="89.76" x2="284.47" y2="145.93"/><line class="cls-1" x1="89.89" y1="418.75" x2="89.89" y2="434.8"/><line class="cls-1" x1="131.59" y1="330.49" x2="131.59" y2="378.63"/><line class="cls-1" x1="145.49" y1="258.27" x2="159.38" y2="266.29"/><line class="cls-1" x1="145.49" y1="210.12" x2="159.38" y2="218.15"/><line class="cls-1" x1="159.38" y1="202.1" x2="173.29" y2="210.12"/><line class="cls-1" x1="159.38" y1="186.05" x2="173.29" y2="194.08"/><line class="cls-1" x1="145.49" y1="338.51" x2="201.08" y2="306.41"/><line class="cls-1" x1="145.49" y1="274.32" x2="145.49" y2="338.51"/><line class="cls-1" x1="159.38" y1="266.29" x2="145.49" y2="274.32"/><line class="cls-1" x1="201.08" y1="306.41" x2="201.08" y2="258.27"/><line class="cls-1" x1="89.89" y1="434.8" x2="159.38" y2="474.93"/><line class="cls-1" x1="89.89" y1="418.75" x2="145.49" y2="450.85"/><line class="cls-1" x1="76" y1="410.73" x2="89.89" y2="418.75"/><line class="cls-1" x1="62.1" y1="338.51" x2="131.59" y2="378.63"/><line class="cls-1" x1="62.1" y1="226.18" x2="131.59" y2="266.29"/><line class="cls-1" x1="76" y1="218.15" x2="145.49" y2="258.27"/><line class="cls-1" x1="76" y1="170.01" x2="145.49" y2="210.12"/><line class="cls-1" x1="89.89" y1="161.98" x2="159.38" y2="202.1"/><line class="cls-1" x1="89.89" y1="145.93" x2="159.38" y2="186.05"/><line class="cls-1" x1="103.79" y1="137.91" x2="173.29" y2="178.03"/><line class="cls-1" x1="103.79" y1="121.86" x2="173.29" y2="161.98"/><line class="cls-1" x1="117.69" y1="113.83" x2="187.19" y2="153.95"/><line class="cls-1" x1="117.69" y1="97.79" x2="187.19" y2="137.91"/><line class="cls-1" x1="145.49" y1="81.74" x2="214.98" y2="121.86"/><line class="cls-1" x1="145.49" y1="65.69" x2="214.98" y2="105.81"/><line class="cls-1" x1="242.78" y1="9.52" x2="312.27" y2="49.64"/><line class="cls-1" x1="298.88" y1="378.93" x2="312.27" y2="386.66"/><line class="cls-1" x1="145.49" y1="370.61" x2="145.49" y2="450.85"/><line class="cls-1" x1="333.83" y1="342.11" x2="340.06" y2="338.51"/><line class="cls-1" x1="326.17" y1="378.63" x2="326.17" y2="354.56"/><line class="cls-1" x1="312.27" y1="362.58" x2="312.27" y2="386.66"/><line class="cls-1" x1="187.19" y1="442.83" x2="187.19" y2="314.44"/><line class="cls-1" x1="214.98" y1="426.78" x2="187.19" y2="442.83"/><line class="cls-1" x1="131.59" y1="73.72" x2="145.49" y2="81.74"/><line class="cls-1" x1="62.1" y1="338.51" x2="62.1" y2="402.7"/><line class="cls-1" x1="48.2" y1="218.15" x2="48.2" y2="330.49"/><line class="cls-1" x1="62.1" y1="210.12" x2="48.2" y2="218.15"/><line class="cls-1" x1="228.88" y1="1.5" x2="131.59" y2="57.66"/><line class="cls-1" x1="159.38" y1="218.15" x2="173.29" y2="226.18"/><line class="cls-1" x1="159.38" y1="266.29" x2="173.29" y2="274.32"/><line class="cls-1" x1="173.29" y1="274.32" x2="173.29" y2="242.22"/><line class="cls-1" x1="214.98" y1="250.25" x2="214.98" y2="234.2"/><line class="cls-1" x1="173.29" y1="274.32" x2="214.98" y2="250.25"/><line class="cls-1" x1="160.91" y1="1016.37" x2="112.35" y2="988.33"/><line class="cls-1" x1="406.9" y1="874.35" x2="160.91" y2="1016.37"/><line class="cls-1" x1="423.37" y1="864.84" x2="411.13" y2="871.9"/><line class="cls-1" x1="160.91" y1="1003.64" x2="160.91" y2="1016.37"/><line class="cls-1" x1="423.37" y1="852.11" x2="423.37" y2="864.84"/><line class="cls-1" x1="319.93" y1="237.79" x2="319.93" y2="269.89"/><line class="cls-1" x1="333.83" y1="197.68" x2="333.83" y2="245.82"/><line class="cls-1" x1="375.53" y1="173.6" x2="333.83" y2="197.68"/><line class="cls-1" x1="389.42" y1="149.53" x2="319.93" y2="189.65"/><line class="cls-1" x1="389.42" y1="213.72" x2="389.42" y2="149.53"/><line class="cls-1" x1="319.93" y1="269.89" x2="381.76" y2="234.2"/><line class="cls-1" x1="306.04" y1="181.62" x2="306.04" y2="197.68"/><line class="cls-1" x1="319.93" y1="269.89" x2="306.05" y2="261.87"/><line class="cls-1" x1="319.93" y1="189.65" x2="319.93" y2="221.75"/><line class="cls-1" x1="306.04" y1="245.82" x2="306.04" y2="277.92"/><line class="cls-1" x1="222.65" y1="253.84" x2="222.65" y2="229.77"/><line class="cls-1" x1="250.44" y1="293.95" x2="250.44" y2="245.82"/><line class="cls-1" x1="250.44" y1="245.82" x2="292.14" y2="221.75"/><line class="cls-1" x1="236.55" y1="237.79" x2="306.04" y2="197.68"/><line class="cls-1" x1="222.65" y1="310.01" x2="222.65" y2="269.89"/><line class="cls-1" x1="236.55" y1="237.79" x2="222.65" y2="229.77"/><line class="cls-1" x1="236.55" y1="318.02" x2="236.55" y2="237.79"/><line class="cls-1" x1="236.55" y1="318.04" x2="222.65" y2="310.01"/><line class="cls-1" x1="306.04" y1="277.92" x2="236.55" y2="318.04"/><line class="cls-1" x1="306.04" y1="197.68" x2="292.14" y2="189.65"/><line class="cls-1" x1="306.04" y1="197.68" x2="306.04" y2="229.77"/><line class="cls-1" x1="222.65" y1="253.84" x2="214.98" y2="249.42"/><line class="cls-1" x1="222.65" y1="269.89" x2="201.81" y2="257.86"/><line class="cls-1" x1="306.04" y1="229.77" x2="319.93" y2="221.75"/><line class="cls-1" x1="61.97" y1="1100.37" x2="61.97" y2="1132.46"/><line class="cls-1" x1="56.65" y1="1039.24" x2="48.07" y2="1044.2"/><line class="cls-1" x1="75.86" y1="1044.2" x2="61.97" y2="1052.22"/><line class="cls-1" x1="61.97" y1="1052.22" x2="61.97" y2="1100.37"/><line class="cls-1" x1="48.07" y1="1092.34" x2="6.37" y2="1068.27"/><line class="cls-1" x1="61.97" y1="1052.22" x2="48.07" y2="1044.2"/><line class="cls-1" x1="103.66" y1="1028.15" x2="103.66" y2="1076.3"/><line class="cls-1" x1="103.66" y1="1092.34" x2="75.86" y2="1108.39"/><line class="cls-1" x1="236.55" y1="318.04" x2="236.55" y2="374.21"/><line class="cls-1" x1="319.93" y1="326.06" x2="319.93" y2="310.01"/><line class="cls-1" x1="278.24" y1="350.14" x2="319.93" y2="326.06"/><line class="cls-1" x1="278.24" y1="334.08" x2="278.24" y2="350.14"/><line class="cls-1" x1="319.93" y1="310.01" x2="278.24" y2="334.08"/><line class="cls-1" x1="333.83" y1="334.08" x2="347.73" y2="326.06"/><line class="cls-1" x1="333.83" y1="350.14" x2="333.83" y2="334.08"/><line class="cls-1" x1="264.34" y1="390.25" x2="333.83" y2="350.14"/><line class="cls-1" x1="264.34" y1="374.21" x2="264.34" y2="390.25"/><line class="cls-1" x1="250.44" y1="382.23" x2="264.34" y2="374.21"/><line class="cls-1" x1="250.44" y1="310.01" x2="250.44" y2="382.23"/><line class="cls-1" x1="347.73" y1="326.06" x2="347.73" y2="253.84"/><line class="cls-1" x1="222.65" y1="382.23" x2="187.19" y2="361.75"/><line class="cls-1" x1="250.44" y1="398.28" x2="236.55" y2="390.25"/><polyline class="cls-1" points="222.65 382.23 222.65 366.18 222.65 310.02"/><line class="cls-1" x1="187.19" y1="393.85" x2="208.75" y2="406.3"/><line class="cls-1" x1="208.75" y1="374.21" x2="208.75" y2="406.3"/><line class="cls-1" x1="208.75" y1="406.3" x2="222.65" y2="398.28"/><line class="cls-1" x1="285.19" y1="297.98" x2="299.09" y2="306"/><line class="cls-1" x1="292.14" y1="285.94" x2="299.09" y2="289.95"/><line class="cls-1" x1="285.19" y1="289.95" x2="285.19" y2="297.98"/><line class="cls-1" x1="299.09" y1="306" x2="326.89" y2="289.95"/><line class="cls-1" x1="299.09" y1="289.95" x2="299.09" y2="306"/><line class="cls-1" x1="326.89" y1="273.91" x2="299.09" y2="289.95"/><line class="cls-1" x1="326.89" y1="289.95" x2="326.89" y2="273.91"/><line class="cls-1" x1="278.24" y1="342.11" x2="312.99" y2="322.05"/><line class="cls-1" x1="354.68" y1="233.78" x2="333.83" y2="245.82"/><line class="cls-1" x1="354.68" y1="185.64" x2="354.68" y2="233.78"/><line class="cls-1" x1="375.53" y1="173.6" x2="375.53" y2="221.75"/><line class="cls-1" x1="375.53" y1="221.75" x2="354.68" y2="233.78"/><line class="cls-1" x1="333.83" y1="245.82" x2="333.83" y2="245.82"/><line class="cls-1" x1="312.99" y1="322.05" x2="312.99" y2="314.02"/><line class="cls-1" x1="222.65" y1="398.28" x2="222.65" y2="382.23"/><line class="cls-1" x1="222.65" y1="398.28" x2="236.55" y2="406.3"/><line class="cls-1" x1="236.55" y1="406.3" x2="236.55" y2="390.26"/><line class="cls-1" x1="236.55" y1="406.3" x2="250.44" y2="398.28"/><line class="cls-1" x1="250.44" y1="382.23" x2="236.55" y2="390.25"/><line class="cls-1" x1="236.55" y1="374.21" x2="222.65" y2="382.23"/><line class="cls-1" x1="236.55" y1="374.21" x2="250.44" y2="382.23"/><line class="cls-1" x1="250.44" y1="382.23" x2="264.34" y2="390.25"/><line class="cls-1" x1="264.34" y1="390.25" x2="250.44" y2="398.28"/><line class="cls-1" x1="250.44" y1="398.28" x2="250.44" y2="382.23"/><line class="cls-1" x1="236.55" y1="390.25" x2="236.55" y2="374.21"/><line class="cls-1" x1="75.86" y1="1108.39" x2="61.97" y2="1100.37"/><line class="cls-1" x1="75.86" y1="1092.34" x2="75.86" y2="1108.39"/><line class="cls-1" x1="103.66" y1="1076.3" x2="103.66" y2="1092.34"/><line class="cls-1" x1="61.97" y1="1132.46" x2="48.07" y2="1124.44"/><line class="cls-1" x1="89.76" y1="1116.41" x2="78.89" y2="1122.69"/><line class="cls-1" x1="103.66" y1="1028.15" x2="75.86" y2="1044.2"/><line class="cls-1" x1="6.37" y1="1020.13" x2="6.37" y2="1068.27"/><line class="cls-1" x1="61.97" y1="1100.37" x2="48.07" y2="1092.34"/><line class="cls-1" x1="6.37" y1="1020.13" x2="14.95" y2="1015.17"/><line class="cls-1" x1="75.86" y1="1092.34" x2="61.97" y2="1100.37"/><line class="cls-1" x1="20.27" y1="1028.15" x2="6.37" y2="1020.13"/><line class="cls-1" x1="48.07" y1="1092.34" x2="48.07" y2="1124.44"/><line class="cls-1" x1="89.76" y1="1100.37" x2="89.76" y2="1116.41"/><line class="cls-1" x1="312.99" y1="322.05" x2="319.93" y2="326.06"/><line class="cls-1" x1="312.99" y1="265.88" x2="306.04" y2="269.89"/><line class="cls-1" x1="236.55" y1="390.25" x2="222.65" y2="382.23"/><line class="cls-1" x1="319.93" y1="221.75" x2="306.04" y2="213.72"/><line class="cls-1" x1="319.93" y1="237.79" x2="306.04" y2="245.82"/><line class="cls-1" x1="319.93" y1="189.65" x2="306.04" y2="181.62"/><line class="cls-1" x1="389.42" y1="229.77" x2="389.42" y2="213.72"/><line class="cls-1" x1="389.42" y1="149.53" x2="375.53" y2="141.51"/><line class="cls-1" x1="222.65" y1="237.79" x2="215.7" y2="233.79"/><line class="cls-1" x1="354.69" y1="153.54" x2="354.68" y2="153.54"/><line class="cls-1" x1="409.56" y1="137.91" x2="409.56" y2="121.86"/><line class="cls-1" x1="326.17" y1="57.66" x2="340.06" y2="65.69"/><line class="cls-1" x1="228.88" y1="113.83" x2="242.78" y2="121.86"/><line class="cls-1" x1="228.88" y1="129.88" x2="242.78" y2="137.91"/><line class="cls-1" x1="201.08" y1="145.93" x2="214.98" y2="153.95"/><line class="cls-1" x1="201.08" y1="161.98" x2="214.98" y2="170.01"/><line class="cls-1" x1="187.19" y1="170.01" x2="201.08" y2="178.03"/><line class="cls-1" x1="187.19" y1="186.05" x2="201.08" y2="194.08"/><line class="cls-1" x1="173.29" y1="194.08" x2="187.19" y2="202.1"/><line class="cls-1" x1="173.29" y1="210.12" x2="187.19" y2="218.15"/><line class="cls-1" x1="131.59" y1="57.66" x2="131.59" y2="73.72"/><line class="cls-1" x1="131.59" y1="73.72" x2="103.79" y2="89.76"/><line class="cls-1" x1="103.79" y1="89.76" x2="103.79" y2="105.81"/><line class="cls-1" x1="103.79" y1="105.81" x2="89.89" y2="113.83"/><line class="cls-1" x1="89.89" y1="113.83" x2="89.89" y2="129.88"/><line class="cls-1" x1="89.89" y1="129.88" x2="76" y2="137.91"/><line class="cls-1" x1="76" y1="137.91" x2="76" y2="153.95"/><line class="cls-1" x1="76" y1="153.95" x2="62.1" y2="161.98"/><line class="cls-1" x1="228.88" y1="1.5" x2="242.78" y2="9.52"/><line class="cls-1" x1="131.59" y1="57.66" x2="145.49" y2="65.69"/><line class="cls-1" x1="103.79" y1="89.76" x2="117.69" y2="97.79"/><line class="cls-1" x1="103.79" y1="105.81" x2="117.69" y2="113.83"/><line class="cls-1" x1="89.89" y1="113.83" x2="103.79" y2="121.86"/><line class="cls-1" x1="89.89" y1="129.88" x2="103.79" y2="137.91"/><line class="cls-1" x1="76" y1="153.95" x2="89.89" y2="161.98"/><line class="cls-1" x1="62.1" y1="161.98" x2="76" y2="170.01"/><line class="cls-1" x1="48.2" y1="218.15" x2="62.1" y2="226.18"/><line class="cls-1" x1="48.2" y1="330.49" x2="62.1" y2="338.51"/><line class="cls-1" x1="62.1" y1="402.7" x2="76" y2="410.73"/><line class="cls-1" x1="353.96" y1="314.44" x2="353.96" y2="298.39"/><line class="cls-1" x1="353.96" y1="298.39" x2="367.86" y2="290.37"/><line class="cls-1" x1="367.86" y1="290.37" x2="367.86" y2="258.27"/><line class="cls-1" x1="367.86" y1="258.27" x2="381.76" y2="250.25"/><line class="cls-1" x1="381.76" y1="250.25" x2="381.76" y2="234.2"/><line class="cls-1" x1="395.66" y1="210.12" x2="395.66" y2="194.08"/><line class="cls-1" x1="145.49" y1="450.85" x2="159.38" y2="442.83"/><line class="cls-1" x1="159.38" y1="442.83" x2="159.38" y2="474.93"/><line class="cls-1" x1="214.98" y1="442.83" x2="214.98" y2="426.78"/><line class="cls-1" x1="409.56" y1="186.05" x2="409.56" y2="153.95"/><line class="cls-1" x1="409.56" y1="153.95" x2="395.66" y2="161.98"/><line class="cls-1" x1="395.66" y1="161.98" x2="395.66" y2="145.93"/><line class="cls-1" x1="395.66" y1="145.93" x2="409.56" y2="153.95"/><line class="cls-1" x1="312.27" y1="49.64" x2="326.17" y2="57.66"/><line class="cls-1" x1="214.98" y1="105.81" x2="228.88" y2="113.83"/><line class="cls-1" x1="214.98" y1="121.86" x2="228.88" y2="129.88"/><line class="cls-1" x1="187.19" y1="137.91" x2="201.08" y2="145.93"/><line class="cls-1" x1="187.19" y1="153.95" x2="201.08" y2="161.98"/><line class="cls-1" x1="173.29" y1="161.98" x2="187.19" y2="170.01"/><line class="cls-1" x1="173.29" y1="178.03" x2="187.19" y2="186.05"/><line class="cls-1" x1="381.76" y1="105.81" x2="381.76" y2="89.76"/><line class="cls-1" x1="367.86" y1="81.74" x2="381.76" y2="89.76"/><line class="cls-1" x1="395.66" y1="113.83" x2="395.66" y2="97.79"/><line class="cls-1" x1="395.66" y1="97.79" x2="381.76" y2="105.81"/><line class="cls-1" x1="228.88" y1="194.08" x2="228.88" y2="210.12"/><line class="cls-1" x1="381.76" y1="89.76" x2="395.66" y2="97.79"/><line class="cls-1" x1="353.96" y1="73.72" x2="367.86" y2="81.74"/><line class="cls-1" x1="409.56" y1="105.81" x2="395.66" y2="113.83"/><line class="cls-1" x1="214.98" y1="202.1" x2="201.08" y2="210.12"/><line class="cls-1" x1="395.66" y1="97.79" x2="409.56" y2="105.81"/><line class="cls-1" x1="340.06" y1="65.69" x2="353.96" y2="73.72"/><line class="cls-1" x1="214.98" y1="153.95" x2="228.88" y2="161.98"/><line class="cls-1" x1="214.98" y1="170.01" x2="228.88" y2="178.03"/><line class="cls-1" x1="201.08" y1="178.03" x2="214.98" y2="186.05"/><line class="cls-1" x1="201.08" y1="194.08" x2="214.98" y2="202.1"/><line class="cls-1" x1="187.19" y1="202.1" x2="201.08" y2="210.12"/><line class="cls-1" x1="187.19" y1="218.15" x2="201.08" y2="226.18"/><line class="cls-1" x1="229.81" y1="434.27" x2="229.81" y2="418.22"/><line class="cls-1" x1="35.91" y1="465.97" x2="35.91" y2="506.09"/><line class="cls-1" x1="133.2" y1="586.33" x2="112.35" y2="574.3"/><line class="cls-1" x1="35.91" y1="465.97" x2="49.72" y2="457.99"/><line class="cls-1" x1="147.01" y1="514.16" x2="147.01" y2="578.36"/><line class="cls-1" x1="147.01" y1="514.16" x2="133.2" y2="522.14"/><line class="cls-1" x1="147.01" y1="578.36" x2="133.2" y2="586.33"/><line class="cls-1" x1="15.31" y1="517.98" x2="15.31" y2="534.03"/><line class="cls-1" x1="1.5" y1="542.01" x2="15.31" y2="534.03"/><line class="cls-1" x1="1.5" y1="542.01" x2="1.5" y2="1007.41"/><line class="cls-1" x1="457.69" y1="342.82" x2="443.88" y2="334.84"/><line class="cls-1" x1="443.88" y1="334.74" x2="443.88" y2="334.84"/><line class="cls-1" x1="443.88" y1="350.79" x2="457.69" y2="342.82"/><line class="cls-1" x1="388.29" y1="302.65" x2="443.88" y2="334.74"/><line class="cls-1" x1="457.69" y1="342.82" x2="457.69" y2="808.22"/><line class="cls-1" x1="388.29" y1="302.65" x2="360.75" y2="318.54"/><line class="cls-1" x1="423.29" y1="354.65" x2="423.29" y2="370.6"/><line class="cls-1" x1="35.83" y1="449.97" x2="89.89" y2="418.75"/><line class="cls-1" x1="146.92" y1="482.11" x2="159.38" y2="474.93"/><line class="cls-1" x1="146.92" y1="498.17" x2="146.92" y2="482.11"/><line class="cls-1" x1="77.43" y1="458.04" x2="146.92" y2="498.17"/><line class="cls-1" x1="49.72" y1="457.99" x2="35.83" y2="449.97"/><line class="cls-1" x1="214.98" y1="442.83" x2="229.81" y2="434.27"/><line class="cls-1" x1="89.89" y1="434.8" x2="77.43" y2="442"/><line class="cls-1" x1="395.66" y1="145.93" x2="409.56" y2="137.91"/><line class="cls-1" x1="353.8" y1="314.54" x2="353.96" y2="314.44"/><line class="cls-1" x1="187.19" y1="410.73" x2="214.98" y2="426.78"/><line class="cls-1" x1="395.66" y1="194.08" x2="409.56" y2="186.05"/><line class="cls-1" x1="187.19" y1="409.66" x2="229.81" y2="434.27"/><line class="cls-1" x1="423.38" y1="828.03" x2="439.37" y2="818.79"/><line class="cls-1" x1="443.88" y1="334.84" x2="443.88" y2="350.79"/><line class="cls-1" x1="353.8" y1="314.54" x2="360.74" y2="318.55"/><line class="cls-1" x1="381.76" y1="346.73" x2="381.76" y2="346.54"/><line class="cls-1" x1="423.29" y1="370.61" x2="423.37" y2="370.66"/><line class="cls-1" x1="409.56" y1="121.86" x2="409.56" y2="105.81"/><line class="cls-1" x1="131.59" y1="378.63" x2="145.49" y2="370.61"/><line class="cls-1" x1="62.1" y1="161.98" x2="62.1" y2="210.12"/><line class="cls-1" x1="62.1" y1="210.12" x2="76" y2="218.15"/><line class="cls-1" x1="35.83" y1="506.14" x2="35.91" y2="506.09"/><line class="cls-1" x1="131.59" y1="266.29" x2="145.49" y2="274.32"/><line class="cls-1" x1="381.76" y1="234.2" x2="389.42" y2="229.77"/><line class="cls-1" x1="389.43" y1="213.72" x2="395.66" y2="210.12"/><line class="cls-1" x1="389.42" y1="149.53" x2="395.66" y2="145.93"/><line class="cls-1" x1="389.43" y1="197.67" x2="395.66" y2="194.08"/><line class="cls-1" x1="340.06" y1="338.51" x2="340.06" y2="330.49"/><line class="cls-1" x1="131.59" y1="330.49" x2="145.49" y2="338.51"/><line class="cls-1" x1="319.93" y1="269.89" x2="326.89" y2="273.91"/><line class="cls-1" x1="20.27" y1="1018.24" x2="20.27" y2="1028.15"/><line class="cls-1" x1="90.21" y1="1020.38" x2="103.66" y2="1028.15"/><line class="cls-1" x1="14.95" y1="1015.17" x2="1.5" y2="1007.41"/><line class="cls-1" x1="347.74" y1="318.03" x2="353.8" y2="314.54"/><line class="cls-1" x1="208.96" y1="406.18" x2="229.81" y2="418.22"/><line class="cls-1" x1="76" y1="137.91" x2="89.89" y2="145.93"/><line class="cls-1" x1="15.31" y1="517.98" x2="35.83" y2="506.14"/><line class="cls-1" x1="35.83" y1="449.97" x2="35.83" y2="506.14"/><line class="cls-1" x1="423.37" y1="843.57" x2="438.92" y2="834.58"/><line class="cls-1" x1="48.07" y1="1034.3" x2="48.07" y2="1044.2"/><line class="cls-1" x1="439.37" y1="818.79" x2="457.69" y2="808.22"/><line class="cls-1" x1="411.13" y1="871.9" x2="406.9" y2="874.35"/><line class="cls-1" x1="78.89" y1="1122.69" x2="61.97" y2="1132.46"/><line class="cls-1" x1="406.9" y1="933.32" x2="425.02" y2="922.85"/><line class="cls-1" x1="411.13" y1="898.77" x2="406.9" y2="901.22"/><line class="cls-1" x1="425.02" y1="906.8" x2="425.02" y2="922.85"/><line class="cls-1" x1="425.02" y1="906.8" x2="438.92" y2="898.78"/><line class="cls-1" x1="438.92" y1="882.73" x2="452.82" y2="874.71"/><line class="cls-1" x1="438.92" y1="834.58" x2="452.82" y2="826.56"/><line class="cls-1" x1="452.82" y1="826.56" x2="452.82" y2="874.71"/><line class="cls-1" x1="452.82" y1="826.56" x2="439.37" y2="818.79"/><line class="cls-1" x1="411.12" y1="914.83" x2="425.02" y2="906.8"/><line class="cls-1" x1="411.12" y1="898.78" x2="411.12" y2="914.83"/><line class="cls-1" x1="438.92" y1="882.73" x2="438.92" y2="898.78"/></g></g></svg>