<svg xmlns="http://www.w3.org/2000/svg" viewBox="0 0 433.94 1287.6"><defs><style>.cls-1{fill:none;stroke:#000;stroke-linecap:round;stroke-linejoin:round;stroke-width:3px;}</style></defs><title>Asset 1moondust</title><g id="Layer_2" data-name="Layer 2"><g id="Make2D::Visible::Curves"><line class="cls-1" x1="223.92" y1="491.07" x2="223.92" y2="458.97"/><line class="cls-1" x1="223.92" y1="491.07" x2="251.72" y2="475.02"/><line class="cls-1" x1="349.03" y1="194.12" x2="349.03" y2="162.01"/><line class="cls-1" x1="98.81" y1="194.12" x2="98.81" y2="162.01"/><line class="cls-1" x1="98.81" y1="162.01" x2="112.71" y2="170.04"/><line class="cls-1" x1="112.71" y1="170.04" x2="112.71" y2="153.99"/><line class="cls-1" x1="112.71" y1="153.99" x2="112.71" y2="137.93"/><line class="cls-1" x1="112.71" y1="153.99" x2="98.81" y2="162.01"/><line class="cls-1" x1="126.61" y1="145.96" x2="112.71" y2="137.93"/><line class="cls-1" x1="112.71" y1="153.99" x2="126.61" y2="145.96"/><line class="cls-1" x1="335.13" y1="170.04" x2="335.13" y2="153.99"/><line class="cls-1" x1="335.13" y1="170.04" x2="349.03" y2="162.01"/><line class="cls-1" x1="349.03" y1="162.01" x2="335.13" y2="153.99"/><line class="cls-1" x1="335.13" y1="153.99" x2="335.13" y2="137.93"/><line class="cls-1" x1="321.23" y1="145.96" x2="335.13" y2="153.99"/><line class="cls-1" x1="335.13" y1="137.93" x2="321.23" y2="145.96"/><line class="cls-1" x1="335.13" y1="137.93" x2="307.33" y2="121.89"/><line class="cls-1" x1="223.92" y1="218.19" x2="210.02" y2="226.22"/><line class="cls-1" x1="223.92" y1="218.19" x2="223.92" y2="202.14"/><line class="cls-1" x1="237.82" y1="226.22" x2="237.82" y2="210.17"/><line class="cls-1" x1="210.02" y1="226.22" x2="210.02" y2="210.17"/><line class="cls-1" x1="210.02" y1="226.22" x2="223.92" y2="234.24"/><line class="cls-1" x1="223.92" y1="202.14" x2="210.02" y2="210.17"/><line class="cls-1" x1="307.42" y1="185.8" x2="293.52" y2="177.78"/><line class="cls-1" x1="293.52" y1="177.78" x2="293.32" y2="177.89"/><line class="cls-1" x1="293.52" y1="161.96" x2="307.42" y2="169.98"/><line class="cls-1" x1="321.23" y1="322.53" x2="321.22" y2="322.52"/><line class="cls-1" x1="335.13" y1="314.5" x2="321.23" y2="322.53"/><line class="cls-1" x1="349.03" y1="242.27" x2="349.03" y2="210.17"/><line class="cls-1" x1="196.12" y1="330.55" x2="210.02" y2="322.53"/><line class="cls-1" x1="112.71" y1="186.09" x2="98.81" y2="194.12"/><line class="cls-1" x1="98.81" y1="194.12" x2="112.71" y2="202.14"/><line class="cls-1" x1="112.71" y1="202.14" x2="112.71" y2="186.09"/><line class="cls-1" x1="112.71" y1="186.09" x2="126.61" y2="178.07"/><line class="cls-1" x1="196.12" y1="234.24" x2="182.22" y2="242.26"/><line class="cls-1" x1="210.02" y1="242.27" x2="196.12" y2="234.24"/><line class="cls-1" x1="196.12" y1="234.24" x2="196.12" y2="218.19"/><line class="cls-1" x1="196.12" y1="218.19" x2="182.21" y2="226.22"/><line class="cls-1" x1="168.32" y1="137.93" x2="168.32" y2="121.89"/><line class="cls-1" x1="196.12" y1="491.07" x2="210.02" y2="483.04"/><line class="cls-1" x1="279.52" y1="137.93" x2="279.52" y2="121.89"/><line class="cls-1" x1="279.52" y1="121.89" x2="279.52" y2="105.83"/><line class="cls-1" x1="223.92" y1="153.99" x2="223.92" y2="137.93"/><line class="cls-1" x1="210.02" y1="162.01" x2="210.02" y2="145.96"/><line class="cls-1" x1="223.92" y1="153.99" x2="210.02" y2="162.01"/><line class="cls-1" x1="223.92" y1="137.93" x2="210.02" y2="145.96"/><line class="cls-1" x1="237.82" y1="145.96" x2="223.92" y2="137.93"/><line class="cls-1" x1="265.63" y1="113.86" x2="279.52" y2="121.89"/><line class="cls-1" x1="210.02" y1="258.33" x2="223.92" y2="266.35"/><line class="cls-1" x1="307.33" y1="1286.1" x2="307.33" y2="1133.13"/><line class="cls-1" x1="154.41" y1="1286.1" x2="154.41" y2="1076.95"/><line class="cls-1" x1="71" y1="1286.1" x2="71" y2="1204.84"/><line class="cls-1" x1="237.82" y1="1286.1" x2="237.82" y2="1173.26"/><line class="cls-1" x1="390.73" y1="1020.25" x2="390.73" y2="1286.1"/><line class="cls-1" x1="210.02" y1="483.04" x2="223.92" y2="491.07"/><line class="cls-1" x1="147.46" y1="495.08" x2="161.36" y2="503.11"/><line class="cls-1" x1="133.56" y1="471.01" x2="147.46" y2="479.03"/><line class="cls-1" x1="133.56" y1="487.06" x2="133.56" y2="471.01"/><line class="cls-1" x1="161.36" y1="471.01" x2="147.46" y2="462.98"/><line class="cls-1" x1="286.47" y1="607.44" x2="272.57" y2="615.47"/><line class="cls-1" x1="300.38" y1="615.47" x2="286.47" y2="607.44"/><line class="cls-1" x1="286.47" y1="623.5" x2="300.38" y2="615.47"/><line class="cls-1" x1="286.47" y1="639.55" x2="300.38" y2="631.52"/><line class="cls-1" x1="293.44" y1="386.73" x2="286.47" y2="390.75"/><line class="cls-1" x1="272.57" y1="398.78" x2="272.57" y2="414.82"/><line class="cls-1" x1="286.47" y1="390.75" x2="272.57" y2="398.78"/><line class="cls-1" x1="251.72" y1="458.96" x2="265.62" y2="466.99"/><line class="cls-1" x1="237.82" y1="450.94" x2="251.72" y2="458.96"/><line class="cls-1" x1="223.92" y1="442.92" x2="237.82" y2="450.94"/><line class="cls-1" x1="237.82" y1="258.32" x2="251.72" y2="266.35"/><line class="cls-1" x1="335.13" y1="250.29" x2="335.13" y2="218.19"/><line class="cls-1" x1="335.13" y1="394.76" x2="335.13" y2="330.55"/><line class="cls-1" x1="265.62" y1="466.99" x2="307.33" y2="442.92"/><line class="cls-1" x1="265.62" y1="450.94" x2="265.62" y2="466.99"/><line class="cls-1" x1="251.72" y1="458.96" x2="265.62" y2="450.94"/><line class="cls-1" x1="251.72" y1="442.92" x2="251.72" y2="458.96"/><line class="cls-1" x1="237.82" y1="450.94" x2="251.72" y2="442.92"/><line class="cls-1" x1="237.82" y1="386.73" x2="237.82" y2="450.94"/><line class="cls-1" x1="237.82" y1="274.38" x2="237.82" y2="306.47"/><line class="cls-1" x1="251.72" y1="266.35" x2="237.82" y2="274.38"/><line class="cls-1" x1="223.92" y1="378.7" x2="223.92" y2="442.92"/><line class="cls-1" x1="223.92" y1="282.39" x2="223.92" y2="314.5"/><line class="cls-1" x1="64.06" y1="1176.76" x2="64.06" y2="1208.86"/><line class="cls-1" x1="105.76" y1="1168.73" x2="77.96" y2="1184.78"/><line class="cls-1" x1="105.76" y1="1152.68" x2="105.76" y2="1168.73"/><line class="cls-1" x1="77.96" y1="1168.73" x2="77.96" y2="1184.78"/><line class="cls-1" x1="77.96" y1="1184.78" x2="64.06" y2="1176.76"/><line class="cls-1" x1="71.02" y1="1204.84" x2="64.06" y2="1208.86"/><line class="cls-1" x1="105.76" y1="1104.52" x2="105.76" y2="1152.68"/><line class="cls-1" x1="91.86" y1="1096.5" x2="64.06" y2="1112.55"/><line class="cls-1" x1="77.96" y1="1168.73" x2="64.06" y2="1176.76"/><line class="cls-1" x1="77.96" y1="1120.58" x2="64.06" y2="1128.6"/><line class="cls-1" x1="64.06" y1="1128.6" x2="64.06" y2="1176.76"/><line class="cls-1" x1="50.16" y1="1168.73" x2="8.46" y2="1144.65"/><line class="cls-1" x1="50.16" y1="1104.52" x2="50.16" y2="808.09"/><line class="cls-1" x1="91.86" y1="1080.44" x2="91.86" y2="792.03"/><line class="cls-1" x1="390.73" y1="940.51" x2="390.73" y2="1020.25"/><line class="cls-1" x1="307.33" y1="1133.13" x2="237.82" y2="1173.26"/><line class="cls-1" x1="390.73" y1="803.82" x2="376.83" y2="795.79"/><line class="cls-1" x1="154.41" y1="1076.95" x2="154.41" y2="940.26"/><line class="cls-1" x1="376.83" y1="811.84" x2="390.73" y2="803.82"/><line class="cls-1" x1="390.73" y1="940.51" x2="390.73" y2="803.82"/><line class="cls-1" x1="265.62" y1="322.53" x2="265.62" y2="354.63"/><line class="cls-1" x1="161.36" y1="487.06" x2="175.26" y2="495.08"/><line class="cls-1" x1="161.36" y1="503.11" x2="161.36" y2="487.06"/><line class="cls-1" x1="216.97" y1="551.27" x2="230.87" y2="559.29"/><line class="cls-1" x1="230.87" y1="559.29" x2="230.87" y2="543.24"/><line class="cls-1" x1="244.77" y1="551.27" x2="244.77" y2="535.21"/><line class="cls-1" x1="272.57" y1="615.47" x2="258.67" y2="607.44"/><line class="cls-1" x1="258.67" y1="623.5" x2="272.57" y2="615.47"/><line class="cls-1" x1="258.67" y1="639.55" x2="272.57" y2="631.52"/><line class="cls-1" x1="286.47" y1="462.98" x2="300.38" y2="454.96"/><line class="cls-1" x1="300.38" y1="471.01" x2="300.38" y2="454.96"/><line class="cls-1" x1="300.38" y1="454.96" x2="293.42" y2="450.94"/><line class="cls-1" x1="286.47" y1="479.03" x2="300.38" y2="487.06"/><line class="cls-1" x1="286.47" y1="495.08" x2="300.38" y2="503.11"/><line class="cls-1" x1="300.38" y1="471.01" x2="286.47" y2="479.03"/><line class="cls-1" x1="286.47" y1="495.08" x2="286.47" y2="479.03"/><line class="cls-1" x1="314.27" y1="479.03" x2="300.38" y2="471.01"/><line class="cls-1" x1="314.27" y1="495.08" x2="328.18" y2="487.06"/><line class="cls-1" x1="314.27" y1="511.13" x2="328.18" y2="503.11"/><line class="cls-1" x1="314.27" y1="511.13" x2="314.27" y2="495.08"/><line class="cls-1" x1="300.38" y1="503.11" x2="314.27" y2="511.13"/><line class="cls-1" x1="328.18" y1="503.11" x2="328.18" y2="487.06"/><line class="cls-1" x1="328.18" y1="487.06" x2="314.27" y2="479.03"/><line class="cls-1" x1="314.27" y1="511.13" x2="328.18" y2="519.16"/><line class="cls-1" x1="314.27" y1="527.19" x2="328.18" y2="535.21"/><line class="cls-1" x1="314.27" y1="543.24" x2="328.18" y2="551.27"/><line class="cls-1" x1="314.27" y1="591.39" x2="328.18" y2="583.36"/><line class="cls-1" x1="328.18" y1="599.42" x2="328.18" y2="583.36"/><line class="cls-1" x1="328.18" y1="583.36" x2="314.27" y2="575.34"/><line class="cls-1" x1="300.38" y1="599.42" x2="286.47" y2="607.44"/><line class="cls-1" x1="314.27" y1="559.29" x2="328.18" y2="567.31"/><line class="cls-1" x1="210.02" y1="354.63" x2="126.61" y2="306.47"/><line class="cls-1" x1="112.71" y1="314.5" x2="112.71" y2="282.4"/><line class="cls-1" x1="126.61" y1="322.53" x2="112.71" y2="314.5"/><line class="cls-1" x1="321.23" y1="322.53" x2="321.23" y2="290.42"/><line class="cls-1" x1="251.72" y1="362.66" x2="251.72" y2="330.55"/><line class="cls-1" x1="293.42" y1="290.42" x2="237.82" y2="322.53"/><line class="cls-1" x1="362.93" y1="250.3" x2="307.33" y2="282.4"/><line class="cls-1" x1="307.33" y1="346.61" x2="335.13" y2="330.55"/><line class="cls-1" x1="307.33" y1="314.5" x2="307.33" y2="346.61"/><line class="cls-1" x1="293.42" y1="354.63" x2="293.42" y2="322.53"/><line class="cls-1" x1="237.82" y1="386.73" x2="293.42" y2="354.63"/><line class="cls-1" x1="237.82" y1="354.63" x2="237.82" y2="386.73"/><line class="cls-1" x1="279.52" y1="282.4" x2="223.92" y2="314.5"/><line class="cls-1" x1="349.03" y1="242.27" x2="293.42" y2="274.38"/><line class="cls-1" x1="237.82" y1="97.81" x2="307.33" y2="57.68"/><line class="cls-1" x1="237.82" y1="113.86" x2="307.33" y2="73.73"/><line class="cls-1" x1="140.52" y1="57.68" x2="210.02" y2="97.81"/><line class="cls-1" x1="140.52" y1="73.73" x2="210.02" y2="113.86"/><line class="cls-1" x1="237.82" y1="178.07" x2="307.33" y2="137.93"/><line class="cls-1" x1="237.82" y1="194.12" x2="307.33" y2="153.99"/><line class="cls-1" x1="237.82" y1="178.07" x2="223.92" y2="170.04"/><line class="cls-1" x1="237.82" y1="194.12" x2="223.92" y2="186.09"/><line class="cls-1" x1="307.33" y1="121.89" x2="279.52" y2="105.83"/><line class="cls-1" x1="140.52" y1="137.93" x2="210.02" y2="178.07"/><line class="cls-1" x1="140.52" y1="153.99" x2="210.02" y2="194.12"/><line class="cls-1" x1="168.32" y1="105.84" x2="140.52" y2="121.89"/><line class="cls-1" x1="223.92" y1="282.4" x2="237.82" y2="274.38"/><line class="cls-1" x1="279.53" y1="105.83" x2="237.82" y2="129.91"/><line class="cls-1" x1="210.02" y1="129.91" x2="168.32" y2="105.83"/><line class="cls-1" x1="168.32" y1="426.87" x2="140.52" y2="410.81"/><line class="cls-1" x1="210.02" y1="450.94" x2="168.32" y2="426.87"/><line class="cls-1" x1="223.92" y1="458.96" x2="210.02" y2="450.94"/><line class="cls-1" x1="140.52" y1="410.81" x2="140.52" y2="378.71"/><line class="cls-1" x1="210.02" y1="450.94" x2="210.02" y2="354.63"/><line class="cls-1" x1="223.92" y1="458.96" x2="223.92" y2="442.92"/><line class="cls-1" x1="362.93" y1="819.87" x2="376.83" y2="811.84"/><line class="cls-1" x1="168.32" y1="932.23" x2="342.07" y2="831.91"/><line class="cls-1" x1="300.38" y1="471.01" x2="369.88" y2="430.87"/><line class="cls-1" x1="168.32" y1="450.94" x2="147.46" y2="462.98"/><line class="cls-1" x1="216.97" y1="503.11" x2="286.47" y2="462.98"/><line class="cls-1" x1="286.47" y1="479.03" x2="286.47" y2="462.98"/><line class="cls-1" x1="126.61" y1="595.41" x2="43.2" y2="547.25"/><line class="cls-1" x1="154.41" y1="595.41" x2="154.41" y2="659.61"/><line class="cls-1" x1="126.61" y1="595.41" x2="126.61" y2="659.61"/><line class="cls-1" x1="369.88" y1="430.87" x2="390.73" y2="442.92"/><line class="cls-1" x1="307.33" y1="507.12" x2="244.77" y2="543.24"/><line class="cls-1" x1="390.73" y1="458.96" x2="328.18" y2="495.08"/><line class="cls-1" x1="390.73" y1="458.96" x2="390.73" y2="523.17"/><line class="cls-1" x1="376.83" y1="450.94" x2="390.73" y2="442.92"/><line class="cls-1" x1="390.73" y1="458.96" x2="376.83" y2="450.94"/><line class="cls-1" x1="390.73" y1="442.92" x2="390.73" y2="458.96"/><line class="cls-1" x1="376.83" y1="627.52" x2="376.83" y2="811.84"/><line class="cls-1" x1="376.83" y1="531.2" x2="376.83" y2="627.5"/><line class="cls-1" x1="390.73" y1="523.17" x2="376.83" y2="531.2"/><line class="cls-1" x1="168.32" y1="651.59" x2="168.32" y2="932.23"/><line class="cls-1" x1="140.52" y1="651.59" x2="140.52" y2="932.23"/><line class="cls-1" x1="140.52" y1="651.59" x2="154.41" y2="659.61"/><line class="cls-1" x1="57.11" y1="812.1" x2="112.71" y2="780"/><line class="cls-1" x1="22.35" y1="792.04" x2="57.11" y2="812.1"/><line class="cls-1" x1="57.11" y1="651.59" x2="57.11" y2="812.1"/><line class="cls-1" x1="15.4" y1="595.41" x2="71" y2="627.51"/><line class="cls-1" x1="71" y1="643.56" x2="57.11" y2="651.59"/><line class="cls-1" x1="57.11" y1="651.59" x2="1.5" y2="619.48"/><line class="cls-1" x1="15.4" y1="611.45" x2="71" y2="643.56"/><line class="cls-1" x1="112.71" y1="603.43" x2="71" y2="627.51"/><line class="cls-1" x1="112.71" y1="603.43" x2="112.71" y2="651.59"/><line class="cls-1" x1="57.11" y1="571.33" x2="112.71" y2="603.43"/><line class="cls-1" x1="411.59" y1="607.44" x2="376.83" y2="627.51"/><line class="cls-1" x1="362.93" y1="394.76" x2="418.53" y2="426.87"/><line class="cls-1" x1="390.73" y1="442.92" x2="418.53" y2="426.87"/><line class="cls-1" x1="369.88" y1="446.93" x2="369.88" y2="430.87"/><line class="cls-1" x1="64.06" y1="543.24" x2="133.56" y2="583.36"/><line class="cls-1" x1="314.27" y1="479.03" x2="369.88" y2="446.93"/><line class="cls-1" x1="230.87" y1="527.19" x2="286.48" y2="495.08"/><line class="cls-1" x1="64.06" y1="527.19" x2="133.56" y2="567.31"/><line class="cls-1" x1="369.88" y1="430.87" x2="335.13" y2="410.81"/><polyline class="cls-1" points="112.71 314.51 112.71 333.76 112.71 346.61"/><line class="cls-1" x1="98.81" y1="274.38" x2="98.81" y2="338.58"/><line class="cls-1" x1="237.82" y1="65.7" x2="279.52" y2="41.63"/><line class="cls-1" x1="237.82" y1="81.75" x2="279.52" y2="57.68"/><line class="cls-1" x1="168.32" y1="41.63" x2="210.02" y2="65.7"/><line class="cls-1" x1="168.32" y1="57.68" x2="210.02" y2="81.75"/><line class="cls-1" x1="258.67" y1="639.55" x2="272.57" y2="647.57"/><line class="cls-1" x1="286.47" y1="623.5" x2="272.57" y2="615.47"/><line class="cls-1" x1="272.57" y1="631.52" x2="286.47" y2="623.5"/><line class="cls-1" x1="272.57" y1="647.57" x2="286.47" y2="639.55"/><line class="cls-1" x1="279.52" y1="378.71" x2="293.42" y2="386.73"/><line class="cls-1" x1="279.52" y1="362.66" x2="279.52" y2="378.71"/><line class="cls-1" x1="293.42" y1="370.68" x2="293.42" y2="386.73"/><line class="cls-1" x1="293.42" y1="386.73" x2="307.33" y2="378.71"/><line class="cls-1" x1="300.38" y1="398.78" x2="300.38" y2="382.72"/><line class="cls-1" x1="272.57" y1="414.82" x2="300.38" y2="398.78"/><line class="cls-1" x1="237.82" y1="145.96" x2="279.52" y2="121.89"/><line class="cls-1" x1="237.82" y1="162.01" x2="279.52" y2="137.93"/><line class="cls-1" x1="237.82" y1="162.01" x2="223.92" y2="153.99"/><line class="cls-1" x1="237.82" y1="162.01" x2="237.82" y2="145.96"/><line class="cls-1" x1="168.32" y1="121.89" x2="210.02" y2="145.96"/><line class="cls-1" x1="168.32" y1="137.93" x2="210.02" y2="162.01"/><line class="cls-1" x1="196.12" y1="218.19" x2="126.61" y2="178.07"/><line class="cls-1" x1="182.21" y1="242.27" x2="196.12" y2="250.3"/><line class="cls-1" x1="182.21" y1="242.27" x2="182.21" y2="226.22"/><line class="cls-1" x1="196.12" y1="250.3" x2="210.02" y2="242.27"/><line class="cls-1" x1="112.71" y1="186.09" x2="182.21" y2="226.22"/><line class="cls-1" x1="98.81" y1="274.38" x2="196.12" y2="330.55"/><line class="cls-1" x1="98.81" y1="274.38" x2="98.81" y2="194.12"/><line class="cls-1" x1="196.12" y1="330.55" x2="196.12" y2="250.3"/><line class="cls-1" x1="210.02" y1="322.53" x2="210.02" y2="242.27"/><line class="cls-1" x1="335.13" y1="282.4" x2="335.13" y2="314.49"/><line class="cls-1" x1="307.42" y1="169.98" x2="335.13" y2="153.99"/><line class="cls-1" x1="293.52" y1="178.01" x2="279.61" y2="169.98"/><line class="cls-1" x1="293.52" y1="193.83" x2="293.52" y2="178.01"/><line class="cls-1" x1="307.42" y1="185.8" x2="307.42" y2="169.98"/><line class="cls-1" x1="293.52" y1="193.83" x2="307.42" y2="185.8"/><line class="cls-1" x1="293.52" y1="177.78" x2="293.52" y2="161.96"/><line class="cls-1" x1="237.82" y1="210.17" x2="293.52" y2="178.01"/><line class="cls-1" x1="237.82" y1="210.17" x2="223.92" y2="202.14"/><line class="cls-1" x1="223.92" y1="234.24" x2="237.82" y2="226.22"/><line class="cls-1" x1="237.82" y1="226.22" x2="223.92" y2="218.19"/><line class="cls-1" x1="112.71" y1="153.99" x2="210.02" y2="210.17"/><line class="cls-1" x1="223.92" y1="266.35" x2="223.92" y2="234.24"/><line class="cls-1" x1="223.92" y1="266.35" x2="349.03" y2="194.12"/><line class="cls-1" x1="168.32" y1="475.02" x2="196.12" y2="491.07"/><line class="cls-1" x1="168.32" y1="434.89" x2="168.32" y2="475.02"/><line class="cls-1" x1="196.12" y1="442.92" x2="196.12" y2="491.07"/><line class="cls-1" x1="210.02" y1="483.04" x2="210.02" y2="450.94"/><line class="cls-1" x1="154.41" y1="370.68" x2="168.32" y2="362.66"/><line class="cls-1" x1="154.41" y1="322.53" x2="154.41" y2="370.68"/><line class="cls-1" x1="126.61" y1="354.63" x2="154.41" y2="370.68"/><line class="cls-1" x1="126.61" y1="306.47" x2="126.61" y2="338.57"/><line class="cls-1" x1="168.32" y1="362.66" x2="168.32" y2="330.55"/><line class="cls-1" x1="307.33" y1="378.71" x2="307.33" y2="362.66"/><line class="cls-1" x1="307.33" y1="362.66" x2="293.42" y2="370.68"/><line class="cls-1" x1="293.42" y1="354.63" x2="307.33" y2="362.66"/><line class="cls-1" x1="279.52" y1="362.66" x2="293.42" y2="370.68"/><line class="cls-1" x1="265.62" y1="322.53" x2="265.62" y2="322.52"/><line class="cls-1" x1="279.52" y1="314.5" x2="279.52" y2="346.61"/><line class="cls-1" x1="279.52" y1="346.61" x2="265.62" y2="354.63"/><line class="cls-1" x1="286.47" y1="639.55" x2="286.47" y2="623.5"/><line class="cls-1" x1="272.57" y1="647.57" x2="272.57" y2="631.52"/><line class="cls-1" x1="223.92" y1="9.52" x2="237.82" y2="1.5"/><line class="cls-1" x1="210.02" y1="1.5" x2="223.92" y2="9.52"/><line class="cls-1" x1="210.02" y1="1.5" x2="168.32" y2="25.58"/><line class="cls-1" x1="168.32" y1="41.63" x2="168.32" y2="25.58"/><line class="cls-1" x1="182.22" y1="33.6" x2="168.32" y2="25.58"/><line class="cls-1" x1="168.32" y1="41.63" x2="182.22" y2="33.6"/><line class="cls-1" x1="279.52" y1="57.68" x2="279.52" y2="41.63"/><line class="cls-1" x1="279.52" y1="41.63" x2="279.52" y2="25.58"/><line class="cls-1" x1="279.52" y1="25.58" x2="265.62" y2="33.6"/><line class="cls-1" x1="279.52" y1="25.58" x2="237.82" y2="1.5"/><line class="cls-1" x1="223.92" y1="73.73" x2="223.92" y2="57.68"/><line class="cls-1" x1="237.82" y1="81.75" x2="237.82" y2="65.7"/><line class="cls-1" x1="210.02" y1="81.75" x2="210.02" y2="65.7"/><line class="cls-1" x1="223.92" y1="73.73" x2="210.02" y2="81.75"/><line class="cls-1" x1="237.82" y1="81.75" x2="223.92" y2="73.73"/><line class="cls-1" x1="223.92" y1="57.68" x2="210.02" y2="65.7"/><line class="cls-1" x1="237.82" y1="65.7" x2="223.92" y2="57.68"/><line class="cls-1" x1="411.59" y1="895.85" x2="411.59" y2="607.44"/><line class="cls-1" x1="411.59" y1="911.9" x2="397.68" y2="919.93"/><line class="cls-1" x1="411.59" y1="895.85" x2="411.59" y2="911.9"/><line class="cls-1" x1="425.48" y1="919.93" x2="411.59" y2="927.96"/><line class="cls-1" x1="425.48" y1="968.08" x2="411.59" y2="976.11"/><line class="cls-1" x1="425.48" y1="919.93" x2="425.48" y2="968.08"/><line class="cls-1" x1="397.68" y1="919.93" x2="390.73" y2="923.94"/><line class="cls-1" x1="411.59" y1="927.96" x2="390.73" y2="939.99"/><line class="cls-1" x1="397.68" y1="1016.24" x2="390.74" y2="1020.25"/><line class="cls-1" x1="411.59" y1="992.16" x2="397.68" y2="1000.19"/><line class="cls-1" x1="411.59" y1="976.11" x2="411.59" y2="992.16"/><line class="cls-1" x1="411.59" y1="911.9" x2="425.48" y2="919.93"/><line class="cls-1" x1="397.68" y1="1000.19" x2="390.74" y2="1004.2"/><line class="cls-1" x1="397.68" y1="1000.19" x2="397.68" y2="1016.24"/><line class="cls-1" x1="265.63" y1="33.61" x2="279.52" y2="41.63"/><line class="cls-1" x1="98.81" y1="338.58" x2="112.71" y2="346.61"/><line class="cls-1" x1="112.71" y1="346.61" x2="126.61" y2="338.58"/><line class="cls-1" x1="168.32" y1="426.87" x2="168.32" y2="434.89"/><line class="cls-1" x1="133.56" y1="567.31" x2="203.07" y2="527.19"/><line class="cls-1" x1="133.56" y1="583.36" x2="133.56" y2="567.31"/><line class="cls-1" x1="64.06" y1="543.24" x2="64.06" y2="527.19"/><line class="cls-1" x1="432.44" y1="434.89" x2="418.53" y2="426.87"/><line class="cls-1" x1="418.53" y1="426.87" x2="418.53" y2="442.92"/><line class="cls-1" x1="418.53" y1="442.92" x2="432.44" y2="434.89"/><line class="cls-1" x1="432.44" y1="434.89" x2="432.44" y2="595.41"/><line class="cls-1" x1="362.93" y1="394.76" x2="335.13" y2="410.81"/><line class="cls-1" x1="432.44" y1="595.41" x2="411.59" y2="607.44"/><line class="cls-1" x1="15.4" y1="595.41" x2="15.4" y2="611.45"/><line class="cls-1" x1="1.5" y1="619.48" x2="15.4" y2="611.45"/><line class="cls-1" x1="71" y1="627.51" x2="71" y2="643.56"/><line class="cls-1" x1="1.5" y1="619.48" x2="1.5" y2="780"/><line class="cls-1" x1="1.5" y1="780" x2="22.35" y2="792.04"/><line class="cls-1" x1="168.32" y1="651.59" x2="154.41" y2="659.61"/><line class="cls-1" x1="43.2" y1="547.25" x2="43.2" y2="579.34"/><line class="cls-1" x1="43.2" y1="531.2" x2="43.2" y2="547.25"/><line class="cls-1" x1="43.2" y1="531.2" x2="57.11" y2="539.22"/><line class="cls-1" x1="57.11" y1="539.22" x2="43.2" y2="547.25"/><line class="cls-1" x1="43.2" y1="531.2" x2="126.62" y2="483.04"/><line class="cls-1" x1="140.52" y1="587.38" x2="140.52" y2="651.59"/><line class="cls-1" x1="126.61" y1="659.61" x2="140.52" y2="651.59"/><line class="cls-1" x1="126.61" y1="595.41" x2="140.52" y2="587.38"/><line class="cls-1" x1="140.52" y1="587.38" x2="154.41" y2="595.41"/><line class="cls-1" x1="112.71" y1="651.59" x2="112.71" y2="780"/><line class="cls-1" x1="112.71" y1="651.59" x2="126.61" y2="659.61"/><line class="cls-1" x1="154.41" y1="924.2" x2="140.52" y2="932.23"/><line class="cls-1" x1="168.32" y1="932.23" x2="154.41" y2="924.2"/><line class="cls-1" x1="140.52" y1="932.23" x2="91.86" y2="904.14"/><line class="cls-1" x1="43.21" y1="579.35" x2="57.11" y2="571.33"/><line class="cls-1" x1="335.13" y1="410.81" x2="321.23" y2="402.79"/><line class="cls-1" x1="15.4" y1="595.41" x2="43.21" y2="579.35"/><line class="cls-1" x1="286.47" y1="462.98" x2="279.52" y2="458.96"/><line class="cls-1" x1="307.33" y1="426.87" x2="307.31" y2="426.87"/><line class="cls-1" x1="251.72" y1="475.02" x2="251.72" y2="458.96"/><line class="cls-1" x1="251.72" y1="458.96" x2="237.82" y2="466.99"/><line class="cls-1" x1="237.82" y1="466.99" x2="237.82" y2="450.94"/><line class="cls-1" x1="237.82" y1="450.94" x2="223.92" y2="458.96"/><line class="cls-1" x1="223.92" y1="442.92" x2="210.02" y2="450.94"/><line class="cls-1" x1="251.72" y1="475.02" x2="237.82" y2="466.99"/><line class="cls-1" x1="237.82" y1="466.99" x2="223.92" y2="458.96"/><line class="cls-1" x1="140.52" y1="73.73" x2="140.52" y2="89.78"/><line class="cls-1" x1="237.82" y1="113.86" x2="237.82" y2="129.91"/><line class="cls-1" x1="223.92" y1="121.89" x2="237.82" y2="129.91"/><line class="cls-1" x1="307.33" y1="73.73" x2="307.33" y2="89.78"/><line class="cls-1" x1="307.33" y1="89.78" x2="279.53" y2="105.83"/><line class="cls-1" x1="237.82" y1="274.38" x2="237.82" y2="258.32"/><line class="cls-1" x1="223.92" y1="282.4" x2="223.92" y2="266.35"/><line class="cls-1" x1="133.56" y1="583.36" x2="203.07" y2="543.24"/><line class="cls-1" x1="140.52" y1="153.99" x2="140.52" y2="137.93"/><line class="cls-1" x1="140.52" y1="137.93" x2="140.52" y2="121.89"/><line class="cls-1" x1="154.41" y1="129.91" x2="140.52" y2="121.89"/><line class="cls-1" x1="140.52" y1="137.93" x2="154.41" y2="129.91"/><line class="cls-1" x1="307.33" y1="153.99" x2="307.33" y2="137.93"/><line class="cls-1" x1="307.33" y1="137.93" x2="307.33" y2="121.89"/><line class="cls-1" x1="293.42" y1="129.91" x2="307.33" y2="137.93"/><line class="cls-1" x1="307.33" y1="121.89" x2="293.42" y2="129.91"/><line class="cls-1" x1="223.92" y1="186.09" x2="223.92" y2="170.04"/><line class="cls-1" x1="237.82" y1="194.12" x2="237.82" y2="178.07"/><line class="cls-1" x1="210.02" y1="194.12" x2="210.02" y2="178.07"/><line class="cls-1" x1="223.92" y1="186.09" x2="210.02" y2="194.12"/><line class="cls-1" x1="223.92" y1="170.04" x2="210.02" y2="178.07"/><line class="cls-1" x1="140.52" y1="73.73" x2="140.52" y2="57.68"/><line class="cls-1" x1="140.52" y1="57.68" x2="140.52" y2="41.63"/><line class="cls-1" x1="154.41" y1="49.65" x2="140.52" y2="41.63"/><line class="cls-1" x1="140.52" y1="57.68" x2="154.41" y2="49.65"/><line class="cls-1" x1="307.33" y1="73.73" x2="307.33" y2="57.68"/><line class="cls-1" x1="307.33" y1="57.68" x2="307.33" y2="41.63"/><line class="cls-1" x1="293.43" y1="49.65" x2="307.33" y2="57.68"/><line class="cls-1" x1="307.33" y1="41.63" x2="293.43" y2="49.65"/><line class="cls-1" x1="307.33" y1="41.63" x2="279.52" y2="25.58"/><line class="cls-1" x1="223.92" y1="105.83" x2="223.92" y2="89.78"/><line class="cls-1" x1="237.82" y1="113.86" x2="223.92" y2="105.83"/><line class="cls-1" x1="223.92" y1="89.78" x2="210.02" y2="97.81"/><line class="cls-1" x1="293.42" y1="274.38" x2="293.42" y2="290.42"/><line class="cls-1" x1="223.92" y1="314.5" x2="223.92" y2="330.55"/><line class="cls-1" x1="237.82" y1="338.58" x2="223.92" y2="346.61"/><line class="cls-1" x1="223.92" y1="346.61" x2="223.92" y2="362.66"/><line class="cls-1" x1="223.92" y1="362.66" x2="237.82" y2="354.63"/><line class="cls-1" x1="293.42" y1="322.53" x2="307.33" y2="314.5"/><line class="cls-1" x1="362.93" y1="314.5" x2="362.93" y2="282.4"/><line class="cls-1" x1="362.93" y1="282.4" x2="376.83" y2="274.38"/><line class="cls-1" x1="376.83" y1="274.38" x2="376.83" y2="258.32"/><line class="cls-1" x1="376.83" y1="258.32" x2="362.93" y2="266.35"/><line class="cls-1" x1="362.93" y1="266.35" x2="362.93" y2="250.3"/><line class="cls-1" x1="210.02" y1="129.91" x2="223.92" y2="121.89"/><line class="cls-1" x1="210.02" y1="113.86" x2="210.02" y2="129.91"/><line class="cls-1" x1="168.32" y1="57.68" x2="168.32" y2="41.63"/><line class="cls-1" x1="168.32" y1="121.89" x2="182.21" y2="113.86"/><line class="cls-1" x1="168.32" y1="121.89" x2="168.32" y2="105.83"/><line class="cls-1" x1="307.33" y1="282.4" x2="307.33" y2="298.45"/><line class="cls-1" x1="293.42" y1="306.47" x2="293.42" y2="290.42"/><line class="cls-1" x1="237.82" y1="322.53" x2="237.82" y2="338.58"/><line class="cls-1" x1="210.02" y1="338.58" x2="223.92" y2="346.61"/><line class="cls-1" x1="223.92" y1="330.55" x2="237.82" y2="338.58"/><line class="cls-1" x1="210.02" y1="354.63" x2="223.92" y2="362.66"/><line class="cls-1" x1="223.92" y1="378.71" x2="237.82" y2="386.73"/><line class="cls-1" x1="293.42" y1="338.58" x2="307.33" y2="346.61"/><line class="cls-1" x1="362.93" y1="250.3" x2="376.83" y2="258.32"/><line class="cls-1" x1="349.03" y1="242.27" x2="362.93" y2="250.3"/><line class="cls-1" x1="293.42" y1="274.38" x2="307.33" y2="282.4"/><line class="cls-1" x1="279.52" y1="282.4" x2="293.42" y2="290.42"/><line class="cls-1" x1="223.92" y1="314.5" x2="237.82" y2="322.53"/><line class="cls-1" x1="251.72" y1="330.55" x2="265.61" y2="322.53"/><line class="cls-1" x1="321.23" y1="290.42" x2="335.13" y2="282.4"/><line class="cls-1" x1="223.92" y1="362.66" x2="223.92" y2="378.71"/><line class="cls-1" x1="265.63" y1="322.53" x2="279.52" y2="314.5"/><line class="cls-1" x1="335.13" y1="282.4" x2="349.03" y2="274.38"/><line class="cls-1" x1="237.82" y1="113.86" x2="237.82" y2="97.81"/><line class="cls-1" x1="210.02" y1="113.86" x2="210.02" y2="97.81"/><line class="cls-1" x1="237.82" y1="97.81" x2="223.92" y2="89.78"/><line class="cls-1" x1="342.08" y1="575.34" x2="342.08" y2="559.29"/><line class="cls-1" x1="314.27" y1="575.34" x2="314.27" y2="559.29"/><line class="cls-1" x1="328.18" y1="583.36" x2="328.18" y2="567.31"/><line class="cls-1" x1="328.18" y1="583.36" x2="342.08" y2="575.34"/><line class="cls-1" x1="342.08" y1="559.29" x2="342.08" y2="543.24"/><line class="cls-1" x1="314.27" y1="559.29" x2="314.27" y2="543.24"/><line class="cls-1" x1="328.18" y1="567.31" x2="328.18" y2="551.27"/><line class="cls-1" x1="328.18" y1="567.31" x2="342.08" y2="559.29"/><line class="cls-1" x1="314.27" y1="623.5" x2="314.27" y2="607.44"/><line class="cls-1" x1="300.38" y1="631.52" x2="314.27" y2="623.5"/><line class="cls-1" x1="300.38" y1="615.47" x2="314.27" y2="607.44"/><line class="cls-1" x1="300.38" y1="599.42" x2="300.38" y2="583.36"/><line class="cls-1" x1="314.27" y1="575.34" x2="300.38" y2="583.36"/><line class="cls-1" x1="300.38" y1="599.42" x2="314.27" y2="607.44"/><line class="cls-1" x1="314.27" y1="607.44" x2="314.27" y2="591.39"/><line class="cls-1" x1="300.38" y1="583.36" x2="314.27" y2="591.39"/><line class="cls-1" x1="314.27" y1="607.44" x2="328.18" y2="599.42"/><line class="cls-1" x1="342.08" y1="543.24" x2="342.08" y2="527.19"/><line class="cls-1" x1="314.27" y1="543.24" x2="314.27" y2="527.19"/><line class="cls-1" x1="328.18" y1="551.27" x2="328.18" y2="535.21"/><line class="cls-1" x1="328.18" y1="551.27" x2="342.08" y2="543.24"/><line class="cls-1" x1="342.08" y1="511.13" x2="328.18" y2="503.11"/><line class="cls-1" x1="342.08" y1="527.19" x2="342.08" y2="511.13"/><line class="cls-1" x1="314.27" y1="527.19" x2="314.27" y2="511.13"/><line class="cls-1" x1="328.18" y1="535.21" x2="328.18" y2="519.16"/><line class="cls-1" x1="328.18" y1="535.21" x2="342.08" y2="527.19"/><line class="cls-1" x1="328.18" y1="519.16" x2="342.08" y2="511.13"/><line class="cls-1" x1="300.38" y1="503.11" x2="300.38" y2="487.06"/><line class="cls-1" x1="314.27" y1="479.03" x2="300.38" y2="487.06"/><line class="cls-1" x1="300.38" y1="487.06" x2="314.27" y2="495.08"/><line class="cls-1" x1="272.57" y1="631.52" x2="272.57" y2="615.47"/><line class="cls-1" x1="258.67" y1="639.55" x2="258.67" y2="623.5"/><line class="cls-1" x1="244.77" y1="631.52" x2="258.67" y2="639.55"/><line class="cls-1" x1="230.87" y1="527.19" x2="216.97" y2="519.16"/><line class="cls-1" x1="203.07" y1="543.24" x2="203.07" y2="527.19"/><line class="cls-1" x1="216.97" y1="519.16" x2="203.07" y2="527.19"/><line class="cls-1" x1="203.07" y1="543.24" x2="216.97" y2="551.27"/><line class="cls-1" x1="203.07" y1="527.19" x2="216.97" y2="535.21"/><line class="cls-1" x1="230.87" y1="559.29" x2="244.77" y2="551.27"/><line class="cls-1" x1="230.87" y1="543.24" x2="244.77" y2="535.21"/><line class="cls-1" x1="244.77" y1="535.21" x2="230.87" y2="527.19"/><line class="cls-1" x1="216.97" y1="551.27" x2="216.97" y2="535.21"/><line class="cls-1" x1="230.87" y1="527.19" x2="216.97" y2="535.21"/><line class="cls-1" x1="216.97" y1="535.21" x2="230.87" y2="543.24"/><line class="cls-1" x1="244.77" y1="599.42" x2="258.67" y2="591.39"/><line class="cls-1" x1="258.67" y1="591.39" x2="258.67" y2="575.34"/><line class="cls-1" x1="244.77" y1="599.42" x2="244.77" y2="583.36"/><line class="cls-1" x1="230.87" y1="591.39" x2="230.87" y2="575.34"/><line class="cls-1" x1="230.87" y1="591.39" x2="244.77" y2="599.42"/><line class="cls-1" x1="244.77" y1="583.36" x2="258.67" y2="575.34"/><line class="cls-1" x1="258.67" y1="575.34" x2="258.67" y2="559.29"/><line class="cls-1" x1="244.77" y1="567.31" x2="258.67" y2="559.29"/><line class="cls-1" x1="244.77" y1="583.36" x2="244.77" y2="567.31"/><line class="cls-1" x1="258.67" y1="559.29" x2="244.77" y2="551.27"/><line class="cls-1" x1="230.87" y1="575.34" x2="230.87" y2="559.29"/><line class="cls-1" x1="230.87" y1="575.34" x2="244.77" y2="583.36"/><line class="cls-1" x1="230.87" y1="559.29" x2="244.77" y2="567.31"/><line class="cls-1" x1="244.77" y1="631.52" x2="258.67" y2="623.5"/><line class="cls-1" x1="258.67" y1="623.5" x2="258.67" y2="607.44"/><line class="cls-1" x1="244.77" y1="631.52" x2="244.77" y2="615.47"/><line class="cls-1" x1="230.87" y1="623.5" x2="230.87" y2="607.44"/><line class="cls-1" x1="230.87" y1="623.5" x2="244.77" y2="631.52"/><line class="cls-1" x1="244.77" y1="615.47" x2="258.67" y2="607.44"/><line class="cls-1" x1="258.67" y1="607.44" x2="258.67" y2="591.39"/><line class="cls-1" x1="244.77" y1="615.47" x2="244.77" y2="599.42"/><line class="cls-1" x1="230.87" y1="607.44" x2="230.87" y2="591.39"/><line class="cls-1" x1="230.87" y1="607.44" x2="244.77" y2="615.47"/><line class="cls-1" x1="223.92" y1="555.27" x2="154.41" y2="595.41"/><line class="cls-1" x1="335.13" y1="330.55" x2="362.93" y2="314.5"/><line class="cls-1" x1="265.61" y1="322.53" x2="265.63" y2="322.53"/><line class="cls-1" x1="335.13" y1="282.4" x2="335.13" y2="282.4"/><line class="cls-1" x1="376.83" y1="627.5" x2="376.83" y2="627.52"/><line class="cls-1" x1="223.92" y1="105.83" x2="223.92" y2="121.89"/><line class="cls-1" x1="223.92" y1="105.83" x2="210.02" y2="113.86"/><line class="cls-1" x1="307.33" y1="298.45" x2="293.42" y2="306.47"/><line class="cls-1" x1="293.42" y1="290.42" x2="307.33" y2="298.45"/><line class="cls-1" x1="210.02" y1="338.58" x2="196.12" y2="330.55"/><line class="cls-1" x1="223.92" y1="330.55" x2="210.02" y2="322.53"/><line class="cls-1" x1="168.32" y1="25.58" x2="140.52" y2="41.63"/><line class="cls-1" x1="168.32" y1="434.89" x2="161.36" y2="438.9"/><line class="cls-1" x1="210.02" y1="274.38" x2="223.92" y2="282.4"/><line class="cls-1" x1="126.61" y1="338.57" x2="126.61" y2="338.59"/><line class="cls-1" x1="168.32" y1="105.83" x2="140.52" y2="89.78"/><line class="cls-1" x1="175.26" y1="479.03" x2="161.36" y2="487.06"/><line class="cls-1" x1="161.36" y1="503.11" x2="175.26" y2="511.13"/><line class="cls-1" x1="335.13" y1="250.3" x2="335.13" y2="250.29"/><line class="cls-1" x1="112.71" y1="346.61" x2="126.61" y2="354.63"/><line class="cls-1" x1="210.02" y1="129.91" x2="223.92" y2="137.93"/><line class="cls-1" x1="168.32" y1="475.02" x2="161.36" y2="471.01"/><line class="cls-1" x1="140.52" y1="932.23" x2="154.41" y2="940.26"/><line class="cls-1" x1="126.61" y1="483.04" x2="133.56" y2="487.06"/><line class="cls-1" x1="168.32" y1="442.92" x2="161.36" y2="438.9"/><line class="cls-1" x1="265.62" y1="466.99" x2="251.72" y2="475.02"/><line class="cls-1" x1="342.07" y1="831.91" x2="362.93" y2="819.87"/><line class="cls-1" x1="126.61" y1="338.59" x2="126.61" y2="354.63"/><line class="cls-1" x1="140.51" y1="121.89" x2="112.71" y2="137.93"/><line class="cls-1" x1="133.56" y1="487.06" x2="64.06" y2="527.19"/><line class="cls-1" x1="154.41" y1="940.26" x2="168.31" y2="932.23"/><line class="cls-1" x1="223.92" y1="137.93" x2="237.81" y2="129.91"/><line class="cls-1" x1="161.36" y1="454.96" x2="147.46" y2="446.93"/><line class="cls-1" x1="147.46" y1="446.93" x2="133.56" y2="454.96"/><line class="cls-1" x1="161.36" y1="438.9" x2="147.46" y2="446.93"/><line class="cls-1" x1="265.62" y1="113.86" x2="265.62" y2="113.85"/><line class="cls-1" x1="147.46" y1="462.98" x2="133.56" y2="454.96"/><line class="cls-1" x1="119.66" y1="479.03" x2="119.66" y2="462.98"/><line class="cls-1" x1="133.56" y1="454.96" x2="119.66" y2="462.98"/><line class="cls-1" x1="119.66" y1="479.03" x2="126.61" y2="483.04"/><line class="cls-1" x1="119.66" y1="462.98" x2="133.56" y2="471.01"/><line class="cls-1" x1="265.62" y1="354.63" x2="251.72" y2="362.66"/><line class="cls-1" x1="335.13" y1="314.5" x2="335.13" y2="314.5"/><line class="cls-1" x1="349.03" y1="274.38" x2="349.03" y2="306.47"/><line class="cls-1" x1="349.03" y1="306.47" x2="335.13" y2="314.5"/><line class="cls-1" x1="223.92" y1="137.93" x2="223.92" y2="121.89"/><line class="cls-1" x1="22.35" y1="1088.47" x2="22.35" y2="792.04"/><line class="cls-1" x1="22.35" y1="1088.47" x2="22.35" y2="1104.52"/><line class="cls-1" x1="50.16" y1="1104.52" x2="50.16" y2="1120.58"/><line class="cls-1" x1="64.06" y1="1112.55" x2="50.16" y2="1120.58"/><line class="cls-1" x1="64.06" y1="1128.6" x2="50.16" y2="1120.58"/><line class="cls-1" x1="8.46" y1="1096.5" x2="8.46" y2="1144.65"/><line class="cls-1" x1="64.06" y1="1176.76" x2="50.16" y2="1168.73"/><line class="cls-1" x1="8.46" y1="1096.5" x2="22.35" y2="1088.47"/><line class="cls-1" x1="91.86" y1="1080.44" x2="91.86" y2="1096.5"/><line class="cls-1" x1="105.76" y1="1104.52" x2="77.96" y2="1120.58"/><line class="cls-1" x1="64.06" y1="1208.86" x2="50.16" y2="1200.83"/><line class="cls-1" x1="91.86" y1="1192.81" x2="71.02" y2="1204.84"/><line class="cls-1" x1="50.16" y1="1168.73" x2="50.16" y2="1200.83"/><line class="cls-1" x1="91.86" y1="1096.5" x2="105.76" y2="1104.52"/><line class="cls-1" x1="22.35" y1="1104.52" x2="8.46" y2="1096.5"/><line class="cls-1" x1="91.86" y1="1176.76" x2="91.86" y2="1192.81"/><line class="cls-1" x1="251.72" y1="250.3" x2="251.72" y2="266.35"/><line class="cls-1" x1="307.33" y1="442.92" x2="307.33" y2="426.87"/><line class="cls-1" x1="307.33" y1="426.87" x2="321.23" y2="418.84"/><line class="cls-1" x1="321.23" y1="418.84" x2="321.23" y2="402.79"/><line class="cls-1" x1="321.23" y1="402.79" x2="335.13" y2="394.76"/><line class="cls-1" x1="335.13" y1="218.19" x2="321.23" y2="226.22"/><line class="cls-1" x1="321.23" y1="226.22" x2="321.23" y2="210.17"/><line class="cls-1" x1="321.23" y1="210.17" x2="335.13" y2="218.19"/><line class="cls-1" x1="349.03" y1="210.17" x2="349.03" y2="194.12"/><line class="cls-1" x1="335.13" y1="218.19" x2="335.13" y2="202.14"/><line class="cls-1" x1="335.13" y1="218.19" x2="349.03" y2="210.17"/><line class="cls-1" x1="126.61" y1="354.63" x2="126.61" y2="370.68"/><line class="cls-1" x1="140.52" y1="378.71" x2="126.61" y2="370.68"/><line class="cls-1" x1="140.52" y1="362.66" x2="140.52" y2="378.71"/><line class="cls-1" x1="154.41" y1="370.68" x2="140.52" y2="378.71"/><line class="cls-1" x1="300.38" y1="631.52" x2="300.38" y2="615.47"/><line class="cls-1" x1="175.26" y1="495.08" x2="189.17" y2="503.11"/><line class="cls-1" x1="175.26" y1="511.13" x2="189.17" y2="519.16"/><line class="cls-1" x1="189.17" y1="487.06" x2="175.26" y2="495.08"/><line class="cls-1" x1="175.26" y1="511.13" x2="175.26" y2="495.08"/><line class="cls-1" x1="203.07" y1="495.08" x2="196.12" y2="491.07"/><line class="cls-1" x1="189.17" y1="503.11" x2="203.07" y2="511.13"/><line class="cls-1" x1="189.17" y1="519.16" x2="203.07" y2="527.19"/><line class="cls-1" x1="203.07" y1="495.08" x2="189.17" y2="503.11"/><line class="cls-1" x1="189.17" y1="519.16" x2="189.17" y2="503.11"/><line class="cls-1" x1="216.97" y1="503.11" x2="203.07" y2="495.08"/><line class="cls-1" x1="203.07" y1="527.19" x2="203.07" y2="511.13"/><line class="cls-1" x1="203.07" y1="511.13" x2="216.97" y2="503.11"/><line class="cls-1" x1="216.97" y1="519.16" x2="216.97" y2="503.11"/><line class="cls-1" x1="147.46" y1="479.03" x2="161.36" y2="487.06"/><line class="cls-1" x1="161.36" y1="471.01" x2="147.46" y2="479.03"/><line class="cls-1" x1="147.46" y1="495.08" x2="147.46" y2="479.03"/><line class="cls-1" x1="133.56" y1="487.06" x2="147.46" y2="495.08"/><line class="cls-1" x1="147.46" y1="462.98" x2="133.56" y2="471.01"/></g></g></svg>