<svg xmlns="http://www.w3.org/2000/svg" viewBox="0 0 461.85 1205.81"><defs><style>.cls-1{fill:none;stroke:#000;stroke-linecap:round;stroke-linejoin:round;stroke-width:3px;}</style></defs><title>Asset 3riku</title><g id="Layer_2" data-name="Layer 2"><g id="Make2D::Visible::Curves"><line class="cls-1" x1="425.59" y1="1174.23" x2="373.5" y2="1204.31"/><line class="cls-1" x1="328.25" y1="1204.31" x2="328.25" y2="1053.84"/><line class="cls-1" x1="161.4" y1="1021.73" x2="161.4" y2="1204.31"/><line class="cls-1" x1="425.59" y1="1174.23" x2="425.59" y2="1204.31"/><line class="cls-1" x1="356.07" y1="1204.31" x2="356.07" y2="1198.31"/><line class="cls-1" x1="64.07" y1="1204.31" x2="64.07" y2="1136.92"/><line class="cls-1" x1="258.73" y1="1204.31" x2="258.73" y2="1093.98"/><line class="cls-1" x1="258.73" y1="182.13" x2="272.64" y2="174.1"/><line class="cls-1" x1="286.55" y1="166.07" x2="300.45" y2="158.04"/><line class="cls-1" x1="314.35" y1="150.01" x2="328.25" y2="141.98"/><line class="cls-1" x1="342.16" y1="133.96" x2="356.07" y2="125.93"/><line class="cls-1" x1="175.31" y1="158.04" x2="189.21" y2="166.07"/><line class="cls-1" x1="203.12" y1="174.1" x2="217.02" y2="182.13"/><line class="cls-1" x1="328.25" y1="141.98" x2="335.21" y2="146"/><line class="cls-1" x1="328.25" y1="141.98" x2="342.16" y2="133.96"/><line class="cls-1" x1="300.45" y1="158.04" x2="314.35" y2="150.01"/><line class="cls-1" x1="272.64" y1="174.1" x2="286.55" y2="166.07"/><line class="cls-1" x1="223.97" y1="186.14" x2="237.87" y2="178.11"/><line class="cls-1" x1="237.87" y1="178.11" x2="251.78" y2="186.14"/><line class="cls-1" x1="189.21" y1="166.07" x2="203.12" y2="174.1"/><line class="cls-1" x1="161.4" y1="150.01" x2="175.31" y2="158.04"/><polyline class="cls-1" points="154.45 113.89 147.5 117.9 140.54 121.92"/><line class="cls-1" x1="140.54" y1="121.92" x2="140.54" y2="137.98"/><polyline class="cls-1" points="223.97 170.08 230.92 166.07 237.87 162.06"/><polyline class="cls-1" points="237.87 162.06 244.83 166.07 251.78 170.08"/><line class="cls-1" x1="251.78" y1="170.08" x2="363.02" y2="105.86"/><line class="cls-1" x1="251.78" y1="170.08" x2="251.78" y2="186.14"/><line class="cls-1" x1="223.97" y1="170.08" x2="223.97" y2="186.14"/><line class="cls-1" x1="237.87" y1="162.06" x2="237.87" y2="178.11"/><polyline class="cls-1" points="363.02 105.86 356.07 101.85 349.13 97.84"/><line class="cls-1" x1="363.02" y1="105.86" x2="363.02" y2="121.92"/><line class="cls-1" x1="147.49" y1="125.93" x2="223.97" y2="170.08"/><line class="cls-1" x1="147.49" y1="141.98" x2="161.4" y2="150.01"/><polyline class="cls-1" points="154.45 89.8 161.4 93.82 168.35 97.83"/><line class="cls-1" x1="251.78" y1="146" x2="349.11" y2="89.8"/><line class="cls-1" x1="251.78" y1="162.06" x2="349.11" y2="105.86"/><polyline class="cls-1" points="335.21 81.78 342.16 77.77 349.11 73.75"/><line class="cls-1" x1="349.11" y1="73.75" x2="335.21" y2="65.72"/><line class="cls-1" x1="349.11" y1="89.8" x2="349.11" y2="105.86"/><line class="cls-1" x1="154.45" y1="105.86" x2="154.45" y2="121.92"/><line class="cls-1" x1="154.45" y1="105.86" x2="223.97" y2="146"/><line class="cls-1" x1="154.45" y1="121.92" x2="223.97" y2="162.06"/><polyline class="cls-1" points="168.35 73.75 175.31 77.77 182.26 81.78"/><line class="cls-1" x1="168.35" y1="89.8" x2="223.97" y2="121.92"/><line class="cls-1" x1="168.35" y1="105.86" x2="223.97" y2="137.98"/><line class="cls-1" x1="168.35" y1="89.8" x2="168.35" y2="105.86"/><polyline class="cls-1" points="237.87 113.89 244.83 117.9 251.78 121.92"/><line class="cls-1" x1="251.78" y1="121.92" x2="335.21" y2="73.75"/><line class="cls-1" x1="251.78" y1="137.98" x2="335.21" y2="89.8"/><line class="cls-1" x1="223.97" y1="121.92" x2="223.97" y2="137.98"/><line class="cls-1" x1="223.97" y1="137.98" x2="237.87" y2="129.95"/><line class="cls-1" x1="237.87" y1="113.89" x2="237.87" y2="129.95"/><polyline class="cls-1" points="321.3 65.72 328.25 61.71 335.21 57.7"/><line class="cls-1" x1="335.21" y1="65.72" x2="335.21" y2="73.75"/><line class="cls-1" x1="335.21" y1="73.75" x2="335.21" y2="89.8"/><polyline class="cls-1" points="182.26 57.7 189.21 61.71 196.16 65.72"/><line class="cls-1" x1="182.26" y1="89.8" x2="223.97" y2="113.89"/><line class="cls-1" x1="182.26" y1="73.75" x2="223.97" y2="97.83"/><line class="cls-1" x1="182.26" y1="73.75" x2="182.26" y2="89.8"/><polyline class="cls-1" points="237.87 89.8 244.83 93.82 251.78 97.83"/><line class="cls-1" x1="251.78" y1="113.89" x2="321.3" y2="73.75"/><line class="cls-1" x1="251.78" y1="97.83" x2="321.3" y2="57.7"/><line class="cls-1" x1="251.78" y1="97.83" x2="251.78" y2="113.89"/><line class="cls-1" x1="223.97" y1="97.83" x2="223.97" y2="113.89"/><line class="cls-1" x1="237.87" y1="105.86" x2="251.78" y2="113.89"/><line class="cls-1" x1="237.87" y1="89.8" x2="237.87" y2="105.86"/><polyline class="cls-1" points="307.4 49.67 314.35 45.65 321.3 41.64"/><line class="cls-1" x1="321.3" y1="57.7" x2="321.3" y2="73.75"/><polyline class="cls-1" points="196.16 41.64 203.12 45.65 210.07 49.67"/><line class="cls-1" x1="196.16" y1="73.75" x2="223.97" y2="89.8"/><line class="cls-1" x1="196.16" y1="57.7" x2="223.97" y2="73.75"/><line class="cls-1" x1="196.16" y1="57.7" x2="196.16" y2="73.75"/><polyline class="cls-1" points="223.97 73.75 230.92 69.73 237.87 65.72"/><polyline class="cls-1" points="237.87 65.72 244.83 69.73 251.78 73.75"/><line class="cls-1" x1="251.78" y1="89.8" x2="307.4" y2="57.7"/><line class="cls-1" x1="251.78" y1="73.75" x2="307.4" y2="41.64"/><line class="cls-1" x1="251.78" y1="73.75" x2="251.78" y2="89.8"/><line class="cls-1" x1="223.97" y1="73.75" x2="223.97" y2="89.8"/><line class="cls-1" x1="223.97" y1="89.8" x2="237.87" y2="81.78"/><line class="cls-1" x1="237.87" y1="81.78" x2="251.78" y2="89.8"/><line class="cls-1" x1="237.87" y1="65.72" x2="237.87" y2="81.78"/><line class="cls-1" x1="210.07" y1="33.61" x2="196.16" y2="41.64"/><polyline class="cls-1" points="293.5 33.61 300.45 29.6 307.4 25.58"/><line class="cls-1" x1="307.4" y1="41.64" x2="307.4" y2="57.7"/><line class="cls-1" x1="210.07" y1="57.7" x2="223.97" y2="65.72"/><line class="cls-1" x1="210.07" y1="41.64" x2="223.97" y2="49.67"/><line class="cls-1" x1="210.07" y1="41.64" x2="210.07" y2="57.7"/><line class="cls-1" x1="210.07" y1="25.58" x2="210.07" y2="33.61"/><line class="cls-1" x1="210.07" y1="25.58" x2="223.97" y2="33.61"/><line class="cls-1" x1="251.78" y1="65.72" x2="293.5" y2="41.64"/><line class="cls-1" x1="251.78" y1="49.67" x2="293.5" y2="25.58"/><line class="cls-1" x1="251.78" y1="49.67" x2="251.78" y2="65.72"/><line class="cls-1" x1="223.97" y1="49.67" x2="223.97" y2="65.72"/><line class="cls-1" x1="237.87" y1="57.7" x2="251.78" y2="65.72"/><line class="cls-1" x1="237.87" y1="41.64" x2="251.78" y2="49.67"/><line class="cls-1" x1="237.87" y1="41.64" x2="237.87" y2="57.7"/><line class="cls-1" x1="293.5" y1="17.55" x2="293.5" y2="25.58"/><line class="cls-1" x1="293.5" y1="25.58" x2="293.5" y2="41.64"/><line class="cls-1" x1="279.59" y1="17.55" x2="293.5" y2="9.53"/><line class="cls-1" x1="390.83" y1="159.23" x2="390.83" y2="162.06"/><line class="cls-1" x1="349.11" y1="137.98" x2="335.22" y2="146"/><line class="cls-1" x1="363.02" y1="146" x2="349.11" y2="154.03"/><line class="cls-1" x1="349.11" y1="137.98" x2="349.11" y2="154.03"/><line class="cls-1" x1="363.02" y1="129.95" x2="363.02" y2="146"/><line class="cls-1" x1="349.11" y1="129.95" x2="349.11" y2="137.98"/><line class="cls-1" x1="279.59" y1="194.17" x2="265.69" y2="202.2"/><line class="cls-1" x1="265.69" y1="186.14" x2="279.59" y2="194.17"/><line class="cls-1" x1="237.87" y1="218.25" x2="237.87" y2="250.36"/><line class="cls-1" x1="168.35" y1="162.06" x2="154.45" y2="154.03"/><line class="cls-1" x1="154.45" y1="170.08" x2="140.54" y2="162.06"/><line class="cls-1" x1="154.45" y1="154.03" x2="154.45" y2="170.08"/><line class="cls-1" x1="154.45" y1="146" x2="154.45" y2="154.03"/><line class="cls-1" x1="140.54" y1="146" x2="140.54" y2="162.06"/><line class="cls-1" x1="237.87" y1="250.36" x2="140.54" y2="194.17"/><line class="cls-1" x1="390.83" y1="162.06" x2="237.87" y2="250.36"/><line class="cls-1" x1="140.54" y1="194.17" x2="112.74" y2="178.11"/><line class="cls-1" x1="63.22" y1="1105.3" x2="63.22" y2="1137.41"/><line class="cls-1" x1="91.03" y1="1025.02" x2="63.22" y2="1041.07"/><line class="cls-1" x1="77.12" y1="1097.27" x2="63.22" y2="1105.3"/><line class="cls-1" x1="77.12" y1="1049.1" x2="63.22" y2="1057.13"/><line class="cls-1" x1="7.6" y1="1025.02" x2="20.12" y2="1017.79"/><line class="cls-1" x1="63.22" y1="1057.13" x2="63.22" y2="1105.3"/><line class="cls-1" x1="49.31" y1="1097.27" x2="7.6" y2="1073.19"/><line class="cls-1" x1="104.93" y1="1033.05" x2="104.93" y2="1081.22"/><line class="cls-1" x1="104.93" y1="1097.27" x2="77.12" y2="1113.33"/><line class="cls-1" x1="77.12" y1="1113.33" x2="63.22" y2="1105.3"/><line class="cls-1" x1="20.11" y1="1017.79" x2="47.92" y2="1033.85"/><line class="cls-1" x1="49.31" y1="735.55" x2="49.31" y2="1034.66"/><line class="cls-1" x1="93.8" y1="1008.97" x2="93.8" y2="718.87"/><line class="cls-1" x1="50.7" y1="1033.85" x2="92.42" y2="1009.77"/><line class="cls-1" x1="116.14" y1="425.01" x2="77.97" y2="447.04"/><line class="cls-1" x1="300.45" y1="398.88" x2="330.71" y2="381.4"/><line class="cls-1" x1="443.13" y1="517.2" x2="425.6" y2="527.32"/><line class="cls-1" x1="418.64" y1="354.73" x2="446.45" y2="338.67"/><line class="cls-1" x1="416.09" y1="353.25" x2="425.59" y2="358.74"/><line class="cls-1" x1="112.74" y1="531.34" x2="112.74" y2="579.5"/><line class="cls-1" x1="57.12" y1="499.22" x2="112.74" y2="531.34"/><line class="cls-1" x1="57.12" y1="740.06" x2="112.74" y2="707.95"/><line class="cls-1" x1="18.73" y1="717.9" x2="57.12" y2="740.06"/><line class="cls-1" x1="36.26" y1="511.26" x2="57.12" y2="499.22"/><line class="cls-1" x1="57.12" y1="579.5" x2="57.12" y2="740.06"/><line class="cls-1" x1="15.4" y1="523.31" x2="71.02" y2="555.42"/><line class="cls-1" x1="71.02" y1="571.47" x2="57.12" y2="579.5"/><line class="cls-1" x1="71.02" y1="555.42" x2="71.02" y2="571.47"/><line class="cls-1" x1="57.12" y1="579.5" x2="1.5" y2="547.39"/><line class="cls-1" x1="15.4" y1="539.36" x2="71.02" y2="571.47"/><line class="cls-1" x1="112.74" y1="531.34" x2="71.02" y2="555.42"/><line class="cls-1" x1="133.59" y1="527.32" x2="133.59" y2="591.54"/><line class="cls-1" x1="133.59" y1="527.32" x2="36.26" y2="471.13"/><line class="cls-1" x1="249.55" y1="444.32" x2="330.29" y2="397.7"/><line class="cls-1" x1="77.97" y1="463.1" x2="77.97" y2="447.04"/><line class="cls-1" x1="77.97" y1="447.04" x2="147.49" y2="487.19"/><line class="cls-1" x1="161.4" y1="1009" x2="425.59" y2="856.47"/><line class="cls-1" x1="93.8" y1="969.97" x2="161.4" y2="1009"/><line class="cls-1" x1="358.09" y1="413.76" x2="249.54" y2="476.44"/><line class="cls-1" x1="425.59" y1="374.79" x2="410.46" y2="383.53"/><line class="cls-1" x1="425.59" y1="374.79" x2="425.59" y2="856.47"/><line class="cls-1" x1="161.4" y1="527.32" x2="161.4" y2="1009"/><line class="cls-1" x1="251.78" y1="354.73" x2="249.54" y2="353.43"/><line class="cls-1" x1="249.54" y1="412.21" x2="300.45" y2="382.82"/><line class="cls-1" x1="279.59" y1="346.7" x2="314.35" y2="326.63"/><line class="cls-1" x1="416.09" y1="372.34" x2="410.46" y2="375.59"/><line class="cls-1" x1="416.09" y1="372.34" x2="416.09" y2="321.14"/><line class="cls-1" x1="396.12" y1="323.66" x2="390.83" y2="320.6"/><line class="cls-1" x1="410.45" y1="395.66" x2="396.12" y2="403.94"/><line class="cls-1" x1="396.12" y1="403.94" x2="396.12" y2="323.66"/><line class="cls-1" x1="410.45" y1="315.39" x2="396.12" y2="323.66"/><line class="cls-1" x1="410.45" y1="395.66" x2="410.45" y2="315.39"/><line class="cls-1" x1="321.3" y1="330.64" x2="321.3" y2="314.58"/><line class="cls-1" x1="279.59" y1="354.73" x2="321.3" y2="330.64"/><line class="cls-1" x1="279.59" y1="338.67" x2="279.59" y2="354.73"/><line class="cls-1" x1="321.3" y1="314.58" x2="279.59" y2="338.67"/><line class="cls-1" x1="335.21" y1="338.67" x2="349.11" y2="330.64"/><line class="cls-1" x1="335.21" y1="354.73" x2="335.21" y2="338.67"/><line class="cls-1" x1="265.69" y1="394.86" x2="335.21" y2="354.73"/><line class="cls-1" x1="251.78" y1="306.56" x2="251.78" y2="386.84"/><line class="cls-1" x1="349.11" y1="330.64" x2="349.11" y2="250.36"/><line class="cls-1" x1="286.55" y1="302.54" x2="300.45" y2="310.57"/><line class="cls-1" x1="286.55" y1="286.49" x2="286.55" y2="302.54"/><line class="cls-1" x1="314.35" y1="270.43" x2="307.4" y2="274.45"/><line class="cls-1" x1="300.45" y1="310.57" x2="328.25" y2="294.51"/><line class="cls-1" x1="300.45" y1="294.51" x2="300.45" y2="310.57"/><line class="cls-1" x1="328.25" y1="278.46" x2="300.45" y2="294.51"/><line class="cls-1" x1="328.25" y1="294.51" x2="328.25" y2="278.46"/><line class="cls-1" x1="215.49" y1="427.94" x2="215.49" y2="488.16"/><line class="cls-1" x1="201.16" y1="436.22" x2="201.16" y2="496.43"/><line class="cls-1" x1="163.35" y1="397.84" x2="215.49" y2="427.94"/><line class="cls-1" x1="201.16" y1="436.22" x2="215.49" y2="427.94"/><line class="cls-1" x1="149.02" y1="406.11" x2="201.16" y2="436.22"/><line class="cls-1" x1="149.02" y1="406.11" x2="163.35" y2="397.84"/><line class="cls-1" x1="149.02" y1="466.32" x2="149.02" y2="406.11"/><line class="cls-1" x1="201.16" y1="496.43" x2="215.49" y2="488.16"/><line class="cls-1" x1="201.16" y1="496.43" x2="149.02" y2="466.32"/><line class="cls-1" x1="249.54" y1="444.33" x2="249.54" y2="498.6"/><line class="cls-1" x1="249.54" y1="275.74" x2="249.54" y2="412.22"/><line class="cls-1" x1="249.54" y1="243.63" x2="249.54" y2="259.69"/><line class="cls-1" x1="377.29" y1="201.98" x2="377.29" y2="424.84"/><line class="cls-1" x1="377.29" y1="169.88" x2="377.29" y2="185.93"/><line class="cls-1" x1="377.29" y1="424.84" x2="330.28" y2="397.71"/><line class="cls-1" x1="234.01" y1="250.68" x2="234.01" y2="412.05"/><line class="cls-1" x1="391.62" y1="298.01" x2="391.62" y2="321.05"/><line class="cls-1" x1="108.87" y1="322.93" x2="108.87" y2="363.07"/><polyline class="cls-1" points="234.01 250.68 136.68 194.48 108.87 178.43"/><line class="cls-1" x1="335.21" y1="242.33" x2="335.21" y2="210.23"/><line class="cls-1" x1="335.21" y1="210.23" x2="363.02" y2="194.17"/><line class="cls-1" x1="265.69" y1="282.48" x2="265.69" y2="250.36"/><line class="cls-1" x1="265.69" y1="250.36" x2="293.5" y2="234.31"/><line class="cls-1" x1="251.78" y1="242.33" x2="251.78" y2="258.38"/><line class="cls-1" x1="390.83" y1="178.11" x2="376.93" y2="186.14"/><line class="cls-1" x1="376.93" y1="202.2" x2="390.83" y2="194.17"/><line class="cls-1" x1="321.3" y1="266.42" x2="376.93" y2="234.31"/><line class="cls-1" x1="321.3" y1="234.31" x2="321.3" y2="266.42"/><line class="cls-1" x1="307.4" y1="274.45" x2="307.4" y2="242.33"/><line class="cls-1" x1="251.78" y1="306.56" x2="307.4" y2="274.45"/><line class="cls-1" x1="251.78" y1="274.45" x2="251.78" y2="306.56"/><line class="cls-1" x1="237.87" y1="282.48" x2="251.78" y2="274.45"/><line class="cls-1" x1="237.87" y1="266.42" x2="237.87" y2="282.48"/><line class="cls-1" x1="251.78" y1="258.39" x2="237.87" y2="266.42"/><line class="cls-1" x1="108.15" y1="363.48" x2="108.15" y2="379.54"/><line class="cls-1" x1="108.58" y1="347.18" x2="108.58" y2="363.23"/><line class="cls-1" x1="149.02" y1="444" x2="102.23" y2="416.99"/><line class="cls-1" x1="108.87" y1="380.44" x2="151.18" y2="404.86"/><line class="cls-1" x1="108.16" y1="380.03" x2="108.87" y2="380.44"/><line class="cls-1" x1="93.82" y1="371.75" x2="108.16" y2="380.03"/><line class="cls-1" x1="108.15" y1="363.48" x2="93.82" y2="371.75"/><line class="cls-1" x1="94.25" y1="355.45" x2="108.15" y2="363.48"/><line class="cls-1" x1="108.58" y1="347.18" x2="94.25" y2="355.45"/><line class="cls-1" x1="80.56" y1="339.27" x2="108.87" y2="322.92"/><line class="cls-1" x1="94.04" y1="363.6" x2="80.13" y2="355.57"/><line class="cls-1" x1="80.13" y1="371.63" x2="94.04" y2="363.6"/><line class="cls-1" x1="149.02" y1="411.89" x2="79.71" y2="371.87"/><line class="cls-1" x1="238.51" y1="414.65" x2="238.51" y2="494.93"/><line class="cls-1" x1="224.18" y1="422.93" x2="224.18" y2="503.21"/><line class="cls-1" x1="168.99" y1="374.52" x2="238.51" y2="414.65"/><line class="cls-1" x1="224.18" y1="422.93" x2="238.51" y2="414.65"/><line class="cls-1" x1="154.66" y1="382.79" x2="224.18" y2="422.93"/><line class="cls-1" x1="154.66" y1="402.86" x2="154.66" y2="382.79"/><line class="cls-1" x1="224.18" y1="503.21" x2="238.51" y2="494.93"/><line class="cls-1" x1="224.18" y1="503.21" x2="206.8" y2="493.17"/><line class="cls-1" x1="425.59" y1="912.14" x2="440.34" y2="903.62"/><line class="cls-1" x1="411.69" y1="1166.2" x2="356.07" y2="1198.31"/><line class="cls-1" x1="425.59" y1="912.14" x2="425.59" y2="1158.17"/><line class="cls-1" x1="425.59" y1="869.2" x2="425.59" y2="912.14"/><line class="cls-1" x1="425.59" y1="869.2" x2="161.4" y2="1021.73"/><line class="cls-1" x1="161.4" y1="1021.73" x2="93.8" y2="982.7"/><line class="cls-1" x1="349.11" y1="234.31" x2="349.11" y2="202.2"/><line class="cls-1" x1="279.59" y1="274.45" x2="279.59" y2="242.33"/><line class="cls-1" x1="265.69" y1="282.48" x2="279.59" y2="274.45"/><line class="cls-1" x1="293.5" y1="266.42" x2="293.5" y2="234.31"/><line class="cls-1" x1="279.59" y1="274.45" x2="293.5" y2="266.42"/><line class="cls-1" x1="349.11" y1="234.31" x2="363.02" y2="226.28"/><line class="cls-1" x1="363.02" y1="226.28" x2="363.02" y2="194.17"/><line class="cls-1" x1="335.21" y1="242.33" x2="349.11" y2="234.31"/><line class="cls-1" x1="258.73" y1="1093.98" x2="328.25" y2="1053.84"/><line class="cls-1" x1="425.59" y1="1158.17" x2="411.69" y2="1166.2"/><line class="cls-1" x1="411.68" y1="1166.2" x2="425.59" y2="1174.23"/><line class="cls-1" x1="440.34" y1="887.56" x2="440.34" y2="903.62"/><line class="cls-1" x1="454.25" y1="831.37" x2="440.34" y2="823.34"/><line class="cls-1" x1="454.25" y1="831.37" x2="454.25" y2="879.54"/><line class="cls-1" x1="440.34" y1="839.39" x2="454.25" y2="831.37"/><line class="cls-1" x1="440.34" y1="887.56" x2="454.25" y2="879.54"/><line class="cls-1" x1="426.44" y1="831.37" x2="440.34" y2="823.34"/><line class="cls-1" x1="426.44" y1="911.64" x2="426.44" y2="927.7"/><line class="cls-1" x1="154.66" y1="382.79" x2="168.99" y2="374.52"/><line class="cls-1" x1="425.6" y1="928.19" x2="426.44" y2="927.7"/><line class="cls-1" x1="79.71" y1="371.87" x2="80.13" y2="371.63"/><line class="cls-1" x1="80.13" y1="355.57" x2="80.56" y2="355.33"/><line class="cls-1" x1="94.46" y1="347.3" x2="80.56" y2="339.27"/><line class="cls-1" x1="94.68" y1="339.15" x2="108.58" y2="347.18"/><line class="cls-1" x1="108.58" y1="379.29" x2="108.15" y2="379.54"/><line class="cls-1" x1="79.71" y1="371.87" x2="79.71" y2="403.99"/><line class="cls-1" x1="80.13" y1="355.57" x2="80.13" y2="371.63"/><line class="cls-1" x1="80.56" y1="339.27" x2="80.56" y2="355.33"/><line class="cls-1" x1="80.56" y1="355.33" x2="94.46" y2="347.3"/><line class="cls-1" x1="108.58" y1="363.23" x2="108.58" y2="379.29"/><line class="cls-1" x1="108.15" y1="379.54" x2="108.15" y2="380.02"/><line class="cls-1" x1="307.4" y1="242.33" x2="321.3" y2="234.31"/><line class="cls-1" x1="376.93" y1="234.31" x2="376.93" y2="202.2"/><line class="cls-1" x1="390.83" y1="194.17" x2="390.83" y2="178.11"/><line class="cls-1" x1="376.93" y1="186.14" x2="376.93" y2="170.08"/><line class="cls-1" x1="321.3" y1="202.2" x2="321.3" y2="218.25"/><line class="cls-1" x1="321.3" y1="218.25" x2="307.4" y2="226.28"/><line class="cls-1" x1="307.4" y1="226.28" x2="307.4" y2="210.23"/><line class="cls-1" x1="307.4" y1="258.39" x2="321.3" y2="266.42"/><line class="cls-1" x1="307.4" y1="210.23" x2="321.3" y2="218.25"/><line class="cls-1" x1="441.73" y1="808.09" x2="443.13" y2="807.29"/><line class="cls-1" x1="443.13" y1="807.29" x2="443.13" y2="517.2"/><line class="cls-1" x1="440.34" y1="808.89" x2="440.34" y2="823.34"/><line class="cls-1" x1="440.36" y1="808.89" x2="441.73" y2="808.09"/><line class="cls-1" x1="234.01" y1="507.57" x2="225.32" y2="502.55"/><line class="cls-1" x1="391.62" y1="159.69" x2="390.83" y2="160.14"/><line class="cls-1" x1="108.87" y1="178.43" x2="108.87" y2="322.93"/><line class="cls-1" x1="249.54" y1="498.6" x2="234.01" y2="507.57"/><line class="cls-1" x1="391.62" y1="401.34" x2="391.62" y2="416.57"/><line class="cls-1" x1="391.62" y1="416.57" x2="377.29" y2="424.84"/><line class="cls-1" x1="314.35" y1="270.43" x2="328.25" y2="278.46"/><line class="cls-1" x1="286.55" y1="286.49" x2="300.45" y2="294.51"/><line class="cls-1" x1="251.78" y1="402.89" x2="251.78" y2="386.84"/><line class="cls-1" x1="251.78" y1="386.84" x2="265.69" y2="378.81"/><line class="cls-1" x1="265.69" y1="378.81" x2="265.69" y2="394.86"/><line class="cls-1" x1="265.68" y1="394.86" x2="251.78" y2="402.89"/><line class="cls-1" x1="251.78" y1="402.89" x2="251.77" y2="402.89"/><line class="cls-1" x1="249.54" y1="372.07" x2="251.78" y2="370.78"/><line class="cls-1" x1="251.78" y1="386.84" x2="265.69" y2="394.86"/><line class="cls-1" x1="108.87" y1="363.07" x2="108.58" y2="363.23"/><line class="cls-1" x1="108.87" y1="330.95" x2="94.68" y2="339.15"/><line class="cls-1" x1="108.87" y1="420.81" x2="108.87" y2="429.21"/><line class="cls-1" x1="108.87" y1="363.07" x2="108.87" y2="380.44"/><line class="cls-1" x1="234.01" y1="497.54" x2="234.01" y2="507.57"/><line class="cls-1" x1="108.87" y1="178.43" x2="112.74" y2="176.2"/><line class="cls-1" x1="391.62" y1="159.69" x2="391.62" y2="298.01"/><line class="cls-1" x1="251.78" y1="346.7" x2="249.55" y2="347.99"/><line class="cls-1" x1="213.68" y1="497.14" x2="161.4" y2="527.32"/><line class="cls-1" x1="391.62" y1="401.34" x2="396.12" y2="403.94"/><line class="cls-1" x1="112.74" y1="176.19" x2="112.74" y2="178.11"/><line class="cls-1" x1="64.08" y1="1136.92" x2="63.22" y2="1137.41"/><line class="cls-1" x1="236.22" y1="249.4" x2="234.01" y2="250.68"/><line class="cls-1" x1="249.54" y1="412.22" x2="249.54" y2="444.33"/><line class="cls-1" x1="390.83" y1="159.23" x2="391.62" y2="159.69"/><line class="cls-1" x1="414.56" y1="862.83" x2="425.59" y2="869.2"/><line class="cls-1" x1="102.23" y1="416.99" x2="79.71" y2="403.99"/><line class="cls-1" x1="251.77" y1="402.89" x2="249.54" y2="401.6"/><line class="cls-1" x1="314.36" y1="326.63" x2="321.3" y2="330.64"/><line class="cls-1" x1="425.59" y1="817.41" x2="440.36" y2="808.89"/><line class="cls-1" x1="425.6" y1="831.86" x2="426.44" y2="831.37"/><line class="cls-1" x1="425.59" y1="847.92" x2="440.34" y2="839.39"/><line class="cls-1" x1="147.49" y1="503.24" x2="180.23" y2="484.34"/><line class="cls-1" x1="300.45" y1="382.82" x2="293.5" y2="378.81"/><line class="cls-1" x1="397.78" y1="872.52" x2="397.78" y2="872.52"/><line class="cls-1" x1="410.45" y1="315.39" x2="391.62" y2="304.52"/><line class="cls-1" x1="416.09" y1="312.13" x2="410.45" y2="315.39"/><line class="cls-1" x1="416.09" y1="312.13" x2="391.62" y2="298.01"/><line class="cls-1" x1="314.35" y1="326.63" x2="314.35" y2="318.6"/><line class="cls-1" x1="300.45" y1="398.88" x2="300.45" y2="382.82"/><line class="cls-1" x1="161.4" y1="527.32" x2="147.49" y2="519.29"/><line class="cls-1" x1="36.26" y1="455.07" x2="36.26" y2="471.13"/><line class="cls-1" x1="36.26" y1="455.07" x2="102.24" y2="416.99"/><line class="cls-1" x1="147.49" y1="487.19" x2="166.33" y2="476.31"/><line class="cls-1" x1="147.49" y1="503.24" x2="147.49" y2="487.19"/><line class="cls-1" x1="77.97" y1="463.1" x2="147.49" y2="503.24"/><line class="cls-1" x1="36.26" y1="471.13" x2="36.26" y2="511.26"/><line class="cls-1" x1="133.59" y1="591.54" x2="112.74" y2="579.5"/><line class="cls-1" x1="36.26" y1="471.13" x2="50.16" y2="463.1"/><line class="cls-1" x1="147.49" y1="519.29" x2="133.59" y2="527.32"/><line class="cls-1" x1="147.49" y1="583.52" x2="133.59" y2="591.54"/><line class="cls-1" x1="15.4" y1="523.31" x2="15.4" y2="539.36"/><line class="cls-1" x1="1.5" y1="547.39" x2="15.4" y2="539.36"/><line class="cls-1" x1="1.5" y1="547.39" x2="1.5" y2="707.95"/><line class="cls-1" x1="112.74" y1="579.5" x2="112.74" y2="707.95"/><line class="cls-1" x1="147.49" y1="519.29" x2="147.49" y2="583.52"/><line class="cls-1" x1="50.16" y1="463.1" x2="36.26" y2="455.07"/><line class="cls-1" x1="425.59" y1="358.74" x2="416.09" y2="364.22"/><line class="cls-1" x1="425.59" y1="358.74" x2="425.59" y2="374.79"/><line class="cls-1" x1="460.35" y1="346.7" x2="446.45" y2="338.67"/><line class="cls-1" x1="446.45" y1="338.67" x2="446.45" y2="354.73"/><line class="cls-1" x1="446.45" y1="354.73" x2="460.35" y2="346.7"/><line class="cls-1" x1="460.35" y1="346.7" x2="460.35" y2="507.26"/><line class="cls-1" x1="460.35" y1="507.26" x2="443.13" y2="517.2"/><line class="cls-1" x1="265.69" y1="178.11" x2="265.69" y2="186.14"/><line class="cls-1" x1="182.27" y1="65.72" x2="168.35" y2="73.75"/><line class="cls-1" x1="182.26" y1="57.7" x2="182.26" y2="65.72"/><line class="cls-1" x1="196.17" y1="49.66" x2="182.26" y2="57.7"/><line class="cls-1" x1="196.16" y1="41.64" x2="196.16" y2="49.67"/><line class="cls-1" x1="15.4" y1="523.31" x2="36.26" y2="511.26"/><line class="cls-1" x1="416.09" y1="321.14" x2="416.09" y2="312.13"/><line class="cls-1" x1="416.09" y1="369.3" x2="425.59" y2="374.79"/><line class="cls-1" x1="416.09" y1="321.14" x2="446.45" y2="338.67"/><line class="cls-1" x1="1.5" y1="707.95" x2="18.73" y2="717.9"/><line class="cls-1" x1="49.31" y1="1034.66" x2="50.7" y2="1033.85"/><line class="cls-1" x1="92.42" y1="1009.77" x2="93.8" y2="1008.97"/><line class="cls-1" x1="18.72" y1="1016.99" x2="18.72" y2="717.89"/><line class="cls-1" x1="18.72" y1="1016.99" x2="20.11" y2="1017.79"/><line class="cls-1" x1="47.92" y1="1033.85" x2="49.31" y2="1034.66"/><line class="cls-1" x1="77.12" y1="1097.27" x2="77.12" y2="1113.33"/><line class="cls-1" x1="104.93" y1="1081.22" x2="104.93" y2="1097.27"/><line class="cls-1" x1="63.22" y1="1137.41" x2="49.31" y2="1129.38"/><line class="cls-1" x1="91.03" y1="1121.35" x2="64.08" y2="1136.92"/><line class="cls-1" x1="104.93" y1="1033.05" x2="77.12" y2="1049.1"/><line class="cls-1" x1="63.22" y1="1057.13" x2="49.31" y2="1049.1"/><line class="cls-1" x1="7.6" y1="1025.02" x2="7.6" y2="1073.19"/><line class="cls-1" x1="63.22" y1="1105.3" x2="49.31" y2="1097.27"/><line class="cls-1" x1="63.22" y1="1041.07" x2="49.31" y2="1049.1"/><line class="cls-1" x1="21.51" y1="1033.05" x2="7.6" y2="1025.02"/><line class="cls-1" x1="91.03" y1="1025.02" x2="104.93" y2="1033.05"/><line class="cls-1" x1="49.31" y1="1097.27" x2="49.31" y2="1129.38"/><line class="cls-1" x1="91.03" y1="1105.3" x2="91.03" y2="1121.35"/><line class="cls-1" x1="91.03" y1="1010.57" x2="91.03" y2="1025.02"/><line class="cls-1" x1="21.51" y1="1018.6" x2="21.51" y2="1033.05"/><line class="cls-1" x1="49.31" y1="1034.66" x2="49.31" y2="1049.1"/><line class="cls-1" x1="140.54" y1="146" x2="126.64" y2="137.98"/><line class="cls-1" x1="126.64" y1="121.92" x2="140.54" y2="129.95"/><line class="cls-1" x1="140.54" y1="129.95" x2="126.64" y2="137.98"/><line class="cls-1" x1="126.64" y1="137.98" x2="126.64" y2="154.03"/><line class="cls-1" x1="126.64" y1="154.03" x2="112.74" y2="146"/><line class="cls-1" x1="126.64" y1="121.92" x2="126.64" y2="137.98"/><line class="cls-1" x1="112.74" y1="146" x2="126.64" y2="137.98"/><line class="cls-1" x1="126.64" y1="121.92" x2="140.54" y2="113.89"/><line class="cls-1" x1="112.74" y1="146" x2="112.74" y2="176.19"/><line class="cls-1" x1="140.54" y1="162.06" x2="154.45" y2="154.03"/><line class="cls-1" x1="140.54" y1="146" x2="147.49" y2="141.98"/><line class="cls-1" x1="168.35" y1="178.11" x2="182.26" y2="170.08"/><line class="cls-1" x1="168.35" y1="162.06" x2="168.35" y2="178.11"/><line class="cls-1" x1="182.26" y1="170.08" x2="182.26" y2="186.14"/><line class="cls-1" x1="182.26" y1="186.14" x2="168.35" y2="178.11"/><line class="cls-1" x1="168.35" y1="162.06" x2="175.31" y2="158.04"/><line class="cls-1" x1="196.16" y1="194.17" x2="210.07" y2="186.14"/><line class="cls-1" x1="196.16" y1="178.11" x2="196.16" y2="194.17"/><line class="cls-1" x1="210.07" y1="186.14" x2="210.07" y2="202.2"/><line class="cls-1" x1="210.07" y1="202.2" x2="196.16" y2="194.17"/><line class="cls-1" x1="196.16" y1="178.11" x2="203.12" y2="174.1"/><line class="cls-1" x1="196.16" y1="178.11" x2="182.26" y2="170.08"/><line class="cls-1" x1="237.87" y1="186.14" x2="237.87" y2="202.2"/><line class="cls-1" x1="223.97" y1="210.23" x2="237.87" y2="202.2"/><line class="cls-1" x1="237.87" y1="202.2" x2="251.78" y2="210.23"/><line class="cls-1" x1="251.78" y1="194.17" x2="251.78" y2="210.23"/><line class="cls-1" x1="251.78" y1="210.23" x2="237.87" y2="218.25"/><line class="cls-1" x1="223.97" y1="194.17" x2="223.97" y2="210.23"/><line class="cls-1" x1="237.87" y1="218.25" x2="223.97" y2="210.23"/><line class="cls-1" x1="223.97" y1="194.17" x2="237.87" y2="186.14"/><line class="cls-1" x1="237.87" y1="186.14" x2="251.78" y2="194.17"/><line class="cls-1" x1="223.97" y1="194.17" x2="210.07" y2="186.14"/><line class="cls-1" x1="279.59" y1="178.11" x2="279.59" y2="194.17"/><line class="cls-1" x1="265.69" y1="186.14" x2="265.69" y2="202.2"/><line class="cls-1" x1="265.69" y1="186.14" x2="258.73" y2="182.13"/><line class="cls-1" x1="265.69" y1="186.14" x2="251.78" y2="194.17"/><line class="cls-1" x1="293.5" y1="170.08" x2="307.4" y2="178.11"/><line class="cls-1" x1="307.4" y1="162.06" x2="307.4" y2="178.11"/><line class="cls-1" x1="293.5" y1="170.08" x2="293.5" y2="186.14"/><line class="cls-1" x1="307.4" y1="178.11" x2="293.5" y2="186.14"/><line class="cls-1" x1="293.5" y1="170.08" x2="286.55" y2="166.07"/><line class="cls-1" x1="293.5" y1="170.08" x2="279.59" y2="178.11"/><line class="cls-1" x1="321.3" y1="154.03" x2="335.21" y2="162.06"/><line class="cls-1" x1="335.21" y1="146" x2="335.21" y2="162.06"/><line class="cls-1" x1="321.3" y1="154.03" x2="321.3" y2="170.08"/><line class="cls-1" x1="335.21" y1="162.06" x2="321.3" y2="170.08"/><line class="cls-1" x1="321.3" y1="154.03" x2="314.35" y2="150.01"/><line class="cls-1" x1="321.3" y1="154.03" x2="307.4" y2="162.06"/><line class="cls-1" x1="349.11" y1="137.98" x2="363.02" y2="146"/><line class="cls-1" x1="349.11" y1="137.98" x2="342.16" y2="133.96"/><line class="cls-1" x1="376.93" y1="105.86" x2="376.93" y2="121.92"/><line class="cls-1" x1="376.93" y1="121.92" x2="390.83" y2="129.95"/><line class="cls-1" x1="376.93" y1="121.92" x2="376.93" y2="137.98"/><line class="cls-1" x1="390.83" y1="129.95" x2="376.93" y2="137.98"/><line class="cls-1" x1="363.02" y1="113.89" x2="376.93" y2="105.86"/><line class="cls-1" x1="376.93" y1="121.92" x2="363.02" y2="113.89"/><line class="cls-1" x1="376.93" y1="121.92" x2="363.02" y2="129.95"/><line class="cls-1" x1="390.83" y1="129.95" x2="390.83" y2="159.23"/><line class="cls-1" x1="363.02" y1="97.83" x2="376.93" y2="105.86"/><line class="cls-1" x1="293.5" y1="25.58" x2="279.59" y2="17.55"/><line class="cls-1" x1="293.5" y1="9.53" x2="293.5" y2="17.55"/><line class="cls-1" x1="293.5" y1="9.53" x2="279.59" y2="1.5"/><line class="cls-1" x1="265.69" y1="9.53" x2="251.78" y2="1.5"/><line class="cls-1" x1="279.59" y1="1.5" x2="265.69" y2="9.53"/><line class="cls-1" x1="251.78" y1="1.5" x2="210.07" y2="25.58"/><line class="cls-1" x1="223.97" y1="49.67" x2="237.87" y2="41.64"/><line class="cls-1" x1="223.97" y1="65.72" x2="237.87" y2="57.7"/><line class="cls-1" x1="223.97" y1="33.61" x2="210.07" y2="41.64"/><line class="cls-1" x1="307.4" y1="25.58" x2="307.4" y2="33.61"/><line class="cls-1" x1="307.4" y1="25.58" x2="293.5" y2="17.56"/><polyline class="cls-1" points="307.4 41.64 300.45 37.63 293.5 33.61"/><polyline class="cls-1" points="210.07 49.67 203.12 53.68 196.16 57.7"/><line class="cls-1" x1="321.3" y1="41.64" x2="321.3" y2="49.67"/><line class="cls-1" x1="321.3" y1="41.64" x2="307.4" y2="33.61"/><polyline class="cls-1" points="321.3 57.7 314.35 53.68 307.4 49.67"/><line class="cls-1" x1="223.97" y1="113.89" x2="237.87" y2="105.86"/><polyline class="cls-1" points="223.97 97.83 230.92 93.82 237.87 89.8"/><polyline class="cls-1" points="196.16 65.72 189.21 69.73 182.26 73.75"/><line class="cls-1" x1="335.21" y1="57.7" x2="335.21" y2="65.72"/><line class="cls-1" x1="335.21" y1="57.7" x2="327.09" y2="53.01"/><polyline class="cls-1" points="335.21 73.75 328.25 69.73 321.3 65.72"/><line class="cls-1" x1="237.87" y1="129.95" x2="251.78" y2="137.98"/><line class="cls-1" x1="251.78" y1="121.92" x2="251.78" y2="137.98"/><polyline class="cls-1" points="223.97 121.92 230.92 117.9 237.87 113.89"/><line class="cls-1" x1="168.35" y1="73.75" x2="168.35" y2="81.78"/><polyline class="cls-1" points="182.26 81.78 175.31 85.8 168.35 89.8"/><line class="cls-1" x1="349.11" y1="73.75" x2="349.11" y2="81.78"/><polyline class="cls-1" points="349.11 89.8 342.16 85.8 335.22 81.78"/><line class="cls-1" x1="237.87" y1="137.98" x2="237.87" y2="154.03"/><line class="cls-1" x1="237.87" y1="154.03" x2="251.78" y2="162.06"/><line class="cls-1" x1="223.97" y1="162.06" x2="237.87" y2="154.03"/><line class="cls-1" x1="223.97" y1="146" x2="223.97" y2="162.06"/><line class="cls-1" x1="251.78" y1="146" x2="251.78" y2="162.06"/><polyline class="cls-1" points="237.87 137.98 244.83 141.98 251.78 146"/><polyline class="cls-1" points="223.97 146 230.92 141.98 237.87 137.98"/><line class="cls-1" x1="154.45" y1="89.8" x2="154.45" y2="97.83"/><polyline class="cls-1" points="168.35 97.83 161.4 101.85 154.45 105.86"/><line class="cls-1" x1="363.02" y1="89.8" x2="363.02" y2="97.83"/><line class="cls-1" x1="363.02" y1="89.8" x2="354.91" y2="85.12"/><line class="cls-1" x1="140.54" y1="105.86" x2="140.54" y2="113.89"/><line class="cls-1" x1="140.54" y1="121.92" x2="147.49" y2="125.93"/><polyline class="cls-1" points="140.54 105.86 147.5 109.88 154.45 113.89"/><line class="cls-1" x1="217.02" y1="182.13" x2="223.97" y2="186.14"/><line class="cls-1" x1="251.78" y1="186.14" x2="258.73" y2="182.13"/><line class="cls-1" x1="356.07" y1="125.93" x2="363.02" y2="121.92"/><line class="cls-1" x1="140.54" y1="137.98" x2="147.49" y2="141.98"/><line class="cls-1" x1="161.4" y1="150.01" x2="154.45" y2="154.03"/><line class="cls-1" x1="189.21" y1="166.07" x2="182.26" y2="170.08"/><line class="cls-1" x1="217.02" y1="182.13" x2="210.07" y2="186.14"/><line class="cls-1" x1="272.64" y1="174.1" x2="279.59" y2="178.11"/><line class="cls-1" x1="300.45" y1="158.04" x2="307.4" y2="162.06"/><line class="cls-1" x1="356.07" y1="125.93" x2="363.02" y2="129.95"/><line class="cls-1" x1="182.26" y1="162.06" x2="182.26" y2="170.08"/><line class="cls-1" x1="293.5" y1="162.06" x2="293.5" y2="170.08"/><line class="cls-1" x1="321.3" y1="146" x2="321.3" y2="154.03"/><line class="cls-1" x1="210.07" y1="33.61" x2="210.07" y2="41.64"/><line class="cls-1" x1="307.4" y1="33.61" x2="307.4" y2="41.64"/><line class="cls-1" x1="196.16" y1="49.67" x2="196.16" y2="57.7"/><line class="cls-1" x1="182.26" y1="65.72" x2="182.26" y2="73.75"/><line class="cls-1" x1="168.35" y1="81.78" x2="168.35" y2="89.8"/><line class="cls-1" x1="168.36" y1="81.78" x2="154.45" y2="89.8"/><line class="cls-1" x1="154.45" y1="97.83" x2="154.45" y2="105.86"/><line class="cls-1" x1="363.02" y1="97.83" x2="363.02" y2="105.86"/><line class="cls-1" x1="154.46" y1="97.83" x2="140.54" y2="105.86"/><line class="cls-1" x1="140.54" y1="113.89" x2="140.54" y2="121.92"/><line class="cls-1" x1="321.3" y1="49.67" x2="321.3" y2="57.7"/><line class="cls-1" x1="349.11" y1="81.78" x2="349.11" y2="89.8"/><line class="cls-1" x1="210.07" y1="178.11" x2="210.07" y2="186.14"/><polyline class="cls-1" points="349.13 97.83 356.07 93.82 363.02 89.8"/></g></g></svg>