<svg xmlns="http://www.w3.org/2000/svg" viewBox="0 0 459.4 1218.16"><defs><style>.cls-1{fill:none;stroke:#000;stroke-linecap:round;stroke-linejoin:round;stroke-width:3px;}</style></defs><title>Asset 2nobi</title><g id="Layer_2" data-name="Layer 2"><g id="Make2D::Visible::Curves"><line class="cls-1" x1="257.51" y1="1216.66" x2="257.51" y2="1180.53"/><line class="cls-1" x1="424.37" y1="907.71" x2="424.37" y2="1216.66"/><line class="cls-1" x1="160.18" y1="1124.33" x2="160.18" y2="1216.66"/><line class="cls-1" x1="62.85" y1="1216.66" x2="62.85" y2="1132.48"/><line class="cls-1" x1="361.79" y1="302.13" x2="354.84" y2="306.14"/><line class="cls-1" x1="306.17" y1="350.3" x2="306.17" y2="366.35"/><line class="cls-1" x1="250.56" y1="334.24" x2="236.65" y2="342.27"/><line class="cls-1" x1="208.84" y1="261.99" x2="201.18" y2="266.41"/><line class="cls-1" x1="208.84" y1="261.99" x2="208.84" y2="278.05"/><line class="cls-1" x1="361.79" y1="237.9" x2="361.79" y2="253.96"/><line class="cls-1" x1="361.79" y1="253.96" x2="347.89" y2="261.99"/><line class="cls-1" x1="306.17" y1="334.24" x2="299.22" y2="338.25"/><line class="cls-1" x1="208.84" y1="406.48" x2="194.94" y2="398.46"/><line class="cls-1" x1="333.99" y1="382.4" x2="327.04" y2="386.42"/><line class="cls-1" x1="368.74" y1="338.25" x2="375.7" y2="342.27"/><line class="cls-1" x1="375.7" y1="342.27" x2="375.7" y2="358.32"/><line class="cls-1" x1="375.7" y1="358.32" x2="361.79" y2="366.35"/><line class="cls-1" x1="375.7" y1="342.27" x2="368.75" y2="346.27"/><line class="cls-1" x1="375.7" y1="326.21" x2="361.79" y2="334.24"/><line class="cls-1" x1="375.7" y1="245.93" x2="375.7" y2="253.96"/><line class="cls-1" x1="375.7" y1="261.99" x2="368.03" y2="266.42"/><line class="cls-1" x1="375.7" y1="245.93" x2="361.79" y2="253.96"/><line class="cls-1" x1="354.84" y1="346.28" x2="340.94" y2="354.31"/><line class="cls-1" x1="354.84" y1="330.22" x2="340.94" y2="338.25"/><line class="cls-1" x1="354.84" y1="330.22" x2="354.84" y2="346.28"/><line class="cls-1" x1="333.99" y1="334.24" x2="347.89" y2="326.21"/><line class="cls-1" x1="340.94" y1="338.25" x2="340.94" y2="354.31"/><line class="cls-1" x1="340.94" y1="354.31" x2="333.99" y2="350.3"/><line class="cls-1" x1="340.94" y1="338.25" x2="333.99" y2="334.24"/><line class="cls-1" x1="327.03" y1="330.22" x2="313.13" y2="338.25"/><line class="cls-1" x1="327.03" y1="314.17" x2="313.13" y2="322.2"/><line class="cls-1" x1="313.14" y1="314.17" x2="320.08" y2="310.15"/><line class="cls-1" x1="313.13" y1="322.2" x2="313.13" y2="338.25"/><line class="cls-1" x1="285.32" y1="370.36" x2="278.37" y2="374.37"/><line class="cls-1" x1="285.32" y1="354.31" x2="271.41" y2="362.33"/><line class="cls-1" x1="285.32" y1="354.31" x2="285.32" y2="370.36"/><line class="cls-1" x1="271.41" y1="362.33" x2="271.41" y2="378.39"/><line class="cls-1" x1="264.46" y1="358.32" x2="264.46" y2="374.38"/><line class="cls-1" x1="299.22" y1="378.39" x2="285.32" y2="386.42"/><line class="cls-1" x1="299.22" y1="362.33" x2="285.32" y2="370.36"/><line class="cls-1" x1="299.22" y1="362.33" x2="299.22" y2="378.39"/><line class="cls-1" x1="292.27" y1="358.32" x2="299.22" y2="362.33"/><line class="cls-1" x1="285.32" y1="370.36" x2="285.32" y2="386.42"/><line class="cls-1" x1="285.32" y1="338.25" x2="271.41" y2="346.28"/><line class="cls-1" x1="285.32" y1="322.2" x2="271.41" y2="330.22"/><line class="cls-1" x1="285.32" y1="322.2" x2="285.32" y2="338.25"/><line class="cls-1" x1="264.46" y1="326.21" x2="278.36" y2="318.18"/><line class="cls-1" x1="271.41" y1="330.22" x2="271.41" y2="346.28"/><line class="cls-1" x1="264.46" y1="326.21" x2="264.46" y2="342.27"/><line class="cls-1" x1="320.08" y1="294.1" x2="320.08" y2="310.15"/><line class="cls-1" x1="285.32" y1="402.48" x2="271.41" y2="410.5"/><line class="cls-1" x1="285.32" y1="386.42" x2="271.41" y2="394.45"/><line class="cls-1" x1="285.32" y1="386.42" x2="285.32" y2="402.48"/><line class="cls-1" x1="264.46" y1="390.43" x2="278.36" y2="382.4"/><line class="cls-1" x1="271.41" y1="394.45" x2="271.41" y2="410.5"/><line class="cls-1" x1="264.46" y1="390.43" x2="264.46" y2="406.48"/><line class="cls-1" x1="299.22" y1="346.28" x2="285.32" y2="354.31"/><line class="cls-1" x1="299.22" y1="330.22" x2="285.32" y2="338.25"/><line class="cls-1" x1="299.22" y1="330.22" x2="299.22" y2="338.25"/><line class="cls-1" x1="285.32" y1="330.22" x2="292.27" y2="326.21"/><line class="cls-1" x1="285.32" y1="338.25" x2="285.32" y2="354.31"/><line class="cls-1" x1="333.99" y1="318.18" x2="327.04" y2="322.2"/><line class="cls-1" x1="347.89" y1="358.32" x2="340.94" y2="362.33"/><line class="cls-1" x1="236.65" y1="422.54" x2="222.75" y2="414.51"/><line class="cls-1" x1="278.36" y1="350.3" x2="264.46" y2="358.32"/><line class="cls-1" x1="208.84" y1="374.38" x2="194.94" y2="366.35"/><line class="cls-1" x1="208.84" y1="342.27" x2="194.94" y2="334.24"/><line class="cls-1" x1="292.27" y1="358.32" x2="285.31" y2="362.34"/><line class="cls-1" x1="292.27" y1="390.43" x2="285.32" y2="394.45"/><line class="cls-1" x1="361.79" y1="221.85" x2="361.79" y2="189.74"/><line class="cls-1" x1="347.89" y1="229.87" x2="361.79" y2="221.85"/><line class="cls-1" x1="292.27" y1="261.99" x2="292.27" y2="229.87"/><line class="cls-1" x1="278.36" y1="270.02" x2="292.27" y2="261.99"/><line class="cls-1" x1="208.84" y1="374.38" x2="208.84" y2="390.43"/><line class="cls-1" x1="201.89" y1="378.39" x2="201.89" y2="394.45"/><line class="cls-1" x1="201.89" y1="394.45" x2="187.98" y2="386.42"/><line class="cls-1" x1="187.98" y1="370.36" x2="187.98" y2="386.42"/><line class="cls-1" x1="201.89" y1="378.39" x2="187.98" y2="370.36"/><line class="cls-1" x1="243.61" y1="434.58" x2="229.7" y2="426.56"/><line class="cls-1" x1="375.7" y1="294.1" x2="361.79" y2="302.13"/><line class="cls-1" x1="347.89" y1="261.98" x2="347.89" y2="245.93"/><line class="cls-1" x1="285.32" y1="298.11" x2="299.22" y2="306.14"/><line class="cls-1" x1="313.13" y1="266" x2="327.03" y2="274.03"/><line class="cls-1" x1="285.32" y1="282.05" x2="285.32" y2="298.11"/><line class="cls-1" x1="306.17" y1="302.13" x2="327.03" y2="290.08"/><line class="cls-1" x1="299.22" y1="290.08" x2="299.22" y2="306.14"/><line class="cls-1" x1="327.03" y1="274.03" x2="299.22" y2="290.08"/><line class="cls-1" x1="327.03" y1="290.08" x2="327.03" y2="274.03"/><line class="cls-1" x1="236.65" y1="342.27" x2="222.75" y2="350.3"/><line class="cls-1" x1="236.65" y1="326.21" x2="236.65" y2="342.27"/><line class="cls-1" x1="222.75" y1="334.24" x2="222.75" y2="350.28"/><line class="cls-1" x1="222.75" y1="350.3" x2="208.84" y2="342.27"/><line class="cls-1" x1="208.84" y1="326.21" x2="208.84" y2="342.27"/><line class="cls-1" x1="222.75" y1="334.24" x2="208.84" y2="326.21"/><line class="cls-1" x1="208.84" y1="310.15" x2="208.84" y2="326.21"/><line class="cls-1" x1="201.17" y1="305.73" x2="208.84" y2="310.15"/><line class="cls-1" x1="201.89" y1="314.17" x2="201.89" y2="330.22"/><line class="cls-1" x1="201.89" y1="330.22" x2="187.98" y2="322.2"/><line class="cls-1" x1="424.37" y1="907.71" x2="439.12" y2="899.19"/><line class="cls-1" x1="424.37" y1="864.77" x2="424.37" y2="907.71"/><line class="cls-1" x1="160.18" y1="1017.3" x2="160.18" y2="1124.33"/><line class="cls-1" x1="424.37" y1="864.77" x2="160.18" y2="1017.3"/><line class="cls-1" x1="160.18" y1="1017.3" x2="112.4" y2="989.72"/><line class="cls-1" x1="292.27" y1="310.15" x2="278.36" y2="318.18"/><line class="cls-1" x1="292.27" y1="310.15" x2="292.27" y2="326.21"/><line class="cls-1" x1="264.46" y1="310.15" x2="278.36" y2="302.13"/><line class="cls-1" x1="327.03" y1="362.33" x2="313.13" y2="370.36"/><line class="cls-1" x1="327.03" y1="346.28" x2="313.13" y2="354.31"/><line class="cls-1" x1="327.03" y1="346.28" x2="327.03" y2="362.33"/><line class="cls-1" x1="320.08" y1="342.27" x2="327.03" y2="346.28"/><line class="cls-1" x1="306.17" y1="350.3" x2="320.08" y2="342.27"/><line class="cls-1" x1="313.13" y1="354.31" x2="313.13" y2="370.36"/><line class="cls-1" x1="313.13" y1="370.36" x2="306.17" y2="366.35"/><line class="cls-1" x1="313.13" y1="354.31" x2="306.17" y2="350.3"/><line class="cls-1" x1="313.13" y1="386.42" x2="306.18" y2="390.43"/><line class="cls-1" x1="313.13" y1="370.36" x2="299.22" y2="378.39"/><line class="cls-1" x1="313.13" y1="370.36" x2="313.13" y2="386.42"/><line class="cls-1" x1="299.22" y1="370.36" x2="306.17" y2="366.35"/><line class="cls-1" x1="299.22" y1="378.39" x2="299.22" y2="394.45"/><line class="cls-1" x1="354.84" y1="314.17" x2="340.94" y2="322.2"/><line class="cls-1" x1="354.84" y1="298.11" x2="340.94" y2="306.14"/><line class="cls-1" x1="340.94" y1="306.14" x2="340.94" y2="322.2"/><line class="cls-1" x1="327.03" y1="378.39" x2="313.13" y2="386.42"/><line class="cls-1" x1="327.03" y1="378.39" x2="327.03" y2="394.45"/><line class="cls-1" x1="313.13" y1="386.42" x2="313.13" y2="402.48"/><line class="cls-1" x1="340.94" y1="370.36" x2="333.99" y2="374.37"/><line class="cls-1" x1="340.94" y1="354.31" x2="327.03" y2="362.33"/><line class="cls-1" x1="340.94" y1="354.31" x2="340.94" y2="362.32"/><line class="cls-1" x1="327.03" y1="362.33" x2="327.03" y2="378.39"/><line class="cls-1" x1="327.03" y1="378.39" x2="320.08" y2="374.38"/><line class="cls-1" x1="340.94" y1="306.14" x2="327.03" y2="314.17"/><line class="cls-1" x1="340.94" y1="290.08" x2="327.03" y2="298.11"/><line class="cls-1" x1="340.94" y1="290.08" x2="340.94" y2="306.14"/><line class="cls-1" x1="333.99" y1="286.07" x2="340.94" y2="290.08"/><line class="cls-1" x1="327.03" y1="290.08" x2="333.99" y2="286.07"/><line class="cls-1" x1="327.03" y1="298.11" x2="327.03" y2="314.17"/><line class="cls-1" x1="327.03" y1="314.17" x2="320.08" y2="310.15"/><line class="cls-1" x1="368.74" y1="322.2" x2="354.84" y2="330.22"/><line class="cls-1" x1="368.74" y1="306.14" x2="354.84" y2="314.17"/><line class="cls-1" x1="368.74" y1="306.14" x2="368.74" y2="322.2"/><line class="cls-1" x1="354.84" y1="314.17" x2="354.84" y2="330.22"/><line class="cls-1" x1="354.84" y1="378.39" x2="340.94" y2="386.42"/><line class="cls-1" x1="354.84" y1="362.33" x2="340.94" y2="370.36"/><line class="cls-1" x1="354.84" y1="362.33" x2="354.84" y2="378.39"/><line class="cls-1" x1="340.94" y1="370.36" x2="340.94" y2="386.42"/><line class="cls-1" x1="264.46" y1="358.32" x2="250.56" y2="366.35"/><line class="cls-1" x1="264.46" y1="342.27" x2="250.56" y2="350.3"/><line class="cls-1" x1="264.46" y1="342.27" x2="264.46" y2="358.32"/><line class="cls-1" x1="250.56" y1="334.24" x2="264.46" y2="342.27"/><line class="cls-1" x1="250.56" y1="350.3" x2="250.56" y2="366.35"/><line class="cls-1" x1="250.56" y1="366.35" x2="236.65" y2="358.32"/><line class="cls-1" x1="236.65" y1="342.27" x2="236.65" y2="358.32"/><line class="cls-1" x1="250.56" y1="350.3" x2="236.65" y2="342.27"/><line class="cls-1" x1="368.74" y1="290.08" x2="354.84" y2="298.11"/><line class="cls-1" x1="368.74" y1="274.03" x2="354.84" y2="282.05"/><line class="cls-1" x1="368.74" y1="274.03" x2="368.74" y2="290.08"/><line class="cls-1" x1="361.79" y1="270.02" x2="368.03" y2="273.62"/><line class="cls-1" x1="347.89" y1="278.05" x2="361.79" y2="270.02"/><line class="cls-1" x1="354.84" y1="282.05" x2="354.84" y2="298.11"/><line class="cls-1" x1="347.89" y1="278.05" x2="347.89" y2="294.1"/><line class="cls-1" x1="320.08" y1="374.38" x2="313.13" y2="378.39"/><line class="cls-1" x1="333.99" y1="334.24" x2="333.99" y2="350.3"/><line class="cls-1" x1="333.99" y1="334.24" x2="320.08" y2="342.27"/><line class="cls-1" x1="264.46" y1="310.15" x2="278.36" y2="318.18"/><line class="cls-1" x1="250.56" y1="318.18" x2="264.46" y2="310.15"/><line class="cls-1" x1="250.56" y1="318.18" x2="250.56" y2="326.21"/><line class="cls-1" x1="264.46" y1="326.21" x2="250.56" y2="318.18"/><line class="cls-1" x1="347.89" y1="261.99" x2="361.79" y2="270.02"/><line class="cls-1" x1="333.99" y1="270.02" x2="347.89" y2="261.99"/><line class="cls-1" x1="278.36" y1="270.02" x2="278.36" y2="237.9"/><line class="cls-1" x1="264.46" y1="278.05" x2="278.36" y2="270.02"/><line class="cls-1" x1="236.65" y1="245.93" x2="215.8" y2="233.89"/><line class="cls-1" x1="222.75" y1="253.96" x2="215.08" y2="249.53"/><line class="cls-1" x1="222.75" y1="270.02" x2="201.89" y2="257.98"/><line class="cls-1" x1="333.99" y1="237.9" x2="333.99" y2="205.79"/><line class="cls-1" x1="333.99" y1="205.79" x2="361.79" y2="189.74"/><line class="cls-1" x1="264.46" y1="278.05" x2="264.46" y2="245.93"/><line class="cls-1" x1="264.46" y1="245.93" x2="292.27" y2="229.87"/><line class="cls-1" x1="236.65" y1="229.87" x2="250.56" y2="237.9"/><line class="cls-1" x1="292.27" y1="197.77" x2="306.17" y2="205.79"/><line class="cls-1" x1="361.79" y1="157.62" x2="375.7" y2="165.65"/><line class="cls-1" x1="236.65" y1="294.1" x2="250.56" y2="302.13"/><line class="cls-1" x1="222.75" y1="270.02" x2="236.65" y2="278.05"/><line class="cls-1" x1="236.65" y1="245.93" x2="250.56" y2="253.96"/><line class="cls-1" x1="222.75" y1="253.96" x2="236.65" y2="261.99"/><line class="cls-1" x1="250.56" y1="237.9" x2="250.56" y2="253.95"/><line class="cls-1" x1="306.17" y1="205.79" x2="250.56" y2="237.9"/><line class="cls-1" x1="306.17" y1="221.85" x2="306.17" y2="205.79"/><line class="cls-1" x1="320.08" y1="213.82" x2="306.17" y2="221.85"/><line class="cls-1" x1="375.7" y1="165.65" x2="320.08" y2="197.77"/><line class="cls-1" x1="389.6" y1="189.74" x2="389.6" y2="173.68"/><line class="cls-1" x1="375.7" y1="229.87" x2="375.7" y2="197.77"/><line class="cls-1" x1="320.08" y1="261.99" x2="375.7" y2="229.87"/><line class="cls-1" x1="320.08" y1="229.87" x2="320.08" y2="261.99"/><line class="cls-1" x1="306.17" y1="237.9" x2="320.08" y2="229.87"/><line class="cls-1" x1="306.17" y1="270.02" x2="306.17" y2="237.9"/><line class="cls-1" x1="250.56" y1="302.13" x2="306.17" y2="270.02"/><line class="cls-1" x1="250.56" y1="270.02" x2="250.56" y2="302.13"/><line class="cls-1" x1="236.65" y1="278.05" x2="250.56" y2="270.02"/><line class="cls-1" x1="236.65" y1="261.99" x2="236.65" y2="278.05"/><line class="cls-1" x1="250.56" y1="253.96" x2="236.65" y2="261.99"/><line class="cls-1" x1="292.27" y1="197.77" x2="236.65" y2="229.87"/><line class="cls-1" x1="361.79" y1="157.62" x2="306.17" y2="189.74"/><line class="cls-1" x1="236.65" y1="278.05" x2="236.65" y2="294.1"/><line class="cls-1" x1="333.99" y1="270.02" x2="347.89" y2="278.05"/><line class="cls-1" x1="327.03" y1="274.03" x2="333.99" y2="270.02"/><line class="cls-1" x1="347.89" y1="294.1" x2="340.94" y2="298.11"/><line class="cls-1" x1="347.89" y1="278.05" x2="333.99" y2="286.07"/><line class="cls-1" x1="313.13" y1="322.2" x2="299.22" y2="330.22"/><line class="cls-1" x1="313.13" y1="306.14" x2="299.22" y2="314.17"/><line class="cls-1" x1="313.13" y1="306.14" x2="313.13" y2="322.2"/><line class="cls-1" x1="292.27" y1="310.15" x2="306.17" y2="302.13"/><line class="cls-1" x1="299.22" y1="314.17" x2="299.22" y2="330.22"/><line class="cls-1" x1="250.56" y1="318.18" x2="236.65" y2="326.21"/><line class="cls-1" x1="250.56" y1="302.13" x2="236.65" y2="310.15"/><line class="cls-1" x1="250.56" y1="302.13" x2="250.56" y2="318.18"/><line class="cls-1" x1="222.75" y1="302.13" x2="236.65" y2="294.1"/><line class="cls-1" x1="236.65" y1="310.15" x2="236.65" y2="326.21"/><line class="cls-1" x1="236.65" y1="326.21" x2="222.75" y2="318.18"/><line class="cls-1" x1="222.75" y1="302.13" x2="222.75" y2="310.15"/><line class="cls-1" x1="236.65" y1="310.15" x2="222.75" y2="302.13"/><line class="cls-1" x1="222.75" y1="302.13" x2="208.84" y2="310.15"/><line class="cls-1" x1="222.75" y1="286.07" x2="208.84" y2="294.1"/><line class="cls-1" x1="222.75" y1="286.07" x2="222.75" y2="302.13"/><line class="cls-1" x1="208.84" y1="278.05" x2="222.75" y2="286.07"/><line class="cls-1" x1="208.84" y1="294.1" x2="208.84" y2="310.15"/><line class="cls-1" x1="375.7" y1="350.29" x2="381.93" y2="346.7"/><line class="cls-1" x1="423.48" y1="370.78" x2="423.56" y2="370.83"/><line class="cls-1" x1="409.66" y1="362.8" x2="423.48" y2="370.78"/><line class="cls-1" x1="354.84" y1="378.39" x2="381.93" y2="362.75"/><line class="cls-1" x1="327.03" y1="394.45" x2="340.94" y2="386.42"/><line class="cls-1" x1="77.47" y1="458.25" x2="77.47" y2="442.2"/><line class="cls-1" x1="381.93" y1="362.75" x2="381.93" y2="346.89"/><line class="cls-1" x1="77.47" y1="442.2" x2="146.99" y2="482.33"/><line class="cls-1" x1="160.98" y1="1004.09" x2="423.56" y2="852.5"/><line class="cls-1" x1="112.4" y1="976.05" x2="160.98" y2="1004.09"/><line class="cls-1" x1="423.56" y1="370.83" x2="160.98" y2="522.43"/><line class="cls-1" x1="423.56" y1="370.83" x2="423.56" y2="852.5"/><line class="cls-1" x1="160.98" y1="522.43" x2="160.98" y2="1004.09"/><line class="cls-1" x1="35.84" y1="450.18" x2="35.84" y2="506.37"/><line class="cls-1" x1="160.98" y1="522.43" x2="147.07" y2="514.4"/><line class="cls-1" x1="374.81" y1="326.72" x2="423.48" y2="354.82"/><line class="cls-1" x1="423.48" y1="354.82" x2="409.66" y2="362.8"/><line class="cls-1" x1="416.52" y1="350.81" x2="444.08" y2="334.89"/><line class="cls-1" x1="112.4" y1="574.56" x2="112.4" y2="1008.06"/><line class="cls-1" x1="112.4" y1="526.4" x2="112.4" y2="574.56"/><line class="cls-1" x1="56.78" y1="494.28" x2="112.4" y2="526.4"/><line class="cls-1" x1="35.93" y1="506.32" x2="56.78" y2="494.28"/><line class="cls-1" x1="15.32" y1="518.22" x2="35.85" y2="506.37"/><line class="cls-1" x1="57.12" y1="574.36" x2="57.12" y2="1039.98"/><line class="cls-1" x1="15.32" y1="518.22" x2="70.94" y2="550.33"/><line class="cls-1" x1="70.94" y1="566.39" x2="57.12" y2="574.36"/><line class="cls-1" x1="70.94" y1="550.33" x2="70.94" y2="566.39"/><line class="cls-1" x1="57.12" y1="574.36" x2="1.5" y2="542.25"/><line class="cls-1" x1="15.32" y1="534.27" x2="70.94" y2="566.39"/><line class="cls-1" x1="112.4" y1="1008.06" x2="57.12" y2="1039.98"/><line class="cls-1" x1="112.4" y1="526.4" x2="70.94" y2="550.33"/><line class="cls-1" x1="57.12" y1="1039.98" x2="1.5" y2="1007.87"/><line class="cls-1" x1="133.26" y1="522.38" x2="133.26" y2="586.6"/><line class="cls-1" x1="133.26" y1="522.38" x2="35.93" y2="466.18"/><line class="cls-1" x1="368.74" y1="354.31" x2="354.84" y2="362.33"/><line class="cls-1" x1="368.74" y1="338.25" x2="354.84" y2="346.28"/><line class="cls-1" x1="368.74" y1="338.25" x2="368.74" y2="354.31"/><line class="cls-1" x1="361.79" y1="334.24" x2="368.74" y2="338.25"/><line class="cls-1" x1="354.85" y1="338.24" x2="361.79" y2="334.24"/><line class="cls-1" x1="354.84" y1="346.28" x2="354.84" y2="362.33"/><line class="cls-1" x1="250.56" y1="398.46" x2="264.46" y2="406.48"/><line class="cls-1" x1="250.56" y1="430.57" x2="236.65" y2="422.54"/><line class="cls-1" x1="236.65" y1="406.48" x2="236.65" y2="422.54"/><line class="cls-1" x1="250.56" y1="414.51" x2="236.65" y2="406.48"/><line class="cls-1" x1="194.94" y1="390.42" x2="194.94" y2="398.46"/><line class="cls-1" x1="187.98" y1="386.42" x2="187.98" y2="402.48"/><line class="cls-1" x1="236.65" y1="358.32" x2="222.75" y2="366.35"/><line class="cls-1" x1="236.65" y1="358.32" x2="236.65" y2="374.38"/><line class="cls-1" x1="222.75" y1="350.3" x2="236.65" y2="358.32"/><line class="cls-1" x1="208.84" y1="358.32" x2="222.75" y2="350.3"/><line class="cls-1" x1="222.75" y1="366.35" x2="222.75" y2="382.4"/><line class="cls-1" x1="222.75" y1="382.4" x2="208.84" y2="374.38"/><line class="cls-1" x1="208.84" y1="358.32" x2="208.84" y2="374.38"/><line class="cls-1" x1="222.75" y1="366.35" x2="208.84" y2="358.32"/><line class="cls-1" x1="264.46" y1="374.38" x2="250.56" y2="382.4"/><line class="cls-1" x1="264.46" y1="374.38" x2="264.46" y2="390.43"/><line class="cls-1" x1="236.65" y1="374.38" x2="250.56" y2="366.35"/><line class="cls-1" x1="187.98" y1="354.31" x2="187.98" y2="370.36"/><line class="cls-1" x1="208.84" y1="342.27" x2="208.84" y2="358.32"/><line class="cls-1" x1="201.89" y1="346.28" x2="201.89" y2="362.33"/><line class="cls-1" x1="201.89" y1="362.33" x2="187.98" y2="354.31"/><line class="cls-1" x1="187.98" y1="338.25" x2="187.98" y2="354.31"/><line class="cls-1" x1="201.89" y1="346.28" x2="187.98" y2="338.25"/><line class="cls-1" x1="347.89" y1="229.87" x2="347.89" y2="197.77"/><line class="cls-1" x1="333.99" y1="237.9" x2="347.89" y2="229.87"/><line class="cls-1" x1="173.36" y1="242.33" x2="187.26" y2="250.36"/><line class="cls-1" x1="173.36" y1="226.28" x2="187.26" y2="234.3"/><line class="cls-1" x1="242.89" y1="137.97" x2="256.79" y2="146"/><line class="cls-1" x1="242.89" y1="121.92" x2="256.79" y2="129.94"/><line class="cls-1" x1="187.26" y1="250.36" x2="409.74" y2="121.92"/><line class="cls-1" x1="187.26" y1="234.3" x2="187.26" y2="250.36"/><line class="cls-1" x1="201.17" y1="226.28" x2="187.26" y2="234.3"/><line class="cls-1" x1="201.17" y1="210.22" x2="201.17" y2="226.28"/><line class="cls-1" x1="215.08" y1="202.2" x2="228.98" y2="210.22"/><line class="cls-1" x1="215.08" y1="186.14" x2="228.98" y2="194.17"/><line class="cls-1" x1="228.98" y1="178.11" x2="242.89" y2="186.14"/><line class="cls-1" x1="228.98" y1="162.05" x2="242.89" y2="170.08"/><line class="cls-1" x1="256.79" y1="146" x2="270.69" y2="154.02"/><line class="cls-1" x1="256.79" y1="129.94" x2="270.69" y2="137.97"/><line class="cls-1" x1="228.98" y1="210.22" x2="395.84" y2="113.89"/><line class="cls-1" x1="242.89" y1="186.14" x2="228.98" y2="194.17"/><line class="cls-1" x1="242.89" y1="170.08" x2="242.89" y2="186.14"/><line class="cls-1" x1="270.69" y1="154.02" x2="242.89" y2="170.08"/><line class="cls-1" x1="270.69" y1="154.02" x2="284.6" y2="162.05"/><line class="cls-1" x1="270.69" y1="137.97" x2="284.6" y2="146"/><line class="cls-1" x1="284.6" y1="162.05" x2="381.93" y2="105.86"/><line class="cls-1" x1="284.6" y1="146" x2="284.6" y2="162.05"/><line class="cls-1" x1="381.93" y1="89.8" x2="284.6" y2="146"/><line class="cls-1" x1="131.65" y1="330.64" x2="131.65" y2="378.8"/><line class="cls-1" x1="145.56" y1="258.39" x2="159.46" y2="266.42"/><line class="cls-1" x1="145.56" y1="210.22" x2="159.46" y2="218.25"/><line class="cls-1" x1="159.46" y1="202.2" x2="173.36" y2="210.22"/><line class="cls-1" x1="159.46" y1="186.14" x2="173.36" y2="194.17"/><line class="cls-1" x1="145.56" y1="338.67" x2="201.17" y2="306.55"/><line class="cls-1" x1="145.56" y1="274.45" x2="145.56" y2="338.67"/><line class="cls-1" x1="159.46" y1="266.42" x2="145.56" y2="274.45"/><line class="cls-1" x1="375.71" y1="205.79" x2="395.84" y2="194.16"/><line class="cls-1" x1="201.17" y1="306.55" x2="201.17" y2="258.4"/><line class="cls-1" x1="89.93" y1="435" x2="159.46" y2="475.14"/><line class="cls-1" x1="89.93" y1="418.95" x2="145.56" y2="451.06"/><line class="cls-1" x1="62.13" y1="338.67" x2="131.65" y2="378.8"/><line class="cls-1" x1="62.13" y1="226.28" x2="131.65" y2="266.42"/><line class="cls-1" x1="76.03" y1="218.25" x2="145.56" y2="258.39"/><line class="cls-1" x1="76.03" y1="170.08" x2="145.56" y2="210.22"/><line class="cls-1" x1="89.93" y1="162.05" x2="159.46" y2="202.2"/><line class="cls-1" x1="89.93" y1="146" x2="159.46" y2="186.14"/><line class="cls-1" x1="103.84" y1="137.97" x2="173.36" y2="178.11"/><line class="cls-1" x1="103.84" y1="121.92" x2="173.36" y2="162.05"/><line class="cls-1" x1="117.74" y1="113.89" x2="187.26" y2="154.02"/><line class="cls-1" x1="117.74" y1="97.83" x2="187.26" y2="137.97"/><line class="cls-1" x1="145.56" y1="81.77" x2="215.08" y2="121.92"/><line class="cls-1" x1="145.56" y1="65.72" x2="215.08" y2="105.86"/><line class="cls-1" x1="242.89" y1="9.52" x2="312.41" y2="49.67"/><line class="cls-1" x1="145.56" y1="370.78" x2="145.56" y2="451.06"/><line class="cls-1" x1="187.26" y1="346.7" x2="187.26" y2="337.83"/><line class="cls-1" x1="187.26" y1="386" x2="187.26" y2="369.95"/><line class="cls-1" x1="187.26" y1="443.03" x2="187.26" y2="402.06"/><line class="cls-1" x1="215.08" y1="426.98" x2="187.26" y2="443.03"/><line class="cls-1" x1="62.13" y1="338.67" x2="62.13" y2="402.89"/><line class="cls-1" x1="48.22" y1="218.25" x2="48.22" y2="330.64"/><line class="cls-1" x1="228.98" y1="1.5" x2="131.65" y2="57.69"/><line class="cls-1" x1="159.46" y1="218.25" x2="173.36" y2="226.28"/><line class="cls-1" x1="159.46" y1="266.42" x2="173.36" y2="274.45"/><line class="cls-1" x1="173.36" y1="274.45" x2="173.36" y2="242.33"/><line class="cls-1" x1="215.08" y1="250.36" x2="215.08" y2="234.3"/><line class="cls-1" x1="173.36" y1="274.45" x2="215.08" y2="250.36"/><line class="cls-1" x1="368.75" y1="161.64" x2="395.84" y2="145.99"/><line class="cls-1" x1="62" y1="1100.87" x2="62" y2="1132.98"/><line class="cls-1" x1="56.67" y1="1039.72" x2="48.09" y2="1044.67"/><line class="cls-1" x1="48.09" y1="1034.77" x2="48.09" y2="1044.67"/><line class="cls-1" x1="20.28" y1="1018.71" x2="20.28" y2="1028.62"/><line class="cls-1" x1="75.9" y1="1092.84" x2="62" y2="1100.87"/><line class="cls-1" x1="75.9" y1="1044.67" x2="62" y2="1052.7"/><line class="cls-1" x1="6.37" y1="1020.59" x2="14.95" y2="1015.64"/><line class="cls-1" x1="62" y1="1052.7" x2="62" y2="1100.87"/><line class="cls-1" x1="48.09" y1="1092.84" x2="6.37" y2="1068.76"/><line class="cls-1" x1="103.7" y1="1028.62" x2="75.9" y2="1044.67"/><line class="cls-1" x1="103.7" y1="1028.62" x2="103.7" y2="1092.84"/><line class="cls-1" x1="103.7" y1="1092.84" x2="75.9" y2="1108.89"/><line class="cls-1" x1="75.9" y1="1108.89" x2="62" y2="1100.87"/><line class="cls-1" x1="187.98" y1="322.2" x2="187.98" y2="338.25"/><line class="cls-1" x1="187.98" y1="322.2" x2="181.03" y2="318.18"/><line class="cls-1" x1="236.65" y1="406.48" x2="222.75" y2="414.51"/><line class="cls-1" x1="222.75" y1="398.46" x2="222.75" y2="414.51"/><line class="cls-1" x1="222.75" y1="414.51" x2="208.84" y2="406.48"/><line class="cls-1" x1="208.84" y1="390.43" x2="208.84" y2="406.48"/><line class="cls-1" x1="299.22" y1="410.5" x2="285.32" y2="418.53"/><line class="cls-1" x1="299.22" y1="394.45" x2="285.32" y2="402.48"/><line class="cls-1" x1="299.22" y1="394.45" x2="299.22" y2="410.5"/><line class="cls-1" x1="292.27" y1="390.43" x2="299.22" y2="394.45"/><line class="cls-1" x1="285.32" y1="402.48" x2="285.32" y2="418.53"/><line class="cls-1" x1="361.79" y1="366.35" x2="354.84" y2="370.36"/><line class="cls-1" x1="361.79" y1="253.96" x2="361.79" y2="270.02"/><line class="cls-1" x1="306.17" y1="350.3" x2="292.27" y2="358.32"/><line class="cls-1" x1="285.32" y1="418.53" x2="278.36" y2="414.51"/><line class="cls-1" x1="222.75" y1="398.46" x2="208.84" y2="390.43"/><line class="cls-1" x1="208.84" y1="390.43" x2="222.75" y2="382.4"/><line class="cls-1" x1="236.65" y1="390.43" x2="222.75" y2="398.46"/><line class="cls-1" x1="194.94" y1="334.24" x2="187.98" y2="338.25"/><line class="cls-1" x1="75.9" y1="1092.84" x2="75.9" y2="1108.89"/><line class="cls-1" x1="62" y1="1132.98" x2="48.09" y2="1124.95"/><line class="cls-1" x1="89.8" y1="1116.92" x2="62.85" y2="1132.48"/><line class="cls-1" x1="62" y1="1052.7" x2="48.09" y2="1044.67"/><line class="cls-1" x1="6.37" y1="1020.59" x2="6.37" y2="1035.53"/><line class="cls-1" x1="62" y1="1100.87" x2="48.09" y2="1092.84"/><line class="cls-1" x1="20.28" y1="1028.62" x2="6.37" y2="1020.59"/><line class="cls-1" x1="48.09" y1="1092.84" x2="48.09" y2="1124.95"/><line class="cls-1" x1="89.8" y1="1100.87" x2="89.8" y2="1116.92"/><line class="cls-1" x1="409.74" y1="137.97" x2="409.74" y2="121.92"/><line class="cls-1" x1="354.12" y1="154.02" x2="361.07" y2="158.04"/><line class="cls-1" x1="326.32" y1="57.69" x2="340.22" y2="65.72"/><line class="cls-1" x1="228.98" y1="113.89" x2="242.89" y2="121.92"/><line class="cls-1" x1="228.98" y1="129.94" x2="242.89" y2="137.97"/><line class="cls-1" x1="201.17" y1="146" x2="215.08" y2="154.02"/><line class="cls-1" x1="201.17" y1="162.05" x2="215.08" y2="170.08"/><line class="cls-1" x1="187.26" y1="170.08" x2="201.17" y2="178.11"/><line class="cls-1" x1="187.26" y1="186.14" x2="201.17" y2="194.17"/><line class="cls-1" x1="173.36" y1="194.17" x2="187.26" y2="202.2"/><line class="cls-1" x1="173.36" y1="210.22" x2="187.26" y2="218.25"/><line class="cls-1" x1="131.65" y1="57.69" x2="131.65" y2="73.75"/><line class="cls-1" x1="131.65" y1="73.75" x2="103.84" y2="89.8"/><line class="cls-1" x1="103.84" y1="89.8" x2="103.84" y2="105.86"/><line class="cls-1" x1="103.84" y1="105.86" x2="89.93" y2="113.89"/><line class="cls-1" x1="89.93" y1="113.89" x2="89.93" y2="129.94"/><line class="cls-1" x1="89.93" y1="129.94" x2="76.03" y2="137.97"/><line class="cls-1" x1="76.03" y1="137.97" x2="76.03" y2="154.02"/><line class="cls-1" x1="76.03" y1="154.02" x2="62.13" y2="162.05"/><line class="cls-1" x1="62.13" y1="162.05" x2="62.13" y2="210.22"/><line class="cls-1" x1="228.98" y1="1.5" x2="242.89" y2="9.52"/><line class="cls-1" x1="131.65" y1="57.69" x2="145.56" y2="65.72"/><line class="cls-1" x1="103.84" y1="89.8" x2="117.74" y2="97.83"/><line class="cls-1" x1="103.84" y1="105.86" x2="117.74" y2="113.89"/><line class="cls-1" x1="89.93" y1="113.89" x2="103.84" y2="121.92"/><line class="cls-1" x1="89.93" y1="129.94" x2="103.84" y2="137.97"/><line class="cls-1" x1="76.03" y1="137.97" x2="89.93" y2="146"/><line class="cls-1" x1="76.03" y1="154.02" x2="89.93" y2="162.05"/><line class="cls-1" x1="62.13" y1="162.05" x2="76.03" y2="170.08"/><line class="cls-1" x1="48.22" y1="218.25" x2="62.13" y2="226.28"/><line class="cls-1" x1="48.22" y1="330.64" x2="62.13" y2="338.67"/><line class="cls-1" x1="62.13" y1="402.89" x2="76.03" y2="410.92"/><line class="cls-1" x1="381.93" y1="250.36" x2="381.93" y2="218.25"/><line class="cls-1" x1="381.93" y1="218.25" x2="395.84" y2="210.22"/><line class="cls-1" x1="395.84" y1="210.22" x2="395.84" y2="194.17"/><line class="cls-1" x1="131.65" y1="378.8" x2="145.56" y2="370.78"/><line class="cls-1" x1="145.56" y1="451.06" x2="159.46" y2="443.03"/><line class="cls-1" x1="159.46" y1="443.03" x2="159.46" y2="475.14"/><line class="cls-1" x1="159.46" y1="475.14" x2="215.08" y2="443.03"/><line class="cls-1" x1="215.08" y1="443.03" x2="215.08" y2="426.98"/><line class="cls-1" x1="76.03" y1="410.92" x2="89.93" y2="418.95"/><line class="cls-1" x1="409.74" y1="186.14" x2="409.74" y2="154.02"/><line class="cls-1" x1="409.74" y1="154.02" x2="395.84" y2="162.05"/><line class="cls-1" x1="395.84" y1="162.05" x2="395.84" y2="146"/><line class="cls-1" x1="312.41" y1="49.67" x2="326.32" y2="57.69"/><line class="cls-1" x1="215.08" y1="105.86" x2="228.98" y2="113.89"/><line class="cls-1" x1="215.08" y1="121.92" x2="228.98" y2="129.94"/><line class="cls-1" x1="187.26" y1="137.97" x2="201.17" y2="146"/><line class="cls-1" x1="187.26" y1="154.02" x2="201.17" y2="162.05"/><line class="cls-1" x1="173.36" y1="162.05" x2="187.26" y2="170.08"/><line class="cls-1" x1="173.36" y1="178.11" x2="187.26" y2="186.14"/><line class="cls-1" x1="131.65" y1="266.42" x2="145.56" y2="274.45"/><line class="cls-1" x1="131.65" y1="330.64" x2="145.56" y2="338.67"/><line class="cls-1" x1="89.93" y1="418.95" x2="89.93" y2="435"/><line class="cls-1" x1="381.93" y1="105.86" x2="381.93" y2="89.8"/><line class="cls-1" x1="368.02" y1="81.77" x2="381.93" y2="89.8"/><line class="cls-1" x1="395.84" y1="113.89" x2="395.84" y2="97.83"/><line class="cls-1" x1="395.84" y1="97.83" x2="381.93" y2="105.86"/><line class="cls-1" x1="228.98" y1="194.17" x2="228.98" y2="210.22"/><line class="cls-1" x1="381.93" y1="89.8" x2="395.84" y2="97.83"/><line class="cls-1" x1="354.12" y1="73.75" x2="368.02" y2="81.77"/><line class="cls-1" x1="409.74" y1="121.92" x2="409.74" y2="105.86"/><line class="cls-1" x1="409.74" y1="105.86" x2="395.84" y2="113.89"/><line class="cls-1" x1="215.08" y1="202.2" x2="201.17" y2="210.22"/><line class="cls-1" x1="395.84" y1="97.83" x2="409.74" y2="105.86"/><line class="cls-1" x1="340.22" y1="65.72" x2="354.12" y2="73.75"/><line class="cls-1" x1="215.08" y1="154.02" x2="228.98" y2="162.05"/><line class="cls-1" x1="215.08" y1="170.08" x2="228.98" y2="178.11"/><line class="cls-1" x1="201.17" y1="178.11" x2="215.08" y2="186.14"/><line class="cls-1" x1="201.17" y1="194.17" x2="215.08" y2="202.2"/><line class="cls-1" x1="187.26" y1="202.2" x2="201.17" y2="210.22"/><line class="cls-1" x1="187.26" y1="218.25" x2="201.17" y2="226.28"/><line class="cls-1" x1="395.84" y1="145.99" x2="409.74" y2="137.97"/><line class="cls-1" x1="187.27" y1="410.92" x2="215.08" y2="426.98"/><line class="cls-1" x1="395.84" y1="194.16" x2="409.74" y2="186.14"/><line class="cls-1" x1="194.94" y1="326.21" x2="194.94" y2="334.24"/><line class="cls-1" x1="208.84" y1="342.27" x2="201.89" y2="346.28"/><line class="cls-1" x1="208.84" y1="358.32" x2="201.89" y2="362.33"/><line class="cls-1" x1="250.56" y1="382.4" x2="236.65" y2="374.38"/><line class="cls-1" x1="236.65" y1="374.38" x2="236.65" y2="390.43"/><line class="cls-1" x1="250.56" y1="398.46" x2="236.66" y2="390.44"/><line class="cls-1" x1="250.56" y1="382.4" x2="250.56" y2="398.46"/><line class="cls-1" x1="250.56" y1="366.35" x2="264.46" y2="374.38"/><line class="cls-1" x1="264.46" y1="390.43" x2="250.56" y2="398.46"/><line class="cls-1" x1="236.65" y1="374.38" x2="222.75" y2="382.4"/><line class="cls-1" x1="187.98" y1="402.48" x2="187.26" y2="402.06"/><line class="cls-1" x1="194.94" y1="398.46" x2="187.98" y2="402.48"/><line class="cls-1" x1="250.56" y1="414.51" x2="250.56" y2="430.57"/><line class="cls-1" x1="236.65" y1="406.48" x2="250.56" y2="398.46"/><line class="cls-1" x1="264.46" y1="406.48" x2="264.46" y2="422.54"/><line class="cls-1" x1="264.46" y1="406.48" x2="250.56" y2="414.51"/><line class="cls-1" x1="264.46" y1="422.54" x2="250.56" y2="430.57"/><line class="cls-1" x1="361.79" y1="358.32" x2="361.79" y2="366.35"/><line class="cls-1" x1="62.13" y1="210.22" x2="48.22" y2="218.25"/><line class="cls-1" x1="229.91" y1="434.47" x2="229.91" y2="426.68"/><line class="cls-1" x1="35.93" y1="466.18" x2="35.93" y2="506.32"/><line class="cls-1" x1="133.26" y1="586.6" x2="112.4" y2="574.56"/><line class="cls-1" x1="35.93" y1="466.18" x2="49.74" y2="458.2"/><line class="cls-1" x1="147.07" y1="514.4" x2="147.07" y2="578.63"/><line class="cls-1" x1="147.07" y1="514.4" x2="133.26" y2="522.38"/><line class="cls-1" x1="147.07" y1="578.63" x2="133.26" y2="586.6"/><line class="cls-1" x1="15.32" y1="518.22" x2="15.32" y2="534.27"/><line class="cls-1" x1="1.5" y1="542.25" x2="15.32" y2="534.27"/><line class="cls-1" x1="1.5" y1="542.25" x2="1.5" y2="1000.6"/><line class="cls-1" x1="457.9" y1="342.97" x2="444.08" y2="335"/><line class="cls-1" x1="444.08" y1="334.89" x2="444.08" y2="335"/><line class="cls-1" x1="444.08" y1="350.95" x2="457.9" y2="342.97"/><line class="cls-1" x1="388.46" y1="302.79" x2="444.08" y2="334.89"/><line class="cls-1" x1="457.9" y1="342.97" x2="457.9" y2="808.59"/><line class="cls-1" x1="388.46" y1="302.79" x2="375.7" y2="310.15"/><line class="cls-1" x1="423.48" y1="354.82" x2="423.48" y2="370.77"/><line class="cls-1" x1="35.84" y1="450.18" x2="89.93" y2="418.95"/><line class="cls-1" x1="146.99" y1="482.33" x2="159.46" y2="475.13"/><line class="cls-1" x1="146.99" y1="498.39" x2="146.99" y2="482.33"/><line class="cls-1" x1="77.47" y1="458.25" x2="146.99" y2="498.39"/><line class="cls-1" x1="49.74" y1="458.2" x2="35.84" y2="450.18"/><line class="cls-1" x1="423.57" y1="828.41" x2="439.57" y2="819.17"/><line class="cls-1" x1="444.08" y1="335" x2="444.08" y2="350.95"/><line class="cls-1" x1="381.93" y1="346.89" x2="381.93" y2="346.7"/><line class="cls-1" x1="208.84" y1="294.1" x2="201.17" y2="289.67"/><line class="cls-1" x1="306.17" y1="302.13" x2="313.13" y2="306.14"/><line class="cls-1" x1="35.85" y1="506.37" x2="35.93" y2="506.32"/><line class="cls-1" x1="381.93" y1="346.7" x2="375.7" y2="343.1"/><line class="cls-1" x1="306.17" y1="189.74" x2="306.17" y2="205.79"/><line class="cls-1" x1="236.65" y1="229.87" x2="236.65" y2="245.93"/><line class="cls-1" x1="375.7" y1="197.77" x2="389.6" y2="189.74"/><line class="cls-1" x1="389.6" y1="173.68" x2="375.7" y2="181.71"/><line class="cls-1" x1="375.7" y1="181.71" x2="375.7" y2="165.65"/><line class="cls-1" x1="320.08" y1="197.77" x2="320.08" y2="213.82"/><line class="cls-1" x1="306.17" y1="253.96" x2="320.08" y2="261.99"/><line class="cls-1" x1="375.7" y1="165.65" x2="389.6" y2="173.68"/><line class="cls-1" x1="306.17" y1="189.74" x2="320.08" y2="197.77"/><line class="cls-1" x1="306.17" y1="205.79" x2="320.08" y2="213.82"/><line class="cls-1" x1="354.84" y1="282.05" x2="347.89" y2="278.05"/><line class="cls-1" x1="354.84" y1="298.11" x2="347.89" y2="294.1"/><line class="cls-1" x1="340.94" y1="386.42" x2="333.99" y2="382.4"/><line class="cls-1" x1="347.89" y1="358.32" x2="354.84" y2="362.33"/><line class="cls-1" x1="361.79" y1="302.13" x2="368.74" y2="306.14"/><line class="cls-1" x1="327.03" y1="314.17" x2="327.03" y2="330.22"/><line class="cls-1" x1="313.13" y1="338.25" x2="306.17" y2="334.24"/><line class="cls-1" x1="354.84" y1="298.11" x2="354.84" y2="314.17"/><line class="cls-1" x1="299.22" y1="330.22" x2="292.27" y2="326.21"/><line class="cls-1" x1="299.22" y1="314.17" x2="292.27" y2="310.15"/><line class="cls-1" x1="333.99" y1="318.18" x2="333.99" y2="334.24"/><line class="cls-1" x1="327.03" y1="298.11" x2="320.08" y2="294.1"/><line class="cls-1" x1="327.03" y1="394.45" x2="313.13" y2="402.48"/><line class="cls-1" x1="340.94" y1="322.2" x2="333.99" y2="318.18"/><line class="cls-1" x1="278.36" y1="302.13" x2="285.32" y2="306.14"/><line class="cls-1" x1="320.08" y1="366.35" x2="320.08" y2="374.38"/><line class="cls-1" x1="327.04" y1="354.3" x2="333.99" y2="350.3"/><line class="cls-1" x1="306.18" y1="390.43" x2="306.17" y2="390.44"/><line class="cls-1" x1="347.89" y1="318.18" x2="347.89" y2="326.21"/><line class="cls-1" x1="340.94" y1="362.33" x2="340.94" y2="370.36"/><line class="cls-1" x1="333.99" y1="374.37" x2="333.98" y2="374.38"/><line class="cls-1" x1="361.79" y1="326.21" x2="361.79" y2="334.24"/><line class="cls-1" x1="250.56" y1="326.21" x2="250.56" y2="334.24"/><line class="cls-1" x1="340.94" y1="362.32" x2="340.94" y2="362.33"/><line class="cls-1" x1="285.32" y1="306.14" x2="292.27" y2="310.15"/><line class="cls-1" x1="306.17" y1="390.44" x2="299.22" y2="394.45"/><line class="cls-1" x1="333.98" y1="374.38" x2="327.03" y2="378.39"/><line class="cls-1" x1="146.99" y1="498.39" x2="285.31" y2="418.53"/><line class="cls-1" x1="90.25" y1="1020.85" x2="103.7" y2="1028.62"/><line class="cls-1" x1="368.02" y1="161.22" x2="368.02" y2="146"/><line class="cls-1" x1="368.02" y1="273.62" x2="368.02" y2="266.42"/><line class="cls-1" x1="215.08" y1="443.03" x2="229.91" y2="434.47"/><line class="cls-1" x1="89.93" y1="435.01" x2="77.47" y2="442.2"/><line class="cls-1" x1="201.17" y1="282.47" x2="208.84" y2="278.05"/><line class="cls-1" x1="222.75" y1="310.15" x2="222.75" y2="318.18"/><line class="cls-1" x1="368.03" y1="273.62" x2="368.74" y2="274.03"/><line class="cls-1" x1="187.26" y1="409.84" x2="229.91" y2="434.47"/><line class="cls-1" x1="299.22" y1="410.5" x2="313.12" y2="402.48"/><line class="cls-1" x1="333.99" y1="334.24" x2="327.03" y2="330.22"/><line class="cls-1" x1="131.65" y1="73.75" x2="145.56" y2="81.77"/><line class="cls-1" x1="62.13" y1="210.22" x2="76.03" y2="218.25"/><line class="cls-1" x1="395.84" y1="146" x2="409.74" y2="154.02"/><line class="cls-1" x1="313.13" y1="402.48" x2="306.17" y2="398.46"/><line class="cls-1" x1="257.51" y1="1089.54" x2="327.03" y2="1049.41"/><line class="cls-1" x1="439.12" y1="883.13" x2="439.12" y2="899.19"/><line class="cls-1" x1="453.02" y1="826.93" x2="439.57" y2="819.17"/><line class="cls-1" x1="453.02" y1="826.93" x2="453.02" y2="875.11"/><line class="cls-1" x1="439.12" y1="834.96" x2="453.02" y2="826.93"/><line class="cls-1" x1="439.12" y1="883.13" x2="453.02" y2="875.11"/><line class="cls-1" x1="425.22" y1="907.21" x2="425.22" y2="923.27"/><line class="cls-1" x1="424.37" y1="923.76" x2="425.22" y2="923.27"/><line class="cls-1" x1="208.84" y1="310.15" x2="201.89" y2="314.17"/><line class="cls-1" x1="208.84" y1="326.21" x2="201.89" y2="330.22"/><line class="cls-1" x1="236.65" y1="326.21" x2="222.75" y2="334.24"/><line class="cls-1" x1="243.61" y1="426.56" x2="243.61" y2="434.58"/><line class="cls-1" x1="215.79" y1="410.5" x2="215.79" y2="418.53"/><line class="cls-1" x1="285.32" y1="282.05" x2="299.22" y2="290.08"/><line class="cls-1" x1="236.65" y1="221.85" x2="236.65" y2="229.87"/><line class="cls-1" x1="250.56" y1="213.82" x2="250.56" y2="221.85"/><line class="cls-1" x1="347.89" y1="165.65" x2="347.89" y2="157.62"/><line class="cls-1" x1="222.75" y1="237.9" x2="222.75" y2="229.87"/><line class="cls-1" x1="306.17" y1="326.21" x2="306.17" y2="334.24"/><line class="cls-1" x1="333.99" y1="374.38" x2="333.99" y2="382.4"/><line class="cls-1" x1="368.74" y1="306.14" x2="375.7" y2="310.15"/><line class="cls-1" x1="375.7" y1="253.96" x2="375.7" y2="261.99"/><line class="cls-1" x1="368.03" y1="266.42" x2="361.79" y2="270.02"/><line class="cls-1" x1="333.99" y1="310.15" x2="333.99" y2="318.18"/><line class="cls-1" x1="194.94" y1="358.31" x2="194.94" y2="366.35"/><line class="cls-1" x1="306.17" y1="390.42" x2="306.17" y2="398.46"/><line class="cls-1" x1="368.74" y1="274.03" x2="375.7" y2="278.05"/><line class="cls-1" x1="187.98" y1="314.16" x2="187.98" y2="322.2"/><line class="cls-1" x1="413.33" y1="858.4" x2="424.37" y2="864.77"/><line class="cls-1" x1="423.57" y1="843.94" x2="439.12" y2="834.96"/><line class="cls-1" x1="292.27" y1="382.4" x2="292.27" y2="390.43"/><line class="cls-1" x1="313.13" y1="338.25" x2="320.08" y2="342.27"/><line class="cls-1" x1="299.22" y1="346.28" x2="306.17" y2="350.3"/><line class="cls-1" x1="327.03" y1="282.05" x2="333.99" y2="286.07"/><line class="cls-1" x1="439.57" y1="819.17" x2="457.9" y2="808.59"/><line class="cls-1" x1="1.5" y1="1000.6" x2="1.5" y2="1007.87"/><line class="cls-1" x1="361.79" y1="294.11" x2="361.79" y2="302.13"/><line class="cls-1" x1="201.17" y1="258.4" x2="201.17" y2="258.39"/><line class="cls-1" x1="375.7" y1="253.96" x2="381.93" y2="250.36"/><line class="cls-1" x1="14.95" y1="1015.64" x2="14.96" y2="1015.63"/><line class="cls-1" x1="6.37" y1="1035.53" x2="6.37" y2="1068.76"/><line class="cls-1" x1="62.85" y1="1132.48" x2="62" y2="1132.98"/><line class="cls-1" x1="103.7" y1="1091.73" x2="103.7" y2="1092.84"/><line class="cls-1" x1="236.65" y1="390.45" x2="236.65" y2="406.48"/><line class="cls-1" x1="222.75" y1="350.3" x2="222.75" y2="350.31"/><line class="cls-1" x1="208.84" y1="390.43" x2="201.89" y2="394.45"/><line class="cls-1" x1="375.7" y1="278.05" x2="368.74" y2="282.05"/><line class="cls-1" x1="313.13" y1="266" x2="306.17" y2="270.02"/><line class="cls-1" x1="201.89" y1="314.17" x2="194.94" y2="310.16"/><line class="cls-1" x1="299.22" y1="338.26" x2="299.22" y2="346.28"/><line class="cls-1" x1="257.51" y1="1180.53" x2="257.51" y2="1089.54"/><line class="cls-1" x1="327.03" y1="1216.66" x2="327.03" y2="1049.41"/><line class="cls-1" x1="299.22" y1="338.25" x2="299.22" y2="338.26"/><line class="cls-1" x1="229.7" y1="418.53" x2="229.7" y2="426.56"/><line class="cls-1" x1="201.89" y1="402.47" x2="201.89" y2="410.5"/><line class="cls-1" x1="278.36" y1="342.27" x2="278.36" y2="350.3"/><line class="cls-1" x1="222.75" y1="318.18" x2="208.84" y2="326.21"/><line class="cls-1" x1="375.7" y1="310.15" x2="375.7" y2="326.21"/><line class="cls-1" x1="375.7" y1="310.15" x2="368.75" y2="314.17"/><line class="cls-1" x1="361.79" y1="237.9" x2="375.7" y2="245.93"/><line class="cls-1" x1="278.37" y1="374.38" x2="271.41" y2="378.39"/><line class="cls-1" x1="278.36" y1="374.38" x2="278.36" y2="382.4"/><line class="cls-1" x1="278.36" y1="406.48" x2="278.36" y2="414.51"/><line class="cls-1" x1="215.79" y1="418.53" x2="201.89" y2="410.5"/><line class="cls-1" x1="292.27" y1="350.3" x2="292.27" y2="358.32"/><line class="cls-1" x1="222.75" y1="414.51" x2="215.79" y2="418.53"/><line class="cls-1" x1="375.7" y1="278.05" x2="375.7" y2="294.1"/><line class="cls-1" x1="250.56" y1="430.57" x2="243.61" y2="434.58"/><line class="cls-1" x1="187.98" y1="370.36" x2="194.94" y2="366.35"/><line class="cls-1" x1="278.37" y1="374.37" x2="278.37" y2="374.38"/><line class="cls-1" x1="208.84" y1="374.38" x2="201.89" y2="378.39"/><line class="cls-1" x1="347.89" y1="350.3" x2="347.89" y2="358.32"/><line class="cls-1" x1="347.89" y1="326.21" x2="354.84" y2="330.22"/><line class="cls-1" x1="271.41" y1="378.39" x2="264.46" y2="374.38"/><line class="cls-1" x1="271.41" y1="362.33" x2="264.46" y2="358.32"/><line class="cls-1" x1="285.32" y1="386.42" x2="278.36" y2="382.4"/><line class="cls-1" x1="278.36" y1="318.18" x2="285.32" y2="322.2"/><line class="cls-1" x1="271.41" y1="346.28" x2="264.46" y2="342.27"/><line class="cls-1" x1="271.41" y1="330.22" x2="264.46" y2="326.21"/><line class="cls-1" x1="271.41" y1="410.5" x2="264.46" y2="406.48"/><line class="cls-1" x1="271.41" y1="394.45" x2="264.46" y2="390.43"/><line class="cls-1" x1="285.32" y1="354.31" x2="278.36" y2="350.3"/><line class="cls-1" x1="278.36" y1="302.13" x2="285.33" y2="298.11"/><line class="cls-1" x1="278.36" y1="414.51" x2="264.46" y2="422.54"/><line class="cls-1" x1="236.65" y1="390.43" x2="222.75" y2="382.4"/><line class="cls-1" x1="306.17" y1="398.46" x2="299.23" y2="402.47"/></g></g></svg>