<svg xmlns="http://www.w3.org/2000/svg" viewBox="0 0 461.8 1202.79"><defs><style>.cls-1{fill:none;stroke:#000;stroke-linecap:round;stroke-linejoin:round;stroke-width:3px;}</style></defs><title>Asset 1george</title><g id="Layer_2" data-name="Layer 2"><g id="Make2D::Visible::Curves"><line class="cls-1" x1="261.58" y1="1201.29" x2="425.55" y2="1106.63"/><line class="cls-1" x1="7.21" y1="1172.72" x2="56.71" y2="1201.29"/><line class="cls-1" x1="159.15" y1="538.01" x2="159.15" y2="1201.29"/><line class="cls-1" x1="425.54" y1="1171.22" x2="373.46" y2="1201.29"/><line class="cls-1" x1="328.22" y1="1201.29" x2="328.22" y2="1162.82"/><line class="cls-1" x1="425.54" y1="1171.22" x2="425.54" y2="1201.29"/><line class="cls-1" x1="356.03" y1="1201.29" x2="356.03" y2="1195.3"/><line class="cls-1" x1="237.85" y1="247.46" x2="217" y2="235.42"/><line class="cls-1" x1="223.95" y1="255.48" x2="216.01" y2="250.9"/><line class="cls-1" x1="223.95" y1="271.54" x2="203.09" y2="259.5"/><line class="cls-1" x1="335.17" y1="239.43" x2="335.17" y2="212.84"/><line class="cls-1" x1="265.66" y1="279.56" x2="265.66" y2="247.46"/><line class="cls-1" x1="265.66" y1="247.46" x2="293.46" y2="231.4"/><line class="cls-1" x1="237.85" y1="231.4" x2="251.75" y2="239.43"/><line class="cls-1" x1="237.85" y1="295.62" x2="251.75" y2="303.65"/><line class="cls-1" x1="223.95" y1="271.54" x2="237.85" y2="279.56"/><line class="cls-1" x1="237.85" y1="247.46" x2="251.75" y2="255.48"/><line class="cls-1" x1="223.95" y1="255.48" x2="237.85" y2="263.51"/><line class="cls-1" x1="251.75" y1="239.43" x2="251.75" y2="255.48"/><line class="cls-1" x1="287.5" y1="218.79" x2="251.75" y2="239.43"/><line class="cls-1" x1="307.37" y1="223.37" x2="307.37" y2="207.61"/><line class="cls-1" x1="321.27" y1="215.35" x2="307.37" y2="223.37"/><line class="cls-1" x1="321.27" y1="206.19" x2="321.27" y2="215.35"/><line class="cls-1" x1="390.78" y1="191.27" x2="390.78" y2="175.21"/><line class="cls-1" x1="376.88" y1="199.29" x2="390.78" y2="191.27"/><line class="cls-1" x1="376.88" y1="231.4" x2="376.88" y2="199.29"/><line class="cls-1" x1="321.27" y1="263.51" x2="376.88" y2="231.4"/><line class="cls-1" x1="321.27" y1="231.4" x2="321.27" y2="263.51"/><line class="cls-1" x1="307.37" y1="271.54" x2="307.37" y2="239.43"/><line class="cls-1" x1="251.75" y1="303.65" x2="307.37" y2="271.54"/><line class="cls-1" x1="251.75" y1="271.54" x2="251.75" y2="303.65"/><line class="cls-1" x1="237.85" y1="279.56" x2="251.75" y2="271.54"/><line class="cls-1" x1="237.85" y1="263.51" x2="237.85" y2="279.56"/><line class="cls-1" x1="251.75" y1="255.48" x2="237.85" y2="263.51"/><line class="cls-1" x1="273.6" y1="210.76" x2="237.85" y2="231.4"/><line class="cls-1" x1="237.85" y1="279.57" x2="237.85" y2="295.62"/><line class="cls-1" x1="361.79" y1="181.42" x2="375.69" y2="173.39"/><line class="cls-1" x1="345.62" y1="172.08" x2="345.62" y2="158.64"/><line class="cls-1" x1="361.79" y1="181.42" x2="361.79" y2="165.36"/><line class="cls-1" x1="350.15" y1="174.7" x2="361.79" y2="181.42"/><line class="cls-1" x1="327.19" y1="97.23" x2="313.29" y2="105.26"/><line class="cls-1" x1="343.36" y1="106.56" x2="327.19" y2="97.23"/><line class="cls-1" x1="373.43" y1="123.92" x2="362.98" y2="117.9"/><line class="cls-1" x1="361.79" y1="130.64" x2="373.43" y2="123.92"/><line class="cls-1" x1="373.43" y1="139.98" x2="373.43" y2="123.92"/><line class="cls-1" x1="362.98" y1="223.37" x2="362.98" y2="191.27"/><line class="cls-1" x1="349.07" y1="231.4" x2="362.98" y2="223.37"/><line class="cls-1" x1="349.07" y1="231.4" x2="349.07" y2="204.81"/><line class="cls-1" x1="335.17" y1="239.43" x2="349.07" y2="231.4"/><line class="cls-1" x1="347.88" y1="205.5" x2="347.88" y2="192.06"/><line class="cls-1" x1="333.98" y1="213.53" x2="347.88" y2="205.5"/><line class="cls-1" x1="333.98" y1="213.53" x2="333.98" y2="197.47"/><line class="cls-1" x1="320.08" y1="205.5" x2="333.98" y2="213.53"/><line class="cls-1" x1="409.4" y1="1067.79" x2="409.4" y2="441.69"/><line class="cls-1" x1="451.11" y1="369.45" x2="159.15" y2="538.01"/><line class="cls-1" x1="451.11" y1="874.77" x2="451.11" y2="1091.87"/><line class="cls-1" x1="451.11" y1="369.45" x2="451.11" y2="812.98"/><line class="cls-1" x1="200.86" y1="1188.19" x2="409.4" y2="1067.79"/><line class="cls-1" x1="200.86" y1="562.09" x2="200.86" y2="1188.19"/><line class="cls-1" x1="409.4" y1="441.69" x2="200.86" y2="562.09"/><line class="cls-1" x1="385.07" y1="82.48" x2="401.23" y2="91.81"/><line class="cls-1" x1="401.23" y1="107.87" x2="401.23" y2="91.81"/><line class="cls-1" x1="385.07" y1="98.54" x2="401.23" y2="107.87"/><line class="cls-1" x1="391.86" y1="164.06" x2="403.5" y2="157.33"/><line class="cls-1" x1="279.56" y1="271.54" x2="279.56" y2="239.43"/><line class="cls-1" x1="265.66" y1="279.56" x2="279.56" y2="271.54"/><line class="cls-1" x1="314.32" y1="323.71" x2="314.32" y2="315.69"/><line class="cls-1" x1="279.56" y1="343.78" x2="314.32" y2="323.71"/><line class="cls-1" x1="345.62" y1="107.87" x2="331.72" y2="115.89"/><line class="cls-1" x1="347.88" y1="125.23" x2="361.79" y2="117.2"/><line class="cls-1" x1="361.79" y1="133.25" x2="361.79" y2="117.2"/><line class="cls-1" x1="347.88" y1="141.28" x2="361.79" y2="133.25"/><line class="cls-1" x1="405.76" y1="126.54" x2="389.59" y2="117.2"/><line class="cls-1" x1="391.86" y1="134.56" x2="405.76" y2="126.54"/><line class="cls-1" x1="405.76" y1="141.35" x2="405.76" y2="126.54"/><line class="cls-1" x1="391.86" y1="150.62" x2="403.5" y2="143.9"/><line class="cls-1" x1="375.69" y1="141.28" x2="375.69" y2="125.23"/><line class="cls-1" x1="375.69" y1="125.23" x2="391.86" y2="134.56"/><line class="cls-1" x1="391.86" y1="150.62" x2="391.86" y2="134.56"/><line class="cls-1" x1="375.69" y1="141.28" x2="391.86" y2="150.62"/><line class="cls-1" x1="385.07" y1="114.59" x2="385.07" y2="98.54"/><line class="cls-1" x1="359.52" y1="83.78" x2="345.62" y2="91.81"/><line class="cls-1" x1="375.69" y1="93.12" x2="359.52" y2="83.78"/><line class="cls-1" x1="361.79" y1="101.15" x2="375.69" y2="93.12"/><line class="cls-1" x1="375.69" y1="109.17" x2="375.69" y2="93.12"/><line class="cls-1" x1="361.79" y1="117.2" x2="375.69" y2="109.17"/><line class="cls-1" x1="345.62" y1="107.87" x2="345.62" y2="91.81"/><line class="cls-1" x1="345.62" y1="91.81" x2="361.79" y2="101.15"/><line class="cls-1" x1="361.79" y1="117.2" x2="361.79" y2="101.15"/><line class="cls-1" x1="345.62" y1="107.87" x2="361.79" y2="117.2"/><line class="cls-1" x1="375.69" y1="141.28" x2="361.79" y2="149.31"/><line class="cls-1" x1="377.96" y1="158.64" x2="391.86" y2="150.62"/><line class="cls-1" x1="391.86" y1="166.67" x2="391.86" y2="150.62"/><line class="cls-1" x1="377.96" y1="174.7" x2="391.86" y2="166.67"/><line class="cls-1" x1="361.79" y1="165.36" x2="361.79" y2="149.31"/><line class="cls-1" x1="361.79" y1="149.31" x2="377.96" y2="158.64"/><line class="cls-1" x1="377.96" y1="174.7" x2="377.96" y2="158.64"/><line class="cls-1" x1="361.79" y1="165.36" x2="377.96" y2="174.7"/><line class="cls-1" x1="375.69" y1="141.28" x2="361.79" y2="133.25"/><line class="cls-1" x1="347.88" y1="157.33" x2="361.79" y2="165.36"/><line class="cls-1" x1="315.55" y1="202.89" x2="287.75" y2="218.94"/><line class="cls-1" x1="273.84" y1="210.91" x2="273.84" y2="194.86"/><line class="cls-1" x1="287.75" y1="218.94" x2="273.84" y2="210.91"/><line class="cls-1" x1="273.84" y1="210.91" x2="287.75" y2="202.89"/><line class="cls-1" x1="287.75" y1="218.94" x2="287.75" y2="202.89"/><line class="cls-1" x1="259.93" y1="202.89" x2="273.84" y2="210.91"/><line class="cls-1" x1="336.25" y1="166.67" x2="320.08" y2="157.34"/><line class="cls-1" x1="322.34" y1="174.7" x2="336.25" y2="166.67"/><line class="cls-1" x1="336.25" y1="182.72" x2="336.25" y2="166.67"/><line class="cls-1" x1="322.34" y1="190.75" x2="336.25" y2="182.72"/><line class="cls-1" x1="306.18" y1="165.36" x2="322.34" y2="174.7"/><line class="cls-1" x1="322.34" y1="190.75" x2="322.34" y2="174.7"/><line class="cls-1" x1="306.18" y1="181.42" x2="322.34" y2="190.75"/><line class="cls-1" x1="320.08" y1="157.33" x2="306.18" y2="165.36"/><line class="cls-1" x1="306.18" y1="181.42" x2="306.18" y2="165.36"/><line class="cls-1" x1="303.91" y1="164.06" x2="293.46" y2="158.03"/><line class="cls-1" x1="290.01" y1="172.08" x2="303.91" y2="164.06"/><line class="cls-1" x1="290.01" y1="188.14" x2="303.91" y2="180.11"/><line class="cls-1" x1="273.84" y1="162.75" x2="290.01" y2="172.08"/><line class="cls-1" x1="290.01" y1="188.14" x2="290.01" y2="172.08"/><line class="cls-1" x1="273.84" y1="178.81" x2="290.01" y2="188.14"/><line class="cls-1" x1="273.84" y1="178.81" x2="273.84" y2="162.75"/><line class="cls-1" x1="290.01" y1="204.19" x2="303.91" y2="196.17"/><line class="cls-1" x1="290.01" y1="204.19" x2="290.01" y2="188.14"/><line class="cls-1" x1="273.84" y1="194.86" x2="290.01" y2="204.19"/><line class="cls-1" x1="350.15" y1="188.14" x2="361.79" y2="181.42"/><line class="cls-1" x1="361.79" y1="197.47" x2="361.79" y2="181.42"/><line class="cls-1" x1="347.88" y1="205.5" x2="361.79" y2="197.47"/><line class="cls-1" x1="320.08" y1="205.5" x2="333.98" y2="197.47"/><line class="cls-1" x1="320.08" y1="205.5" x2="320.08" y2="189.44"/><line class="cls-1" x1="303.91" y1="196.17" x2="320.08" y2="205.5"/><line class="cls-1" x1="303.91" y1="196.17" x2="303.91" y2="180.11"/><line class="cls-1" x1="350.15" y1="174.7" x2="336.25" y2="166.67"/><line class="cls-1" x1="336.25" y1="182.72" x2="350.15" y2="174.7"/><line class="cls-1" x1="350.15" y1="190.75" x2="350.15" y2="174.7"/><line class="cls-1" x1="336.25" y1="198.78" x2="350.15" y2="190.75"/><line class="cls-1" x1="336.25" y1="198.78" x2="336.25" y2="182.72"/><line class="cls-1" x1="322.34" y1="190.75" x2="336.25" y2="198.78"/><line class="cls-1" x1="317.81" y1="156.03" x2="303.91" y2="164.06"/><line class="cls-1" x1="303.91" y1="180.11" x2="303.91" y2="164.06"/><line class="cls-1" x1="301.64" y1="162.75" x2="301.64" y2="153.3"/><line class="cls-1" x1="347.88" y1="125.23" x2="333.98" y2="117.2"/><line class="cls-1" x1="333.98" y1="133.25" x2="347.88" y2="125.23"/><line class="cls-1" x1="347.88" y1="141.28" x2="347.88" y2="125.23"/><line class="cls-1" x1="333.98" y1="149.31" x2="347.88" y2="141.28"/><line class="cls-1" x1="333.98" y1="149.31" x2="333.98" y2="133.25"/><line class="cls-1" x1="320.08" y1="141.28" x2="333.98" y2="149.31"/><line class="cls-1" x1="293.46" y1="263.51" x2="293.46" y2="231.4"/><line class="cls-1" x1="279.56" y1="271.54" x2="293.46" y2="263.51"/><line class="cls-1" x1="189.19" y1="250.33" x2="265.66" y2="206.19"/><line class="cls-1" x1="175.29" y1="242.31" x2="189.19" y2="250.33"/><line class="cls-1" x1="189.19" y1="234.28" x2="189.19" y2="250.33"/><line class="cls-1" x1="203.09" y1="226.25" x2="189.19" y2="234.28"/><line class="cls-1" x1="244.8" y1="137.96" x2="258.7" y2="145.98"/><line class="cls-1" x1="244.8" y1="121.9" x2="258.7" y2="129.93"/><line class="cls-1" x1="230.9" y1="210.2" x2="251.76" y2="198.16"/><line class="cls-1" x1="217" y1="202.17" x2="230.9" y2="210.2"/><line class="cls-1" x1="217" y1="186.12" x2="230.9" y2="194.14"/><line class="cls-1" x1="244.8" y1="186.12" x2="230.9" y2="194.14"/><line class="cls-1" x1="230.9" y1="178.09" x2="244.8" y2="186.12"/><line class="cls-1" x1="244.8" y1="170.06" x2="244.8" y2="186.12"/><line class="cls-1" x1="230.9" y1="162.04" x2="244.8" y2="170.06"/><line class="cls-1" x1="272.61" y1="154.01" x2="244.8" y2="170.06"/><line class="cls-1" x1="258.7" y1="145.98" x2="272.61" y2="154.01"/><line class="cls-1" x1="258.7" y1="129.93" x2="272.61" y2="137.96"/><line class="cls-1" x1="272.61" y1="154.01" x2="286.51" y2="162.04"/><line class="cls-1" x1="272.61" y1="137.96" x2="286.51" y2="145.98"/><line class="cls-1" x1="361.79" y1="118.58" x2="383.83" y2="105.85"/><line class="cls-1" x1="286.51" y1="162.04" x2="307.37" y2="150"/><line class="cls-1" x1="286.51" y1="145.98" x2="286.51" y2="162.04"/><line class="cls-1" x1="307.37" y1="133.95" x2="286.51" y2="145.98"/><line class="cls-1" x1="383.83" y1="89.79" x2="375.69" y2="94.5"/><line class="cls-1" x1="383.83" y1="105.85" x2="383.83" y2="89.79"/><line class="cls-1" x1="147.48" y1="338.63" x2="203.09" y2="306.52"/><line class="cls-1" x1="147.48" y1="274.42" x2="147.48" y2="338.63"/><line class="cls-1" x1="133.58" y1="266.39" x2="147.48" y2="274.42"/><line class="cls-1" x1="161.38" y1="266.39" x2="147.48" y2="274.42"/><line class="cls-1" x1="147.48" y1="258.36" x2="161.38" y2="266.39"/><line class="cls-1" x1="147.48" y1="210.2" x2="161.38" y2="218.22"/><line class="cls-1" x1="161.38" y1="202.17" x2="175.29" y2="210.2"/><line class="cls-1" x1="161.38" y1="186.12" x2="175.29" y2="194.14"/><line class="cls-1" x1="376.88" y1="206.19" x2="397.74" y2="194.14"/><line class="cls-1" x1="203.09" y1="306.52" x2="203.09" y2="258.36"/><line class="cls-1" x1="451.11" y1="826.61" x2="451.11" y2="874.77"/><line class="cls-1" x1="362.98" y1="318.56" x2="451.11" y2="369.45"/><line class="cls-1" x1="159.15" y1="538.01" x2="7.21" y2="450.3"/><line class="cls-1" x1="77.96" y1="442.98" x2="147.48" y2="483.12"/><line class="cls-1" x1="77.96" y1="459.04" x2="77.96" y2="442.98"/><line class="cls-1" x1="383.83" y1="362.71" x2="383.83" y2="346.66"/><line class="cls-1" x1="147.48" y1="499.17" x2="383.83" y2="362.71"/><line class="cls-1" x1="328.22" y1="378.77" x2="383.83" y2="346.66"/><line class="cls-1" x1="383.83" y1="346.66" x2="349.07" y2="326.59"/><line class="cls-1" x1="57.11" y1="495.15" x2="112.72" y2="527.26"/><line class="cls-1" x1="15.41" y1="519.23" x2="71.01" y2="551.34"/><line class="cls-1" x1="15.41" y1="535.29" x2="71.01" y2="567.4"/><line class="cls-1" x1="71.01" y1="567.4" x2="57.11" y2="575.43"/><line class="cls-1" x1="71.01" y1="551.34" x2="71.01" y2="567.4"/><line class="cls-1" x1="112.72" y1="527.26" x2="71.01" y2="551.34"/><line class="cls-1" x1="112.72" y1="527.26" x2="112.72" y2="703.86"/><line class="cls-1" x1="57.11" y1="575.43" x2="57.11" y2="735.97"/><line class="cls-1" x1="57.11" y1="575.43" x2="1.5" y2="543.32"/><line class="cls-1" x1="390.78" y1="302.51" x2="446.4" y2="334.62"/><line class="cls-1" x1="418.59" y1="350.67" x2="446.4" y2="334.62"/><line class="cls-1" x1="57.11" y1="1040.47" x2="7.22" y2="1011.66"/><line class="cls-1" x1="112.72" y1="703.86" x2="112.72" y2="1008.36"/><line class="cls-1" x1="112.72" y1="1008.36" x2="57.11" y2="1040.47"/><line class="cls-1" x1="57.11" y1="735.97" x2="57.11" y2="1040.47"/><line class="cls-1" x1="217" y1="442.98" x2="217" y2="426.93"/><line class="cls-1" x1="91.87" y1="434.96" x2="161.38" y2="475.09"/><line class="cls-1" x1="77.96" y1="410.88" x2="147.48" y2="451.01"/><line class="cls-1" x1="147.48" y1="370.74" x2="147.48" y2="451.01"/><line class="cls-1" x1="133.58" y1="330.61" x2="133.58" y2="378.77"/><line class="cls-1" x1="64.07" y1="338.63" x2="133.58" y2="378.77"/><line class="cls-1" x1="64.07" y1="226.25" x2="133.58" y2="266.39"/><line class="cls-1" x1="77.96" y1="218.22" x2="147.48" y2="258.36"/><line class="cls-1" x1="77.96" y1="170.06" x2="147.48" y2="210.2"/><line class="cls-1" x1="91.87" y1="162.04" x2="161.38" y2="202.17"/><line class="cls-1" x1="91.87" y1="145.98" x2="161.38" y2="186.12"/><line class="cls-1" x1="105.78" y1="137.96" x2="175.29" y2="178.09"/><line class="cls-1" x1="105.78" y1="121.9" x2="175.29" y2="162.04"/><line class="cls-1" x1="119.67" y1="113.88" x2="189.19" y2="154.01"/><line class="cls-1" x1="119.67" y1="97.82" x2="189.19" y2="137.96"/><line class="cls-1" x1="147.48" y1="81.77" x2="217" y2="121.9"/><line class="cls-1" x1="147.48" y1="65.71" x2="217" y2="105.85"/><line class="cls-1" x1="244.8" y1="9.53" x2="314.32" y2="49.66"/><line class="cls-1" x1="335.18" y1="342.64" x2="342.12" y2="338.63"/><line class="cls-1" x1="314.32" y1="363.85" x2="314.32" y2="386.8"/><line class="cls-1" x1="189.19" y1="442.98" x2="189.19" y2="314.55"/><line class="cls-1" x1="217" y1="426.93" x2="189.19" y2="442.98"/><line class="cls-1" x1="50.16" y1="330.61" x2="64.07" y2="338.63"/><line class="cls-1" x1="64.07" y1="338.63" x2="64.07" y2="402.85"/><line class="cls-1" x1="50.16" y1="218.22" x2="50.16" y2="330.61"/><line class="cls-1" x1="230.9" y1="1.5" x2="133.58" y2="57.69"/><line class="cls-1" x1="161.38" y1="218.22" x2="175.29" y2="226.25"/><line class="cls-1" x1="161.38" y1="266.39" x2="175.29" y2="274.42"/><line class="cls-1" x1="175.29" y1="274.42" x2="175.29" y2="242.31"/><line class="cls-1" x1="217" y1="250.33" x2="217" y2="234.28"/><line class="cls-1" x1="175.29" y1="274.42" x2="217" y2="250.33"/><line class="cls-1" x1="189.19" y1="395.57" x2="230.91" y2="419.65"/><line class="cls-1" x1="217" y1="427.67" x2="230.91" y2="435.7"/><line class="cls-1" x1="301.71" y1="378.77" x2="295.09" y2="374.95"/><line class="cls-1" x1="230.91" y1="435.7" x2="230.91" y2="419.65"/><line class="cls-1" x1="230.91" y1="419.65" x2="301.71" y2="378.77"/><line class="cls-1" x1="301.71" y1="394.82" x2="301.71" y2="378.77"/><line class="cls-1" x1="230.91" y1="435.7" x2="301.71" y2="394.82"/><line class="cls-1" x1="307.37" y1="150" x2="317.81" y2="156.03"/><line class="cls-1" x1="273.84" y1="178.81" x2="265.66" y2="174.08"/><line class="cls-1" x1="259.93" y1="186.83" x2="273.84" y2="178.81"/><line class="cls-1" x1="273.84" y1="194.86" x2="273.84" y2="178.81"/><line class="cls-1" x1="259.93" y1="202.89" x2="273.84" y2="194.86"/><line class="cls-1" x1="251.75" y1="182.11" x2="259.93" y2="186.83"/><line class="cls-1" x1="259.93" y1="202.89" x2="259.93" y2="186.83"/><line class="cls-1" x1="251.75" y1="198.16" x2="259.93" y2="202.89"/><line class="cls-1" x1="333.98" y1="117.2" x2="317.81" y2="107.87"/><line class="cls-1" x1="320.08" y1="125.23" x2="333.98" y2="117.2"/><line class="cls-1" x1="333.98" y1="133.25" x2="333.98" y2="117.2"/><line class="cls-1" x1="320.08" y1="141.28" x2="333.98" y2="133.25"/><line class="cls-1" x1="303.91" y1="115.89" x2="320.08" y2="125.23"/><line class="cls-1" x1="320.08" y1="141.28" x2="320.08" y2="125.23"/><line class="cls-1" x1="303.91" y1="131.95" x2="320.08" y2="141.28"/><line class="cls-1" x1="317.81" y1="107.87" x2="303.91" y2="115.89"/><line class="cls-1" x1="303.91" y1="131.95" x2="303.91" y2="115.89"/><line class="cls-1" x1="237.85" y1="295.63" x2="237.85" y2="375.89"/><line class="cls-1" x1="321.27" y1="327.73" x2="321.27" y2="311.67"/><line class="cls-1" x1="279.56" y1="351.81" x2="321.27" y2="327.73"/><line class="cls-1" x1="279.56" y1="335.76" x2="279.56" y2="351.81"/><line class="cls-1" x1="321.27" y1="311.67" x2="279.56" y2="335.76"/><line class="cls-1" x1="335.17" y1="335.76" x2="349.07" y2="327.73"/><line class="cls-1" x1="335.17" y1="351.81" x2="335.17" y2="335.76"/><line class="cls-1" x1="265.66" y1="391.95" x2="335.17" y2="351.81"/><line class="cls-1" x1="251.75" y1="303.64" x2="251.75" y2="383.92"/><line class="cls-1" x1="349.07" y1="327.73" x2="349.07" y2="247.46"/><line class="cls-1" x1="223.95" y1="383.92" x2="189.2" y2="363.85"/><line class="cls-1" x1="237.85" y1="391.95" x2="223.95" y2="383.92"/><line class="cls-1" x1="223.95" y1="239.43" x2="223.95" y2="230.27"/><polyline class="cls-1" points="223.95 383.92 223.95 367.87 223.95 271.54"/><line class="cls-1" x1="210.04" y1="375.89" x2="210.04" y2="407.6"/><line class="cls-1" x1="286.51" y1="299.63" x2="300.41" y2="307.66"/><line class="cls-1" x1="286.51" y1="283.58" x2="300.41" y2="291.61"/><line class="cls-1" x1="286.51" y1="283.58" x2="286.51" y2="299.63"/><line class="cls-1" x1="314.32" y1="267.53" x2="307.37" y2="271.54"/><line class="cls-1" x1="300.41" y1="307.66" x2="328.22" y2="291.61"/><line class="cls-1" x1="300.41" y1="291.61" x2="300.41" y2="307.66"/><line class="cls-1" x1="328.22" y1="275.55" x2="300.41" y2="291.61"/><line class="cls-1" x1="328.22" y1="291.61" x2="328.22" y2="275.55"/><line class="cls-1" x1="411.64" y1="1163.19" x2="356.03" y2="1195.3"/><line class="cls-1" x1="411.64" y1="1163.19" x2="425.54" y2="1171.22"/><line class="cls-1" x1="361.79" y1="149.31" x2="361.79" y2="133.25"/><line class="cls-1" x1="347.88" y1="157.33" x2="361.79" y2="149.31"/><line class="cls-1" x1="63.21" y1="1102.3" x2="63.21" y2="1134.41"/><line class="cls-1" x1="91.02" y1="1022.03" x2="63.21" y2="1038.08"/><line class="cls-1" x1="77.11" y1="1094.27" x2="63.21" y2="1102.3"/><line class="cls-1" x1="77.11" y1="1046.11" x2="63.21" y2="1054.14"/><line class="cls-1" x1="63.21" y1="1054.14" x2="63.21" y2="1102.3"/><line class="cls-1" x1="63.21" y1="1102.3" x2="7.6" y2="1070.19"/><line class="cls-1" x1="104.92" y1="1030.06" x2="104.92" y2="1078.22"/><line class="cls-1" x1="91.02" y1="1118.36" x2="63.21" y2="1134.41"/><line class="cls-1" x1="104.92" y1="1094.27" x2="77.11" y2="1110.33"/><line class="cls-1" x1="77.11" y1="1110.33" x2="63.21" y2="1102.3"/><line class="cls-1" x1="347.88" y1="157.33" x2="347.88" y2="141.28"/><line class="cls-1" x1="333.98" y1="165.36" x2="347.88" y2="157.33"/><line class="cls-1" x1="317.81" y1="156.03" x2="317.81" y2="139.98"/><line class="cls-1" x1="333.98" y1="165.36" x2="333.98" y2="149.31"/><line class="cls-1" x1="77.11" y1="1094.27" x2="77.11" y2="1110.33"/><line class="cls-1" x1="104.92" y1="1078.22" x2="104.92" y2="1094.27"/><line class="cls-1" x1="63.21" y1="1134.41" x2="49.31" y2="1126.38"/><line class="cls-1" x1="104.92" y1="1030.06" x2="77.11" y2="1046.11"/><line class="cls-1" x1="63.21" y1="1054.14" x2="49.31" y2="1046.11"/><line class="cls-1" x1="7.6" y1="1022.03" x2="7.6" y2="1070.19"/><line class="cls-1" x1="7.6" y1="1022.03" x2="16.39" y2="1016.95"/><line class="cls-1" x1="63.21" y1="1038.08" x2="49.31" y2="1046.11"/><line class="cls-1" x1="21.5" y1="1030.06" x2="7.6" y2="1022.03"/><line class="cls-1" x1="91.02" y1="1022.03" x2="104.92" y2="1030.06"/><line class="cls-1" x1="49.31" y1="1094.27" x2="49.31" y2="1126.38"/><line class="cls-1" x1="91.02" y1="1102.3" x2="91.02" y2="1118.36"/><line class="cls-1" x1="425.54" y1="1155.16" x2="411.64" y2="1163.19"/><line class="cls-1" x1="314.32" y1="267.53" x2="328.22" y2="275.55"/><line class="cls-1" x1="223.95" y1="399.97" x2="223.95" y2="383.92"/><line class="cls-1" x1="237.85" y1="408" x2="237.85" y2="391.95"/><line class="cls-1" x1="251.75" y1="399.97" x2="251.75" y2="383.92"/><line class="cls-1" x1="251.75" y1="383.92" x2="237.85" y2="391.95"/><line class="cls-1" x1="237.85" y1="375.89" x2="223.95" y2="383.92"/><line class="cls-1" x1="251.75" y1="399.97" x2="237.85" y2="391.95"/><line class="cls-1" x1="251.75" y1="383.92" x2="265.66" y2="375.89"/><line class="cls-1" x1="265.66" y1="375.89" x2="265.66" y2="391.95"/><line class="cls-1" x1="237.85" y1="375.89" x2="251.75" y2="383.92"/><line class="cls-1" x1="251.75" y1="383.92" x2="265.66" y2="391.95"/><line class="cls-1" x1="265.65" y1="391.95" x2="251.77" y2="399.96"/><line class="cls-1" x1="237.85" y1="391.92" x2="237.85" y2="375.89"/><line class="cls-1" x1="303.92" y1="129.33" x2="303.92" y2="129.34"/><line class="cls-1" x1="411.64" y1="137.96" x2="411.64" y2="121.92"/><line class="cls-1" x1="328.22" y1="57.69" x2="342.12" y2="65.71"/><line class="cls-1" x1="230.9" y1="113.88" x2="244.8" y2="121.9"/><line class="cls-1" x1="230.9" y1="129.93" x2="244.8" y2="137.96"/><line class="cls-1" x1="203.09" y1="145.98" x2="217" y2="154.01"/><line class="cls-1" x1="203.09" y1="162.04" x2="217" y2="170.06"/><line class="cls-1" x1="189.19" y1="170.06" x2="203.09" y2="178.09"/><line class="cls-1" x1="189.19" y1="186.12" x2="203.09" y2="194.14"/><line class="cls-1" x1="175.29" y1="194.14" x2="189.19" y2="202.17"/><line class="cls-1" x1="175.29" y1="210.2" x2="189.19" y2="218.22"/><line class="cls-1" x1="133.58" y1="73.74" x2="105.78" y2="89.79"/><line class="cls-1" x1="105.78" y1="89.79" x2="105.78" y2="105.85"/><line class="cls-1" x1="105.78" y1="105.85" x2="91.87" y2="113.88"/><line class="cls-1" x1="91.87" y1="113.88" x2="91.87" y2="129.93"/><line class="cls-1" x1="91.87" y1="129.93" x2="77.96" y2="137.96"/><line class="cls-1" x1="77.96" y1="137.96" x2="77.96" y2="154.01"/><line class="cls-1" x1="77.96" y1="154.01" x2="64.07" y2="162.04"/><line class="cls-1" x1="64.07" y1="162.04" x2="64.07" y2="210.2"/><line class="cls-1" x1="64.07" y1="210.2" x2="50.16" y2="218.22"/><line class="cls-1" x1="230.9" y1="1.5" x2="244.8" y2="9.53"/><line class="cls-1" x1="133.58" y1="57.69" x2="147.48" y2="65.71"/><line class="cls-1" x1="133.58" y1="73.74" x2="147.48" y2="81.77"/><line class="cls-1" x1="105.78" y1="89.79" x2="119.67" y2="97.82"/><line class="cls-1" x1="105.78" y1="105.85" x2="119.67" y2="113.88"/><line class="cls-1" x1="91.87" y1="113.88" x2="105.78" y2="121.9"/><line class="cls-1" x1="91.87" y1="129.93" x2="105.78" y2="137.96"/><line class="cls-1" x1="77.96" y1="137.96" x2="91.87" y2="145.98"/><line class="cls-1" x1="77.96" y1="154.01" x2="91.87" y2="162.04"/><line class="cls-1" x1="64.07" y1="162.04" x2="77.96" y2="170.06"/><line class="cls-1" x1="64.07" y1="210.2" x2="77.96" y2="218.22"/><line class="cls-1" x1="50.16" y1="218.22" x2="64.07" y2="226.25"/><line class="cls-1" x1="64.07" y1="402.85" x2="76.72" y2="410.16"/><line class="cls-1" x1="328.22" y1="378.77" x2="328.22" y2="355.82"/><line class="cls-1" x1="342.12" y1="338.63" x2="342.12" y2="331.74"/><line class="cls-1" x1="356.03" y1="298.5" x2="369.93" y2="290.47"/><line class="cls-1" x1="369.93" y1="290.47" x2="369.93" y2="258.36"/><line class="cls-1" x1="369.93" y1="258.36" x2="383.83" y2="250.33"/><line class="cls-1" x1="383.83" y1="250.33" x2="383.83" y2="218.22"/><line class="cls-1" x1="383.83" y1="218.22" x2="397.74" y2="210.2"/><line class="cls-1" x1="397.74" y1="210.2" x2="397.74" y2="194.14"/><line class="cls-1" x1="133.58" y1="378.77" x2="147.48" y2="370.74"/><line class="cls-1" x1="147.48" y1="451.01" x2="161.38" y2="442.98"/><line class="cls-1" x1="161.38" y1="442.98" x2="161.38" y2="475.09"/><line class="cls-1" x1="91.87" y1="418.9" x2="91.87" y2="434.96"/><line class="cls-1" x1="1.5" y1="703.86" x2="1.5" y2="1008.36"/><line class="cls-1" x1="460.3" y1="503.18" x2="460.3" y2="807.69"/><line class="cls-1" x1="460.3" y1="807.69" x2="451.11" y2="812.99"/><line class="cls-1" x1="460.3" y1="342.64" x2="446.4" y2="334.62"/><line class="cls-1" x1="460.3" y1="342.64" x2="460.3" y2="503.18"/><line class="cls-1" x1="446.4" y1="334.62" x2="446.4" y2="350.67"/><line class="cls-1" x1="446.4" y1="350.67" x2="460.3" y2="342.64"/><line class="cls-1" x1="390.78" y1="302.51" x2="362.98" y2="318.56"/><line class="cls-1" x1="1.5" y1="543.32" x2="1.5" y2="703.86"/><line class="cls-1" x1="15.41" y1="519.23" x2="15.41" y2="535.29"/><line class="cls-1" x1="15.41" y1="519.23" x2="57.11" y2="495.15"/><line class="cls-1" x1="147.48" y1="483.12" x2="161.38" y2="475.09"/><line class="cls-1" x1="147.48" y1="499.17" x2="147.48" y2="483.12"/><line class="cls-1" x1="91.87" y1="434.96" x2="77.96" y2="442.98"/><line class="cls-1" x1="77.96" y1="459.04" x2="147.48" y2="499.17"/><line class="cls-1" x1="411.64" y1="186.12" x2="411.64" y2="154.01"/><line class="cls-1" x1="411.64" y1="154.01" x2="397.74" y2="162.04"/><line class="cls-1" x1="397.74" y1="162.04" x2="397.74" y2="160.66"/><line class="cls-1" x1="314.32" y1="49.66" x2="328.22" y2="57.69"/><line class="cls-1" x1="217" y1="105.85" x2="230.9" y2="113.88"/><line class="cls-1" x1="217" y1="121.9" x2="230.9" y2="129.93"/><line class="cls-1" x1="189.19" y1="137.96" x2="203.09" y2="145.98"/><line class="cls-1" x1="189.19" y1="154.01" x2="203.09" y2="162.04"/><line class="cls-1" x1="175.29" y1="162.04" x2="189.19" y2="170.06"/><line class="cls-1" x1="175.29" y1="178.09" x2="189.19" y2="186.12"/><line class="cls-1" x1="133.58" y1="330.61" x2="147.48" y2="338.63"/><line class="cls-1" x1="369.93" y1="81.77" x2="383.83" y2="89.79"/><line class="cls-1" x1="397.74" y1="113.88" x2="397.74" y2="105.85"/><line class="cls-1" x1="383.83" y1="89.79" x2="385.07" y2="90.51"/><line class="cls-1" x1="356.03" y1="73.74" x2="369.93" y2="81.77"/><line class="cls-1" x1="230.9" y1="194.14" x2="230.9" y2="210.2"/><line class="cls-1" x1="411.64" y1="105.85" x2="397.74" y2="113.88"/><line class="cls-1" x1="342.12" y1="65.71" x2="356.03" y2="73.74"/><line class="cls-1" x1="217" y1="154.01" x2="230.9" y2="162.04"/><line class="cls-1" x1="217" y1="170.06" x2="230.9" y2="178.09"/><line class="cls-1" x1="203.09" y1="178.09" x2="217" y2="186.12"/><line class="cls-1" x1="203.09" y1="194.14" x2="217" y2="202.17"/><line class="cls-1" x1="217" y1="202.17" x2="203.09" y2="210.2"/><line class="cls-1" x1="189.19" y1="202.17" x2="203.09" y2="210.2"/><line class="cls-1" x1="203.09" y1="210.2" x2="203.09" y2="226.25"/><line class="cls-1" x1="189.19" y1="218.22" x2="203.09" y2="226.25"/><line class="cls-1" x1="76.72" y1="410.16" x2="77.96" y2="410.88"/><line class="cls-1" x1="189.19" y1="410.88" x2="217" y2="426.93"/><line class="cls-1" x1="7.22" y1="540.02" x2="15.41" y2="535.29"/><line class="cls-1" x1="397.74" y1="194.14" x2="411.64" y2="186.12"/><line class="cls-1" x1="356.04" y1="314.55" x2="362.98" y2="318.56"/><line class="cls-1" x1="133.58" y1="57.69" x2="133.58" y2="73.74"/><line class="cls-1" x1="411.64" y1="121.9" x2="411.64" y2="105.85"/><line class="cls-1" x1="303.91" y1="180.11" x2="306.17" y2="181.42"/><line class="cls-1" x1="303.91" y1="164.06" x2="306.17" y2="165.36"/><line class="cls-1" x1="7.21" y1="1011.67" x2="7.21" y2="1172.72"/><line class="cls-1" x1="320.07" y1="157.33" x2="317.81" y2="156.03"/><line class="cls-1" x1="280.8" y1="158.73" x2="273.84" y2="162.75"/><line class="cls-1" x1="320.08" y1="157.34" x2="320.08" y2="157.33"/><line class="cls-1" x1="356.03" y1="314.55" x2="356.03" y2="298.5"/><line class="cls-1" x1="306.19" y1="178.8" x2="303.91" y2="180.11"/><line class="cls-1" x1="301.72" y1="379.52" x2="314.32" y2="386.8"/><line class="cls-1" x1="301.71" y1="394.07" x2="314.32" y2="386.8"/><line class="cls-1" x1="1.5" y1="543.32" x2="7.22" y2="540.02"/><line class="cls-1" x1="7.21" y1="450.3" x2="7.21" y2="540.02"/><line class="cls-1" x1="91.02" y1="1020.89" x2="91.02" y2="1022.03"/><line class="cls-1" x1="21.5" y1="1019.91" x2="21.5" y2="1030.06"/><line class="cls-1" x1="49.31" y1="1035.97" x2="49.31" y2="1046.11"/><line class="cls-1" x1="425.54" y1="1106.63" x2="425.54" y2="1155.16"/><line class="cls-1" x1="251.77" y1="399.96" x2="251.75" y2="399.97"/><line class="cls-1" x1="320.07" y1="157.33" x2="320.08" y2="157.34"/><line class="cls-1" x1="349.08" y1="318.56" x2="356.03" y2="314.55"/><line class="cls-1" x1="237.85" y1="222.24" x2="237.85" y2="231.4"/><line class="cls-1" x1="7.22" y1="1011.66" x2="1.5" y2="1008.36"/><line class="cls-1" x1="217" y1="442.98" x2="230.25" y2="435.32"/><line class="cls-1" x1="7.21" y1="450.3" x2="76.73" y2="410.16"/><line class="cls-1" x1="451.11" y1="812.98" x2="451.11" y2="826.61"/><line class="cls-1" x1="175.29" y1="226.25" x2="189.19" y2="234.28"/><line class="cls-1" x1="361.79" y1="191.96" x2="362.98" y2="191.27"/><line class="cls-1" x1="425.55" y1="1106.63" x2="451.11" y2="1091.87"/><line class="cls-1" x1="408.18" y1="103.86" x2="415.13" y2="99.84"/><line class="cls-1" x1="385.07" y1="90.51" x2="385.07" y2="82.48"/><line class="cls-1" x1="403.5" y1="149.31" x2="403.5" y2="143.9"/><line class="cls-1" x1="383.84" y1="99.24" x2="385.07" y2="98.54"/><line class="cls-1" x1="404.69" y1="125.92" x2="411.64" y2="121.9"/><line class="cls-1" x1="373.43" y1="127.91" x2="375.69" y2="126.6"/><line class="cls-1" x1="390.79" y1="117.89" x2="397.74" y2="113.88"/><line class="cls-1" x1="314.32" y1="323.71" x2="321.27" y2="327.73"/><line class="cls-1" x1="405.76" y1="141.35" x2="411.64" y2="137.96"/><line class="cls-1" x1="408.18" y1="103.86" x2="411.64" y2="105.85"/><line class="cls-1" x1="390.79" y1="101.84" x2="385.07" y2="105.13"/><line class="cls-1" x1="403.5" y1="149.31" x2="411.64" y2="154.01"/><line class="cls-1" x1="371.16" y1="122.62" x2="371.16" y2="113.17"/><line class="cls-1" x1="371.16" y1="122.62" x2="385.07" y2="114.59"/><line class="cls-1" x1="307.63" y1="207.47" x2="321.27" y2="215.35"/><line class="cls-1" x1="383.93" y1="171.25" x2="390.78" y2="175.21"/><line class="cls-1" x1="403.5" y1="143.9" x2="405.76" y2="142.59"/><line class="cls-1" x1="307.37" y1="255.48" x2="321.27" y2="263.51"/><line class="cls-1" x1="376.88" y1="183.24" x2="376.88" y2="174.08"/><line class="cls-1" x1="390.78" y1="175.21" x2="376.88" y2="183.24"/><line class="cls-1" x1="307.37" y1="239.43" x2="321.27" y2="231.4"/><line class="cls-1" x1="237.85" y1="231.4" x2="237.85" y2="247.46"/><line class="cls-1" x1="405.76" y1="142.59" x2="405.76" y2="141.35"/><line class="cls-1" x1="389.59" y1="117.2" x2="375.69" y2="125.23"/><line class="cls-1" x1="451.11" y1="878.35" x2="454.2" y2="876.56"/><line class="cls-1" x1="454.2" y1="828.4" x2="454.2" y2="876.56"/><line class="cls-1" x1="454.2" y1="876.56" x2="451.11" y2="874.77"/><line class="cls-1" x1="454.2" y1="828.4" x2="451.11" y2="826.61"/><line class="cls-1" x1="398.97" y1="74.45" x2="385.07" y2="82.48"/><line class="cls-1" x1="415.13" y1="83.78" x2="398.97" y2="74.45"/><line class="cls-1" x1="401.23" y1="91.81" x2="415.13" y2="83.78"/><line class="cls-1" x1="415.13" y1="99.84" x2="415.13" y2="83.78"/><line class="cls-1" x1="401.23" y1="107.87" x2="408.18" y2="103.86"/><line class="cls-1" x1="385.07" y1="98.54" x2="385.07" y2="90.51"/><line class="cls-1" x1="403.5" y1="157.33" x2="403.5" y2="149.31"/></g></g></svg>