<svg xmlns="http://www.w3.org/2000/svg" viewBox="0 0 26 21.13"><defs><style>.cls-1{fill:#b4b0ff;}</style></defs><title>Asset 1twitter</title><g id="Layer_2" data-name="Layer 2"><g id="Layer_1-2" data-name="Layer 1"><path class="cls-1" d="M26,2.5a10.51,10.51,0,0,1-3.06.84A5.34,5.34,0,0,0,25.28.39a10.69,10.69,0,0,1-3.39,1.29,5.33,5.33,0,0,0-9.22,3.65,5.43,5.43,0,0,0,.14,1.22A15.15,15.15,0,0,1,1.81,1a5.26,5.26,0,0,0-.72,2.68A5.34,5.34,0,0,0,3.46,8.1a5.3,5.3,0,0,1-2.41-.67V7.5a5.33,5.33,0,0,0,4.27,5.23,5.32,5.32,0,0,1-1.4.18,5.47,5.47,0,0,1-1-.09,5.31,5.31,0,0,0,5,3.7A10.65,10.65,0,0,1,0,18.73a15,15,0,0,0,8.18,2.4A15.07,15.07,0,0,0,23.35,6c0-.23,0-.46,0-.69A10.74,10.74,0,0,0,26,2.5Z"/></g></g></svg>