<svg xmlns="http://www.w3.org/2000/svg" viewBox="0 0 10.82 23.61"><defs><style>.cls-1{fill:none;stroke:#b4b4b4;stroke-linecap:round;stroke-linejoin:round;stroke-width:0.4px;}</style></defs><title>Asset 2</title><g id="Layer_2" data-name="Layer 2"><g id="Make2D::Visible::Curves"><line class="cls-1" x1="3.55" y1="14.38" x2="3.55" y2="20.83"/><line class="cls-1" x1="3.55" y1="13.95" x2="2.06" y2="13.09"/><line class="cls-1" x1="5.41" y1="12.88" x2="3.55" y2="13.95"/><line class="cls-1" x1="5.41" y1="20.18" x2="3.55" y2="21.26"/><line class="cls-1" x1="5.41" y1="19.75" x2="3.55" y2="20.83"/><line class="cls-1" x1="3.55" y1="21.26" x2="2.06" y2="20.4"/><line class="cls-1" x1="3.55" y1="20.83" x2="2.06" y2="19.97"/><line class="cls-1" x1="5.41" y1="15.03" x2="4.7" y2="14.61"/><line class="cls-1" x1="3.92" y1="15.89" x2="3.92" y2="15.03"/><line class="cls-1" x1="5.41" y1="15.03" x2="3.92" y2="15.89"/><line class="cls-1" x1="5.41" y1="16.32" x2="5.41" y2="15.03"/><line class="cls-1" x1="3.92" y1="15.03" x2="5.78" y2="13.95"/><line class="cls-1" x1="8.85" y1="12.18" x2="9.78" y2="11.64"/><line class="cls-1" x1="8.85" y1="14.33" x2="8.85" y2="12.18"/><line class="cls-1" x1="6.16" y1="19.75" x2="6.16" y2="8.15"/><line class="cls-1" x1="8.02" y1="20.83" x2="8.02" y2="7.08"/><line class="cls-1" x1="3.55" y1="6.22" x2="3.55" y2="13.95"/><line class="cls-1" x1="10.62" y1="2.13" x2="3.55" y2="6.22"/><line class="cls-1" x1="3.55" y1="6.22" x2="0.2" y2="4.28"/><line class="cls-1" x1="5.04" y1="13.09" x2="5.41" y2="13.31"/><line class="cls-1" x1="5.04" y1="19.97" x2="5.41" y2="20.18"/><line class="cls-1" x1="10.25" y1="16.96" x2="10.62" y2="17.18"/><line class="cls-1" x1="10.25" y1="16.96" x2="8.76" y2="17.82"/><line class="cls-1" x1="10.25" y1="10.08" x2="8.76" y2="10.94"/><line class="cls-1" x1="10.25" y1="10.08" x2="10.62" y2="10.3"/><line class="cls-1" x1="5.07" y1="14.36" x2="5.07" y2="14.83"/><line class="cls-1" x1="9.06" y1="12.06" x2="9.06" y2="12.09"/><line class="cls-1" x1="6.16" y1="19.76" x2="8.02" y2="20.83"/><line class="cls-1" x1="2.06" y1="13.52" x2="2.43" y2="13.31"/><line class="cls-1" x1="3.55" y1="14.38" x2="2.06" y2="13.52"/><line class="cls-1" x1="2.06" y1="13.52" x2="2.06" y2="13.09"/><line class="cls-1" x1="5.41" y1="13.31" x2="3.55" y2="14.38"/><line class="cls-1" x1="5.41" y1="12.88" x2="5.41" y2="13.31"/><line class="cls-1" x1="2.06" y1="20.4" x2="2.43" y2="20.18"/><line class="cls-1" x1="3.55" y1="21.26" x2="3.55" y2="23.41"/><line class="cls-1" x1="5.41" y1="19.75" x2="5.41" y2="20.18"/><line class="cls-1" x1="2.06" y1="20.4" x2="2.06" y2="19.97"/><line class="cls-1" x1="10.62" y1="17.18" x2="10.62" y2="19.33"/><line class="cls-1" x1="10.62" y1="17.18" x2="8.76" y2="18.25"/><line class="cls-1" x1="10.62" y1="16.75" x2="10.25" y2="16.96"/><line class="cls-1" x1="8.76" y1="18.25" x2="8.76" y2="17.82"/><line class="cls-1" x1="10.62" y1="10.3" x2="10.62" y2="16.75"/><line class="cls-1" x1="10.62" y1="10.3" x2="8.76" y2="11.37"/><line class="cls-1" x1="10.62" y1="9.87" x2="10.25" y2="10.08"/><line class="cls-1" x1="8.76" y1="11.37" x2="8.76" y2="10.94"/><line class="cls-1" x1="5.78" y1="16.1" x2="5.41" y2="15.89"/><line class="cls-1" x1="5.78" y1="16.1" x2="5.41" y2="16.32"/><line class="cls-1" x1="5.78" y1="13.95" x2="5.78" y2="16.1"/><line class="cls-1" x1="4.7" y1="14.61" x2="3.92" y2="15.06"/><line class="cls-1" x1="9.23" y1="14.11" x2="8.85" y2="13.9"/><line class="cls-1" x1="9.23" y1="12.82" x2="8.85" y2="12.61"/><line class="cls-1" x1="9.78" y1="12.5" x2="9.06" y2="12.09"/><line class="cls-1" x1="9.23" y1="14.11" x2="8.85" y2="14.33"/><line class="cls-1" x1="9.23" y1="12.82" x2="9.23" y2="14.11"/><line class="cls-1" x1="9.78" y1="12.5" x2="9.23" y2="12.82"/><line class="cls-1" x1="9.78" y1="11.64" x2="9.78" y2="12.5"/><line class="cls-1" x1="9.06" y1="12.09" x2="8.85" y2="12.21"/><line class="cls-1" x1="6.16" y1="21.9" x2="6.16" y2="19.75"/><line class="cls-1" x1="0.94" y1="21.9" x2="0.94" y2="8.15"/><line class="cls-1" x1="6.16" y1="21.9" x2="3.55" y2="23.41"/><line class="cls-1" x1="10.62" y1="19.33" x2="8.02" y2="20.83"/><line class="cls-1" x1="3.55" y1="23.41" x2="0.94" y2="21.9"/><line class="cls-1" x1="10.62" y1="2.13" x2="10.62" y2="9.87"/><line class="cls-1" x1="0.2" y1="4.28" x2="0.2" y2="7.72"/><line class="cls-1" x1="7.27" y1="0.2" x2="10.62" y2="2.13"/><line class="cls-1" x1="0.2" y1="4.28" x2="7.27" y2="0.2"/><line class="cls-1" x1="6.16" y1="8.15" x2="8.02" y2="7.08"/><line class="cls-1" x1="0.2" y1="7.72" x2="0.94" y2="8.15"/></g></g></svg>