<svg xmlns="http://www.w3.org/2000/svg" viewBox="0 0 7.08 7.2"><defs><style>.cls-1{fill:none;stroke:#b4b4b4;stroke-linecap:round;stroke-linejoin:round;stroke-width:0.1px;}</style></defs><title>11</title><g id="Layer_2" data-name="Layer 2"><g id="Make2D::Visible::Curves"><line class="cls-1" x1="1.37" y1="0.05" x2="1.09" y2="0.21"/><line class="cls-1" x1="0.05" y1="1.83" x2="0.05" y2="2.31"/><line class="cls-1" x1="2.04" y1="5.08" x2="2.47" y2="4.83"/><line class="cls-1" x1="2.47" y1="4.83" x2="2.5" y2="0.71"/><line class="cls-1" x1="2.5" y1="0.71" x2="2.22" y2="0.87"/><line class="cls-1" x1="1.18" y1="2.49" x2="1.18" y2="2.98"/><line class="cls-1" x1="0.91" y1="4.42" x2="2.04" y2="5.08"/><line class="cls-1" x1="1.37" y1="0.05" x2="2.5" y2="0.71"/><path class="cls-1" d="M1.09.21A4.29,4.29,0,0,1,.7,1a7.11,7.11,0,0,1-.65.85"/><line class="cls-1" x1="0.05" y1="2.31" x2="0.92" y2="2.82"/><line class="cls-1" x1="0.92" y1="2.82" x2="0.91" y2="4.42"/><line class="cls-1" x1="0.92" y1="2.82" x2="1.18" y2="2.98"/><line class="cls-1" x1="2.06" y1="1.87" x2="2.04" y2="5.08"/><line class="cls-1" x1="1.09" y1="0.21" x2="2.22" y2="0.87"/><line class="cls-1" x1="0.05" y1="1.83" x2="1.18" y2="2.49"/><path class="cls-1" d="M2.22.87a4.29,4.29,0,0,1-.39.77,6.39,6.39,0,0,1-.65.85"/><path class="cls-1" d="M1.18,3c.13-.14.29-.31.46-.53a5.5,5.5,0,0,0,.42-.58"/><line class="cls-1" x1="3.47" y1="6.91" x2="3.82" y2="6.71"/><line class="cls-1" x1="4.89" y1="1.88" x2="4.53" y2="2.08"/><line class="cls-1" x1="3.76" y1="1.22" x2="3.41" y2="1.42"/><line class="cls-1" x1="2.34" y1="6.25" x2="3.47" y2="6.91"/><line class="cls-1" x1="3.76" y1="1.22" x2="4.89" y2="1.88"/><line class="cls-1" x1="3.82" y1="6.71" x2="4.89" y2="1.88"/><line class="cls-1" x1="3.41" y1="1.42" x2="2.34" y2="6.25"/><line class="cls-1" x1="3.41" y1="1.42" x2="4.53" y2="2.08"/><line class="cls-1" x1="4.53" y1="2.08" x2="3.47" y2="6.91"/><line class="cls-1" x1="5.9" y1="2.12" x2="5.62" y2="2.28"/><line class="cls-1" x1="4.58" y1="3.9" x2="4.58" y2="4.39"/><line class="cls-1" x1="6.56" y1="7.15" x2="7" y2="6.91"/><line class="cls-1" x1="7" y1="6.91" x2="7.03" y2="2.79"/><line class="cls-1" x1="7.03" y1="2.79" x2="6.75" y2="2.95"/><line class="cls-1" x1="5.71" y1="4.56" x2="5.71" y2="5.05"/><line class="cls-1" x1="5.44" y1="6.49" x2="6.56" y2="7.15"/><line class="cls-1" x1="5.9" y1="2.12" x2="7.03" y2="2.79"/><path class="cls-1" d="M5.62,2.28a4.29,4.29,0,0,1-.39.77,5.8,5.8,0,0,1-.65.85"/><line class="cls-1" x1="4.58" y1="4.39" x2="5.45" y2="4.9"/><line class="cls-1" x1="5.45" y1="4.9" x2="5.44" y2="6.49"/><line class="cls-1" x1="5.45" y1="4.9" x2="5.71" y2="5.05"/><line class="cls-1" x1="6.59" y1="3.94" x2="6.56" y2="7.15"/><line class="cls-1" x1="5.62" y1="2.28" x2="6.75" y2="2.95"/><line class="cls-1" x1="4.58" y1="3.9" x2="5.71" y2="4.56"/><path class="cls-1" d="M6.75,3a4.1,4.1,0,0,1-.4.77,6.22,6.22,0,0,1-.64.84"/><path class="cls-1" d="M5.71,5.05c.13-.14.29-.31.46-.52a6.78,6.78,0,0,0,.42-.59"/></g></g></svg>