<svg xmlns="http://www.w3.org/2000/svg" viewBox="0 0 7.17 5.26"><defs><style>.cls-1{fill:none;stroke:#b4b4b4;stroke-linecap:round;stroke-linejoin:round;stroke-width:0.1px;}</style></defs><title>eyes</title><g id="Layer_2" data-name="Layer 2"><g id="Make2D::Visible::Curves"><line class="cls-1" x1="4.89" y1="2.2" x2="4.89" y2="2.63"/><line class="cls-1" x1="4.52" y1="2.41" x2="3.03" y2="3.27"/><line class="cls-1" x1="3.03" y1="3.27" x2="3.03" y2="3.7"/><line class="cls-1" x1="3.4" y1="3.92" x2="3.03" y2="4.13"/><line class="cls-1" x1="3.03" y1="4.13" x2="3.03" y2="4.56"/><line class="cls-1" x1="3.03" y1="4.56" x2="3.4" y2="4.35"/><line class="cls-1" x1="3.4" y1="5.21" x2="4.89" y2="4.35"/><line class="cls-1" x1="4.89" y1="4.35" x2="4.89" y2="3.92"/><line class="cls-1" x1="4.89" y1="3.49" x2="5.26" y2="3.27"/><line class="cls-1" x1="5.26" y1="4.13" x2="6.75" y2="3.27"/><line class="cls-1" x1="6.75" y1="3.27" x2="6.75" y2="2.41"/><line class="cls-1" x1="6.75" y1="2.41" x2="7.12" y2="2.2"/><line class="cls-1" x1="7.12" y1="2.2" x2="7.12" y2="1.77"/><line class="cls-1" x1="7.12" y1="1.77" x2="6.75" y2="1.98"/><line class="cls-1" x1="6.75" y1="1.98" x2="6.75" y2="1.55"/><line class="cls-1" x1="5.26" y1="2.41" x2="5.26" y2="2.84"/><line class="cls-1" x1="5.26" y1="2.84" x2="4.89" y2="3.06"/><line class="cls-1" x1="4.89" y1="3.06" x2="4.89" y2="2.63"/><line class="cls-1" x1="3.4" y1="3.49" x2="3.4" y2="3.92"/><line class="cls-1" x1="2.66" y1="3.92" x2="3.03" y2="4.13"/><line class="cls-1" x1="3.03" y1="3.7" x2="3.4" y2="3.92"/><line class="cls-1" x1="2.66" y1="4.35" x2="3.03" y2="4.56"/><line class="cls-1" x1="3.03" y1="4.99" x2="3.4" y2="5.21"/><line class="cls-1" x1="4.89" y1="3.92" x2="5.26" y2="4.13"/><line class="cls-1" x1="6.75" y1="1.55" x2="7.12" y2="1.77"/><line class="cls-1" x1="6.38" y1="1.34" x2="6.75" y2="1.55"/><line class="cls-1" x1="4.89" y1="2.2" x2="5.26" y2="2.41"/><line class="cls-1" x1="4.89" y1="2.63" x2="5.26" y2="2.84"/><line class="cls-1" x1="4.52" y1="2.41" x2="4.89" y2="2.63"/><line class="cls-1" x1="3.03" y1="3.27" x2="3.4" y2="3.49"/><line class="cls-1" x1="4.52" y1="3.27" x2="4.52" y2="4.13"/><line class="cls-1" x1="3.77" y1="3.7" x2="4.14" y2="3.49"/><line class="cls-1" x1="3.77" y1="4.56" x2="3.77" y2="4.13"/><line class="cls-1" x1="5.63" y1="3.49" x2="5.63" y2="3.06"/><line class="cls-1" x1="4.14" y1="1.34" x2="4.14" y2="0.91"/><line class="cls-1" x1="4.14" y1="0.48" x2="3.77" y2="0.26"/><line class="cls-1" x1="3.77" y1="1.12" x2="3.77" y2="0.26"/><line class="cls-1" x1="4.14" y1="1.34" x2="3.77" y2="1.12"/><line class="cls-1" x1="4.52" y1="0.26" x2="4.14" y2="0.05"/><line class="cls-1" x1="3.77" y1="0.26" x2="4.14" y2="0.05"/><line class="cls-1" x1="4.52" y1="1.12" x2="4.14" y2="1.34"/><line class="cls-1" x1="0.79" y1="3.27" x2="0.42" y2="3.49"/><line class="cls-1" x1="0.42" y1="3.49" x2="0.05" y2="3.27"/><line class="cls-1" x1="0.42" y1="3.49" x2="0.42" y2="3.06"/><line class="cls-1" x1="0.42" y1="2.63" x2="0.05" y2="2.41"/><line class="cls-1" x1="0.05" y1="3.27" x2="0.05" y2="2.41"/><line class="cls-1" x1="0.79" y1="2.41" x2="0.42" y2="2.2"/><line class="cls-1" x1="0.05" y1="2.41" x2="0.42" y2="2.2"/><line class="cls-1" x1="2.66" y1="4.35" x2="0.79" y2="3.27"/><line class="cls-1" x1="3.03" y1="3.7" x2="0.79" y2="2.41"/><line class="cls-1" x1="3.03" y1="4.56" x2="3.03" y2="4.99"/><line class="cls-1" x1="5.63" y1="1.77" x2="4.89" y2="2.2"/><line class="cls-1" x1="4.89" y1="3.92" x2="4.89" y2="3.49"/><line class="cls-1" x1="4.52" y1="1.12" x2="4.14" y2="0.91"/><line class="cls-1" x1="5.63" y1="1.77" x2="4.52" y2="1.12"/><line class="cls-1" x1="6.38" y1="1.34" x2="4.52" y2="0.26"/><line class="cls-1" x1="0.79" y1="3.27" x2="0.42" y2="3.06"/><line class="cls-1" x1="3.4" y1="4.35" x2="3.4" y2="5.21"/><line class="cls-1" x1="5.26" y1="3.27" x2="5.26" y2="4.13"/><line class="cls-1" x1="6.75" y1="1.55" x2="5.26" y2="2.41"/><line class="cls-1" x1="4.89" y1="2.63" x2="3.4" y2="3.49"/><line class="cls-1" x1="6.01" y1="1.55" x2="4.14" y2="0.48"/><line class="cls-1" x1="2.66" y1="3.92" x2="0.42" y2="2.63"/><line class="cls-1" x1="4.14" y1="3.49" x2="4.52" y2="3.27"/><line class="cls-1" x1="6.38" y1="3.06" x2="6.38" y2="2.2"/><line class="cls-1" x1="6.01" y1="2.41" x2="6.38" y2="2.2"/><line class="cls-1" x1="5.63" y1="2.63" x2="6.01" y2="2.41"/><line class="cls-1" x1="3.77" y1="4.13" x2="3.77" y2="3.7"/><line class="cls-1" x1="5.63" y1="3.06" x2="5.63" y2="2.63"/><line class="cls-1" x1="6.38" y1="1.34" x2="5.63" y2="1.77"/><line class="cls-1" x1="4.52" y1="4.13" x2="3.77" y2="4.56"/><line class="cls-1" x1="6.38" y1="3.06" x2="5.63" y2="3.49"/><line class="cls-1" x1="4.14" y1="4.35" x2="4.14" y2="3.49"/><line class="cls-1" x1="6.01" y1="3.27" x2="6.01" y2="2.41"/></g></g></svg>