<svg xmlns="http://www.w3.org/2000/svg" viewBox="0 0 4.66 6.65"><defs><style>.cls-1{fill:none;stroke:#b4b4b4;stroke-linecap:round;stroke-linejoin:round;stroke-width:0.12px;}</style></defs><title>FacialHair</title><g id="Layer_2" data-name="Layer 2"><g id="Make2D::Visible::Curves"><line class="cls-1" x1="1.55" y1="5.95" x2="1.25" y2="6.12"/><line class="cls-1" x1="1.18" y1="5.69" x2="1.18" y2="4.4"/><line class="cls-1" x1="1.18" y1="6.12" x2="1.18" y2="5.69"/><line class="cls-1" x1="1.21" y1="5.67" x2="1.21" y2="4.38"/><line class="cls-1" x1="1.21" y1="6.1" x2="1.21" y2="5.67"/><line class="cls-1" x1="0.47" y1="5.67" x2="0.1" y2="5.45"/><line class="cls-1" x1="1.21" y1="6.1" x2="0.47" y2="5.67"/><line class="cls-1" x1="3.82" y1="3.73" x2="3.45" y2="3.52"/><line class="cls-1" x1="3.82" y1="3.73" x2="3.82" y2="3.73"/><line class="cls-1" x1="3.45" y1="3.09" x2="3.45" y2="3.52"/><line class="cls-1" x1="3.45" y1="1.8" x2="3.45" y2="3.09"/><line class="cls-1" x1="3.45" y1="1.37" x2="3.45" y2="1.8"/><line class="cls-1" x1="3.45" y1="0.08" x2="3.45" y2="1.37"/><line class="cls-1" x1="0.06" y1="5.05" x2="0.06" y2="5.48"/><line class="cls-1" x1="0.06" y1="2.04" x2="0.06" y2="5.05"/><line class="cls-1" x1="1.92" y1="6.12" x2="1.92" y2="4.4"/><line class="cls-1" x1="1.92" y1="4.4" x2="1.55" y2="4.19"/><line class="cls-1" x1="1.92" y1="6.16" x2="1.55" y2="5.95"/><line class="cls-1" x1="2.29" y1="6.38" x2="1.92" y2="6.16"/><line class="cls-1" x1="4.23" y1="2.64" x2="4.6" y2="2.85"/><line class="cls-1" x1="1.96" y1="4.38" x2="1.59" y2="4.16"/><line class="cls-1" x1="4.19" y1="2.66" x2="4.56" y2="2.88"/><line class="cls-1" x1="3.82" y1="4.59" x2="3.07" y2="5.02"/><line class="cls-1" x1="3.07" y1="4.64" x2="3.86" y2="4.19"/><line class="cls-1" x1="2.74" y1="5.22" x2="2.74" y2="4.83"/><line class="cls-1" x1="3.86" y1="4.62" x2="2.74" y2="5.26"/><line class="cls-1" x1="2.37" y1="6.33" x2="2.33" y2="6.31"/><line class="cls-1" x1="3.07" y1="4.16" x2="4.56" y2="3.3"/><line class="cls-1" x1="1.96" y1="4.81" x2="3.07" y2="4.16"/><line class="cls-1" x1="2.37" y1="5.9" x2="2" y2="6.12"/><line class="cls-1" x1="4.6" y1="3.33" x2="4.6" y2="4.62"/><line class="cls-1" x1="2" y1="4.83" x2="4.6" y2="3.33"/><line class="cls-1" x1="1.25" y1="6.12" x2="1.25" y2="4.4"/><line class="cls-1" x1="1.21" y1="4.38" x2="1.59" y2="4.16"/><line class="cls-1" x1="4.27" y1="2.66" x2="4.6" y2="2.47"/><line class="cls-1" x1="1.62" y1="6.33" x2="1.62" y2="5.99"/><line class="cls-1" x1="4.56" y1="2.45" x2="4.56" y2="2.88"/><line class="cls-1" x1="1.92" y1="6.55" x2="1.92" y2="6.16"/><line class="cls-1" x1="0.43" y1="2.25" x2="0.06" y2="2.04"/><line class="cls-1" x1="1.55" y1="6.33" x2="1.55" y2="5.95"/><line class="cls-1" x1="4.23" y1="2.64" x2="4.56" y2="2.45"/><line class="cls-1" x1="3.07" y1="5.02" x2="2.74" y2="5.22"/><line class="cls-1" x1="3.45" y1="4.81" x2="3.11" y2="4.62"/><line class="cls-1" x1="3.82" y1="4.59" x2="3.48" y2="4.4"/><line class="cls-1" x1="3.45" y1="3.95" x2="3.07" y2="3.73"/><line class="cls-1" x1="1.25" y1="6.12" x2="1.21" y2="6.14"/><line class="cls-1" x1="1.62" y1="6.33" x2="1.59" y2="6.36"/><line class="cls-1" x1="2.74" y1="4.83" x2="3.07" y2="4.64"/><line class="cls-1" x1="2" y1="6.12" x2="2" y2="4.83"/><line class="cls-1" x1="2.37" y1="6.33" x2="2.37" y2="5.9"/><line class="cls-1" x1="4.23" y1="5.26" x2="3.86" y2="5.48"/><line class="cls-1" x1="1.25" y1="4.4" x2="1.59" y2="4.21"/><line class="cls-1" x1="4.19" y1="2.66" x2="4.23" y2="2.64"/><line class="cls-1" x1="2" y1="6.12" x2="1.96" y2="6.14"/><line class="cls-1" x1="2.37" y1="6.33" x2="2.33" y2="6.36"/><line class="cls-1" x1="4.56" y1="3.31" x2="4.56" y2="2.88"/><line class="cls-1" x1="1.92" y1="6.16" x2="1.62" y2="6.33"/><line class="cls-1" x1="1.96" y1="5.67" x2="1.96" y2="4.81"/><line class="cls-1" x1="2.29" y1="6.33" x2="2.29" y2="5.95"/><line class="cls-1" x1="1.92" y1="4.4" x2="1.96" y2="4.38"/><line class="cls-1" x1="2.33" y1="6.31" x2="2.33" y2="5.93"/><line class="cls-1" x1="4.56" y1="2.88" x2="4.6" y2="2.85"/><line class="cls-1" x1="1.92" y1="6.16" x2="1.92" y2="6.12"/><line class="cls-1" x1="1.96" y1="6.14" x2="1.92" y2="6.16"/><line class="cls-1" x1="2.29" y1="6.38" x2="2.29" y2="6.33"/><line class="cls-1" x1="2.33" y1="6.36" x2="2.29" y2="6.38"/><line class="cls-1" x1="4.6" y1="2.85" x2="4.6" y2="3.33"/><line class="cls-1" x1="1.96" y1="4.38" x2="1.96" y2="4.81"/><line class="cls-1" x1="1.96" y1="5.71" x2="1.96" y2="5.67"/><line class="cls-1" x1="3.86" y1="5.48" x2="2.37" y2="6.33"/><line class="cls-1" x1="4.19" y1="3.52" x2="4.19" y2="2.66"/><line class="cls-1" x1="3.82" y1="4.21" x2="3.82" y2="4.59"/><line class="cls-1" x1="3.86" y1="4.19" x2="3.86" y2="4.62"/><line class="cls-1" x1="2.74" y1="5.26" x2="2.74" y2="5.22"/><line class="cls-1" x1="3.86" y1="4.62" x2="3.82" y2="4.59"/><line class="cls-1" x1="2" y1="6.12" x2="1.96" y2="6.1"/><line class="cls-1" x1="2" y1="4.83" x2="1.96" y2="4.81"/><line class="cls-1" x1="4.6" y1="3.33" x2="4.56" y2="3.3"/><line class="cls-1" x1="1.96" y1="6.1" x2="1.96" y2="5.71"/><line class="cls-1" x1="4.23" y1="4.83" x2="4.23" y2="5.26"/><line class="cls-1" x1="4.6" y1="4.62" x2="4.23" y2="4.83"/><line class="cls-1" x1="2" y1="6.55" x2="2" y2="6.21"/><line class="cls-1" x1="1.96" y1="6.57" x2="1.92" y2="6.55"/><line class="cls-1" x1="2" y1="6.59" x2="1.96" y2="6.57"/><line class="cls-1" x1="2" y1="6.59" x2="2" y2="6.55"/><line class="cls-1" x1="3.48" y1="5.73" x2="2" y2="6.59"/><line class="cls-1" x1="3.86" y1="5.52" x2="3.48" y2="5.73"/><line class="cls-1" x1="3.86" y1="5.48" x2="3.86" y2="5.52"/><line class="cls-1" x1="1.21" y1="4.38" x2="1.25" y2="4.4"/><line class="cls-1" x1="1.21" y1="6.1" x2="1.25" y2="6.12"/><line class="cls-1" x1="4.56" y1="2.45" x2="4.6" y2="2.47"/><line class="cls-1" x1="4.6" y1="2.47" x2="4.6" y2="2.85"/><line class="cls-1" x1="1.59" y1="6.31" x2="1.62" y2="6.33"/><line class="cls-1" x1="1.59" y1="6.31" x2="1.59" y2="5.97"/><line class="cls-1" x1="3.45" y1="0.08" x2="3.82" y2="0.3"/><line class="cls-1" x1="3.86" y1="1.99" x2="3.82" y2="2.02"/><line class="cls-1" x1="4.56" y1="2.45" x2="4.6" y2="2.42"/><line class="cls-1" x1="3.82" y1="0.3" x2="3.86" y2="0.27"/><line class="cls-1" x1="3.45" y1="0.08" x2="3.48" y2="0.06"/><line class="cls-1" x1="3.11" y1="3.71" x2="3.45" y2="3.52"/><line class="cls-1" x1="3.07" y1="4.16" x2="3.07" y2="3.78"/><line class="cls-1" x1="3.07" y1="5.02" x2="3.07" y2="4.64"/><line class="cls-1" x1="3.86" y1="0.27" x2="3.86" y2="1.99"/><line class="cls-1" x1="3.48" y1="0.06" x2="3.86" y2="0.27"/><line class="cls-1" x1="4.6" y1="2.42" x2="4.6" y2="2.47"/><line class="cls-1" x1="3.86" y1="1.99" x2="4.6" y2="2.42"/><line class="cls-1" x1="3.11" y1="3.71" x2="3.07" y2="3.73"/><line class="cls-1" x1="3.07" y1="3.73" x2="3.07" y2="3.78"/><line class="cls-1" x1="3.82" y1="0.3" x2="3.82" y2="2.02"/><line class="cls-1" x1="3.82" y1="2.02" x2="4.56" y2="2.45"/><line class="cls-1" x1="1.18" y1="6.16" x2="0.06" y2="5.52"/><line class="cls-1" x1="1.59" y1="6.36" x2="1.92" y2="6.55"/><line class="cls-1" x1="0.1" y1="2.02" x2="0.06" y2="2.04"/><line class="cls-1" x1="0.47" y1="2.23" x2="0.43" y2="2.25"/><line class="cls-1" x1="0.47" y1="3.95" x2="0.43" y2="3.97"/><line class="cls-1" x1="1.21" y1="4.38" x2="1.18" y2="4.4"/><line class="cls-1" x1="1.92" y1="6.55" x2="1.96" y2="6.53"/><line class="cls-1" x1="1.96" y1="6.53" x2="1.96" y2="6.18"/><line class="cls-1" x1="0.06" y1="5.48" x2="0.06" y2="5.52"/><line class="cls-1" x1="0.43" y1="3.97" x2="0.43" y2="2.25"/><line class="cls-1" x1="1.18" y1="4.4" x2="0.43" y2="3.97"/><line class="cls-1" x1="1.18" y1="6.16" x2="1.18" y2="6.12"/><line class="cls-1" x1="1.21" y1="6.14" x2="1.18" y2="6.16"/><line class="cls-1" x1="1.55" y1="6.38" x2="1.55" y2="6.33"/><line class="cls-1" x1="1.55" y1="6.38" x2="1.18" y2="6.16"/><line class="cls-1" x1="1.59" y1="6.36" x2="1.55" y2="6.38"/><line class="cls-1" x1="0.47" y1="2.23" x2="0.1" y2="2.02"/><line class="cls-1" x1="0.47" y1="3.95" x2="0.47" y2="2.23"/><line class="cls-1" x1="1.21" y1="4.38" x2="0.47" y2="3.95"/></g></g></svg>