<svg xmlns="http://www.w3.org/2000/svg" viewBox="0 0 6.82 11.51"><defs><style>.cls-1{fill:none;stroke:#b4b4b4;stroke-linecap:round;stroke-linejoin:round;stroke-width:0.12px;}</style></defs><title>hair</title><g id="Layer_2" data-name="Layer 2"><g id="Make2D::Visible::Curves"><line class="cls-1" x1="3.41" y1="5.65" x2="3.41" y2="4.79"/><line class="cls-1" x1="0.06" y1="3.71" x2="0.06" y2="2.85"/><line class="cls-1" x1="0.06" y1="2.85" x2="0.43" y2="3.07"/><line class="cls-1" x1="0.43" y1="3.07" x2="0.43" y2="2.64"/><line class="cls-1" x1="0.43" y1="2.64" x2="0.43" y2="2.21"/><line class="cls-1" x1="0.43" y1="2.64" x2="0.06" y2="2.85"/><line class="cls-1" x1="0.8" y1="2.42" x2="0.43" y2="2.21"/><line class="cls-1" x1="0.43" y1="2.64" x2="0.8" y2="2.42"/><line class="cls-1" x1="6.76" y1="2.85" x2="6.39" y2="2.64"/><line class="cls-1" x1="6.39" y1="2.64" x2="6.39" y2="2.21"/><line class="cls-1" x1="6.02" y1="2.42" x2="6.39" y2="2.64"/><line class="cls-1" x1="6.39" y1="2.21" x2="6.02" y2="2.42"/><line class="cls-1" x1="3.41" y1="4.36" x2="3.04" y2="4.57"/><line class="cls-1" x1="3.41" y1="4.36" x2="3.41" y2="3.93"/><line class="cls-1" x1="3.04" y1="4.57" x2="3.04" y2="4.14"/><line class="cls-1" x1="3.04" y1="4.57" x2="3.41" y2="4.79"/><line class="cls-1" x1="3.41" y1="3.93" x2="3.04" y2="4.14"/><line class="cls-1" x1="5.65" y1="3.49" x2="5.27" y2="3.28"/><line class="cls-1" x1="5.27" y1="3.28" x2="5.27" y2="3.28"/><line class="cls-1" x1="5.27" y1="3.71" x2="5.27" y2="3.28"/><line class="cls-1" x1="5.27" y1="2.85" x2="5.65" y2="3.07"/><line class="cls-1" x1="3.41" y1="0.92" x2="3.78" y2="0.7"/><line class="cls-1" x1="3.04" y1="0.7" x2="3.41" y2="0.92"/><line class="cls-1" x1="3.04" y1="0.7" x2="2.67" y2="0.92"/><line class="cls-1" x1="1.92" y1="2.21" x2="1.92" y2="1.78"/><line class="cls-1" x1="1.92" y1="1.78" x2="1.92" y2="1.35"/><line class="cls-1" x1="2.29" y1="1.56" x2="1.92" y2="1.35"/><line class="cls-1" x1="1.92" y1="1.78" x2="2.29" y2="1.56"/><line class="cls-1" x1="4.9" y1="2.21" x2="4.9" y2="1.78"/><line class="cls-1" x1="4.9" y1="1.78" x2="4.9" y2="1.35"/><line class="cls-1" x1="4.53" y1="1.56" x2="4.9" y2="1.78"/><line class="cls-1" x1="4.9" y1="1.35" x2="4.53" y2="1.56"/><line class="cls-1" x1="3.41" y1="2.64" x2="3.41" y2="2.21"/><line class="cls-1" x1="3.04" y1="2.85" x2="3.04" y2="2.42"/><line class="cls-1" x1="3.41" y1="2.64" x2="3.04" y2="2.85"/><line class="cls-1" x1="3.41" y1="2.21" x2="3.04" y2="2.42"/><line class="cls-1" x1="3.78" y1="2.42" x2="3.41" y2="2.21"/><line class="cls-1" x1="1.18" y1="2.64" x2="1.18" y2="2.21"/><line class="cls-1" x1="1.18" y1="2.21" x2="1.18" y2="1.78"/><line class="cls-1" x1="1.55" y1="1.99" x2="1.18" y2="1.78"/><line class="cls-1" x1="1.18" y1="2.21" x2="1.55" y2="1.99"/><line class="cls-1" x1="5.64" y1="2.64" x2="5.64" y2="2.21"/><line class="cls-1" x1="5.64" y1="2.21" x2="5.64" y2="1.78"/><line class="cls-1" x1="5.27" y1="1.99" x2="5.64" y2="2.21"/><line class="cls-1" x1="5.64" y1="1.78" x2="5.27" y2="1.99"/><line class="cls-1" x1="5.64" y1="1.78" x2="4.9" y2="1.35"/><line class="cls-1" x1="3.41" y1="3.5" x2="3.41" y2="3.07"/><line class="cls-1" x1="3.78" y1="3.71" x2="3.78" y2="3.28"/><line class="cls-1" x1="3.04" y1="3.71" x2="3.04" y2="3.28"/><line class="cls-1" x1="3.41" y1="3.07" x2="3.04" y2="3.28"/><line class="cls-1" x1="3.41" y1="3.5" x2="3.04" y2="3.71"/><line class="cls-1" x1="5.27" y1="2.85" x2="5.64" y2="2.64"/><line class="cls-1" x1="4.15" y1="5.65" x2="4.53" y2="5.43"/><line class="cls-1" x1="4.9" y1="4.79" x2="4.9" y2="4.36"/><line class="cls-1" x1="4.53" y1="5" x2="4.53" y2="4.57"/><line class="cls-1" x1="4.9" y1="5.22" x2="5.27" y2="5"/><line class="cls-1" x1="5.64" y1="4.79" x2="5.64" y2="4.36"/><line class="cls-1" x1="5.64" y1="4.36" x2="5.64" y2="3.93"/><line class="cls-1" x1="5.27" y1="4.57" x2="5.27" y2="4.14"/><line class="cls-1" x1="5.64" y1="4.79" x2="5.46" y2="4.68"/><line class="cls-1" x1="6.39" y1="3.06" x2="6.39" y2="2.64"/><line class="cls-1" x1="3.78" y1="4.57" x2="3.78" y2="4.14"/><line class="cls-1" x1="0.43" y1="5.65" x2="0.43" y2="5.22"/><line class="cls-1" x1="0.06" y1="5.43" x2="0.43" y2="5.65"/><line class="cls-1" x1="0.43" y1="5.22" x2="0.06" y2="5.43"/><line class="cls-1" x1="0.43" y1="5.22" x2="0.8" y2="5"/><line class="cls-1" x1="0.8" y1="5" x2="1.18" y2="5.22"/><line class="cls-1" x1="1.18" y1="5.65" x2="0.8" y2="5.86"/><line class="cls-1" x1="1.55" y1="5.86" x2="1.18" y2="5.65"/><line class="cls-1" x1="1.18" y1="5.65" x2="1.18" y2="5.22"/><line class="cls-1" x1="1.18" y1="6.08" x2="1.55" y2="5.86"/><line class="cls-1" x1="1.18" y1="5.22" x2="0.8" y2="5.43"/><line class="cls-1" x1="0.8" y1="5.86" x2="0.8" y2="5.43"/><line class="cls-1" x1="0.8" y1="5.86" x2="1.18" y2="6.08"/><line class="cls-1" x1="0.8" y1="5.43" x2="0.43" y2="5.22"/><line class="cls-1" x1="1.55" y1="5.86" x2="1.55" y2="8.01"/><line class="cls-1" x1="1.18" y1="8.23" x2="0.8" y2="8.44"/><line class="cls-1" x1="0.8" y1="8.44" x2="0.8" y2="8.01"/><line class="cls-1" x1="0.8" y1="8.01" x2="1.18" y2="8.23"/><line class="cls-1" x1="0.8" y1="8.44" x2="0.43" y2="8.23"/><line class="cls-1" x1="0.43" y1="8.23" x2="0.43" y2="7.8"/><line class="cls-1" x1="0.06" y1="7.58" x2="0.43" y2="7.8"/><line class="cls-1" x1="1.92" y1="5.22" x2="1.55" y2="5.43"/><line class="cls-1" x1="1.55" y1="5.43" x2="1.55" y2="5"/><line class="cls-1" x1="1.55" y1="5.43" x2="1.92" y2="5.65"/><line class="cls-1" x1="2.29" y1="5.43" x2="1.92" y2="5.22"/><line class="cls-1" x1="1.92" y1="5.22" x2="1.92" y2="4.79"/><line class="cls-1" x1="1.92" y1="5.65" x2="2.29" y2="5.43"/><line class="cls-1" x1="0.43" y1="4.79" x2="0.43" y2="4.36"/><line class="cls-1" x1="0.06" y1="4.57" x2="0.43" y2="4.79"/><line class="cls-1" x1="0.43" y1="4.36" x2="0.06" y2="4.57"/><line class="cls-1" x1="0.43" y1="4.36" x2="0.8" y2="4.14"/><line class="cls-1" x1="0.06" y1="4.57" x2="0.06" y2="5.43"/><line class="cls-1" x1="1.92" y1="8.66" x2="2.29" y2="8.44"/><line class="cls-1" x1="1.55" y1="8.87" x2="1.55" y2="8.44"/><line class="cls-1" x1="2.67" y1="6.94" x2="3.04" y2="6.72"/><line class="cls-1" x1="3.04" y1="6.72" x2="3.04" y2="5.43"/><line class="cls-1" x1="0.43" y1="3.5" x2="0.06" y2="3.71"/><line class="cls-1" x1="0.43" y1="3.93" x2="0.43" y2="3.5"/><line class="cls-1" x1="0.06" y1="3.71" x2="0.43" y2="3.93"/><line class="cls-1" x1="0.43" y1="3.5" x2="0.8" y2="3.28"/><line class="cls-1" x1="2.67" y1="4.79" x2="2.29" y2="5"/><line class="cls-1" x1="2.67" y1="5.22" x2="3.04" y2="5"/><line class="cls-1" x1="2.29" y1="5" x2="2.29" y2="4.57"/><line class="cls-1" x1="2.29" y1="5" x2="2.67" y2="5.22"/><line class="cls-1" x1="2.67" y1="4.36" x2="2.29" y2="4.57"/><line class="cls-1" x1="2.29" y1="6.72" x2="2.29" y2="8.44"/><line class="cls-1" x1="2.29" y1="6.72" x2="2.67" y2="6.94"/><line class="cls-1" x1="2.67" y1="4.79" x2="2.67" y2="4.36"/><line class="cls-1" x1="3.04" y1="5" x2="2.67" y2="4.79"/><line class="cls-1" x1="3.04" y1="5.43" x2="3.04" y2="5"/><line class="cls-1" x1="3.04" y1="5.43" x2="3.41" y2="5.65"/><line class="cls-1" x1="6.02" y1="6.29" x2="6.39" y2="6.08"/><line class="cls-1" x1="6.02" y1="6.29" x2="6.02" y2="5.86"/><line class="cls-1" x1="6.39" y1="6.08" x2="6.02" y2="5.86"/><line class="cls-1" x1="6.76" y1="5.86" x2="6.39" y2="6.08"/><line class="cls-1" x1="4.9" y1="5.65" x2="6.02" y2="6.29"/><line class="cls-1" x1="6.76" y1="4.57" x2="6.39" y2="4.79"/><line class="cls-1" x1="6.39" y1="4.79" x2="6.39" y2="4.36"/><line class="cls-1" x1="6.76" y1="4.57" x2="6.76" y2="4.14"/><line class="cls-1" x1="6.39" y1="4.79" x2="6.02" y2="4.57"/><line class="cls-1" x1="0.8" y1="11.45" x2="0.43" y2="11.23"/><line class="cls-1" x1="4.15" y1="9.52" x2="3.41" y2="9.94"/><line class="cls-1" x1="0.43" y1="11.23" x2="0.43" y2="10.8"/><line class="cls-1" x1="0.06" y1="10.59" x2="0.43" y2="10.8"/><line class="cls-1" x1="3.04" y1="10.16" x2="3.04" y2="9.73"/><line class="cls-1" x1="3.41" y1="9.94" x2="3.04" y2="9.73"/><line class="cls-1" x1="3.04" y1="10.16" x2="1.92" y2="10.8"/><line class="cls-1" x1="1.55" y1="11.02" x2="1.55" y2="10.59"/><line class="cls-1" x1="1.92" y1="10.8" x2="1.55" y2="10.59"/><line class="cls-1" x1="1.55" y1="11.02" x2="0.8" y2="11.45"/><line class="cls-1" x1="0.43" y1="2.64" x2="0.06" y2="2.42"/><line class="cls-1" x1="0.06" y1="2.42" x2="0.06" y2="2.85"/><line class="cls-1" x1="0.06" y1="2.42" x2="0.43" y2="2.21"/><line class="cls-1" x1="1.18" y1="10.8" x2="0.8" y2="10.59"/><line class="cls-1" x1="4.53" y1="8.87" x2="4.15" y2="9.09"/><line class="cls-1" x1="6.76" y1="3.28" x2="6.76" y2="2.85"/><line class="cls-1" x1="1.18" y1="1.78" x2="0.43" y2="2.21"/><line class="cls-1" x1="6.39" y1="3.07" x2="6.76" y2="2.85"/><line class="cls-1" x1="0.06" y1="4.57" x2="0.06" y2="3.71"/><line class="cls-1" x1="6.76" y1="4.57" x2="6.76" y2="5.86"/><line class="cls-1" x1="0.06" y1="7.58" x2="0.06" y2="10.59"/><line class="cls-1" x1="4.15" y1="9.09" x2="4.14" y2="9.09"/><line class="cls-1" x1="4.15" y1="9.09" x2="4.15" y2="9.52"/><line class="cls-1" x1="0.43" y1="2.64" x2="3.04" y2="4.14"/><line class="cls-1" x1="6.39" y1="2.21" x2="5.64" y2="1.78"/><line class="cls-1" x1="3.78" y1="4.57" x2="3.41" y2="4.36"/><line class="cls-1" x1="3.41" y1="4.79" x2="3.78" y2="4.57"/><line class="cls-1" x1="3.78" y1="4.14" x2="3.41" y2="3.93"/><line class="cls-1" x1="3.78" y1="4.14" x2="5.27" y2="3.28"/><line class="cls-1" x1="5.27" y1="3.28" x2="5.27" y2="2.85"/><line class="cls-1" x1="5.65" y1="3.49" x2="5.65" y2="3.07"/><line class="cls-1" x1="5.65" y1="3.07" x2="6.39" y2="2.64"/><line class="cls-1" x1="1.92" y1="2.21" x2="3.04" y2="2.85"/><line class="cls-1" x1="1.92" y1="1.78" x2="3.04" y2="2.42"/><line class="cls-1" x1="4.9" y1="1.35" x2="3.78" y2="0.7"/><line class="cls-1" x1="3.78" y1="2.85" x2="3.78" y2="2.42"/><line class="cls-1" x1="3.78" y1="2.85" x2="3.41" y2="2.64"/><line class="cls-1" x1="3.78" y1="2.85" x2="4.9" y2="2.21"/><line class="cls-1" x1="3.78" y1="2.42" x2="4.9" y2="1.78"/><line class="cls-1" x1="1.18" y1="2.21" x2="3.04" y2="3.28"/><line class="cls-1" x1="3.78" y1="3.28" x2="3.41" y2="3.07"/><line class="cls-1" x1="3.78" y1="3.28" x2="5.64" y2="2.21"/><line class="cls-1" x1="1.18" y1="2.64" x2="3.04" y2="3.71"/><line class="cls-1" x1="3.78" y1="3.71" x2="3.41" y2="3.5"/><line class="cls-1" x1="3.78" y1="3.71" x2="4.9" y2="3.07"/><line class="cls-1" x1="6.76" y1="4.14" x2="6.76" y2="3.28"/><line class="cls-1" x1="3.78" y1="4.57" x2="4.15" y2="4.78"/><line class="cls-1" x1="6.39" y1="3.06" x2="5.65" y2="3.49"/><line class="cls-1" x1="5.27" y1="3.71" x2="5.27" y2="3.71"/><line class="cls-1" x1="0.06" y1="5.43" x2="0.06" y2="7.58"/><line class="cls-1" x1="1.18" y1="8.23" x2="1.55" y2="8.01"/><line class="cls-1" x1="1.92" y1="4.79" x2="1.55" y2="5"/><line class="cls-1" x1="1.55" y1="5" x2="0.43" y2="4.36"/><line class="cls-1" x1="1.92" y1="5.65" x2="1.92" y2="8.66"/><line class="cls-1" x1="2.29" y1="5.43" x2="2.29" y2="6.72"/><line class="cls-1" x1="0.8" y1="4.14" x2="1.92" y2="4.79"/><line class="cls-1" x1="1.55" y1="8.44" x2="1.92" y2="8.66"/><line class="cls-1" x1="2.67" y1="6.94" x2="2.67" y2="5.22"/><line class="cls-1" x1="0.43" y1="3.5" x2="2.29" y2="4.57"/><line class="cls-1" x1="2.67" y1="4.36" x2="0.8" y2="3.28"/><line class="cls-1" x1="6.39" y1="4.79" x2="6.39" y2="6.08"/><line class="cls-1" x1="3.41" y1="9.94" x2="3.41" y2="5.65"/><line class="cls-1" x1="3.04" y1="9.73" x2="3.04" y2="6.72"/><line class="cls-1" x1="1.92" y1="10.8" x2="1.92" y2="8.66"/><line class="cls-1" x1="1.56" y1="8.86" x2="1.56" y2="10.58"/><line class="cls-1" x1="0.8" y1="10.59" x2="0.8" y2="11.45"/><line class="cls-1" x1="4.14" y1="5.64" x2="4.14" y2="9.09"/><line class="cls-1" x1="4.14" y1="9.09" x2="3.77" y2="8.88"/><line class="cls-1" x1="3.77" y1="5.44" x2="3.77" y2="8.88"/><line class="cls-1" x1="0.8" y1="9.3" x2="0.43" y2="9.09"/><line class="cls-1" x1="1.18" y1="9.09" x2="0.8" y2="9.3"/><line class="cls-1" x1="1.55" y1="0.7" x2="1.55" y2="0.27"/><line class="cls-1" x1="1.18" y1="0.49" x2="1.55" y2="0.27"/><line class="cls-1" x1="1.18" y1="0.92" x2="1.18" y2="0.49"/><line class="cls-1" x1="1.55" y1="0.27" x2="1.18" y2="0.06"/><line class="cls-1" x1="0.8" y1="0.7" x2="0.8" y2="0.27"/><line class="cls-1" x1="1.18" y1="0.06" x2="0.8" y2="0.27"/><line class="cls-1" x1="0.8" y1="0.7" x2="1.18" y2="0.92"/><line class="cls-1" x1="0.8" y1="0.27" x2="1.18" y2="0.49"/><line class="cls-1" x1="2.67" y1="0.49" x2="2.29" y2="0.27"/><line class="cls-1" x1="2.67" y1="0.92" x2="2.67" y2="0.49"/><line class="cls-1" x1="1.92" y1="0.92" x2="1.92" y2="0.49"/><line class="cls-1" x1="2.29" y1="0.27" x2="1.92" y2="0.49"/><line class="cls-1" x1="1.92" y1="0.92" x2="2.29" y2="1.13"/><line class="cls-1" x1="2.29" y1="1.13" x2="2.29" y2="0.7"/><line class="cls-1" x1="1.92" y1="0.49" x2="2.29" y2="0.7"/><line class="cls-1" x1="2.29" y1="0.7" x2="2.67" y2="0.49"/><line class="cls-1" x1="3.78" y1="5.43" x2="3.78" y2="5"/><line class="cls-1" x1="3.78" y1="5.43" x2="4.14" y2="5.64"/><line class="cls-1" x1="3.78" y1="5" x2="4.15" y2="5.22"/><line class="cls-1" x1="4.9" y1="5.22" x2="4.9" y2="4.79"/><line class="cls-1" x1="0.8" y1="1.13" x2="0.8" y2="0.7"/><line class="cls-1" x1="0.43" y1="0.92" x2="0.43" y2="0.49"/><line class="cls-1" x1="0.8" y1="0.27" x2="0.43" y2="0.49"/><line class="cls-1" x1="0.43" y1="0.92" x2="0.8" y2="1.13"/><line class="cls-1" x1="0.43" y1="0.49" x2="0.8" y2="0.7"/><line class="cls-1" x1="5.46" y1="4.68" x2="5.46" y2="4.04"/><line class="cls-1" x1="5.46" y1="3.81" x2="5.27" y2="3.71"/><line class="cls-1" x1="5.27" y1="3.71" x2="4.9" y2="3.92"/><line class="cls-1" x1="1.92" y1="1.35" x2="1.92" y2="0.92"/><line class="cls-1" x1="1.55" y1="1.13" x2="1.92" y2="0.92"/><line class="cls-1" x1="1.55" y1="1.56" x2="1.55" y2="1.13"/><line class="cls-1" x1="1.92" y1="0.92" x2="1.55" y2="0.7"/><line class="cls-1" x1="1.18" y1="1.35" x2="1.18" y2="0.92"/><line class="cls-1" x1="1.55" y1="0.7" x2="1.18" y2="0.92"/><line class="cls-1" x1="1.18" y1="1.35" x2="1.55" y2="1.56"/><line class="cls-1" x1="1.18" y1="0.92" x2="1.55" y2="1.13"/><line class="cls-1" x1="4.9" y1="6.94" x2="4.53" y2="7.15"/><line class="cls-1" x1="4.53" y1="5.22" x2="4.71" y2="5.11"/><line class="cls-1" x1="1.18" y1="1.78" x2="1.18" y2="1.35"/><line class="cls-1" x1="0.8" y1="1.56" x2="0.8" y2="1.13"/><line class="cls-1" x1="1.18" y1="0.92" x2="0.8" y2="1.13"/><line class="cls-1" x1="0.8" y1="1.56" x2="1.18" y2="1.78"/><line class="cls-1" x1="0.8" y1="1.13" x2="1.18" y2="1.35"/><line class="cls-1" x1="4.71" y1="5.11" x2="4.9" y2="5.22"/><line class="cls-1" x1="4.71" y1="4.68" x2="4.9" y2="4.79"/><line class="cls-1" x1="5.27" y1="4.79" x2="5.46" y2="4.68"/><line class="cls-1" x1="4.53" y1="5.43" x2="4.53" y2="7.15"/><line class="cls-1" x1="4.9" y1="5.22" x2="4.9" y2="5.65"/><line class="cls-1" x1="2.29" y1="1.13" x2="1.92" y2="1.35"/><line class="cls-1" x1="2.67" y1="0.92" x2="2.29" y2="1.13"/><line class="cls-1" x1="3.78" y1="5" x2="3.78" y2="4.57"/><line class="cls-1" x1="4.53" y1="7.15" x2="4.53" y2="8.87"/><line class="cls-1" x1="4.9" y1="3.92" x2="3.78" y2="4.57"/><line class="cls-1" x1="5.64" y1="1.78" x2="6.39" y2="2.21"/><line class="cls-1" x1="1.18" y1="9.09" x2="1.18" y2="10.8"/><line class="cls-1" x1="0.43" y1="8.23" x2="0.43" y2="9.09"/><line class="cls-1" x1="1.18" y1="8.66" x2="1.18" y2="9.09"/><line class="cls-1" x1="0.8" y1="8.44" x2="0.8" y2="9.3"/><line class="cls-1" x1="4.14" y1="5.64" x2="4.15" y2="5.65"/><line class="cls-1" x1="4.9" y1="5.65" x2="4.9" y2="6.94"/><line class="cls-1" x1="3.41" y1="5.65" x2="3.78" y2="5.43"/><line class="cls-1" x1="5.27" y1="3.28" x2="4.9" y2="3.07"/><line class="cls-1" x1="1.92" y1="1.35" x2="1.18" y2="1.78"/><line class="cls-1" x1="4.15" y1="4.78" x2="6.76" y2="3.28"/><line class="cls-1" x1="4.15" y1="5.65" x2="4.15" y2="4.78"/><line class="cls-1" x1="6.76" y1="3.28" x2="6.39" y2="3.06"/><line class="cls-1" x1="4.53" y1="4.57" x2="4.9" y2="4.36"/><line class="cls-1" x1="4.53" y1="5.43" x2="4.53" y2="5"/><line class="cls-1" x1="5.27" y1="5" x2="5.27" y2="4.57"/><line class="cls-1" x1="5.27" y1="4.14" x2="5.64" y2="3.93"/><line class="cls-1" x1="5.64" y1="4.79" x2="6.76" y2="4.14"/><line class="cls-1" x1="1.18" y1="6.08" x2="1.18" y2="8.23"/><line class="cls-1" x1="1.92" y1="8.66" x2="1.55" y2="8.87"/><line class="cls-1" x1="1.55" y1="8.87" x2="0.8" y2="8.44"/><line class="cls-1" x1="1.56" y1="10.58" x2="1.18" y2="10.8"/><line class="cls-1" x1="4.15" y1="5.22" x2="4.53" y2="5"/><line class="cls-1" x1="4.9" y1="4.79" x2="5.27" y2="4.57"/><line class="cls-1" x1="4.71" y1="5.11" x2="4.71" y2="4.47"/></g></g></svg>