<svg xmlns="http://www.w3.org/2000/svg" viewBox="0 0 6.08 14.41"><defs><style>.cls-1,.cls-2{fill:none;stroke-linecap:round;stroke-linejoin:round;stroke-width:0.12px;}.cls-1{stroke:#b4b4b4;}.cls-2{stroke:#b4b4b4;}</style></defs><title>jewlery</title><g id="Layer_2" data-name="Layer 2"><g id="Make2D::Visible::Curves"><line class="cls-1" x1="0.43" y1="5.97" x2="0.43" y2="5.54"/><line class="cls-1" x1="0.8" y1="5.32" x2="0.43" y2="5.11"/><line class="cls-1" x1="0.06" y1="5.75" x2="0.06" y2="5.32"/><line class="cls-1" x1="0.43" y1="5.11" x2="0.06" y2="5.32"/><line class="cls-1" x1="0.06" y1="5.75" x2="0.43" y2="5.97"/><line class="cls-1" x1="0.06" y1="5.32" x2="0.43" y2="5.54"/><line class="cls-1" x1="6.02" y1="8.33" x2="6.02" y2="7.9"/><line class="cls-1" x1="5.27" y1="8.33" x2="5.27" y2="7.9"/><line class="cls-1" x1="5.64" y1="8.55" x2="5.64" y2="8.12"/><line class="cls-1" x1="5.64" y1="8.55" x2="6.02" y2="8.33"/><line class="cls-1" x1="5.64" y1="8.12" x2="6.02" y2="7.9"/><line class="cls-1" x1="6.02" y1="7.04" x2="6.02" y2="6.61"/><line class="cls-1" x1="5.27" y1="7.04" x2="5.27" y2="6.61"/><line class="cls-1" x1="5.64" y1="7.26" x2="5.64" y2="6.83"/><line class="cls-1" x1="5.27" y1="6.61" x2="5.64" y2="6.83"/><line class="cls-1" x1="5.64" y1="7.26" x2="6.02" y2="7.04"/><line class="cls-1" x1="6.02" y1="7.9" x2="6.02" y2="7.47"/><line class="cls-1" x1="5.27" y1="7.9" x2="5.27" y2="7.47"/><line class="cls-1" x1="5.27" y1="7.9" x2="5.64" y2="8.12"/><line class="cls-1" x1="5.64" y1="8.12" x2="5.64" y2="7.69"/><line class="cls-1" x1="5.27" y1="7.47" x2="5.64" y2="7.69"/><line class="cls-1" x1="1.18" y1="5.54" x2="1.55" y2="5.32"/><line class="cls-1" x1="1.55" y1="5.32" x2="1.55" y2="4.89"/><line class="cls-1" x1="1.18" y1="5.11" x2="1.55" y2="4.89"/><line class="cls-1" x1="1.55" y1="4.89" x2="1.18" y2="4.68"/><line class="cls-1" x1="1.18" y1="4.68" x2="0.8" y2="4.89"/><line class="cls-1" x1="5.64" y1="5.97" x2="5.27" y2="5.75"/><line class="cls-1" x1="5.27" y1="5.75" x2="4.9" y2="5.97"/><line class="cls-1" x1="4.9" y1="6.4" x2="5.27" y2="6.61"/><line class="cls-1" x1="4.9" y1="5.97" x2="5.27" y2="6.18"/><line class="cls-1" x1="6.02" y1="7.47" x2="6.02" y2="7.04"/><line class="cls-1" x1="5.27" y1="7.47" x2="5.27" y2="7.04"/><line class="cls-1" x1="5.64" y1="7.69" x2="5.64" y2="7.26"/><line class="cls-1" x1="5.27" y1="7.04" x2="5.64" y2="7.26"/><line class="cls-1" x1="5.64" y1="7.69" x2="6.02" y2="7.47"/><line class="cls-1" x1="3.78" y1="8.76" x2="3.78" y2="8.33"/><line class="cls-1" x1="3.41" y1="8.55" x2="3.78" y2="8.33"/><line class="cls-1" x1="3.41" y1="8.98" x2="3.41" y2="8.55"/><line class="cls-1" x1="3.04" y1="8.76" x2="3.04" y2="8.33"/><line class="cls-1" x1="2.29" y1="6.18" x2="1.92" y2="5.97"/><line class="cls-1" x1="1.55" y1="6.61" x2="1.55" y2="6.18"/><line class="cls-1" x1="1.92" y1="5.97" x2="1.55" y2="6.18"/><line class="cls-1" x1="1.55" y1="6.61" x2="1.92" y2="6.83"/><line class="cls-1" x1="1.55" y1="6.18" x2="1.92" y2="6.4"/><line class="cls-1" x1="1.92" y1="5.97" x2="1.55" y2="5.75"/><line class="cls-1" x1="1.18" y1="6.4" x2="1.18" y2="5.97"/><line class="cls-1" x1="1.55" y1="5.75" x2="1.18" y2="5.97"/><line class="cls-1" x1="1.18" y1="6.4" x2="1.55" y2="6.61"/><line class="cls-1" x1="1.18" y1="5.97" x2="1.55" y2="6.18"/><line class="cls-1" x1="3.41" y1="11.13" x2="3.78" y2="10.91"/><line class="cls-1" x1="3.78" y1="10.91" x2="3.78" y2="10.48"/><line class="cls-1" x1="3.41" y1="10.7" x2="3.78" y2="10.48"/><line class="cls-1" x1="3.41" y1="11.13" x2="3.41" y2="10.7"/><line class="cls-1" x1="3.04" y1="10.91" x2="3.04" y2="10.48"/><line class="cls-1" x1="3.04" y1="10.91" x2="3.41" y2="11.13"/><line class="cls-1" x1="6.02" y1="6.18" x2="5.64" y2="5.97"/><line class="cls-1" x1="6.02" y1="6.61" x2="6.02" y2="6.18"/><line class="cls-1" x1="5.27" y1="6.61" x2="5.27" y2="6.18"/><line class="cls-1" x1="5.64" y1="5.97" x2="5.27" y2="6.18"/><line class="cls-1" x1="5.64" y1="6.83" x2="5.64" y2="6.4"/><line class="cls-1" x1="5.27" y1="6.18" x2="5.64" y2="6.4"/><line class="cls-1" x1="5.64" y1="6.83" x2="6.02" y2="6.61"/><line class="cls-1" x1="5.64" y1="6.4" x2="6.02" y2="6.18"/><line class="cls-1" x1="1.18" y1="5.54" x2="0.8" y2="5.32"/><line class="cls-1" x1="0.8" y1="5.32" x2="0.43" y2="5.54"/><line class="cls-1" x1="0.43" y1="5.97" x2="0.8" y2="6.18"/><line class="cls-1" x1="0.43" y1="5.54" x2="0.8" y2="5.75"/><line class="cls-1" x1="4.53" y1="11.34" x2="4.9" y2="11.13"/><line class="cls-1" x1="4.9" y1="11.13" x2="4.9" y2="10.7"/><line class="cls-1" x1="4.53" y1="10.91" x2="4.9" y2="10.7"/><line class="cls-1" x1="4.9" y1="10.7" x2="4.53" y2="10.48"/><line class="cls-1" x1="4.53" y1="10.48" x2="4.15" y2="10.7"/><line class="cls-1" x1="4.15" y1="11.56" x2="4.53" y2="11.34"/><line class="cls-1" x1="4.53" y1="11.34" x2="4.53" y2="10.91"/><line class="cls-1" x1="4.15" y1="11.13" x2="4.53" y2="10.91"/><line class="cls-1" x1="4.15" y1="11.56" x2="4.15" y2="11.13"/><line class="cls-1" x1="4.53" y1="10.91" x2="4.15" y2="10.7"/><line class="cls-1" x1="3.78" y1="11.34" x2="4.15" y2="11.56"/><line class="cls-1" x1="6.02" y1="8.76" x2="6.02" y2="8.33"/><line class="cls-1" x1="5.27" y1="8.76" x2="5.27" y2="8.33"/><line class="cls-1" x1="5.27" y1="8.76" x2="5.64" y2="8.98"/><line class="cls-1" x1="5.64" y1="8.98" x2="5.64" y2="8.55"/><line class="cls-1" x1="5.27" y1="8.33" x2="5.64" y2="8.55"/><line class="cls-1" x1="5.64" y1="8.98" x2="6.02" y2="8.76"/><line class="cls-1" x1="3.78" y1="4.47" x2="3.41" y2="4.25"/><line class="cls-1" x1="3.04" y1="4.89" x2="3.04" y2="4.47"/><line class="cls-1" x1="3.41" y1="4.25" x2="3.04" y2="4.47"/><line class="cls-1" x1="3.04" y1="4.89" x2="3.41" y2="5.11"/><line class="cls-1" x1="3.04" y1="4.47" x2="3.41" y2="4.68"/><line class="cls-1" x1="1.18" y1="5.54" x2="1.18" y2="5.11"/><line class="cls-1" x1="0.8" y1="5.32" x2="1.18" y2="5.11"/><line class="cls-1" x1="1.18" y1="5.11" x2="0.8" y2="4.89"/><line class="cls-1" x1="0.8" y1="4.89" x2="0.43" y2="5.11"/><line class="cls-1" x1="3.78" y1="10.48" x2="3.78" y2="10.05"/><line class="cls-1" x1="3.41" y1="10.7" x2="3.41" y2="10.27"/><line class="cls-1" x1="3.04" y1="10.48" x2="3.04" y2="10.05"/><line class="cls-1" x1="3.04" y1="10.48" x2="3.41" y2="10.7"/><line class="cls-1" x1="3.41" y1="10.27" x2="3.78" y2="10.05"/><line class="cls-1" x1="3.78" y1="10.05" x2="3.78" y2="9.62"/><line class="cls-1" x1="3.41" y1="9.84" x2="3.78" y2="9.62"/><line class="cls-1" x1="3.41" y1="10.27" x2="3.41" y2="9.84"/><line class="cls-1" x1="3.04" y1="10.05" x2="3.04" y2="9.62"/><line class="cls-1" x1="3.04" y1="10.05" x2="3.41" y2="10.27"/><line class="cls-1" x1="3.04" y1="9.62" x2="3.41" y2="9.84"/><line class="cls-1" x1="2.67" y1="4.25" x2="2.29" y2="4.04"/><line class="cls-1" x1="2.29" y1="4.04" x2="1.92" y2="4.25"/><line class="cls-1" x1="2.29" y1="4.89" x2="2.67" y2="4.68"/><line class="cls-1" x1="2.29" y1="4.47" x2="2.67" y2="4.25"/><line class="cls-1" x1="1.55" y1="5.32" x2="1.92" y2="5.11"/><line class="cls-1" x1="1.92" y1="5.11" x2="1.92" y2="4.68"/><line class="cls-1" x1="1.55" y1="4.89" x2="1.92" y2="4.68"/><line class="cls-1" x1="1.92" y1="4.68" x2="1.55" y2="4.47"/><line class="cls-1" x1="1.55" y1="4.47" x2="1.18" y2="4.68"/><line class="cls-1" x1="3.78" y1="12.2" x2="3.41" y2="11.99"/><line class="cls-1" x1="3.41" y1="11.99" x2="3.41" y2="14.14"/><line class="cls-1" x1="3.78" y1="14.35" x2="3.41" y2="14.14"/><line class="cls-1" x1="3.41" y1="11.99" x2="4.15" y2="11.56"/><line class="cls-1" x1="5.27" y1="10.91" x2="5.64" y2="11.13"/><line class="cls-1" x1="5.64" y1="11.13" x2="5.64" y2="13.28"/><line class="cls-1" x1="5.64" y1="13.28" x2="3.78" y2="14.35"/><line class="cls-1" x1="3.78" y1="12.2" x2="3.78" y2="14.35"/><line class="cls-1" x1="5.64" y1="11.13" x2="4.9" y2="11.56"/><line class="cls-2" x1="4.34" y1="0.49" x2="3.97" y2="0.27"/><line class="cls-2" x1="3.97" y1="0.27" x2="3.97" y2="0.7"/><line class="cls-2" x1="4.34" y1="0.92" x2="3.97" y2="0.7"/><line class="cls-2" x1="4.34" y1="0.49" x2="4.34" y2="0.92"/><line class="cls-2" x1="3.97" y1="0.27" x2="4.34" y2="0.06"/><line class="cls-2" x1="4.34" y1="0.06" x2="4.71" y2="0.27"/><line class="cls-2" x1="4.71" y1="0.27" x2="4.71" y2="0.7"/><line class="cls-2" x1="4.71" y1="0.27" x2="4.34" y2="0.49"/><line class="cls-2" x1="4.71" y1="0.7" x2="4.34" y2="0.92"/><line class="cls-2" x1="0.62" y1="2.64" x2="0.25" y2="2.42"/><line class="cls-2" x1="0.25" y1="2.42" x2="0.25" y2="2.85"/><line class="cls-2" x1="0.62" y1="3.07" x2="0.25" y2="2.85"/><line class="cls-2" x1="0.62" y1="2.64" x2="0.62" y2="3.07"/><line class="cls-2" x1="0.25" y1="2.42" x2="0.62" y2="2.21"/><line class="cls-2" x1="0.62" y1="2.21" x2="0.99" y2="2.42"/><line class="cls-2" x1="0.99" y1="2.42" x2="0.99" y2="2.85"/><line class="cls-2" x1="0.99" y1="2.42" x2="0.62" y2="2.64"/><line class="cls-2" x1="0.99" y1="2.85" x2="0.62" y2="3.07"/><line class="cls-1" x1="3.78" y1="7.9" x2="3.78" y2="7.47"/><line class="cls-1" x1="3.41" y1="7.69" x2="3.78" y2="7.47"/><line class="cls-1" x1="3.41" y1="8.12" x2="3.41" y2="7.69"/><line class="cls-1" x1="3.78" y1="7.47" x2="3.41" y2="7.26"/><line class="cls-1" x1="3.04" y1="7.9" x2="3.41" y2="8.12"/><line class="cls-1" x1="3.04" y1="7.47" x2="3.41" y2="7.69"/><line class="cls-1" x1="1.55" y1="5.75" x2="1.18" y2="5.54"/><line class="cls-1" x1="0.8" y1="6.18" x2="0.8" y2="5.75"/><line class="cls-1" x1="1.18" y1="5.54" x2="0.8" y2="5.75"/><line class="cls-1" x1="0.8" y1="6.18" x2="1.18" y2="6.4"/><line class="cls-1" x1="0.8" y1="5.75" x2="1.18" y2="5.97"/><line class="cls-1" x1="2.67" y1="7.26" x2="3.04" y2="7.04"/><line class="cls-1" x1="2.29" y1="7.47" x2="2.29" y2="7.04"/><line class="cls-1" x1="2.29" y1="7.47" x2="2.67" y2="7.69"/><line class="cls-1" x1="2.29" y1="7.04" x2="2.67" y2="7.26"/><line class="cls-1" x1="5.27" y1="10.91" x2="5.27" y2="10.48"/><line class="cls-1" x1="4.9" y1="10.27" x2="4.53" y2="10.48"/><line class="cls-1" x1="4.9" y1="11.13" x2="5.27" y2="10.91"/><line class="cls-1" x1="4.9" y1="10.7" x2="5.27" y2="10.48"/><line class="cls-1" x1="3.78" y1="11.34" x2="4.15" y2="11.13"/><line class="cls-1" x1="4.15" y1="11.13" x2="4.15" y2="10.7"/><line class="cls-1" x1="3.78" y1="10.91" x2="4.15" y2="10.7"/><line class="cls-1" x1="3.78" y1="11.34" x2="3.78" y2="10.91"/><line class="cls-1" x1="4.15" y1="10.7" x2="3.78" y2="10.48"/><line class="cls-1" x1="3.41" y1="11.13" x2="3.78" y2="11.34"/><line class="cls-1" x1="5.27" y1="5.32" x2="4.9" y2="5.11"/><line class="cls-1" x1="5.27" y1="5.75" x2="5.27" y2="5.32"/><line class="cls-1" x1="4.9" y1="5.97" x2="4.9" y2="5.54"/><line class="cls-1" x1="4.53" y1="5.32" x2="4.9" y2="5.54"/><line class="cls-1" x1="4.9" y1="5.54" x2="5.27" y2="5.32"/><line class="cls-1" x1="6.02" y1="9.19" x2="6.02" y2="8.76"/><line class="cls-1" x1="5.27" y1="9.19" x2="5.27" y2="8.76"/><line class="cls-1" x1="5.27" y1="9.19" x2="5.64" y2="9.41"/><line class="cls-1" x1="5.64" y1="9.41" x2="5.64" y2="8.98"/><line class="cls-1" x1="5.64" y1="9.41" x2="6.02" y2="9.19"/><line class="cls-1" x1="3.04" y1="4.04" x2="2.67" y2="3.82"/><line class="cls-1" x1="2.67" y1="3.82" x2="2.29" y2="4.04"/><line class="cls-1" x1="2.67" y1="4.68" x2="2.67" y2="4.25"/><line class="cls-1" x1="2.29" y1="4.47" x2="1.92" y2="4.25"/><line class="cls-1" x1="2.29" y1="4.89" x2="2.29" y2="4.47"/><line class="cls-1" x1="1.92" y1="4.25" x2="1.55" y2="4.47"/><line class="cls-1" x1="1.92" y1="5.11" x2="2.29" y2="4.89"/><line class="cls-1" x1="1.92" y1="4.68" x2="2.29" y2="4.47"/><line class="cls-1" x1="3.04" y1="7.04" x2="3.04" y2="6.61"/><line class="cls-1" x1="2.67" y1="6.83" x2="3.04" y2="6.61"/><line class="cls-1" x1="2.67" y1="7.26" x2="2.67" y2="6.83"/><line class="cls-1" x1="3.04" y1="6.61" x2="2.67" y2="6.4"/><line class="cls-1" x1="2.29" y1="7.04" x2="2.29" y2="6.61"/><line class="cls-1" x1="2.67" y1="6.4" x2="2.29" y2="6.61"/><line class="cls-1" x1="2.29" y1="6.61" x2="2.67" y2="6.83"/><line class="cls-1" x1="4.53" y1="11.77" x2="4.9" y2="11.56"/><line class="cls-1" x1="4.9" y1="11.56" x2="4.9" y2="11.13"/><line class="cls-1" x1="4.53" y1="11.77" x2="4.53" y2="11.34"/><line class="cls-1" x1="4.15" y1="11.56" x2="4.53" y2="11.77"/><line class="cls-1" x1="3.04" y1="7.47" x2="3.41" y2="7.26"/><line class="cls-1" x1="3.04" y1="7.9" x2="3.04" y2="7.47"/><line class="cls-1" x1="3.41" y1="7.26" x2="3.04" y2="7.04"/><line class="cls-1" x1="2.67" y1="7.69" x2="2.67" y2="7.26"/><line class="cls-1" x1="2.67" y1="7.69" x2="3.04" y2="7.9"/><line class="cls-1" x1="2.67" y1="7.26" x2="3.04" y2="7.47"/><line class="cls-1" x1="2.67" y1="6.4" x2="2.29" y2="6.18"/><line class="cls-1" x1="1.92" y1="6.83" x2="1.92" y2="6.4"/><line class="cls-1" x1="2.29" y1="6.18" x2="1.92" y2="6.4"/><line class="cls-1" x1="1.92" y1="6.83" x2="2.29" y2="7.04"/><line class="cls-1" x1="1.92" y1="6.4" x2="2.29" y2="6.61"/><line class="cls-1" x1="6.02" y1="9.62" x2="6.02" y2="9.19"/><line class="cls-1" x1="5.27" y1="9.62" x2="5.27" y2="9.19"/><line class="cls-1" x1="5.64" y1="9.84" x2="5.64" y2="9.41"/><line class="cls-1" x1="5.64" y1="9.84" x2="6.02" y2="9.62"/><line class="cls-1" x1="5.64" y1="9.84" x2="5.27" y2="9.62"/><line class="cls-1" x1="5.64" y1="10.27" x2="5.64" y2="9.84"/><line class="cls-1" x1="4.9" y1="10.27" x2="4.9" y2="9.84"/><line class="cls-1" x1="5.27" y1="9.62" x2="4.9" y2="9.84"/><line class="cls-1" x1="4.9" y1="10.27" x2="5.27" y2="10.48"/><line class="cls-1" x1="5.27" y1="10.48" x2="5.27" y2="10.05"/><line class="cls-1" x1="4.9" y1="9.84" x2="5.27" y2="10.05"/><line class="cls-1" x1="5.27" y1="10.48" x2="5.64" y2="10.27"/><line class="cls-1" x1="5.27" y1="10.05" x2="5.64" y2="9.84"/><line class="cls-1" x1="3.41" y1="4.25" x2="3.04" y2="4.04"/><line class="cls-1" x1="3.04" y1="4.04" x2="2.67" y2="4.25"/><line class="cls-1" x1="2.67" y1="4.68" x2="3.04" y2="4.89"/><line class="cls-1" x1="2.67" y1="4.25" x2="3.04" y2="4.47"/><line class="cls-1" x1="3.78" y1="9.19" x2="3.78" y2="8.76"/><line class="cls-1" x1="3.41" y1="8.98" x2="3.78" y2="8.76"/><line class="cls-1" x1="3.41" y1="9.41" x2="3.41" y2="8.98"/><line class="cls-1" x1="3.04" y1="9.19" x2="3.04" y2="8.76"/><line class="cls-1" x1="3.04" y1="9.19" x2="3.41" y2="9.41"/><line class="cls-1" x1="3.04" y1="8.76" x2="3.41" y2="8.98"/><line class="cls-1" x1="3.78" y1="9.62" x2="3.78" y2="9.19"/><line class="cls-1" x1="3.41" y1="9.41" x2="3.78" y2="9.19"/><line class="cls-1" x1="3.41" y1="9.84" x2="3.41" y2="9.41"/><line class="cls-1" x1="3.04" y1="9.62" x2="3.04" y2="9.19"/><line class="cls-1" x1="3.78" y1="8.33" x2="3.78" y2="7.9"/><line class="cls-1" x1="3.41" y1="8.12" x2="3.78" y2="7.9"/><line class="cls-1" x1="3.41" y1="8.55" x2="3.41" y2="8.12"/><line class="cls-1" x1="3.04" y1="8.33" x2="3.04" y2="7.9"/><line class="cls-1" x1="3.04" y1="8.33" x2="3.41" y2="8.55"/><line class="cls-1" x1="4.15" y1="4.68" x2="3.78" y2="4.47"/><line class="cls-1" x1="3.41" y1="5.11" x2="3.41" y2="4.68"/><line class="cls-1" x1="3.78" y1="4.47" x2="3.41" y2="4.68"/><line class="cls-1" x1="3.41" y1="5.11" x2="3.78" y2="5.32"/><line class="cls-1" x1="3.41" y1="4.68" x2="3.78" y2="4.89"/><line class="cls-1" x1="4.53" y1="4.89" x2="4.15" y2="4.68"/><line class="cls-1" x1="3.78" y1="5.32" x2="3.78" y2="4.89"/><line class="cls-1" x1="4.15" y1="4.68" x2="3.78" y2="4.89"/><line class="cls-1" x1="3.78" y1="5.32" x2="4.15" y2="5.54"/><line class="cls-1" x1="3.78" y1="4.89" x2="4.15" y2="5.11"/><line class="cls-1" x1="4.9" y1="5.11" x2="4.53" y2="4.89"/><line class="cls-1" x1="4.15" y1="5.54" x2="4.15" y2="5.11"/><line class="cls-1" x1="4.53" y1="4.89" x2="4.15" y2="5.11"/><line class="cls-1" x1="4.15" y1="5.54" x2="4.53" y2="5.75"/><line class="cls-1" x1="4.53" y1="5.75" x2="4.53" y2="5.32"/><line class="cls-1" x1="4.15" y1="5.11" x2="4.53" y2="5.32"/><line class="cls-1" x1="4.53" y1="5.32" x2="4.9" y2="5.11"/><line class="cls-1" x1="4.53" y1="6.18" x2="4.53" y2="5.75"/><line class="cls-1" x1="4.53" y1="6.18" x2="4.9" y2="6.4"/><line class="cls-1" x1="4.9" y1="6.4" x2="4.9" y2="5.97"/><line class="cls-1" x1="4.53" y1="5.75" x2="4.9" y2="5.97"/><line class="cls-1" x1="4.53" y1="11.77" x2="3.78" y2="12.2"/></g></g></svg>