<svg xmlns="http://www.w3.org/2000/svg" viewBox="0 0 1.21 0.95"><defs><style>.cls-1{fill:none;stroke:red;stroke-linecap:round;stroke-linejoin:round;stroke-width:0.06px;}.cls-1{stroke:#b4b4b4;}</style></defs><title>Asset 3mouth</title><g id="Layer_2" data-name="Layer 2"><g id="Make2D::Visible::Curves"><line class="cls-1" x1="0.07" y1="0.7" x2="0.4" y2="0.5"/><line class="cls-1" x1="0.44" y1="0.48" x2="0.44" y2="0.45"/><line class="cls-1" x1="0.44" y1="0.05" x2="0.4" y2="0.03"/><line class="cls-1" x1="0.03" y1="0.67" x2="0.03" y2="0.24"/><line class="cls-1" x1="0.4" y1="0.03" x2="0.03" y2="0.24"/><line class="cls-1" x1="0.03" y1="0.67" x2="0.07" y2="0.7"/><line class="cls-1" x1="0.03" y1="0.24" x2="0.07" y2="0.27"/><line class="cls-1" x1="0.07" y1="0.27" x2="0.44" y2="0.05"/><line class="cls-1" x1="0.07" y1="0.7" x2="0.07" y2="0.27"/><line class="cls-1" x1="0.44" y1="0.92" x2="1.18" y2="0.49"/><line class="cls-1" x1="1.18" y1="0.49" x2="1.18" y2="0.06"/><line class="cls-1" x1="1.18" y1="0.06" x2="1.15" y2="0.04"/><line class="cls-1" x1="0.4" y1="0.9" x2="0.4" y2="0.5"/><line class="cls-1" x1="1.15" y1="0.04" x2="0.44" y2="0.45"/><line class="cls-1" x1="0.4" y1="0.9" x2="0.44" y2="0.92"/><line class="cls-1" x1="0.44" y1="0.49" x2="1.18" y2="0.06"/><line class="cls-1" x1="0.44" y1="0.92" x2="0.44" y2="0.49"/><line class="cls-1" x1="0.44" y1="0.45" x2="0.44" y2="0.05"/><line class="cls-1" x1="0.43" y1="0.49" x2="0.44" y2="0.49"/><line class="cls-1" x1="0.4" y1="0.5" x2="0.44" y2="0.48"/></g></g></svg>