<svg xmlns="http://www.w3.org/2000/svg" viewBox="0 0 6.48 9.79"><defs><style>.cls-1{fill:none;stroke:#b4b4b4;stroke-linecap:round;stroke-linejoin:round;stroke-width:0.12px;}</style></defs><title>names</title><g id="Layer_2" data-name="Layer 2"><g id="Make2D::Visible::Curves"><line class="cls-1" x1="0.06" y1="2.42" x2="2.32" y2="3.73"/><line class="cls-1" x1="5.76" y1="6.46" x2="3.49" y2="3.86"/><line class="cls-1" x1="3.49" y1="0.44" x2="5.76" y2="1.75"/><line class="cls-1" x1="2.98" y1="4.63" x2="5.71" y2="7.77"/><line class="cls-1" x1="2.32" y1="3.73" x2="2.32" y2="9.73"/><line class="cls-1" x1="3.49" y1="3.86" x2="3.03" y2="3.32"/><line class="cls-1" x1="2.98" y1="5.93" x2="3.45" y2="6.46"/><line class="cls-1" x1="2.98" y1="5.93" x2="2.98" y2="4.63"/><line class="cls-1" x1="0.76" y1="2.02" x2="3.03" y2="3.32"/><line class="cls-1" x1="4.15" y1="0.06" x2="6.42" y2="1.37"/><line class="cls-1" x1="3.45" y1="6.46" x2="5.71" y2="7.77"/><line class="cls-1" x1="0.06" y1="8.42" x2="2.32" y2="9.73"/><line class="cls-1" x1="3.03" y1="3.32" x2="2.32" y2="3.73"/><line class="cls-1" x1="5.76" y1="1.75" x2="5.76" y2="6.46"/><line class="cls-1" x1="6.42" y1="1.37" x2="5.76" y2="1.75"/><line class="cls-1" x1="6.42" y1="7.36" x2="6.42" y2="1.37"/><line class="cls-1" x1="5.71" y1="7.77" x2="6.42" y2="7.36"/><line class="cls-1" x1="2.98" y1="9.35" x2="2.98" y2="5.93"/><line class="cls-1" x1="2.32" y1="9.73" x2="2.98" y2="9.35"/><line class="cls-1" x1="0.06" y1="2.42" x2="0.06" y2="8.42"/><line class="cls-1" x1="0.76" y1="2.02" x2="0.06" y2="2.42"/><line class="cls-1" x1="3.49" y1="0.44" x2="3.49" y2="3.86"/><line class="cls-1" x1="4.15" y1="0.06" x2="3.49" y2="0.44"/></g></g></svg>