<svg xmlns="http://www.w3.org/2000/svg" viewBox="0 0 12.5 20.1"><defs><style>.cls-1{fill:none;stroke:#b4b4b4;stroke-linecap:round;stroke-linejoin:round;stroke-width:0.22px;}</style></defs><title>top_1</title><g id="Layer_2" data-name="Layer 2"><g id="Make2D::Visible::Curves"><line class="cls-1" x1="6.25" y1="2.9" x2="6.16" y2="2.96"/><line class="cls-1" x1="8.11" y1="1.83" x2="6.25" y2="2.9"/><line class="cls-1" x1="8.21" y1="1.77" x2="8.11" y2="1.83"/><line class="cls-1" x1="6.25" y1="0.75" x2="6.35" y2="0.7"/><line class="cls-1" x1="4.39" y1="1.83" x2="6.25" y2="0.75"/><line class="cls-1" x1="4.29" y1="1.88" x2="4.39" y2="1.83"/><line class="cls-1" x1="4.39" y1="19.02" x2="3.09" y2="18.27"/><line class="cls-1" x1="4.39" y1="19.02" x2="11.46" y2="14.94"/><line class="cls-1" x1="3.09" y1="7.52" x2="3.09" y2="18.61"/><line class="cls-1" x1="1.6" y1="7.52" x2="1.6" y2="19.99"/><line class="cls-1" x1="6.72" y1="0.91" x2="8.21" y2="1.77"/><line class="cls-1" x1="3.09" y1="18.61" x2="3.09" y2="19.13"/><line class="cls-1" x1="8.21" y1="2.63" x2="10.35" y2="1.4"/><line class="cls-1" x1="4.02" y1="5.48" x2="10.35" y2="1.83"/><line class="cls-1" x1="2.16" y1="3.98" x2="4.02" y2="5.05"/><line class="cls-1" x1="10.35" y1="1.4" x2="8.48" y2="0.32"/><line class="cls-1" x1="11.46" y1="2.04" x2="4.39" y2="6.13"/><line class="cls-1" x1="11.46" y1="2.04" x2="11.46" y2="14.29"/><line class="cls-1" x1="4.39" y1="6.13" x2="4.39" y2="19.02"/><line class="cls-1" x1="10.53" y1="0.22" x2="12.02" y2="1.08"/><line class="cls-1" x1="3.09" y1="6.23" x2="3.09" y2="7.52"/><line class="cls-1" x1="1.04" y1="5.7" x2="1.6" y2="5.37"/><line class="cls-1" x1="0.48" y1="6.02" x2="1.97" y2="6.88"/><line class="cls-1" x1="1.6" y1="7.52" x2="0.11" y2="6.66"/><line class="cls-1" x1="0.48" y1="6.45" x2="1.97" y2="7.31"/><line class="cls-1" x1="3.09" y1="6.23" x2="1.97" y2="6.88"/><line class="cls-1" x1="3.65" y1="6.13" x2="3.65" y2="7.85"/><line class="cls-1" x1="3.65" y1="6.13" x2="1.04" y2="4.62"/><line class="cls-1" x1="6.16" y1="3.82" x2="4.29" y2="2.74"/><line class="cls-1" x1="6.16" y1="2.96" x2="4.29" y2="1.88"/><line class="cls-1" x1="11.46" y1="14.29" x2="11.46" y2="14.94"/><line class="cls-1" x1="6.72" y1="0.91" x2="8.11" y2="0.11"/><line class="cls-1" x1="9.79" y1="0.65" x2="11.46" y2="1.61"/><line class="cls-1" x1="11.46" y1="14.29" x2="12.39" y2="13.76"/><line class="cls-1" x1="11.34" y1="1.47" x2="12.02" y2="1.08"/><line class="cls-1" x1="4.29" y1="2.31" x2="4.29" y2="2.74"/><line class="cls-1" x1="4.29" y1="2.74" x2="2.16" y2="3.98"/><line class="cls-1" x1="1.41" y1="4.41" x2="1.04" y2="4.19"/><line class="cls-1" x1="11.09" y1="1.83" x2="11.46" y2="2.04"/><line class="cls-1" x1="2.16" y1="4.41" x2="4.02" y2="5.48"/><line class="cls-1" x1="2.16" y1="4.41" x2="2.16" y2="3.98"/><line class="cls-1" x1="4.02" y1="5.48" x2="4.02" y2="5.05"/><line class="cls-1" x1="10.35" y1="1.83" x2="10.35" y2="1.4"/><line class="cls-1" x1="4.02" y1="5.05" x2="6.16" y2="3.82"/><line class="cls-1" x1="8.11" y1="0.11" x2="8.48" y2="0.32"/><line class="cls-1" x1="1.04" y1="4.19" x2="4.29" y2="2.31"/><line class="cls-1" x1="1.04" y1="4.19" x2="1.04" y2="4.62"/><line class="cls-1" x1="4.39" y1="6.13" x2="4.02" y2="5.91"/><line class="cls-1" x1="8.86" y1="0.11" x2="9.79" y2="0.65"/><line class="cls-1" x1="8.48" y1="0.32" x2="8.86" y2="0.11"/><line class="cls-1" x1="11.46" y1="1.61" x2="11.46" y2="2.04"/><line class="cls-1" x1="11.46" y1="1.61" x2="11.09" y2="1.83"/><line class="cls-1" x1="10.53" y1="0.22" x2="9.79" y2="0.65"/><line class="cls-1" x1="12.39" y1="1.29" x2="12.39" y2="13.76"/><line class="cls-1" x1="12.02" y1="1.51" x2="12.39" y2="1.29"/><line class="cls-1" x1="12.02" y1="1.08" x2="12.02" y2="1.51"/><line class="cls-1" x1="12.39" y1="1.29" x2="12.02" y2="1.08"/><line class="cls-1" x1="1.6" y1="5.37" x2="3.09" y2="6.23"/><line class="cls-1" x1="0.48" y1="6.02" x2="1.04" y2="5.7"/><line class="cls-1" x1="0.11" y1="6.66" x2="0.11" y2="19.13"/><line class="cls-1" x1="1.97" y1="7.31" x2="1.6" y2="7.52"/><line class="cls-1" x1="1.97" y1="6.88" x2="1.97" y2="7.31"/><line class="cls-1" x1="0.11" y1="6.66" x2="0.48" y2="6.45"/><line class="cls-1" x1="0.48" y1="6.02" x2="0.48" y2="6.45"/><line class="cls-1" x1="3.09" y1="19.13" x2="1.6" y2="19.99"/><line class="cls-1" x1="1.6" y1="19.99" x2="0.11" y2="19.13"/><line class="cls-1" x1="4.02" y1="7.63" x2="3.65" y2="7.85"/><line class="cls-1" x1="4.02" y1="5.91" x2="3.65" y2="6.13"/><line class="cls-1" x1="4.02" y1="5.91" x2="4.02" y2="7.63"/><line class="cls-1" x1="1.04" y1="4.62" x2="1.41" y2="4.41"/><line class="cls-1" x1="3.65" y1="7.85" x2="3.09" y2="7.52"/><line class="cls-1" x1="1.04" y1="4.62" x2="1.04" y2="5.7"/><line class="cls-1" x1="6.16" y1="2.96" x2="6.16" y2="3.82"/><line class="cls-1" x1="8.21" y1="1.77" x2="8.21" y2="2.63"/><line class="cls-1" x1="6.35" y1="0.7" x2="6.72" y2="0.91"/><line class="cls-1" x1="4.29" y1="1.88" x2="4.29" y2="2.31"/></g></g></svg>