<svg xmlns="http://www.w3.org/2000/svg" viewBox="0 0 11.3 8.29"><defs><style>.cls-1{fill:none;stroke:#b4b4b4;stroke-linecap:round;stroke-linejoin:round;stroke-width:0.12px;}</style></defs><title>shoes</title><g id="Layer_2" data-name="Layer 2"><g id="Make2D::Visible::Curves"><line class="cls-1" x1="4.53" y1="7.8" x2="6.76" y2="6.52"/><line class="cls-1" x1="4.15" y1="6.73" x2="3.78" y2="6.52"/><line class="cls-1" x1="4.53" y1="7.37" x2="4.15" y2="7.16"/><line class="cls-1" x1="4.15" y1="7.16" x2="4.15" y2="6.73"/><line class="cls-1" x1="6.02" y1="5.23" x2="6.39" y2="5.44"/><line class="cls-1" x1="6.39" y1="5.87" x2="6.39" y2="5.44"/><line class="cls-1" x1="6.39" y1="5.87" x2="6.76" y2="6.09"/><line class="cls-1" x1="6.76" y1="6.09" x2="6.76" y2="6.52"/><line class="cls-1" x1="4.53" y1="7.37" x2="4.53" y2="7.8"/><line class="cls-1" x1="3.78" y1="7.37" x2="4.53" y2="7.8"/><line class="cls-1" x1="6.76" y1="6.09" x2="4.53" y2="7.37"/><line class="cls-1" x1="8.23" y1="3.95" x2="8.26" y2="3.93"/><line class="cls-1" x1="8.26" y1="3.93" x2="8.26" y2="3.5"/><line class="cls-1" x1="8.23" y1="3.52" x2="8.26" y2="3.5"/><line class="cls-1" x1="8.26" y1="3.5" x2="7.89" y2="3.28"/><line class="cls-1" x1="7.89" y1="3.28" x2="7.85" y2="3.3"/><line class="cls-1" x1="8.23" y1="3.95" x2="8.23" y2="3.52"/><line class="cls-1" x1="7.85" y1="3.3" x2="8.23" y2="3.52"/><line class="cls-1" x1="3.37" y1="6.75" x2="3.41" y2="6.73"/><line class="cls-1" x1="3.41" y1="6.73" x2="3.41" y2="6.34"/><line class="cls-1" x1="3.37" y1="6.75" x2="3.37" y2="6.32"/><line class="cls-1" x1="3" y1="6.11" x2="3.37" y2="6.32"/><line class="cls-1" x1="2.67" y1="6.3" x2="2.67" y2="5.91"/><line class="cls-1" x1="2.29" y1="5.66" x2="2.26" y2="5.68"/><line class="cls-1" x1="2.63" y1="6.32" x2="2.63" y2="5.89"/><line class="cls-1" x1="2.26" y1="5.68" x2="2.63" y2="5.89"/><line class="cls-1" x1="3.74" y1="6.54" x2="3.78" y2="6.52"/><line class="cls-1" x1="3.78" y1="6.52" x2="3.78" y2="6.09"/><line class="cls-1" x1="3.74" y1="6.11" x2="3.78" y2="6.09"/><line class="cls-1" x1="3.78" y1="6.09" x2="3.41" y2="5.87"/><line class="cls-1" x1="3.41" y1="5.87" x2="3.37" y2="5.89"/><line class="cls-1" x1="3.74" y1="6.54" x2="3.74" y2="6.11"/><line class="cls-1" x1="3.37" y1="5.89" x2="3.74" y2="6.11"/><line class="cls-1" x1="7.52" y1="3.5" x2="7.52" y2="3.07"/><line class="cls-1" x1="7.48" y1="3.09" x2="7.52" y2="3.07"/><line class="cls-1" x1="7.52" y1="3.07" x2="7.15" y2="2.85"/><line class="cls-1" x1="7.15" y1="2.85" x2="7.11" y2="2.88"/><line class="cls-1" x1="7.48" y1="3.52" x2="7.48" y2="3.09"/><line class="cls-1" x1="7.11" y1="2.88" x2="7.48" y2="3.09"/><line class="cls-1" x1="2.29" y1="2.65" x2="0.06" y2="3.94"/><line class="cls-1" x1="0.06" y1="3.94" x2="0.06" y2="5.23"/><line class="cls-1" x1="0.06" y1="5.23" x2="1.14" y2="5.85"/><line class="cls-1" x1="6.02" y1="5.23" x2="6.02" y2="4.8"/><line class="cls-1" x1="6.02" y1="4.8" x2="5.64" y2="4.58"/><line class="cls-1" x1="3.78" y1="6.52" x2="3.78" y2="7.37"/><line class="cls-1" x1="0.06" y1="3.94" x2="1.92" y2="5.01"/><line class="cls-1" x1="9.04" y1="1.33" x2="8.67" y2="1.11"/><line class="cls-1" x1="8.67" y1="1.11" x2="8.64" y2="1.13"/><line class="cls-1" x1="9.01" y1="1.35" x2="9.04" y2="1.33"/><line class="cls-1" x1="5.99" y1="3.52" x2="6.03" y2="3.5"/><line class="cls-1" x1="6.03" y1="3.5" x2="6.03" y2="3.11"/><line class="cls-1" x1="5.66" y1="2.85" x2="5.62" y2="2.88"/><line class="cls-1" x1="5.62" y1="3.3" x2="5.99" y2="3.52"/><line class="cls-1" x1="5.62" y1="2.88" x2="5.99" y2="3.09"/><line class="cls-1" x1="3.37" y1="6.28" x2="3.04" y2="6.09"/><line class="cls-1" x1="4.15" y1="6.73" x2="6.39" y2="5.44"/><line class="cls-1" x1="4.15" y1="7.16" x2="6.39" y2="5.87"/><line class="cls-1" x1="3.78" y1="6.52" x2="6.02" y2="5.23"/><line class="cls-1" x1="3" y1="6.97" x2="3.04" y2="6.94"/><line class="cls-1" x1="2.67" y1="6.3" x2="2.63" y2="6.32"/><line class="cls-1" x1="2.63" y1="6.75" x2="3" y2="6.97"/><line class="cls-1" x1="2.63" y1="6.32" x2="3" y2="6.54"/><line class="cls-1" x1="2.26" y1="6.54" x2="2.29" y2="6.52"/><line class="cls-1" x1="2.29" y1="6.52" x2="2.29" y2="6.13"/><line class="cls-1" x1="1.92" y1="5.87" x2="1.88" y2="5.89"/><line class="cls-1" x1="1.88" y1="6.32" x2="2.26" y2="6.54"/><line class="cls-1" x1="1.88" y1="5.89" x2="2.26" y2="6.11"/><line class="cls-1" x1="2.29" y1="5.66" x2="2.29" y2="5.23"/><line class="cls-1" x1="2.26" y1="5.25" x2="2.29" y2="5.23"/><line class="cls-1" x1="2.26" y1="5.68" x2="2.26" y2="5.25"/><line class="cls-1" x1="2.29" y1="5.23" x2="1.92" y2="5.01"/><line class="cls-1" x1="1.92" y1="5.01" x2="1.88" y2="5.03"/><line class="cls-1" x1="1.88" y1="5.03" x2="2.26" y2="5.25"/><line class="cls-1" x1="4.53" y1="7.8" x2="4.53" y2="8.23"/><line class="cls-1" x1="6.76" y1="6.94" x2="4.53" y2="8.23"/><line class="cls-1" x1="6.76" y1="6.52" x2="6.76" y2="6.94"/><line class="cls-1" x1="0.06" y1="5.23" x2="0.06" y2="5.66"/><line class="cls-1" x1="4.53" y1="8.23" x2="0.06" y2="5.66"/><line class="cls-1" x1="7.11" y1="3.73" x2="7.15" y2="3.71"/><line class="cls-1" x1="7.15" y1="3.71" x2="7.15" y2="3.33"/><line class="cls-1" x1="6.77" y1="3.07" x2="6.74" y2="3.09"/><line class="cls-1" x1="7.11" y1="3.73" x2="7.11" y2="3.3"/><line class="cls-1" x1="6.74" y1="3.09" x2="7.11" y2="3.3"/><line class="cls-1" x1="7.48" y1="4.38" x2="7.52" y2="4.36"/><line class="cls-1" x1="7.52" y1="4.36" x2="7.52" y2="3.97"/><line class="cls-1" x1="7.11" y1="4.16" x2="7.48" y2="4.38"/><line class="cls-1" x1="7.11" y1="3.73" x2="7.48" y2="3.95"/><line class="cls-1" x1="10.53" y1="2.19" x2="10.16" y2="1.97"/><line class="cls-1" x1="10.53" y1="2.62" x2="10.53" y2="2.19"/><line class="cls-1" x1="10.16" y1="1.97" x2="10.12" y2="1.99"/><line class="cls-1" x1="10.5" y1="2.64" x2="10.53" y2="2.62"/><line class="cls-1" x1="10.5" y1="2.21" x2="10.53" y2="2.19"/><line class="cls-1" x1="6.4" y1="3.28" x2="6.4" y2="2.9"/><line class="cls-1" x1="6.03" y1="2.64" x2="5.99" y2="2.66"/><line class="cls-1" x1="6.36" y1="3.3" x2="6.36" y2="2.88"/><line class="cls-1" x1="5.99" y1="2.66" x2="6.36" y2="2.88"/><line class="cls-1" x1="3.04" y1="6.94" x2="3.04" y2="6.56"/><line class="cls-1" x1="2.29" y1="6.52" x2="2.63" y2="6.71"/><line class="cls-1" x1="2.29" y1="5.23" x2="2.67" y2="5.44"/><line class="cls-1" x1="5.99" y1="3.05" x2="5.66" y2="2.85"/><line class="cls-1" x1="3" y1="6.49" x2="2.67" y2="6.3"/><line class="cls-1" x1="2.26" y1="6.06" x2="1.92" y2="5.87"/><line class="cls-1" x1="7.11" y1="3.26" x2="6.77" y2="3.07"/><line class="cls-1" x1="3.78" y1="7.37" x2="3.04" y2="6.94"/><line class="cls-1" x1="3" y1="6.97" x2="3" y2="6.54"/><line class="cls-1" x1="2.26" y1="6.54" x2="2.26" y2="6.11"/><line class="cls-1" x1="5.31" y1="4.34" x2="4.94" y2="4.13"/><line class="cls-1" x1="4.94" y1="4.13" x2="4.9" y2="4.15"/><line class="cls-1" x1="5.27" y1="4.37" x2="5.31" y2="4.34"/><line class="cls-1" x1="9.79" y1="1.76" x2="9.42" y2="1.54"/><line class="cls-1" x1="9.42" y1="1.54" x2="9.38" y2="1.56"/><line class="cls-1" x1="9.75" y1="1.78" x2="9.79" y2="1.76"/><line class="cls-1" x1="4.56" y1="3.91" x2="4.19" y2="3.7"/><line class="cls-1" x1="4.19" y1="3.7" x2="4.15" y2="3.72"/><line class="cls-1" x1="4.53" y1="3.94" x2="4.56" y2="3.91"/><line class="cls-1" x1="3" y1="6.11" x2="3.04" y2="6.09"/><line class="cls-1" x1="3.04" y1="6.09" x2="3.04" y2="5.66"/><line class="cls-1" x1="3" y1="5.68" x2="3.04" y2="5.66"/><line class="cls-1" x1="3.04" y1="5.66" x2="2.67" y2="5.44"/><line class="cls-1" x1="2.67" y1="5.44" x2="2.63" y2="5.46"/><line class="cls-1" x1="3" y1="6.11" x2="3" y2="5.68"/><line class="cls-1" x1="2.63" y1="5.46" x2="3" y2="5.68"/><line class="cls-1" x1="9.01" y1="5.22" x2="8.26" y2="4.79"/><line class="cls-1" x1="4.54" y1="2.64" x2="4.54" y2="3.07"/><line class="cls-1" x1="9.01" y1="5.65" x2="4.54" y2="3.07"/><line class="cls-1" x1="9.01" y1="5.22" x2="9.01" y2="5.65"/><line class="cls-1" x1="11.24" y1="3.93" x2="11.24" y2="4.36"/><line class="cls-1" x1="11.24" y1="4.36" x2="9.01" y2="5.65"/><line class="cls-1" x1="1.92" y1="5.87" x2="1.92" y2="5.48"/><line class="cls-1" x1="1.55" y1="5.23" x2="1.51" y2="5.25"/><line class="cls-1" x1="1.88" y1="5.89" x2="1.88" y2="5.46"/><line class="cls-1" x1="1.51" y1="5.25" x2="1.88" y2="5.46"/><line class="cls-1" x1="4.54" y1="1.35" x2="4.54" y2="2.64"/><line class="cls-1" x1="4.54" y1="1.35" x2="6.77" y2="0.06"/><line class="cls-1" x1="6.77" y1="0.06" x2="8.64" y2="1.13"/><line class="cls-1" x1="10.5" y1="2.64" x2="10.5" y2="2.21"/><line class="cls-1" x1="8.26" y1="4.79" x2="7.52" y2="4.36"/><line class="cls-1" x1="9.79" y1="1.8" x2="9.79" y2="1.76"/><line class="cls-1" x1="9.79" y1="1.8" x2="10.12" y2="1.99"/><line class="cls-1" x1="9.75" y1="1.78" x2="9.79" y2="1.8"/><line class="cls-1" x1="9.38" y1="1.56" x2="9.75" y2="1.78"/><line class="cls-1" x1="10.87" y1="2.85" x2="10.5" y2="2.64"/><line class="cls-1" x1="11.24" y1="3.5" x2="10.87" y2="3.28"/><line class="cls-1" x1="10.87" y1="3.28" x2="10.87" y2="2.85"/><line class="cls-1" x1="8.26" y1="3.93" x2="8.64" y2="4.14"/><line class="cls-1" x1="8.64" y1="4.57" x2="8.64" y2="4.14"/><line class="cls-1" x1="8.64" y1="4.57" x2="9.01" y2="4.79"/><line class="cls-1" x1="9.01" y1="4.79" x2="9.01" y2="5.22"/><line class="cls-1" x1="11.24" y1="3.5" x2="11.24" y2="3.93"/><line class="cls-1" x1="8.26" y1="4.79" x2="8.26" y2="3.93"/><line class="cls-1" x1="1.51" y1="6.11" x2="1.55" y2="6.09"/><line class="cls-1" x1="1.55" y1="6.09" x2="1.55" y2="5.7"/><line class="cls-1" x1="1.18" y1="5.44" x2="1.14" y2="5.46"/><line class="cls-1" x1="1.14" y1="5.89" x2="1.51" y2="6.11"/><line class="cls-1" x1="1.14" y1="5.46" x2="1.51" y2="5.68"/><line class="cls-1" x1="6.05" y1="4.77" x2="5.68" y2="4.56"/><line class="cls-1" x1="6.05" y1="5.2" x2="6.05" y2="4.77"/><line class="cls-1" x1="5.68" y1="4.56" x2="5.64" y2="4.58"/><line class="cls-1" x1="6.02" y1="5.23" x2="6.05" y2="5.2"/><line class="cls-1" x1="6.02" y1="4.8" x2="6.05" y2="4.77"/><line class="cls-1" x1="7.85" y1="4.16" x2="7.89" y2="4.14"/><line class="cls-1" x1="7.89" y1="4.14" x2="7.89" y2="3.76"/><line class="cls-1" x1="7.52" y1="3.5" x2="7.48" y2="3.52"/><line class="cls-1" x1="7.85" y1="4.16" x2="7.85" y2="3.73"/><line class="cls-1" x1="7.48" y1="3.52" x2="7.85" y2="3.73"/><line class="cls-1" x1="6.77" y1="3.07" x2="6.77" y2="2.64"/><line class="cls-1" x1="6.74" y1="2.66" x2="6.77" y2="2.64"/><line class="cls-1" x1="6.77" y1="2.64" x2="6.4" y2="2.42"/><line class="cls-1" x1="6.4" y1="2.42" x2="6.36" y2="2.45"/><line class="cls-1" x1="6.74" y1="3.09" x2="6.74" y2="2.66"/><line class="cls-1" x1="6.36" y1="2.45" x2="6.74" y2="2.66"/><line class="cls-1" x1="6.74" y1="3.95" x2="6.77" y2="3.93"/><line class="cls-1" x1="6.77" y1="3.93" x2="6.77" y2="3.54"/><line class="cls-1" x1="6.4" y1="3.28" x2="6.36" y2="3.3"/><line class="cls-1" x1="6.36" y1="3.73" x2="6.74" y2="3.95"/><line class="cls-1" x1="6.36" y1="3.3" x2="6.74" y2="3.52"/><line class="cls-1" x1="6.4" y1="2.42" x2="4.54" y2="1.35"/><line class="cls-1" x1="1.51" y1="5.63" x2="1.18" y2="5.44"/><line class="cls-1" x1="11.24" y1="3.93" x2="9.01" y2="5.22"/><line class="cls-1" x1="10.87" y1="2.85" x2="8.64" y2="4.14"/><line class="cls-1" x1="10.5" y1="2.64" x2="8.26" y2="3.93"/><line class="cls-1" x1="10.87" y1="3.28" x2="8.64" y2="4.57"/><line class="cls-1" x1="9.01" y1="4.79" x2="11.24" y2="3.5"/><line class="cls-1" x1="6.74" y1="3.95" x2="6.74" y2="3.52"/><line class="cls-1" x1="2.63" y1="5.85" x2="2.29" y2="5.66"/><line class="cls-1" x1="1.55" y1="6.09" x2="1.88" y2="6.28"/><line class="cls-1" x1="4.15" y1="3.72" x2="2.29" y2="2.65"/><line class="cls-1" x1="4.9" y1="4.15" x2="4.56" y2="3.96"/><line class="cls-1" x1="5.64" y1="4.58" x2="5.31" y2="4.39"/><line class="cls-1" x1="9.04" y1="1.37" x2="9.04" y2="1.33"/><line class="cls-1" x1="7.48" y1="3.91" x2="7.15" y2="3.71"/><line class="cls-1" x1="6.36" y1="2.83" x2="6.03" y2="2.64"/><line class="cls-1" x1="3.04" y1="5.66" x2="3.41" y2="5.87"/><line class="cls-1" x1="5.31" y1="4.39" x2="5.31" y2="4.34"/><line class="cls-1" x1="4.56" y1="3.96" x2="4.56" y2="3.91"/><line class="cls-1" x1="1.88" y1="5.42" x2="1.55" y2="5.23"/><line class="cls-1" x1="9.04" y1="1.37" x2="9.38" y2="1.56"/><line class="cls-1" x1="7.11" y1="4.12" x2="6.77" y2="3.93"/><line class="cls-1" x1="7.15" y1="2.85" x2="6.77" y2="2.64"/><line class="cls-1" x1="7.89" y1="3.28" x2="7.52" y2="3.07"/><line class="cls-1" x1="10.12" y1="1.99" x2="10.5" y2="2.21"/><line class="cls-1" x1="7.85" y1="3.69" x2="7.52" y2="3.5"/><line class="cls-1" x1="6.74" y1="3.48" x2="6.4" y2="3.28"/><line class="cls-1" x1="5.62" y1="3.26" x2="4.54" y2="2.64"/><line class="cls-1" x1="6.36" y1="3.69" x2="6.03" y2="3.5"/><line class="cls-1" x1="7.85" y1="3.73" x2="7.85" y2="3.3"/><line class="cls-1" x1="7.85" y1="3.73" x2="8.23" y2="3.95"/><line class="cls-1" x1="3" y1="6.54" x2="3" y2="6.11"/><line class="cls-1" x1="3" y1="6.54" x2="3.37" y2="6.75"/><line class="cls-1" x1="2.26" y1="6.11" x2="2.26" y2="5.68"/><line class="cls-1" x1="2.26" y1="6.11" x2="2.63" y2="6.32"/><line class="cls-1" x1="3.37" y1="6.32" x2="3.37" y2="5.89"/><line class="cls-1" x1="3.37" y1="6.32" x2="3.74" y2="6.54"/><line class="cls-1" x1="7.11" y1="3.3" x2="7.11" y2="2.88"/><line class="cls-1" x1="7.11" y1="3.3" x2="7.48" y2="3.52"/><line class="cls-1" x1="3.78" y1="6.09" x2="6.02" y2="4.8"/><line class="cls-1" x1="5.31" y1="4.39" x2="4.9" y2="4.15"/><line class="cls-1" x1="4.56" y1="3.96" x2="4.15" y2="3.72"/><line class="cls-1" x1="5.99" y1="3.52" x2="5.99" y2="3.09"/><line class="cls-1" x1="5.62" y1="3.3" x2="5.62" y2="2.88"/><line class="cls-1" x1="2.63" y1="6.75" x2="2.63" y2="6.32"/><line class="cls-1" x1="1.88" y1="6.32" x2="1.88" y2="5.89"/><line class="cls-1" x1="1.88" y1="5.46" x2="1.88" y2="5.03"/><line class="cls-1" x1="1.88" y1="5.46" x2="2.26" y2="5.68"/><line class="cls-1" x1="6.74" y1="3.52" x2="6.74" y2="3.09"/><line class="cls-1" x1="6.74" y1="3.52" x2="7.11" y2="3.73"/><line class="cls-1" x1="7.48" y1="4.38" x2="7.48" y2="3.95"/><line class="cls-1" x1="7.11" y1="4.16" x2="7.11" y2="3.73"/><line class="cls-1" x1="5.99" y1="3.09" x2="5.99" y2="2.66"/><line class="cls-1" x1="5.99" y1="3.09" x2="6.36" y2="3.3"/><line class="cls-1" x1="2.63" y1="5.89" x2="2.63" y2="5.46"/><line class="cls-1" x1="2.63" y1="5.89" x2="3" y2="6.11"/><line class="cls-1" x1="1.51" y1="5.68" x2="1.51" y2="5.25"/><line class="cls-1" x1="1.51" y1="5.68" x2="1.88" y2="5.89"/><line class="cls-1" x1="8.64" y1="1.13" x2="9.04" y2="1.37"/><line class="cls-1" x1="10.5" y1="2.21" x2="8.26" y2="3.5"/><line class="cls-1" x1="1.51" y1="6.11" x2="1.51" y2="5.68"/><line class="cls-1" x1="1.14" y1="5.89" x2="1.14" y2="5.46"/><line class="cls-1" x1="7.48" y1="3.95" x2="7.48" y2="3.52"/><line class="cls-1" x1="7.48" y1="3.95" x2="7.85" y2="4.16"/><line class="cls-1" x1="6.36" y1="2.88" x2="6.36" y2="2.45"/><line class="cls-1" x1="6.36" y1="2.88" x2="6.74" y2="3.09"/><line class="cls-1" x1="6.36" y1="3.73" x2="6.36" y2="3.3"/></g></g></svg>