<svg xmlns="http://www.w3.org/2000/svg" viewBox="0 0 9.66 15.91"><defs><style>.cls-1{fill:none;stroke:#b4b4b4;stroke-linecap:round;stroke-linejoin:round;stroke-width:0.12px;}</style></defs><title>Type</title><g id="Layer_2" data-name="Layer 2"><g id="Make2D::Visible::Curves"><line class="cls-1" x1="0.7" y1="12.18" x2="0.7" y2="9.97"/><line class="cls-1" x1="0.7" y1="12.91" x2="0.7" y2="12.18"/><line class="cls-1" x1="3.88" y1="14.01" x2="3.88" y2="5.93"/><line class="cls-1" x1="3.88" y1="14.75" x2="3.88" y2="14.01"/><line class="cls-1" x1="8.65" y1="10.52" x2="8.65" y2="9.79"/><line class="cls-1" x1="7.37" y1="10.52" x2="7.37" y2="11.26"/><line class="cls-1" x1="6.74" y1="10.16" x2="6.74" y2="10.89"/><line class="cls-1" x1="8.01" y1="9.42" x2="8.65" y2="9.79"/><line class="cls-1" x1="6.74" y1="10.16" x2="7.37" y2="10.52"/><line class="cls-1" x1="6.74" y1="10.89" x2="7.37" y2="11.26"/><line class="cls-1" x1="1.33" y1="10.34" x2="1.97" y2="9.97"/><line class="cls-1" x1="0.06" y1="9.61" x2="0.7" y2="9.97"/><line class="cls-1" x1="1.97" y1="9.97" x2="1.97" y2="7.77"/><line class="cls-1" x1="0.7" y1="7.04" x2="0.06" y2="7.4"/><line class="cls-1" x1="1.97" y1="7.77" x2="1.33" y2="8.14"/><line class="cls-1" x1="0.06" y1="7.4" x2="0.06" y2="9.61"/><line class="cls-1" x1="1.33" y1="2.26" x2="1.33" y2="3"/><line class="cls-1" x1="1.33" y1="3" x2="0.7" y2="3.36"/><line class="cls-1" x1="0.7" y1="3.36" x2="0.7" y2="4.1"/><line class="cls-1" x1="1.33" y1="2.26" x2="1.97" y2="2.63"/><line class="cls-1" x1="0.7" y1="3.36" x2="1.33" y2="3.73"/><line class="cls-1" x1="3.88" y1="15.48" x2="4.51" y2="15.85"/><line class="cls-1" x1="3.24" y1="15.85" x2="3.88" y2="15.48"/><line class="cls-1" x1="4.51" y1="15.85" x2="5.15" y2="15.48"/><line class="cls-1" x1="5.15" y1="14.75" x2="4.51" y2="15.11"/><line class="cls-1" x1="4.51" y1="14.38" x2="3.88" y2="14.75"/><line class="cls-1" x1="3.88" y1="5.93" x2="4.51" y2="5.57"/><line class="cls-1" x1="4.51" y1="5.57" x2="4.51" y2="4.83"/><line class="cls-1" x1="4.51" y1="4.83" x2="5.15" y2="4.47"/><line class="cls-1" x1="5.15" y1="4.47" x2="5.15" y2="3.73"/><line class="cls-1" x1="8.33" y1="1.9" x2="8.33" y2="2.63"/><line class="cls-1" x1="8.33" y1="2.63" x2="8.96" y2="2.26"/><line class="cls-1" x1="8.96" y1="2.26" x2="8.96" y2="3"/><line class="cls-1" x1="8.96" y1="3" x2="9.6" y2="2.63"/><line class="cls-1" x1="9.6" y1="2.63" x2="9.6" y2="3.36"/><line class="cls-1" x1="0.7" y1="4.1" x2="1.33" y2="3.73"/><line class="cls-1" x1="1.33" y1="3.73" x2="1.33" y2="3"/><line class="cls-1" x1="1.33" y1="3" x2="1.97" y2="2.63"/><line class="cls-1" x1="1.97" y1="2.63" x2="1.97" y2="1.9"/><line class="cls-1" x1="4.51" y1="15.11" x2="3.88" y2="14.75"/><line class="cls-1" x1="4.51" y1="5.57" x2="1.33" y2="3.73"/><line class="cls-1" x1="5.15" y1="4.47" x2="1.97" y2="2.63"/><line class="cls-1" x1="8.96" y1="2.26" x2="8.33" y2="1.9"/><line class="cls-1" x1="0.7" y1="7.04" x2="0.7" y2="4.1"/><line class="cls-1" x1="9.6" y1="3.36" x2="8.96" y2="3.73"/><line class="cls-1" x1="8.96" y1="3.73" x2="8.96" y2="3"/><line class="cls-1" x1="5.78" y1="4.83" x2="5.78" y2="5.57"/><line class="cls-1" x1="5.78" y1="5.57" x2="5.15" y2="5.93"/><line class="cls-1" x1="5.15" y1="14.75" x2="5.78" y2="14.38"/><line class="cls-1" x1="8.96" y1="13.28" x2="8.96" y2="12.72"/><line class="cls-1" x1="8.96" y1="12.54" x2="9.6" y2="12.18"/><line class="cls-1" x1="8.96" y1="3" x2="9.6" y2="3.36"/><line class="cls-1" x1="8.33" y1="2.63" x2="8.96" y2="3"/><line class="cls-1" x1="5.15" y1="4.47" x2="5.78" y2="4.83"/><line class="cls-1" x1="5.15" y1="5.2" x2="5.78" y2="5.57"/><line class="cls-1" x1="4.51" y1="5.57" x2="5.15" y2="5.93"/><line class="cls-1" x1="4.51" y1="14.38" x2="5.15" y2="14.75"/><line class="cls-1" x1="8.33" y1="12.18" x2="8.33" y2="11.44"/><line class="cls-1" x1="5.15" y1="4.47" x2="5.15" y2="5.2"/><line class="cls-1" x1="5.15" y1="5.2" x2="4.51" y2="5.57"/><line class="cls-1" x1="0.7" y1="9.97" x2="1.33" y2="10.34"/><line class="cls-1" x1="1.97" y1="1.9" x2="1.33" y2="2.26"/><line class="cls-1" x1="5.78" y1="15.11" x2="5.15" y2="15.48"/><line class="cls-1" x1="8.65" y1="9.79" x2="7.37" y2="10.52"/><line class="cls-1" x1="7.37" y1="11.26" x2="8.65" y2="10.52"/><line class="cls-1" x1="8.01" y1="9.42" x2="6.74" y2="10.16"/><line class="cls-1" x1="0.7" y1="7.04" x2="1.97" y2="7.77"/><line class="cls-1" x1="0.06" y1="7.4" x2="1.33" y2="8.14"/><line class="cls-1" x1="1.33" y1="8.14" x2="1.33" y2="10.34"/><line class="cls-1" x1="5.15" y1="3.73" x2="8.33" y2="1.9"/><line class="cls-1" x1="1.97" y1="1.9" x2="5.15" y2="0.06"/><line class="cls-1" x1="1.97" y1="13.65" x2="0.7" y2="12.91"/><line class="cls-1" x1="3.88" y1="5.93" x2="0.7" y2="4.1"/><line class="cls-1" x1="4.51" y1="4.83" x2="1.33" y2="3"/><line class="cls-1" x1="5.15" y1="3.73" x2="1.97" y2="1.9"/><line class="cls-1" x1="8.33" y1="1.9" x2="5.15" y2="0.06"/><line class="cls-1" x1="9.6" y1="2.63" x2="8.96" y2="2.26"/><line class="cls-1" x1="9.6" y1="12.18" x2="9.6" y2="3.36"/><line class="cls-1" x1="8.96" y1="3" x2="5.78" y2="4.83"/><line class="cls-1" x1="8.33" y1="2.63" x2="5.15" y2="4.47"/><line class="cls-1" x1="8.01" y1="11.99" x2="8.01" y2="11.63"/><line class="cls-1" x1="8.96" y1="12.72" x2="8.96" y2="12.54"/><line class="cls-1" x1="8.01" y1="11.99" x2="8.33" y2="12.18"/><line class="cls-1" x1="1.97" y1="14.93" x2="1.97" y2="15.11"/><line class="cls-1" x1="3.88" y1="15.48" x2="3.88" y2="14.75"/><line class="cls-1" x1="3.24" y1="14.38" x2="3.24" y2="15.85"/><line class="cls-1" x1="4.51" y1="15.85" x2="4.51" y2="15.11"/><line class="cls-1" x1="1.97" y1="13.65" x2="1.97" y2="14.93"/><line class="cls-1" x1="1.97" y1="15.11" x2="3.24" y2="15.85"/><line class="cls-1" x1="5.15" y1="15.48" x2="5.15" y2="14.75"/><line class="cls-1" x1="4.51" y1="15.11" x2="4.51" y2="14.38"/><line class="cls-1" x1="5.15" y1="15.48" x2="4.51" y2="15.11"/><line class="cls-1" x1="3.88" y1="14.75" x2="1.97" y2="13.65"/><line class="cls-1" x1="5.15" y1="5.93" x2="5.15" y2="14.75"/><line class="cls-1" x1="5.78" y1="14.38" x2="5.78" y2="15.11"/><line class="cls-1" x1="5.78" y1="15.11" x2="8.96" y2="13.28"/><line class="cls-1" x1="5.15" y1="14.75" x2="5.78" y2="15.11"/><line class="cls-1" x1="8.33" y1="11.44" x2="6.42" y2="12.54"/><line class="cls-1" x1="6.42" y1="12.54" x2="6.42" y2="13.28"/><line class="cls-1" x1="6.42" y1="13.28" x2="8.33" y2="12.18"/><line class="cls-1" x1="4.51" y1="5.57" x2="4.51" y2="14.38"/><line class="cls-1" x1="6.42" y1="12.91" x2="8.01" y2="11.99"/></g></g></svg>