<svg xmlns="http://www.w3.org/2000/svg" viewBox="0 0 572.27 236.8"><defs><style>.cls-1{fill:#ed2a26;}.cls-2{fill:#ee2624;}.cls-3{fill:#231f20;}.cls-4{fill:#fff;}</style></defs><title>Asset 2logoRed</title><g id="Layer_2" data-name="Layer 2"><g id="Layer_1-2" data-name="Layer 1"><polygon class="cls-1" points="572.27 217.07 572.27 236.8 552.54 236.8 532.8 236.8 532.8 217.07 513.07 217.07 513.07 236.8 493.34 236.8 473.6 236.8 473.6 217.07 473.6 197.33 493.34 197.33 493.34 177.6 473.6 177.6 473.6 157.87 473.6 138.13 493.34 138.13 513.07 138.13 513.07 157.87 532.8 157.87 532.8 138.13 552.54 138.13 572.27 138.13 572.27 157.87 572.27 177.6 552.54 177.6 552.54 197.33 572.27 197.33 572.27 217.07"/><polygon class="cls-1" points="572.27 78.93 572.27 98.67 552.54 98.67 532.8 98.67 532.8 78.93 513.07 78.93 513.07 98.67 493.34 98.67 473.6 98.67 473.6 78.93 473.6 59.2 473.6 39.47 473.6 19.73 473.6 0 493.34 0 513.07 0 532.8 0 552.54 0 572.27 0 572.27 19.73 572.27 39.47 552.54 39.47 552.54 19.73 532.8 19.73 532.8 39.47 552.54 39.47 552.54 59.2 572.27 59.2 572.27 78.93"/><path class="cls-2" d="M454.12,217.32v19.73H355.45V138.38h98.67v78.94Zm-19.73,0v-59.2h-59.2v59.2h59.2Z" transform="translate(-0.25 -0.25)"/><polygon class="cls-1" points="453.87 78.93 453.87 98.67 434.14 98.67 414.4 98.67 394.67 98.67 374.94 98.67 355.2 98.67 355.2 78.93 355.2 59.2 355.2 39.47 355.2 19.73 355.2 0 374.94 0 394.67 0 414.4 0 434.14 0 453.87 0 453.87 19.73 434.14 19.73 414.4 19.73 414.4 39.47 434.14 39.47 434.14 59.2 414.4 59.2 414.4 78.93 434.14 78.93 453.87 78.93"/><polygon class="cls-3" points="414.4 197.33 414.4 217.07 394.67 217.07 374.94 217.07 374.94 197.33 374.94 177.6 374.94 157.87 394.67 157.87 414.4 157.87 414.4 177.6 414.4 197.33"/><polygon class="cls-1" points="335.47 217.07 335.47 236.8 315.74 236.8 296 236.8 276.27 236.8 256.54 236.8 236.8 236.8 236.8 217.07 236.8 197.33 236.8 177.6 236.8 157.87 236.8 138.13 256.54 138.13 276.27 138.13 296 138.13 296 157.87 296 177.6 296 197.33 296 217.07 315.74 217.07 335.47 217.07"/><path class="cls-1" d="M335.72,39.72V59.45H296.25V98.91h-59.2V.25h98.67V39.72Zm-19.73,0V20H296.25V39.72Z" transform="translate(-0.25 -0.25)"/><path class="cls-1" d="M217.32,217.32v19.73H118.65V138.38h98.67v78.94Zm-19.73,0V197.58H177.85v19.74Zm0-39.47V158.12H177.85v19.73Z" transform="translate(-0.25 -0.25)"/><polygon class="cls-1" points="217.07 78.93 217.07 98.67 197.34 98.67 177.6 98.67 157.87 98.67 138.14 98.67 118.4 98.67 118.4 78.93 118.4 59.2 118.4 39.47 118.4 19.73 118.4 0 138.14 0 157.87 0 177.6 0 177.6 19.73 177.6 39.47 177.6 59.2 177.6 78.93 197.34 78.93 197.34 59.2 197.34 39.47 197.34 19.73 197.34 0 217.07 0 217.07 19.73 217.07 39.47 217.07 59.2 217.07 78.93"/><polygon class="cls-1" points="98.67 78.93 98.67 98.67 78.94 98.67 59.2 98.67 39.47 98.67 19.74 98.67 0 98.67 0 78.93 19.74 78.93 39.47 78.93 39.47 59.2 19.74 59.2 0 59.2 0 39.47 0 19.73 0 0 19.74 0 39.47 0 59.2 0 78.94 0 98.67 0 98.67 19.73 78.94 19.73 59.2 19.73 59.2 39.47 78.94 39.47 98.67 39.47 98.67 59.2 98.67 78.93"/><polygon class="cls-4" points="414.4 157.87 414.4 177.6 414.4 197.33 414.4 217.06 424.27 217.06 434.14 217.06 434.14 197.33 434.14 177.6 434.14 157.87 424.27 157.87 414.4 157.87"/></g></g></svg>