<svg xmlns="http://www.w3.org/2000/svg" viewBox="0 0 785.59 1768.57"><defs><style>.cls-1{fill:none;stroke:#000;stroke-linecap:round;stroke-linejoin:round;stroke-width:6px;}</style></defs><title>Asset 205</title><g id="Layer_2" data-name="Layer 2"><g id="Make2D::Visible::Curves"><line class="cls-1" x1="629.03" y1="903.19" x2="629.03" y2="930.47"/><line class="cls-1" x1="404.61" y1="855.45" x2="392.79" y2="848.63"/><line class="cls-1" x1="664.47" y1="896.37" x2="664.47" y2="923.65"/><line class="cls-1" x1="640.84" y1="937.29" x2="629.03" y2="930.47"/><line class="cls-1" x1="629.03" y1="930.47" x2="629.03" y2="957.75"/><line class="cls-1" x1="404.61" y1="841.81" x2="404.61" y2="855.45"/><line class="cls-1" x1="664.47" y1="923.65" x2="664.47" y2="950.93"/><line class="cls-1" x1="640.84" y1="964.57" x2="629.03" y2="957.75"/><line class="cls-1" x1="428.23" y1="828.18" x2="428.23" y2="841.81"/><line class="cls-1" x1="404.61" y1="910.01" x2="392.79" y2="903.19"/><line class="cls-1" x1="369.17" y1="821.36" x2="369.17" y2="834.99"/><line class="cls-1" x1="392.79" y1="807.72" x2="416.42" y2="821.36"/><line class="cls-1" x1="428.23" y1="869.09" x2="428.23" y2="896.37"/><line class="cls-1" x1="392.79" y1="875.91" x2="392.79" y2="903.19"/><line class="cls-1" x1="428.23" y1="1005.49" x2="404.61" y2="1019.12"/><line class="cls-1" x1="321.92" y1="794.08" x2="321.92" y2="807.72"/><line class="cls-1" x1="428.23" y1="978.21" x2="428.23" y2="1005.49"/><line class="cls-1" x1="404.61" y1="882.73" x2="392.79" y2="875.91"/><line class="cls-1" x1="345.55" y1="821.36" x2="321.92" y2="807.72"/><line class="cls-1" x1="428.23" y1="841.81" x2="428.23" y2="869.09"/><line class="cls-1" x1="392.79" y1="848.63" x2="392.79" y2="875.91"/><line class="cls-1" x1="629.03" y1="766.8" x2="629.03" y2="794.08"/><line class="cls-1" x1="388.27" y1="1192.23" x2="376.46" y2="1185.41"/><line class="cls-1" x1="664.47" y1="759.98" x2="664.47" y2="787.26"/><line class="cls-1" x1="640.84" y1="800.9" x2="629.03" y2="794.08"/><line class="cls-1" x1="629.03" y1="698.6" x2="640.84" y2="691.78"/><line class="cls-1" x1="629.03" y1="698.6" x2="629.03" y2="707.83"/><line class="cls-1" x1="664.47" y1="691.78" x2="664.47" y2="705.42"/><line class="cls-1" x1="640.84" y1="719.06" x2="629.03" y2="712.24"/><line class="cls-1" x1="629.03" y1="821.36" x2="629.03" y2="848.63"/><line class="cls-1" x1="397.32" y1="1187" x2="388.27" y2="1192.23"/><line class="cls-1" x1="664.47" y1="814.54" x2="664.47" y2="841.81"/><line class="cls-1" x1="640.84" y1="855.45" x2="629.03" y2="848.63"/><line class="cls-1" x1="629.03" y1="794.08" x2="629.03" y2="821.36"/><line class="cls-1" x1="397.32" y1="1159.73" x2="397.32" y2="1187"/><line class="cls-1" x1="664.47" y1="787.26" x2="664.47" y2="814.54"/><line class="cls-1" x1="640.84" y1="828.18" x2="629.03" y2="821.36"/><line class="cls-1" x1="376.46" y1="1158.13" x2="376.46" y2="1185.41"/><line class="cls-1" x1="380.98" y1="1060.04" x2="369.17" y2="1053.22"/><line class="cls-1" x1="404.61" y1="1019.12" x2="404.61" y2="1046.4"/><line class="cls-1" x1="369.17" y1="1025.94" x2="369.17" y2="1053.22"/><line class="cls-1" x1="640.84" y1="705.42" x2="640.84" y2="719.06"/><line class="cls-1" x1="581.78" y1="671.32" x2="593.6" y2="664.5"/><line class="cls-1" x1="581.78" y1="671.32" x2="581.78" y2="684.96"/><line class="cls-1" x1="605.41" y1="657.68" x2="629.03" y2="671.32"/><line class="cls-1" x1="380.98" y1="1087.32" x2="369.17" y2="1080.5"/><line class="cls-1" x1="404.61" y1="1046.4" x2="404.61" y2="1073.68"/><line class="cls-1" x1="392.79" y1="930.47" x2="392.79" y2="957.75"/><line class="cls-1" x1="369.17" y1="1053.22" x2="369.17" y2="1080.5"/><line class="cls-1" x1="428.23" y1="923.65" x2="428.23" y2="950.93"/><line class="cls-1" x1="404.61" y1="964.57" x2="392.79" y2="957.75"/><line class="cls-1" x1="405.43" y1="568.55" x2="321.92" y2="616.76"/><line class="cls-1" x1="85.68" y1="725.88" x2="85.68" y2="753.16"/><line class="cls-1" x1="652.66" y1="589.49" x2="652.66" y2="616.77"/><line class="cls-1" x1="251.05" y1="821.36" x2="251.05" y2="848.63"/><line class="cls-1" x1="652.66" y1="616.77" x2="593.6" y2="650.86"/><line class="cls-1" x1="251.05" y1="848.63" x2="85.68" y2="753.16"/><line class="cls-1" x1="391.63" y1="740.19" x2="321.92" y2="699.95"/><line class="cls-1" x1="369.17" y1="998.67" x2="392.79" y2="985.03"/><line class="cls-1" x1="369.17" y1="998.67" x2="369.17" y2="1025.94"/><line class="cls-1" x1="380.98" y1="1005.49" x2="369.17" y2="998.67"/><line class="cls-1" x1="380.98" y1="1032.76" x2="369.17" y2="1025.94"/><line class="cls-1" x1="629.03" y1="739.52" x2="629.03" y2="766.8"/><line class="cls-1" x1="391.63" y1="714.85" x2="391.63" y2="740.19"/><line class="cls-1" x1="664.47" y1="732.7" x2="664.47" y2="759.98"/><line class="cls-1" x1="640.84" y1="773.62" x2="629.03" y2="766.8"/><line class="cls-1" x1="629.03" y1="848.63" x2="629.03" y2="875.91"/><line class="cls-1" x1="512.08" y1="645.3" x2="512.08" y2="670.65"/><line class="cls-1" x1="664.47" y1="841.81" x2="664.47" y2="869.09"/><line class="cls-1" x1="640.84" y1="882.73" x2="629.03" y2="875.91"/><line class="cls-1" x1="581.78" y1="616.77" x2="593.6" y2="623.59"/><line class="cls-1" x1="593.6" y1="623.59" x2="593.6" y2="650.86"/><line class="cls-1" x1="569.97" y1="664.5" x2="558.16" y2="657.68"/><line class="cls-1" x1="629.03" y1="875.91" x2="629.03" y2="903.19"/><line class="cls-1" x1="463.67" y1="425.82" x2="581.78" y2="494.01"/><line class="cls-1" x1="664.47" y1="869.09" x2="664.47" y2="896.37"/><line class="cls-1" x1="640.84" y1="910.01" x2="629.03" y2="903.19"/><line class="cls-1" x1="629.03" y1="957.75" x2="629.03" y2="985.03"/><line class="cls-1" x1="321.92" y1="710.32" x2="358.75" y2="731.58"/><line class="cls-1" x1="664.47" y1="950.93" x2="664.47" y2="978.21"/><line class="cls-1" x1="558.17" y1="289.42" x2="605.4" y2="262.15"/><line class="cls-1" x1="676.29" y1="330.34" x2="699.9" y2="316.7"/><line class="cls-1" x1="676.29" y1="248.5" x2="699.9" y2="234.87"/><line class="cls-1" x1="321.92" y1="751.43" x2="321.92" y2="752.84"/><polyline class="cls-1" points="547.17 650.39 558.16 644.04 558.17 644.04"/><line class="cls-1" x1="358.75" y1="759.18" x2="358.75" y2="731.58"/><line class="cls-1" x1="547.17" y1="621.38" x2="547.17" y2="650.39"/><line class="cls-1" x1="274.67" y1="807.72" x2="321.93" y2="780.44"/><line class="cls-1" x1="558.16" y1="615.04" x2="581.78" y2="601.4"/><line class="cls-1" x1="357.36" y1="787.26" x2="369.17" y2="794.08"/><line class="cls-1" x1="274.67" y1="807.72" x2="274.67" y2="778.71"/><line class="cls-1" x1="321.91" y1="807.72" x2="251.05" y2="848.63"/><line class="cls-1" x1="391.63" y1="740.19" x2="358.75" y2="759.18"/><line class="cls-1" x1="558.16" y1="615.04" x2="558.16" y2="589.49"/><line class="cls-1" x1="534.54" y1="628.68" x2="547.17" y2="621.38"/><line class="cls-1" x1="581.78" y1="601.4" x2="559.66" y2="588.62"/><line class="cls-1" x1="109.31" y1="712.24" x2="109.31" y2="709.81"/><line class="cls-1" x1="298.3" y1="412.18" x2="321.92" y2="425.82"/><line class="cls-1" x1="298.3" y1="384.9" x2="321.92" y2="398.54"/><line class="cls-1" x1="321.92" y1="371.26" x2="345.55" y2="384.9"/><line class="cls-1" x1="345.55" y1="807.72" x2="333.73" y2="800.9"/><line class="cls-1" x1="392.79" y1="903.19" x2="392.79" y2="930.47"/><line class="cls-1" x1="321.92" y1="343.98" x2="345.55" y2="357.62"/><line class="cls-1" x1="428.23" y1="896.37" x2="428.23" y2="923.65"/><line class="cls-1" x1="404.61" y1="937.29" x2="392.79" y2="930.47"/><line class="cls-1" x1="392.79" y1="957.75" x2="392.79" y2="985.03"/><line class="cls-1" x1="345.55" y1="330.34" x2="369.17" y2="343.98"/><line class="cls-1" x1="428.23" y1="950.93" x2="428.23" y2="978.21"/><line class="cls-1" x1="404.61" y1="991.85" x2="392.79" y2="985.03"/><line class="cls-1" x1="377.18" y1="1695.18" x2="400.8" y2="1708.82"/><line class="cls-1" x1="377.18" y1="1695.18" x2="377.18" y2="1531.51"/><line class="cls-1" x1="400.8" y1="1708.82" x2="684.29" y2="1545.15"/><line class="cls-1" x1="684.29" y1="1545.15" x2="684.29" y2="1517.87"/><line class="cls-1" x1="345.55" y1="303.06" x2="369.17" y2="316.7"/><line class="cls-1" x1="369.17" y1="289.42" x2="392.79" y2="303.06"/><line class="cls-1" x1="369.17" y1="262.15" x2="392.79" y2="275.79"/><line class="cls-1" x1="684.29" y1="1381.48" x2="660.66" y2="1395.12"/><line class="cls-1" x1="660.66" y1="1367.84" x2="684.29" y2="1381.48"/><line class="cls-1" x1="416.42" y1="234.87" x2="440.04" y2="248.51"/><line class="cls-1" x1="400.8" y1="1517.87" x2="424.43" y2="1531.51"/><line class="cls-1" x1="400.8" y1="1545.15" x2="377.18" y2="1531.51"/><line class="cls-1" x1="424.43" y1="1476.95" x2="424.43" y2="1531.51"/><line class="cls-1" x1="424.43" y1="1531.51" x2="400.8" y2="1545.15"/><line class="cls-1" x1="400.8" y1="1463.31" x2="400.8" y2="1517.87"/><line class="cls-1" x1="377.18" y1="1531.51" x2="400.8" y2="1517.87"/><line class="cls-1" x1="400.8" y1="1463.31" x2="424.43" y2="1476.95"/><line class="cls-1" x1="416.42" y1="207.59" x2="440.04" y2="221.23"/><line class="cls-1" x1="581.78" y1="112.11" x2="605.41" y2="125.75"/><line class="cls-1" x1="676.28" y1="166.67" x2="699.9" y2="180.31"/><line class="cls-1" x1="636.32" y1="1008.1" x2="636.32" y2="1035.37"/><line class="cls-1" x1="657.18" y1="1009.69" x2="657.18" y2="1036.97"/><line class="cls-1" x1="657.18" y1="1036.97" x2="648.13" y2="1042.19"/><line class="cls-1" x1="648.13" y1="1042.19" x2="636.32" y2="1035.37"/><line class="cls-1" x1="321.92" y1="398.54" x2="321.92" y2="425.82"/><line class="cls-1" x1="345.55" y1="384.9" x2="321.92" y2="398.54"/><line class="cls-1" x1="345.55" y1="357.62" x2="345.55" y2="384.9"/><line class="cls-1" x1="657.18" y1="982.42" x2="657.18" y2="1009.69"/><line class="cls-1" x1="657.18" y1="1009.69" x2="648.13" y2="1014.92"/><line class="cls-1" x1="369.17" y1="343.98" x2="345.55" y2="357.62"/><line class="cls-1" x1="699.9" y1="180.31" x2="676.28" y2="193.95"/><line class="cls-1" x1="345.55" y1="807.72" x2="345.55" y2="821.36"/><line class="cls-1" x1="369.17" y1="794.08" x2="392.79" y2="807.72"/><line class="cls-1" x1="699.9" y1="207.59" x2="699.9" y2="180.31"/><line class="cls-1" x1="369.17" y1="834.99" x2="345.55" y2="821.36"/><line class="cls-1" x1="369.17" y1="343.98" x2="392.79" y2="357.62"/><line class="cls-1" x1="321.92" y1="766.8" x2="345.55" y2="753.16"/><line class="cls-1" x1="345.55" y1="753.16" x2="357.36" y2="759.98"/><line class="cls-1" x1="357.36" y1="759.98" x2="357.36" y2="787.26"/><line class="cls-1" x1="333.73" y1="773.62" x2="321.92" y2="766.8"/><line class="cls-1" x1="333.73" y1="800.9" x2="321.92" y2="794.08"/><line class="cls-1" x1="369.17" y1="316.7" x2="392.79" y2="330.34"/><line class="cls-1" x1="605.41" y1="684.96" x2="605.41" y2="698.6"/><line class="cls-1" x1="629.03" y1="671.32" x2="652.66" y2="684.96"/><line class="cls-1" x1="392.79" y1="303.06" x2="416.42" y2="316.7"/><line class="cls-1" x1="3" y1="1196.44" x2="3" y2="1711.02"/><line class="cls-1" x1="392.79" y1="275.79" x2="416.42" y2="289.42"/><line class="cls-1" x1="782.59" y1="855.45" x2="782.59" y2="1370.04"/><line class="cls-1" x1="440.04" y1="248.51" x2="463.67" y2="262.15"/><line class="cls-1" x1="440.04" y1="221.23" x2="463.67" y2="234.87"/><line class="cls-1" x1="605.41" y1="125.75" x2="629.03" y2="139.39"/><line class="cls-1" x1="782.59" y1="582.67" x2="758.96" y2="569.03"/><line class="cls-1" x1="652.66" y1="153.03" x2="676.28" y2="166.67"/><line class="cls-1" x1="392.79" y1="330.34" x2="392.79" y2="357.62"/><line class="cls-1" x1="758.96" y1="569.03" x2="758.96" y2="596.31"/><line class="cls-1" x1="758.96" y1="596.31" x2="782.59" y2="582.67"/><line class="cls-1" x1="416.42" y1="316.7" x2="392.79" y2="330.34"/><line class="cls-1" x1="782.59" y1="582.67" x2="782.59" y2="855.45"/><line class="cls-1" x1="664.47" y1="514.47" x2="617.23" y2="541.75"/><line class="cls-1" x1="97.5" y1="841.81" x2="191.99" y2="896.37"/><line class="cls-1" x1="191.99" y1="896.37" x2="191.99" y2="1196.44"/><line class="cls-1" x1="191.99" y1="896.37" x2="121.12" y2="937.29"/><line class="cls-1" x1="26.62" y1="882.73" x2="26.62" y2="910.01"/><line class="cls-1" x1="3" y1="923.65" x2="12.72" y2="918.04"/><line class="cls-1" x1="121.12" y1="937.29" x2="121.12" y2="964.57"/><line class="cls-1" x1="121.12" y1="964.57" x2="97.5" y2="978.21"/><line class="cls-1" x1="3" y1="923.65" x2="3" y2="1196.44"/><line class="cls-1" x1="26.62" y1="882.73" x2="97.5" y2="841.81"/><line class="cls-1" x1="270.87" y1="914.63" x2="12.71" y2="765.58"/><line class="cls-1" x1="12.71" y1="765.58" x2="12.71" y2="918.05"/><line class="cls-1" x1="97.5" y1="1765.57" x2="191.99" y2="1711.02"/><line class="cls-1" x1="3" y1="1711.02" x2="97.5" y2="1765.57"/><line class="cls-1" x1="416.42" y1="289.42" x2="416.42" y2="316.7"/><line class="cls-1" x1="676.28" y1="166.67" x2="652.66" y2="180.31"/><line class="cls-1" x1="676.28" y1="193.95" x2="676.28" y2="166.67"/><line class="cls-1" x1="463.67" y1="262.15" x2="487.29" y2="275.79"/><line class="cls-1" x1="191.99" y1="1711.02" x2="270.87" y2="1756.56"/><line class="cls-1" x1="463.67" y1="234.87" x2="487.29" y2="248.51"/><line class="cls-1" x1="629.03" y1="139.39" x2="652.66" y2="153.03"/><line class="cls-1" x1="270.87" y1="1756.56" x2="377.19" y2="1695.17"/><line class="cls-1" x1="487.29" y1="248.51" x2="487.29" y2="275.79"/><line class="cls-1" x1="12.72" y1="918.04" x2="26.62" y2="910.01"/><line class="cls-1" x1="766.97" y1="1379.05" x2="766.97" y2="1470.13"/><line class="cls-1" x1="766.97" y1="1379.05" x2="782.59" y2="1370.04"/><line class="cls-1" x1="652.66" y1="180.31" x2="652.66" y2="153.03"/><line class="cls-1" x1="440.04" y1="466.73" x2="416.42" y2="480.37"/><line class="cls-1" x1="440.04" y1="439.46" x2="440.04" y2="466.73"/><line class="cls-1" x1="463.67" y1="425.82" x2="440.04" y2="439.46"/><line class="cls-1" x1="227.43" y1="562.21" x2="251.05" y2="575.85"/><line class="cls-1" x1="227.43" y1="453.1" x2="251.05" y2="466.73"/><line class="cls-1" x1="251.05" y1="439.46" x2="274.67" y2="453.1"/><line class="cls-1" x1="97.5" y1="978.21" x2="97.5" y2="1250.99"/><line class="cls-1" x1="251.05" y1="357.62" x2="274.67" y2="371.26"/><line class="cls-1" x1="558.16" y1="657.68" x2="558.16" y2="671.32"/><line class="cls-1" x1="274.67" y1="343.98" x2="298.3" y2="357.62"/><line class="cls-1" x1="581.78" y1="684.96" x2="558.16" y2="671.32"/><line class="cls-1" x1="274.67" y1="316.7" x2="298.3" y2="330.34"/><line class="cls-1" x1="298.3" y1="303.06" x2="321.92" y2="316.7"/><line class="cls-1" x1="298.3" y1="275.79" x2="321.92" y2="289.42"/><line class="cls-1" x1="321.92" y1="262.15" x2="345.55" y2="275.79"/><line class="cls-1" x1="397.32" y1="1132.45" x2="397.32" y2="1159.73"/><line class="cls-1" x1="397.32" y1="1159.73" x2="388.27" y2="1164.95"/><line class="cls-1" x1="629.03" y1="712.24" x2="629.03" y2="739.52"/><line class="cls-1" x1="321.92" y1="234.87" x2="345.55" y2="248.51"/><line class="cls-1" x1="664.47" y1="705.42" x2="664.47" y2="732.7"/><line class="cls-1" x1="640.84" y1="746.34" x2="629.03" y2="739.52"/><line class="cls-1" x1="369.17" y1="1080.5" x2="369.17" y2="1107.78"/><line class="cls-1" x1="369.17" y1="207.59" x2="392.79" y2="221.23"/><line class="cls-1" x1="404.61" y1="1073.68" x2="404.61" y2="1100.96"/><line class="cls-1" x1="380.98" y1="1114.6" x2="369.17" y2="1107.78"/><line class="cls-1" x1="369.17" y1="1107.78" x2="369.17" y2="1135.06"/><line class="cls-1" x1="369.17" y1="180.31" x2="392.79" y2="193.95"/><line class="cls-1" x1="404.61" y1="1100.96" x2="404.61" y2="1128.24"/><line class="cls-1" x1="534.54" y1="84.84" x2="558.16" y2="98.47"/><line class="cls-1" x1="676.28" y1="248.51" x2="699.9" y2="262.15"/><line class="cls-1" x1="581.78" y1="357.62" x2="605.41" y2="371.26"/><line class="cls-1" x1="274.67" y1="453.1" x2="251.05" y2="466.73"/><line class="cls-1" x1="376.46" y1="1139.26" x2="376.46" y2="1158.13"/><line class="cls-1" x1="676.28" y1="275.79" x2="676.28" y2="248.51"/><line class="cls-1" x1="699.9" y1="262.15" x2="676.28" y2="275.79"/><line class="cls-1" x1="699.9" y1="316.7" x2="699.9" y2="262.15"/><line class="cls-1" x1="274.67" y1="753.16" x2="274.67" y2="778.71"/><line class="cls-1" x1="684.29" y1="1517.87" x2="684.29" y2="1381.48"/><line class="cls-1" x1="684.3" y1="1517.86" x2="766.97" y2="1470.13"/><line class="cls-1" x1="251.05" y1="766.8" x2="274.67" y2="753.16"/><line class="cls-1" x1="227.43" y1="644.05" x2="251.05" y2="630.41"/><line class="cls-1" x1="581.78" y1="671.32" x2="569.97" y2="664.5"/><line class="cls-1" x1="640.84" y1="691.78" x2="652.66" y2="684.96"/><line class="cls-1" x1="629.03" y1="707.83" x2="629.03" y2="712.24"/><line class="cls-1" x1="593.6" y1="664.5" x2="605.41" y2="657.68"/><line class="cls-1" x1="676.28" y1="357.62" x2="676.28" y2="330.34"/><line class="cls-1" x1="652.66" y1="371.26" x2="676.28" y2="357.62"/><line class="cls-1" x1="636.32" y1="989.23" x2="636.32" y2="1008.1"/><line class="cls-1" x1="652.66" y1="425.82" x2="652.66" y2="371.26"/><line class="cls-1" x1="629.03" y1="439.46" x2="652.66" y2="425.82"/><line class="cls-1" x1="389" y1="846.43" x2="270.87" y2="914.63"/><line class="cls-1" x1="593.6" y1="650.87" x2="605.41" y2="657.68"/><line class="cls-1" x1="629.03" y1="494.01" x2="629.03" y2="439.46"/><line class="cls-1" x1="605.41" y1="507.65" x2="629.03" y2="494.01"/><line class="cls-1" x1="605.41" y1="534.93" x2="605.41" y2="507.65"/><line class="cls-1" x1="581.78" y1="548.57" x2="605.41" y2="534.93"/><line class="cls-1" x1="581.78" y1="575.85" x2="581.78" y2="548.57"/><line class="cls-1" x1="558.16" y1="534.93" x2="534.54" y2="548.57"/><line class="cls-1" x1="558.16" y1="507.65" x2="558.16" y2="534.93"/><line class="cls-1" x1="581.78" y1="494.01" x2="558.16" y2="507.65"/><line class="cls-1" x1="85.68" y1="562.21" x2="109.31" y2="575.85"/><line class="cls-1" x1="85.68" y1="371.26" x2="109.31" y2="384.9"/><line class="cls-1" x1="109.31" y1="357.62" x2="132.93" y2="371.26"/><line class="cls-1" x1="109.31" y1="275.79" x2="132.93" y2="289.42"/><line class="cls-1" x1="132.93" y1="262.15" x2="156.56" y2="275.79"/><line class="cls-1" x1="132.93" y1="234.87" x2="156.56" y2="248.51"/><line class="cls-1" x1="156.56" y1="221.23" x2="180.18" y2="234.87"/><line class="cls-1" x1="156.56" y1="193.95" x2="180.18" y2="207.59"/><line class="cls-1" x1="180.18" y1="180.31" x2="203.8" y2="193.95"/><line class="cls-1" x1="180.18" y1="153.03" x2="203.8" y2="166.67"/><line class="cls-1" x1="227.43" y1="125.75" x2="251.05" y2="139.39"/><line class="cls-1" x1="227.43" y1="98.47" x2="251.05" y2="112.11"/><line class="cls-1" x1="392.79" y1="3" x2="416.42" y2="16.64"/><line class="cls-1" x1="109.31" y1="357.62" x2="85.68" y2="371.26"/><line class="cls-1" x1="109.31" y1="275.79" x2="109.31" y2="357.62"/><line class="cls-1" x1="132.93" y1="262.15" x2="109.31" y2="275.79"/><line class="cls-1" x1="132.93" y1="234.87" x2="132.93" y2="262.15"/><line class="cls-1" x1="156.56" y1="221.23" x2="132.93" y2="234.87"/><line class="cls-1" x1="156.56" y1="193.95" x2="156.56" y2="221.23"/><line class="cls-1" x1="180.18" y1="180.31" x2="156.56" y2="193.95"/><line class="cls-1" x1="391.63" y1="714.85" x2="321.92" y2="674.6"/><line class="cls-1" x1="85.68" y1="725.88" x2="109.32" y2="712.23"/><line class="cls-1" x1="12.71" y1="765.58" x2="109.32" y2="709.8"/><line class="cls-1" x1="180.18" y1="153.03" x2="180.18" y2="180.31"/><line class="cls-1" x1="109.31" y1="709.81" x2="109.31" y2="684.97"/><line class="cls-1" x1="581.78" y1="616.77" x2="581.78" y2="601.4"/><line class="cls-1" x1="357.36" y1="759.98" x2="358.75" y2="759.18"/><line class="cls-1" x1="227.43" y1="125.75" x2="180.18" y2="153.03"/><line class="cls-1" x1="321.93" y1="618.69" x2="393.96" y2="577.11"/><line class="cls-1" x1="227.43" y1="98.47" x2="227.43" y2="125.75"/><line class="cls-1" x1="274.67" y1="371.26" x2="298.3" y2="384.9"/><line class="cls-1" x1="298.3" y1="357.62" x2="321.92" y2="371.26"/><line class="cls-1" x1="547.18" y1="650.38" x2="512.08" y2="670.65"/><line class="cls-1" x1="605.41" y1="534.93" x2="617.22" y2="541.75"/><line class="cls-1" x1="274.66" y1="807.72" x2="251.05" y2="821.36"/><line class="cls-1" x1="405.43" y1="566.83" x2="405.43" y2="568.55"/><line class="cls-1" x1="298.3" y1="330.34" x2="321.92" y2="343.98"/><line class="cls-1" x1="321.92" y1="316.7" x2="345.55" y2="330.34"/><line class="cls-1" x1="321.92" y1="289.42" x2="345.55" y2="303.06"/><line class="cls-1" x1="345.55" y1="275.79" x2="369.17" y2="289.42"/><line class="cls-1" x1="345.55" y1="248.51" x2="369.17" y2="262.15"/><line class="cls-1" x1="392.79" y1="221.23" x2="416.42" y2="234.87"/><line class="cls-1" x1="392.79" y1="193.95" x2="416.42" y2="207.59"/><line class="cls-1" x1="558.16" y1="98.47" x2="581.78" y2="112.11"/><line class="cls-1" x1="274.67" y1="453.1" x2="298.3" y2="466.73"/><line class="cls-1" x1="369.17" y1="425.82" x2="369.17" y2="398.54"/><line class="cls-1" x1="629.03" y1="275.79" x2="629.03" y2="248.51"/><line class="cls-1" x1="605.41" y1="262.15" x2="629.03" y2="275.79"/><line class="cls-1" x1="699.9" y1="234.87" x2="699.9" y2="207.59"/><line class="cls-1" x1="629.03" y1="275.79" x2="676.29" y2="248.5"/><line class="cls-1" x1="298.3" y1="466.73" x2="369.17" y2="425.82"/><line class="cls-1" x1="298.3" y1="466.73" x2="298.3" y2="412.18"/><line class="cls-1" x1="392.79" y1="3" x2="227.43" y2="98.47"/><line class="cls-1" x1="85.68" y1="371.26" x2="85.68" y2="562.21"/><line class="cls-1" x1="109.31" y1="575.85" x2="109.31" y2="684.96"/><line class="cls-1" x1="109.31" y1="684.96" x2="132.93" y2="698.6"/><polyline class="cls-1" points="534.54 548.57 534.54 575.85 534.54 628.68"/><line class="cls-1" x1="558.16" y1="589.49" x2="581.78" y2="575.85"/><line class="cls-1" x1="251.05" y1="630.41" x2="251.05" y2="766.8"/><line class="cls-1" x1="440.04" y1="439.46" x2="558.16" y2="507.65"/><line class="cls-1" x1="440.04" y1="466.73" x2="558.16" y2="534.93"/><line class="cls-1" x1="416.42" y1="480.37" x2="534.54" y2="548.57"/><line class="cls-1" x1="416.42" y1="16.64" x2="534.54" y2="84.84"/><line class="cls-1" x1="251.05" y1="112.11" x2="369.17" y2="180.31"/><line class="cls-1" x1="251.05" y1="139.39" x2="369.17" y2="207.59"/><line class="cls-1" x1="203.8" y1="166.67" x2="321.92" y2="234.87"/><line class="cls-1" x1="203.8" y1="193.95" x2="321.92" y2="262.15"/><line class="cls-1" x1="180.18" y1="207.59" x2="298.3" y2="275.79"/><line class="cls-1" x1="180.18" y1="234.87" x2="298.3" y2="303.06"/><line class="cls-1" x1="156.56" y1="248.51" x2="274.67" y2="316.7"/><line class="cls-1" x1="156.56" y1="275.79" x2="274.67" y2="343.98"/><line class="cls-1" x1="132.93" y1="289.42" x2="251.05" y2="357.62"/><line class="cls-1" x1="132.93" y1="371.26" x2="251.05" y2="439.46"/><line class="cls-1" x1="109.31" y1="384.9" x2="227.43" y2="453.1"/><line class="cls-1" x1="109.31" y1="575.85" x2="227.43" y2="644.05"/><line class="cls-1" x1="132.93" y1="698.6" x2="251.05" y2="766.8"/><line class="cls-1" x1="345.55" y1="521.29" x2="345.55" y2="439.46"/><line class="cls-1" x1="605.41" y1="371.26" x2="676.29" y2="330.34"/><line class="cls-1" x1="251.05" y1="466.73" x2="251.05" y2="575.85"/><line class="cls-1" x1="251.05" y1="575.85" x2="345.55" y2="521.29"/><line class="cls-1" x1="581.78" y1="357.62" x2="581.78" y2="494.01"/><line class="cls-1" x1="227.43" y1="562.21" x2="227.43" y2="644.05"/><line class="cls-1" x1="463.67" y1="343.98" x2="463.67" y2="425.82"/><polyline class="cls-1" points="416.42 480.37 416.42 507.65 416.42 560.48"/><line class="cls-1" x1="652.66" y1="153.03" x2="487.29" y2="248.51"/><line class="cls-1" x1="487.29" y1="275.79" x2="652.66" y2="180.31"/><line class="cls-1" x1="463.67" y1="262.15" x2="416.42" y2="289.42"/><line class="cls-1" x1="392.79" y1="357.62" x2="676.28" y2="193.95"/><line class="cls-1" x1="321.92" y1="425.82" x2="558.17" y2="289.42"/><line class="cls-1" x1="605.4" y1="262.15" x2="699.9" y2="207.59"/><line class="cls-1" x1="605.41" y1="262.15" x2="605.41" y2="371.26"/><line class="cls-1" x1="416.42" y1="560.48" x2="534.54" y2="628.68"/><line class="cls-1" x1="321.92" y1="751.43" x2="321.92" y2="534.93"/><polyline class="cls-1" points="109.31 712.24 156.56 739.52 274.68 807.72"/><line class="cls-1" x1="405.43" y1="568.55" x2="547.17" y2="650.39"/><line class="cls-1" x1="321.94" y1="615.03" x2="416.42" y2="560.48"/><line class="cls-1" x1="358.75" y1="731.58" x2="321.92" y2="752.84"/><line class="cls-1" x1="393.96" y1="577.11" x2="512.08" y2="645.3"/><line class="cls-1" x1="512.08" y1="645.3" x2="391.63" y2="714.85"/><line class="cls-1" x1="512.08" y1="670.65" x2="391.63" y2="740.19"/><line class="cls-1" x1="380.98" y1="1060.04" x2="380.98" y2="1087.32"/><line class="cls-1" x1="404.61" y1="1073.68" x2="380.98" y2="1087.32"/><line class="cls-1" x1="380.98" y1="1032.76" x2="380.98" y2="1060.04"/><line class="cls-1" x1="404.61" y1="1046.4" x2="380.98" y2="1060.04"/><line class="cls-1" x1="388.27" y1="1164.95" x2="388.27" y2="1192.23"/><line class="cls-1" x1="404.61" y1="855.45" x2="404.61" y2="882.73"/><line class="cls-1" x1="428.23" y1="869.09" x2="404.61" y2="882.73"/><line class="cls-1" x1="404.61" y1="882.73" x2="404.61" y2="910.01"/><line class="cls-1" x1="428.23" y1="896.37" x2="404.61" y2="910.01"/><line class="cls-1" x1="392.79" y1="834.99" x2="416.42" y2="821.36"/><line class="cls-1" x1="392.79" y1="834.99" x2="392.79" y2="848.63"/><line class="cls-1" x1="416.42" y1="821.36" x2="428.23" y2="828.18"/><line class="cls-1" x1="428.23" y1="828.18" x2="404.61" y2="841.81"/><line class="cls-1" x1="428.23" y1="841.81" x2="404.61" y2="855.45"/><line class="cls-1" x1="404.61" y1="841.81" x2="392.79" y2="834.99"/><line class="cls-1" x1="640.84" y1="910.01" x2="640.84" y2="937.29"/><line class="cls-1" x1="664.47" y1="923.65" x2="640.84" y2="937.29"/><line class="cls-1" x1="640.84" y1="937.29" x2="640.84" y2="964.57"/><line class="cls-1" x1="664.47" y1="950.93" x2="640.84" y2="964.57"/><line class="cls-1" x1="369.17" y1="821.36" x2="392.79" y2="807.72"/><line class="cls-1" x1="392.79" y1="834.99" x2="369.17" y2="821.36"/><line class="cls-1" x1="392.79" y1="848.63" x2="369.17" y2="834.99"/><line class="cls-1" x1="640.84" y1="773.62" x2="640.84" y2="800.9"/><line class="cls-1" x1="664.47" y1="787.26" x2="640.84" y2="800.9"/><line class="cls-1" x1="652.66" y1="684.96" x2="664.47" y2="691.78"/><line class="cls-1" x1="664.47" y1="691.78" x2="640.84" y2="705.42"/><line class="cls-1" x1="664.47" y1="705.42" x2="640.84" y2="719.06"/><line class="cls-1" x1="640.84" y1="705.42" x2="629.03" y2="698.6"/><line class="cls-1" x1="640.84" y1="828.18" x2="640.84" y2="855.45"/><line class="cls-1" x1="664.47" y1="841.81" x2="640.84" y2="855.45"/><line class="cls-1" x1="640.84" y1="800.9" x2="640.84" y2="828.18"/><line class="cls-1" x1="664.47" y1="814.54" x2="640.84" y2="828.18"/><line class="cls-1" x1="605.41" y1="684.96" x2="581.78" y2="671.32"/><line class="cls-1" x1="605.41" y1="698.6" x2="581.78" y2="684.96"/><line class="cls-1" x1="404.61" y1="937.29" x2="404.61" y2="964.57"/><line class="cls-1" x1="428.23" y1="950.93" x2="404.61" y2="964.57"/><line class="cls-1" x1="581.78" y1="548.57" x2="652.66" y2="589.49"/><line class="cls-1" x1="652.66" y1="589.49" x2="593.6" y2="623.59"/><line class="cls-1" x1="558.15" y1="671.33" x2="357.36" y2="787.26"/><line class="cls-1" x1="251.05" y1="821.36" x2="85.68" y2="725.88"/><line class="cls-1" x1="404.61" y1="991.85" x2="404.61" y2="1019.12"/><line class="cls-1" x1="404.61" y1="991.85" x2="380.98" y2="1005.49"/><line class="cls-1" x1="380.98" y1="1005.49" x2="380.98" y2="1032.76"/><line class="cls-1" x1="404.61" y1="1019.12" x2="380.98" y2="1032.76"/><line class="cls-1" x1="640.84" y1="746.34" x2="640.84" y2="773.62"/><line class="cls-1" x1="664.47" y1="759.98" x2="640.84" y2="773.62"/><line class="cls-1" x1="640.84" y1="855.45" x2="640.84" y2="882.73"/><line class="cls-1" x1="664.47" y1="869.09" x2="640.84" y2="882.73"/><line class="cls-1" x1="558.16" y1="630.41" x2="581.78" y2="616.77"/><line class="cls-1" x1="558.16" y1="630.41" x2="558.16" y2="657.68"/><line class="cls-1" x1="593.6" y1="623.59" x2="569.97" y2="637.23"/><line class="cls-1" x1="569.97" y1="637.23" x2="569.97" y2="664.5"/><line class="cls-1" x1="593.6" y1="650.86" x2="569.97" y2="664.5"/><line class="cls-1" x1="569.97" y1="637.23" x2="558.16" y2="630.41"/><line class="cls-1" x1="640.84" y1="882.73" x2="640.84" y2="910.01"/><line class="cls-1" x1="664.47" y1="896.37" x2="640.84" y2="910.01"/><line class="cls-1" x1="640.84" y1="964.57" x2="640.84" y2="991.85"/><line class="cls-1" x1="664.47" y1="978.21" x2="640.84" y2="991.85"/><line class="cls-1" x1="640.84" y1="991.85" x2="629.03" y2="985.03"/><line class="cls-1" x1="404.61" y1="910.01" x2="404.61" y2="937.29"/><line class="cls-1" x1="428.23" y1="923.65" x2="404.61" y2="937.29"/><line class="cls-1" x1="404.61" y1="964.57" x2="404.61" y2="991.85"/><line class="cls-1" x1="428.23" y1="978.21" x2="404.61" y2="991.85"/><line class="cls-1" x1="400.8" y1="1708.82" x2="400.8" y2="1545.15"/><line class="cls-1" x1="660.66" y1="1340.56" x2="660.66" y2="1395.12"/><line class="cls-1" x1="660.66" y1="1340.56" x2="637.04" y2="1326.92"/><line class="cls-1" x1="637.04" y1="1326.92" x2="400.8" y2="1463.31"/><line class="cls-1" x1="424.43" y1="1476.95" x2="660.66" y2="1340.56"/><line class="cls-1" x1="648.13" y1="1014.92" x2="648.13" y2="1042.19"/><line class="cls-1" x1="648.13" y1="987.64" x2="648.13" y2="1014.92"/><line class="cls-1" x1="648.13" y1="1014.92" x2="636.32" y2="1008.1"/><line class="cls-1" x1="345.55" y1="807.72" x2="369.17" y2="794.08"/><line class="cls-1" x1="369.17" y1="821.36" x2="345.55" y2="807.72"/><line class="cls-1" x1="321.92" y1="766.8" x2="321.92" y2="794.08"/><line class="cls-1" x1="357.36" y1="759.98" x2="333.73" y2="773.62"/><line class="cls-1" x1="333.73" y1="773.62" x2="333.73" y2="800.9"/><line class="cls-1" x1="357.36" y1="787.26" x2="333.73" y2="800.9"/><line class="cls-1" x1="605.41" y1="684.96" x2="629.03" y2="671.32"/><line class="cls-1" x1="629.03" y1="698.6" x2="605.41" y2="684.96"/><line class="cls-1" x1="629.03" y1="712.24" x2="605.41" y2="698.6"/><line class="cls-1" x1="97.5" y1="1250.99" x2="97.5" y2="1765.57"/><line class="cls-1" x1="191.99" y1="1196.44" x2="191.99" y2="1711.02"/><line class="cls-1" x1="711.72" y1="596.3" x2="758.96" y2="569.03"/><line class="cls-1" x1="664.47" y1="514.47" x2="758.96" y2="569.03"/><line class="cls-1" x1="26.62" y1="910.01" x2="121.12" y2="964.57"/><line class="cls-1" x1="97.5" y1="978.21" x2="3" y2="923.65"/><line class="cls-1" x1="26.62" y1="882.73" x2="121.12" y2="937.29"/><line class="cls-1" x1="270.87" y1="914.63" x2="270.87" y2="1756.56"/><line class="cls-1" x1="617.22" y1="541.75" x2="766.97" y2="628.21"/><line class="cls-1" x1="766.97" y1="628.21" x2="766.97" y2="1379.05"/><line class="cls-1" x1="766.97" y1="628.21" x2="660.67" y2="689.58"/><line class="cls-1" x1="625.24" y1="710.04" x2="424.43" y2="825.97"/><line class="cls-1" x1="388.27" y1="1137.67" x2="388.27" y2="1164.95"/><line class="cls-1" x1="388.27" y1="1164.95" x2="376.46" y2="1158.13"/><line class="cls-1" x1="640.84" y1="719.06" x2="640.84" y2="746.34"/><line class="cls-1" x1="664.47" y1="732.7" x2="640.84" y2="746.34"/><line class="cls-1" x1="380.98" y1="1087.32" x2="380.98" y2="1114.6"/><line class="cls-1" x1="404.61" y1="1100.96" x2="380.98" y2="1114.6"/><line class="cls-1" x1="380.98" y1="1114.6" x2="380.98" y2="1141.88"/><line class="cls-1" x1="404.61" y1="1128.24" x2="380.98" y2="1141.88"/><line class="cls-1" x1="380.98" y1="1141.88" x2="369.17" y2="1135.06"/></g></g></svg>