<svg xmlns="http://www.w3.org/2000/svg" viewBox="0 0 2001.5 2001.5"><defs><style>.cls-1{fill:none;stroke:#000;stroke-linecap:round;stroke-linejoin:round;stroke-width:1.5px;}.cls-2{fill:#232323;}</style></defs><title>Asset 1NET</title><g id="Layer_2" data-name="Layer 2"><g id="Line"><line class="cls-1" x1="1196.84" y1="1707.89" x2="1217.99" y2="2000.75"/><line class="cls-1" x1="1248.43" y1="1657.01" x2="1196.84" y2="1707.89"/><line class="cls-1" x1="1538.54" y1="1916.6" x2="1248.43" y2="1657.01"/><line class="cls-1" x1="1528.98" y1="2000.75" x2="1538.54" y2="1916.6"/><line class="cls-1" x1="1538.54" y1="1916.6" x2="1528.98" y2="2000.75"/><line class="cls-1" x1="1649.15" y1="1628.69" x2="1538.54" y2="1916.6"/><line class="cls-1" x1="1680.13" y1="1614.23" x2="1649.15" y2="1628.69"/><line class="cls-1" x1="2000.75" y1="1802.82" x2="1680.13" y2="1614.23"/><line class="cls-1" x1="1644.31" y1="1017.05" x2="1637.96" y2="1013.85"/><line class="cls-1" x1="1576.59" y1="1246.69" x2="1644.31" y2="1017.05"/><line class="cls-1" x1="1414.81" y1="1303.03" x2="1576.59" y2="1246.69"/><line class="cls-1" x1="1219.19" y1="1311.78" x2="1414.81" y2="1303.03"/><line class="cls-1" x1="1111.99" y1="1217.48" x2="1219.19" y2="1311.78"/><line class="cls-1" x1="1262.84" y1="1047.1" x2="1111.99" y2="1217.48"/><line class="cls-1" x1="1637.96" y1="1013.85" x2="1262.84" y2="1047.1"/><line class="cls-1" x1="1294.15" y1="1573.13" x2="1623.38" y2="1619.87"/><line class="cls-1" x1="1219.19" y1="1311.78" x2="1294.15" y2="1573.13"/><line class="cls-1" x1="1414.81" y1="1303.03" x2="1219.19" y2="1311.78"/><line class="cls-1" x1="1623.38" y1="1619.87" x2="1414.81" y2="1303.03"/><line class="cls-1" x1="1432.73" y1="693.74" x2="1313.13" y2="617.98"/><line class="cls-1" x1="1637.96" y1="1013.85" x2="1432.73" y2="693.74"/><line class="cls-1" x1="1262.84" y1="1047.1" x2="1637.96" y2="1013.85"/><line class="cls-1" x1="1313.13" y1="617.98" x2="1262.84" y2="1047.1"/><line class="cls-1" x1="1623.38" y1="1619.87" x2="1649.15" y2="1628.69"/><line class="cls-1" x1="1414.81" y1="1303.03" x2="1623.38" y2="1619.87"/><line class="cls-1" x1="1576.59" y1="1246.69" x2="1414.81" y2="1303.03"/><line class="cls-1" x1="1713.16" y1="1416.86" x2="1576.59" y2="1246.69"/><line class="cls-1" x1="1716.12" y1="1519.16" x2="1713.16" y2="1416.86"/><line class="cls-1" x1="1680.13" y1="1614.23" x2="1716.12" y2="1519.16"/><line class="cls-1" x1="1649.15" y1="1628.69" x2="1680.13" y2="1614.23"/><line class="cls-1" x1="1023.3" y1="1211.3" x2="1111.99" y2="1217.48"/><line class="cls-1" x1="840.41" y1="1032.14" x2="1023.3" y2="1211.3"/><line class="cls-1" x1="1288.27" y1="575.25" x2="840.41" y2="1032.14"/><line class="cls-1" x1="1313.13" y1="617.98" x2="1288.27" y2="575.25"/><line class="cls-1" x1="1262.84" y1="1047.1" x2="1313.13" y2="617.98"/><line class="cls-1" x1="1111.99" y1="1217.48" x2="1262.84" y2="1047.1"/><line class="cls-1" x1="1967.55" y1="404.49" x2="2000.75" y2="403.77"/><line class="cls-1" x1="1642.82" y1="0.75" x2="1967.55" y2="404.49"/><line class="cls-1" x1="1288.27" y1="575.25" x2="1162.56" y2="0.75"/><line class="cls-1" x1="840.41" y1="1032.14" x2="1288.27" y2="575.25"/><line class="cls-1" x1="0.75" y1="617.14" x2="840.41" y2="1032.14"/><line class="cls-1" x1="1716.12" y1="1519.16" x2="2000.75" y2="1450.93"/><line class="cls-1" x1="1713.16" y1="1416.86" x2="1716.12" y2="1519.16"/><line class="cls-1" x1="1943.75" y1="1185.99" x2="1713.16" y2="1416.86"/><line class="cls-1" x1="2000.75" y1="1185.99" x2="1943.75" y2="1185.99"/><line class="cls-1" x1="1809.65" y1="677.61" x2="1762.02" y2="482.6"/><line class="cls-1" x1="1432.73" y1="693.74" x2="1809.65" y2="677.61"/><line class="cls-1" x1="1313.13" y1="617.98" x2="1432.73" y2="693.74"/><line class="cls-1" x1="1288.27" y1="575.25" x2="1313.13" y2="617.98"/><line class="cls-1" x1="1162.56" y1="0.75" x2="1288.27" y2="575.25"/><line class="cls-1" x1="1762.02" y1="482.6" x2="1257.98" y2="0.75"/><line class="cls-1" x1="1762.02" y1="482.6" x2="1967.55" y2="404.49"/><line class="cls-1" x1="1257.98" y1="0.75" x2="1762.02" y2="482.6"/><line class="cls-1" x1="1967.55" y1="404.49" x2="1642.82" y2="0.75"/><line class="cls-1" x1="1868.24" y1="745.2" x2="2000.75" y2="757.02"/><line class="cls-1" x1="1809.65" y1="677.61" x2="1868.24" y2="745.2"/><line class="cls-1" x1="1762.02" y1="482.6" x2="1809.65" y2="677.61"/><line class="cls-1" x1="1967.55" y1="404.49" x2="1762.02" y2="482.6"/><line class="cls-1" x1="2000.75" y1="403.77" x2="1967.55" y2="404.49"/><line class="cls-1" x1="1656.62" y1="1014.28" x2="1868.24" y2="745.2"/><line class="cls-1" x1="1644.31" y1="1017.05" x2="1656.62" y2="1014.28"/><line class="cls-1" x1="1637.96" y1="1013.85" x2="1644.31" y2="1017.05"/><line class="cls-1" x1="1432.73" y1="693.74" x2="1637.96" y2="1013.85"/><line class="cls-1" x1="1809.65" y1="677.61" x2="1432.73" y2="693.74"/><line class="cls-1" x1="1868.24" y1="745.2" x2="1809.65" y2="677.61"/><line class="cls-1" x1="1943.75" y1="1185.99" x2="2000.75" y2="1185.99"/><line class="cls-1" x1="1656.62" y1="1014.28" x2="1943.75" y2="1185.99"/><line class="cls-1" x1="1868.24" y1="745.2" x2="1656.62" y2="1014.28"/><line class="cls-1" x1="2000.75" y1="757.02" x2="1868.24" y2="745.2"/><line class="cls-1" x1="1680.13" y1="1614.23" x2="2000.75" y2="1802.82"/><line class="cls-1" x1="1716.12" y1="1519.16" x2="1680.13" y2="1614.23"/><line class="cls-1" x1="2000.75" y1="1450.93" x2="1716.12" y2="1519.16"/><line class="cls-1" x1="1943.75" y1="1185.99" x2="1656.62" y2="1014.28"/><line class="cls-1" x1="1713.16" y1="1416.86" x2="1943.75" y2="1185.99"/><line class="cls-1" x1="1576.59" y1="1246.69" x2="1713.16" y2="1416.86"/><line class="cls-1" x1="1644.31" y1="1017.05" x2="1576.59" y2="1246.69"/><line class="cls-1" x1="1656.62" y1="1014.28" x2="1644.31" y2="1017.05"/><line class="cls-1" x1="660.28" y1="1639.19" x2="0.75" y2="1889.83"/><line class="cls-1" x1="444.99" y1="2000.75" x2="660.28" y2="1639.19"/><line class="cls-1" x1="680.91" y1="1622.59" x2="0.75" y2="958.3"/><line class="cls-1" x1="660.28" y1="1639.19" x2="680.91" y2="1622.59"/><line class="cls-1" x1="0.75" y1="1889.83" x2="660.28" y2="1639.19"/><line class="cls-1" x1="660.28" y1="1639.19" x2="444.99" y2="2000.75"/><line class="cls-1" x1="680.91" y1="1622.59" x2="660.28" y2="1639.19"/><line class="cls-1" x1="780.59" y1="1638.63" x2="680.91" y2="1622.59"/><line class="cls-1" x1="805.22" y1="1673.47" x2="780.59" y2="1638.63"/><line class="cls-1" x1="850.92" y1="2000.75" x2="805.22" y2="1673.47"/><line class="cls-1" x1="780.59" y1="1638.63" x2="1023.3" y2="1211.3"/><line class="cls-1" x1="680.91" y1="1622.59" x2="780.59" y2="1638.63"/><line class="cls-1" x1="0.75" y1="958.3" x2="680.91" y2="1622.59"/><line class="cls-1" x1="840.41" y1="1032.14" x2="0.75" y2="617.14"/><line class="cls-1" x1="1023.3" y1="1211.3" x2="840.41" y2="1032.14"/><line class="cls-1" x1="805.22" y1="1673.47" x2="850.92" y2="2000.75"/><line class="cls-1" x1="1196.84" y1="1707.89" x2="805.22" y2="1673.47"/><line class="cls-1" x1="1217.99" y1="2000.75" x2="1196.84" y2="1707.89"/><line class="cls-1" x1="1294.15" y1="1573.13" x2="1248.43" y2="1657.01"/><line class="cls-1" x1="1623.38" y1="1619.87" x2="1294.15" y2="1573.13"/><line class="cls-1" x1="1649.15" y1="1628.69" x2="1623.38" y2="1619.87"/><line class="cls-1" x1="1538.54" y1="1916.6" x2="1649.15" y2="1628.69"/><line class="cls-1" x1="1248.43" y1="1657.01" x2="1538.54" y2="1916.6"/><line class="cls-1" x1="805.22" y1="1673.47" x2="1196.84" y2="1707.89"/><line class="cls-1" x1="780.59" y1="1638.63" x2="805.22" y2="1673.47"/><line class="cls-1" x1="1023.3" y1="1211.3" x2="780.59" y2="1638.63"/><line class="cls-1" x1="1111.99" y1="1217.48" x2="1023.3" y2="1211.3"/><line class="cls-1" x1="1219.19" y1="1311.78" x2="1111.99" y2="1217.48"/><line class="cls-1" x1="1294.15" y1="1573.13" x2="1219.19" y2="1311.78"/><line class="cls-1" x1="1248.43" y1="1657.01" x2="1294.15" y2="1573.13"/><line class="cls-1" x1="1196.84" y1="1707.89" x2="1248.43" y2="1657.01"/></g><g id="Circle"><circle class="cls-2" cx="1538.54" cy="1916.6" r="21.43"/><circle class="cls-2" cx="1248.43" cy="1657.01" r="21.43"/><path class="cls-2" d="M1218.27,1707.89a21.43,21.43,0,1,0-21.43,21.43A21.44,21.44,0,0,0,1218.27,1707.89Z"/><path class="cls-2" d="M1701.55,1614.23a21.43,21.43,0,1,0-21.42,21.43A21.42,21.42,0,0,0,1701.55,1614.23Z"/><circle class="cls-2" cx="1649.15" cy="1628.69" r="21.43"/><circle class="cls-2" cx="1538.54" cy="1916.6" r="21.43"/><circle class="cls-2" cx="1637.96" cy="1013.85" r="21.43"/><path class="cls-2" d="M1284.27,1047.1a21.43,21.43,0,1,0-21.43,21.42A21.43,21.43,0,0,0,1284.27,1047.1Z"/><circle class="cls-2" cx="1111.99" cy="1217.48" r="21.43"/><circle class="cls-2" cx="1219.19" cy="1311.78" r="21.43"/><path class="cls-2" d="M1436.24,1303a21.43,21.43,0,1,0-21.43,21.43A21.43,21.43,0,0,0,1436.24,1303Z"/><path class="cls-2" d="M1598,1246.69a21.43,21.43,0,1,0-21.43,21.43A21.42,21.42,0,0,0,1598,1246.69Z"/><path class="cls-2" d="M1665.74,1017.05a21.43,21.43,0,1,0-21.43,21.43A21.44,21.44,0,0,0,1665.74,1017.05Z"/><circle class="cls-2" cx="1623.38" cy="1619.87" r="21.43"/><path class="cls-2" d="M1436.24,1303a21.43,21.43,0,1,0-21.43,21.43A21.43,21.43,0,0,0,1436.24,1303Z"/><circle class="cls-2" cx="1219.19" cy="1311.78" r="21.43"/><path class="cls-2" d="M1315.58,1573.13a21.43,21.43,0,1,0-21.43,21.43A21.43,21.43,0,0,0,1315.58,1573.13Z"/><path class="cls-2" d="M1334.56,618a21.43,21.43,0,1,0-21.43,21.42A21.43,21.43,0,0,0,1334.56,618Z"/><path class="cls-2" d="M1284.27,1047.1a21.43,21.43,0,1,0-21.43,21.42A21.43,21.43,0,0,0,1284.27,1047.1Z"/><circle class="cls-2" cx="1637.96" cy="1013.85" r="21.43"/><circle class="cls-2" cx="1432.73" cy="693.74" r="21.43"/><circle class="cls-2" cx="1649.15" cy="1628.69" r="21.43"/><path class="cls-2" d="M1701.55,1614.23a21.43,21.43,0,1,0-21.42,21.43A21.42,21.42,0,0,0,1701.55,1614.23Z"/><circle class="cls-2" cx="1716.12" cy="1519.16" r="21.43"/><circle class="cls-2" cx="1713.16" cy="1416.86" r="21.43"/><path class="cls-2" d="M1598,1246.69a21.43,21.43,0,1,0-21.43,21.43A21.42,21.42,0,0,0,1598,1246.69Z"/><path class="cls-2" d="M1436.24,1303a21.43,21.43,0,1,0-21.43,21.43A21.43,21.43,0,0,0,1436.24,1303Z"/><circle class="cls-2" cx="1623.38" cy="1619.87" r="21.43"/><circle class="cls-2" cx="1111.99" cy="1217.48" r="21.43"/><path class="cls-2" d="M1284.27,1047.1a21.43,21.43,0,1,0-21.43,21.42A21.43,21.43,0,0,0,1284.27,1047.1Z"/><path class="cls-2" d="M1334.56,618a21.43,21.43,0,1,0-21.43,21.42A21.43,21.43,0,0,0,1334.56,618Z"/><circle class="cls-2" cx="1288.27" cy="575.25" r="21.43"/><circle class="cls-2" cx="840.41" cy="1032.14" r="21.43"/><path class="cls-2" d="M1044.72,1211.3a21.43,21.43,0,1,0-21.42,21.43A21.42,21.42,0,0,0,1044.72,1211.3Z"/><circle class="cls-2" cx="1967.55" cy="404.49" r="21.43"/><circle class="cls-2" cx="840.41" cy="1032.14" r="21.43"/><circle class="cls-2" cx="1288.27" cy="575.25" r="21.43"/><circle class="cls-2" cx="1943.75" cy="1185.99" r="21.43"/><circle class="cls-2" cx="1713.16" cy="1416.86" r="21.43"/><circle class="cls-2" cx="1716.12" cy="1519.16" r="21.43"/><circle class="cls-2" cx="1762.02" cy="482.6" r="21.43"/><circle class="cls-2" cx="1288.27" cy="575.25" r="21.43"/><path class="cls-2" d="M1334.56,618a21.43,21.43,0,1,0-21.43,21.42A21.43,21.43,0,0,0,1334.56,618Z"/><circle class="cls-2" cx="1432.73" cy="693.74" r="21.43"/><circle class="cls-2" cx="1809.65" cy="677.61" r="21.43"/><circle class="cls-2" cx="1967.55" cy="404.49" r="21.43"/><circle class="cls-2" cx="1762.02" cy="482.6" r="21.43"/><circle class="cls-2" cx="1967.55" cy="404.49" r="21.43"/><circle class="cls-2" cx="1762.02" cy="482.6" r="21.43"/><circle class="cls-2" cx="1809.65" cy="677.61" r="21.43"/><path class="cls-2" d="M1889.67,745.2a21.43,21.43,0,1,0-21.43,21.43A21.44,21.44,0,0,0,1889.67,745.2Z"/><path class="cls-2" d="M1889.67,745.2a21.43,21.43,0,1,0-21.43,21.43A21.44,21.44,0,0,0,1889.67,745.2Z"/><circle class="cls-2" cx="1809.65" cy="677.61" r="21.43"/><circle class="cls-2" cx="1432.73" cy="693.74" r="21.43"/><circle class="cls-2" cx="1637.96" cy="1013.85" r="21.43"/><path class="cls-2" d="M1665.74,1017.05a21.43,21.43,0,1,0-21.43,21.43A21.44,21.44,0,0,0,1665.74,1017.05Z"/><path class="cls-2" d="M1678,1014.28a21.43,21.43,0,1,0-21.42,21.43A21.43,21.43,0,0,0,1678,1014.28Z"/><path class="cls-2" d="M1889.67,745.2a21.43,21.43,0,1,0-21.43,21.43A21.44,21.44,0,0,0,1889.67,745.2Z"/><path class="cls-2" d="M1678,1014.28a21.43,21.43,0,1,0-21.42,21.43A21.43,21.43,0,0,0,1678,1014.28Z"/><circle class="cls-2" cx="1943.75" cy="1185.99" r="21.43"/><circle class="cls-2" cx="1716.12" cy="1519.16" r="21.43"/><path class="cls-2" d="M1701.55,1614.23a21.43,21.43,0,1,0-21.42,21.43A21.42,21.42,0,0,0,1701.55,1614.23Z"/><path class="cls-2" d="M1678,1014.28a21.43,21.43,0,1,0-21.42,21.43A21.43,21.43,0,0,0,1678,1014.28Z"/><path class="cls-2" d="M1665.74,1017.05a21.43,21.43,0,1,0-21.43,21.43A21.44,21.44,0,0,0,1665.74,1017.05Z"/><path class="cls-2" d="M1598,1246.69a21.43,21.43,0,1,0-21.43,21.43A21.42,21.42,0,0,0,1598,1246.69Z"/><circle class="cls-2" cx="1713.16" cy="1416.86" r="21.43"/><circle class="cls-2" cx="1943.75" cy="1185.99" r="21.43"/><circle class="cls-2" cx="660.28" cy="1639.19" r="21.43"/><circle class="cls-2" cx="660.28" cy="1639.19" r="21.43"/><circle class="cls-2" cx="680.91" cy="1622.59" r="21.43"/><circle class="cls-2" cx="805.22" cy="1673.47" r="21.43"/><path class="cls-2" d="M802,1638.63a21.43,21.43,0,1,0-21.42,21.43A21.43,21.43,0,0,0,802,1638.63Z"/><circle class="cls-2" cx="680.91" cy="1622.59" r="21.43"/><circle class="cls-2" cx="660.28" cy="1639.19" r="21.43"/><path class="cls-2" d="M1044.72,1211.3a21.43,21.43,0,1,0-21.42,21.43A21.42,21.42,0,0,0,1044.72,1211.3Z"/><circle class="cls-2" cx="840.41" cy="1032.14" r="21.43"/><circle class="cls-2" cx="680.91" cy="1622.59" r="21.43"/><path class="cls-2" d="M802,1638.63a21.43,21.43,0,1,0-21.42,21.43A21.43,21.43,0,0,0,802,1638.63Z"/><path class="cls-2" d="M1218.27,1707.89a21.43,21.43,0,1,0-21.43,21.43A21.44,21.44,0,0,0,1218.27,1707.89Z"/><circle class="cls-2" cx="805.22" cy="1673.47" r="21.43"/><circle class="cls-2" cx="1248.43" cy="1657.01" r="21.43"/><circle class="cls-2" cx="1538.54" cy="1916.6" r="21.43"/><circle class="cls-2" cx="1649.15" cy="1628.69" r="21.43"/><circle class="cls-2" cx="1623.38" cy="1619.87" r="21.43"/><path class="cls-2" d="M1315.58,1573.13a21.43,21.43,0,1,0-21.43,21.43A21.43,21.43,0,0,0,1315.58,1573.13Z"/><path class="cls-2" d="M1218.27,1707.89a21.43,21.43,0,1,0-21.43,21.43A21.44,21.44,0,0,0,1218.27,1707.89Z"/><circle class="cls-2" cx="1248.43" cy="1657.01" r="21.43"/><path class="cls-2" d="M1315.58,1573.13a21.43,21.43,0,1,0-21.43,21.43A21.43,21.43,0,0,0,1315.58,1573.13Z"/><circle class="cls-2" cx="1219.19" cy="1311.78" r="21.43"/><circle class="cls-2" cx="1111.99" cy="1217.48" r="21.43"/><path class="cls-2" d="M1044.72,1211.3a21.43,21.43,0,1,0-21.42,21.43A21.42,21.42,0,0,0,1044.72,1211.3Z"/><path class="cls-2" d="M802,1638.63a21.43,21.43,0,1,0-21.42,21.43A21.43,21.43,0,0,0,802,1638.63Z"/><circle class="cls-2" cx="805.22" cy="1673.47" r="21.43"/></g></g></svg>