<svg xmlns="http://www.w3.org/2000/svg" viewBox="0 0 1357.25 992.53"><defs><style>.cls-1{fill:none;}.cls-1,.cls-2{stroke:#000;stroke-linecap:round;stroke-linejoin:round;stroke-width:10px;}.cls-2{stroke-dasharray:5.67 5.67;}</style></defs><title>Asset 3VisionZ</title><g id="Layer_2" data-name="Layer 2"><g id="Make2D::Visible::Curves"><line class="cls-1" x1="572.26" y1="864.76" x2="572.26" y2="946.59"/><line class="cls-1" x1="1068.64" y1="332.5" x2="926.8" y2="414.39"/><line class="cls-1" x1="926.8" y1="741.9" x2="926.8" y2="660.02"/><line class="cls-1" x1="572.26" y1="700.96" x2="146.81" y2="455.32"/><line class="cls-1" x1="501.36" y1="823.77" x2="146.81" y2="619.08"/><line class="cls-1" x1="5" y1="455.32" x2="75.91" y2="414.39"/><line class="cls-1" x1="146.81" y1="455.32" x2="75.91" y2="414.39"/><line class="cls-1" x1="5" y1="619.08" x2="5" y2="455.32"/><line class="cls-1" x1="75.91" y1="496.26" x2="5" y2="455.32"/><line class="cls-1" x1="75.91" y1="660.02" x2="75.91" y2="578.14"/><line class="cls-1" x1="855.9" y1="209.69" x2="784.99" y2="168.75"/><line class="cls-1" x1="75.91" y1="660.02" x2="5" y2="619.08"/><line class="cls-1" x1="1068.62" y1="332.51" x2="855.9" y2="209.69"/><line class="cls-1" x1="1210.42" y1="250.62" x2="855.9" y2="45.94"/><line class="cls-1" x1="146.81" y1="619.08" x2="75.91" y2="578.14"/><line class="cls-1" x1="1139.53" y1="619.08" x2="1210.43" y2="578.14"/><line class="cls-1" x1="1210.43" y1="578.14" x2="1210.43" y2="414.39"/><line class="cls-1" x1="784.99" y1="823.77" x2="855.9" y2="782.84"/><line class="cls-1" x1="855.9" y1="209.69" x2="784.99" y2="250.63"/><line class="cls-1" x1="714.08" y1="45.94" x2="784.99" y2="5"/><line class="cls-1" x1="855.9" y1="45.94" x2="784.99" y2="5"/><line class="cls-1" x1="784.99" y1="250.63" x2="714.08" y2="209.69"/><line class="cls-1" x1="714.08" y1="209.69" x2="714.08" y2="45.94"/><line class="cls-1" x1="784.99" y1="86.88" x2="714.08" y2="45.94"/><line class="cls-1" x1="784.99" y1="250.63" x2="784.99" y2="168.75"/><line class="cls-1" x1="855.9" y1="782.84" x2="855.9" y2="619.08"/><line class="cls-1" x1="714.08" y1="864.71" x2="784.99" y2="823.77"/><line class="cls-1" x1="1068.62" y1="660.02" x2="1139.53" y2="619.08"/><line class="cls-1" x1="1210.43" y1="250.63" x2="1068.64" y2="332.5"/><line class="cls-1" x1="572.26" y1="619.08" x2="643.17" y2="660.02"/><line class="cls-1" x1="855.9" y1="455.32" x2="926.8" y2="496.26"/><line class="cls-1" x1="643.17" y1="823.77" x2="643.17" y2="987.53"/><line class="cls-1" x1="926.8" y1="496.26" x2="997.71" y2="537.2"/><line class="cls-1" x1="926.8" y1="414.39" x2="997.71" y2="455.32"/><line class="cls-1" x1="1210.43" y1="250.63" x2="1281.34" y2="291.57"/><line class="cls-1" x1="997.71" y1="619.08" x2="997.71" y2="782.84"/><line class="cls-1" x1="1281.34" y1="291.57" x2="1352.25" y2="332.51"/><line class="cls-1" x1="1281.34" y1="291.57" x2="997.71" y2="455.32"/><line class="cls-1" x1="926.8" y1="496.26" x2="643.17" y2="660.02"/><line class="cls-1" x1="714.08" y1="700.96" x2="855.9" y2="619.08"/><line class="cls-1" x1="926.8" y1="741.9" x2="997.71" y2="782.84"/><line class="cls-1" x1="714.08" y1="864.71" x2="714.08" y2="700.96"/><line class="cls-1" x1="1068.62" y1="496.26" x2="1210.43" y2="414.39"/><line class="cls-1" x1="1068.62" y1="660.02" x2="1068.62" y2="496.26"/><line class="cls-1" x1="572.26" y1="946.59" x2="643.17" y2="987.53"/><line class="cls-1" x1="1139.53" y1="291.57" x2="784.99" y2="86.88"/><line class="cls-1" x1="501.36" y1="823.77" x2="572.26" y2="864.71"/><line class="cls-1" x1="572.26" y1="700.96" x2="643.17" y2="741.9"/><line class="cls-1" x1="501.36" y1="741.9" x2="572.26" y2="782.84"/><line class="cls-1" x1="643.17" y1="660.02" x2="643.17" y2="741.9"/><line class="cls-1" x1="926.8" y1="578.14" x2="926.8" y2="496.26"/><line class="cls-1" x1="997.71" y1="537.2" x2="926.8" y2="578.14"/><line class="cls-1" x1="997.71" y1="455.32" x2="997.71" y2="537.2"/><line class="cls-1" x1="1281.34" y1="373.45" x2="1281.34" y2="291.57"/><line class="cls-1" x1="1352.25" y1="332.51" x2="1281.34" y2="373.45"/><line class="cls-1" x1="1352.25" y1="414.39" x2="1352.25" y2="332.51"/><line class="cls-1" x1="1281.34" y1="455.32" x2="1352.25" y2="414.39"/><line class="cls-1" x1="1281.34" y1="619.08" x2="1281.34" y2="455.32"/><line class="cls-1" x1="997.71" y1="782.84" x2="1281.34" y2="619.08"/><line class="cls-1" x1="926.8" y1="660.02" x2="997.71" y2="619.08"/><line class="cls-1" x1="926.8" y1="823.77" x2="926.8" y2="741.9"/><line class="cls-1" x1="643.17" y1="987.53" x2="926.8" y2="823.77"/><line class="cls-1" x1="572.26" y1="864.71" x2="643.17" y2="823.77"/><line class="cls-1" x1="572.26" y1="782.84" x2="572.26" y2="864.71"/><line class="cls-1" x1="643.17" y1="741.9" x2="572.26" y2="782.84"/><line class="cls-1" x1="572.26" y1="619.08" x2="572.26" y2="700.96"/><line class="cls-1" x1="855.9" y1="455.32" x2="572.26" y2="619.08"/><line class="cls-1" x1="501.36" y1="741.9" x2="75.91" y2="496.26"/><line class="cls-1" x1="926.8" y1="414.39" x2="926.8" y2="496.26"/><line class="cls-1" x1="784.99" y1="823.77" x2="784.99" y2="660.02"/><line class="cls-1" x1="146.81" y1="619.08" x2="75.91" y2="660.02"/><line class="cls-1" x1="1139.53" y1="619.08" x2="1139.53" y2="455.32"/><line class="cls-2" x1="784.99" y1="660.02" x2="714.08" y2="700.96"/></g></g></svg>